<svg cache-id="cc996238bd1e4e9e886dcdb8408b34d3" id="eXfc0HkrAoR1" xmlns="http://www.w3.org/2000/svg" xmlns:xlink="http://www.w3.org/1999/xlink" viewBox="0 0 1200 465" shape-rendering="geometricPrecision" text-rendering="geometricPrecision">
<style><![CDATA[
#eXfc0HkrAoR15_to {animation: eXfc0HkrAoR15_to__to 5000ms linear 1 normal forwards}@keyframes eXfc0HkrAoR15_to__to { 0% {transform: translate(1680.114959px,-415.808442px)} 28% {transform: translate(1680.114959px,-415.808442px)} 40% {transform: translate(999.760925px,16.300018px)} 44% {transform: translate(987.760925px,36.300018px)} 48% {transform: translate(999.760925px,16.300018px)} 100% {transform: translate(999.760925px,16.300018px)}} #eXfc0HkrAoR16_ts {animation: eXfc0HkrAoR16_ts__ts 5000ms linear 1 normal forwards}@keyframes eXfc0HkrAoR16_ts__ts { 0% {transform: translate(216.431541px,142.213863px) scale(0.198595,0.198595)} 16% {transform: translate(216.431541px,142.213863px) scale(1.616282,1.616282)} 24% {transform: translate(216.431541px,142.213863px) scale(1,1)} 100% {transform: translate(216.431541px,142.213863px) scale(1,1)}} #eXfc0HkrAoR16 {animation: eXfc0HkrAoR16_c_o 5000ms linear 1 normal forwards}@keyframes eXfc0HkrAoR16_c_o { 0% {opacity: 0} 16% {opacity: 1} 100% {opacity: 1}} #eXfc0HkrAoR24 {animation: eXfc0HkrAoR24_c_o 5000ms linear 1 normal forwards}@keyframes eXfc0HkrAoR24_c_o { 0% {opacity: 0} 4% {opacity: 0} 36% {opacity: 1} 100% {opacity: 1}} #eXfc0HkrAoR38 {animation: eXfc0HkrAoR38_c_o 5000ms linear 1 normal forwards}@keyframes eXfc0HkrAoR38_c_o { 0% {opacity: 0} 32% {opacity: 0} 60% {opacity: 1} 100% {opacity: 1}} #eXfc0HkrAoR45_tr {animation: eXfc0HkrAoR45_tr__tr 5000ms linear 1 normal forwards}@keyframes eXfc0HkrAoR45_tr__tr { 0% {transform: translate(645.700012px,304.512466px) rotate(-60.403905deg)} 60% {transform: translate(645.700012px,304.512466px) rotate(-60.403905deg)} 88% {transform: translate(645.700012px,304.512466px) rotate(0deg)} 100% {transform: translate(645.700012px,304.512466px) rotate(0deg)}} #eXfc0HkrAoR45 {animation: eXfc0HkrAoR45_c_o 5000ms linear 1 normal forwards}@keyframes eXfc0HkrAoR45_c_o { 0% {opacity: 0} 60% {opacity: 0} 88% {opacity: 1} 100% {opacity: 1}} #eXfc0HkrAoR102_ts {animation: eXfc0HkrAoR102_ts__ts 5000ms linear 1 normal forwards}@keyframes eXfc0HkrAoR102_ts__ts { 0% {transform: translate(830.049988px,282.63752px) scale(0.272632,0.272632)} 40% {transform: translate(830.049988px,282.63752px) scale(0.272632,0.272632)} 72% {transform: translate(830.049988px,282.63752px) scale(1,1)} 100% {transform: translate(830.049988px,282.63752px) scale(1,1)}} #eXfc0HkrAoR102 {animation: eXfc0HkrAoR102_c_o 5000ms linear 1 normal forwards}@keyframes eXfc0HkrAoR102_c_o { 0% {opacity: 0} 52% {opacity: 0} 84% {opacity: 1} 100% {opacity: 1}} #eXfc0HkrAoR240_ts {animation: eXfc0HkrAoR240_ts__ts 5000ms linear 1 normal forwards}@keyframes eXfc0HkrAoR240_ts__ts { 0% {transform: translate(731.200012px,78.400002px) scale(0.263181,0.263181)} 44% {transform: translate(731.200012px,78.400002px) scale(0.263181,0.263181)} 68% {transform: translate(731.200012px,78.400002px) scale(1,1)} 72% {transform: translate(731.200012px,78.400002px) scale(1,1)} 76% {transform: translate(731.200012px,78.400002px) scale(0.958022,0.958022)} 100% {transform: translate(731.200012px,78.400002px) scale(0.958022,0.958022)}} #eXfc0HkrAoR240 {animation: eXfc0HkrAoR240_c_o 5000ms linear 1 normal forwards}@keyframes eXfc0HkrAoR240_c_o { 0% {opacity: 0} 44% {opacity: 0} 70.2% {opacity: 1} 100% {opacity: 1}}
]]></style>
<g transform="translate(-2.59023-3.300018)"><g id="eXfc0HkrAoR15_to" transform="translate(1680.114959,-415.808442)"><path d="M1434.4,38.2l-633,365.5c-113,65.3-257.6,26.5-322.8-86.5v0c-65.3-113-26.5-257.6,86.5-322.8l633-365.5c113-65.3,257.6-26.5,322.8,86.5v0c65.3,113,26.6,257.6-86.5,322.8Z" transform="translate(-999.760925,-16.300018)" fill="#07212d"/></g><g id="eXfc0HkrAoR16_ts" transform="translate(216.431541,142.213863) scale(0.198595,0.198595)"><g id="eXfc0HkrAoR16" transform="translate(-216.431541,-142.213863)" opacity="0"><path d="M174.2,193.1c0-3.1,2.5-5.7,5.7-5.7c3.1,0,5.7,2.5,5.7,5.7c0,3.1-2.5,5.7-5.7,5.7s-5.7-2.5-5.7-5.7" fill="#07212d"/><path d="M172.5,180.4c0-2,1.7-3.7,3.7-3.7s3.7,1.7,3.7,3.7-1.7,3.7-3.7,3.7-3.7-1.6-3.7-3.7" fill="#07212d"/><path d="M172.5,169c0-2.4,2-4.4,4.4-4.4s4.4,2,4.4,4.4-2,4.4-4.4,4.4-4.4-2-4.4-4.4" fill="#07212d"/><path d="M194.6,174.4c-.9-3-4-4.7-7-3.9-3,.9-4.7,4-3.9,7c.9,3,4,4.7,7,3.9c3-.9,4.8-4,3.9-7" fill="#07212d"/><path d="M192.7,161.7c-.6-2-2.6-3.1-4.6-2.5s-3.1,2.6-2.5,4.6s2.6,3.1,4.6,2.5c1.9-.6,3-2.6,2.5-4.6" fill="#07212d"/><path d="M189.5,150.8c-.7-2.3-3.1-3.7-5.5-3-2.3.7-3.7,3.1-3,5.5.7,2.3,3.1,3.7,5.5,3c2.3-.8,3.7-3.2,3-5.5" fill="#07212d"/><path d="M178.3,214.3c-.8-.6-1.1-.8-1.5-.8s-.8.3-.8.9c0,1.9,2.6,5.8,7.6,8.2c2.5,1.7,5.5,3.5,7.5,4c3.9,1,17.9,3.2,30.3-.7.8-.3,1.5-.5,2.2-.8c3.3-1,6.5-2.6,9.5-5.2c1.4-.9,2.3-2.4,2.5-4.1.1-.4.1-.8.1-1.2v-44.9c.7.1,1.3.1,1.9,0c1.7.1,3.3.2,4.8.2c15.5,0,22.4-6.1,24-7.7c7.4-6.6,11.9-17.1,12.5-28.9.6-12.3-3.1-24.1-10.4-33.3-4-5-9.2-7.8-15.3-8.3-15-1.3-30.4,12.1-31,12.6l-.1.1-.2.2c-.3.3-4.5,4.3-13.2,7.4-8.4,3-22.9,5.8-44.1,2c0,0-.1,0-.1,0v-34.8c37.7,5,58-6.6,64.9-11.8.8,1.6.7,2.2.6,5.1-.1,3.1-1.1,5.6-1.1,5.6-.3.8-.3,1.6.1,2.4.4.9,1.3,1.6,2.4,1.9.4.1.9.2,1.3.2c1.6,0,3.2-.9,3.7-2.2.1-.2,1.6-3.9,1.6-8.6c0-5.1-1.8-9.5-5.2-12.9-.1-.1-.2-.3-.3-.4-1-1.3-2.6-2.2-4.4-2.2-1.6,0-3,.7-4,1.8-1.5,1.2-6.1,4.7-14.4,7.5-9.5,3.2-25.8,6.2-49.6,2.1l-6.2-1.1v126.6c0,2.9,2.4,5.3,5.3,5.3s5.3-2.4,5.3-5.3v-69.6c42.8,7.2,58.7-8,64.2-12.2c3.7-3.2,13.2-11.1,23.7-10.2c3.4.3,6.2,1.9,8.6,4.7c5.8,7.2,8.8,16.9,8.3,26.7-.5,9.2-4,17.5-9.4,22.3l-.2.1-.2.3c-.3.3-2.1,1.9-5.9,3.2-2.9.9-7.3,1.8-13.6,1.5-1.2-.2-2.5-.3-4.1-.4v-26.5c0-2.9-2.4-5.3-5.3-5.3s-5.3,2.4-5.3,5.3v26.3c-8-.2-16-.4-21,.1-.9,2.8-2.2,4.1,1.5,5.9s6,.1,9,.4c2.3.2,7.4,1.3,10.5,2c0,0,0,10.4,0,15.1l.6,9.1c-.2,6.4,3.8,38.2-47.6,22.3Z" fill="#07212d"/></g></g><g id="eXfc0HkrAoR24" opacity="0"><path d="M84.3,244.9c0-.2.2-.5.4-.5h.1v0h13.4c.3,0,.4.2.4.5c0,.2-.2.4-.4.4h-13v11h11.5c.3,0,.4.2.4.4c0,.3-.2.5-.4.5h-11.5v11.5c0,.2-.2.5-.5.5-.2,0-.4-.2-.4-.5v-23.8Z" fill="#07212d"/><path d="M106.7,269.1v0c-.4,0-.5-.2-.5-.5v-23.8c0-.2.1-.4.4-.5v0v0h13.4c.3,0,.4.2.4.5c0,.2-.2.4-.4.4h-13v11h11.5c.3,0,.4.2.4.4c0,.3-.2.5-.4.5h-11.5v11.1h13c.3,0,.4.2.4.4s-.2.5-.4.5h-13.3v0Z" fill="#07212d"/><path d="M126.3,265.7c-.2-.2-.2-.5,0-.6.2-.2.5-.2.7,0c0,0,3.8,3.4,8.8,3.4c4.9,0,8.7-2.7,8.7-6.1c0-3.9-3.9-4.8-8-5.7-4.2-1-8.5-1.9-8.5-6.5c0-3.2,3.5-5.9,7.8-5.9c5,0,7.6,2.9,7.7,3c.2.2.1.5,0,.6-.2.1-.5.1-.7,0c0,0-2.5-2.7-7-2.7-3.8,0-6.9,2.2-6.9,4.9c0,3.8,3.8,4.7,7.8,5.6c4.3,1,8.6,1.9,8.6,6.6c0,3.9-4.2,7-9.6,7s-9.3-3.4-9.4-3.6Z" fill="#07212d"/><path d="M158.1,245.3h-8.4c-.3,0-.5-.2-.5-.4s.2-.5.5-.5h17.6c.3,0,.5.2.5.5c0,.2-.2.4-.5.4h-8.3v23.4c0,.2-.3.5-.5.5-.3,0-.5-.2-.5-.5v-23.4h.1Z" fill="#07212d"/><path d="M174.9,244.9c0-.3.2-.5.5-.5.2,0,.4.2.4.5v23.8c0,.3-.2.5-.4.5-.3,0-.5-.2-.5-.5v-23.8Z" fill="#07212d"/><path d="M185.7,245.3c0-.5.4-.8.9-.8h.1h7.1c4,0,7.2,3.2,7.2,7.1s-3.2,7-7.2,7l-6.3.1v9.7c0,.5-.4.8-.9.8s-.9-.4-.9-.8v-23.1Zm8,11.5c3,0,5.5-2.4,5.5-5.4c0-2.9-2.5-5.3-5.5-5.3h-6.3v10.7h6.3Z" fill="#07212d"/><path d="M207,245.3c0-.5.4-.8.9-.8s.9.4.9.8v23c0,.5-.4.8-.9.8s-.9-.4-.9-.8v-23Z" fill="#07212d"/><path d="M228.9,244.1c6.8,0,12.1,5.6,12.1,12.5s-5.4,12.5-12.1,12.5c-6.8,0-12.2-5.6-12.2-12.5s5.4-12.5,12.2-12.5Zm0,23.3c5.6,0,10.3-4.8,10.3-10.8c0-6.1-4.7-10.8-10.3-10.8-5.8,0-10.5,4.7-10.5,10.8c0,6,4.7,10.8,10.5,10.8Z" fill="#07212d"/><path d="M246.9,245.3c0-.5.4-.8.9-.8s.9.4.9.8v13.9c0,4.6,3.8,8.2,8.4,8.3c4.7,0,8.5-3.7,8.5-8.3v-13.9c0-.5.4-.8.9-.8s.9.4.9.8v13.9c0,5.5-4.6,10-10.3,10-5.6,0-10.2-4.5-10.2-10v-13.9Z" fill="#07212d"/><path d="M275.2,264.5c.3-.4.8-.4,1.1-.1c1.9,1.5,5,3.2,8.3,3.2c2.2,0,4.2-.6,5.6-1.6s2.2-2.3,2.2-3.7-.7-2.5-2.1-3.4-3.4-1.6-5.9-2h-.1c-2.4-.4-4.4-1.1-6-2.1s-2.6-2.5-2.6-4.3c0-1.9,1-3.5,2.6-4.6s3.7-1.8,6.1-1.8c3.3,0,5.8,1.6,7.8,2.9.4.2.5.7.2,1.1-.2.4-.7.5-1.1.2-2-1.3-4.2-2.6-6.9-2.6-2.1,0-3.9.6-5.2,1.5s-2,2.1-2,3.4c0,1.2.6,2.2,1.9,3s3.1,1.4,5.4,1.9h.1c2.5.5,4.8,1.2,6.4,2.3c1.7,1.1,2.8,2.7,2.8,4.7s-1.2,3.7-2.9,4.9-4,1.9-6.5,1.9c-3.9,0-7.2-1.9-9.3-3.6-.1-.4-.2-.9.1-1.2Z" fill="#07212d"/><path d="M298.9,264.5c.3-.4.8-.4,1.1-.1c1.9,1.5,5,3.2,8.3,3.2c2.2,0,4.2-.6,5.6-1.6s2.2-2.3,2.2-3.7-.7-2.5-2.1-3.4-3.4-1.6-5.9-2h-.1c-2.4-.4-4.4-1.1-6-2.1s-2.6-2.5-2.6-4.3c0-1.9,1-3.5,2.6-4.6s3.7-1.8,6.1-1.8c3.3,0,5.8,1.6,7.8,2.9.4.2.5.7.2,1.1-.2.4-.7.5-1.1.2-2-1.3-4.2-2.6-6.9-2.6-2.1,0-3.9.6-5.2,1.5s-2,2.1-2,3.4c0,1.2.6,2.2,1.9,3s3.1,1.4,5.4,1.9h.1c2.5.5,4.8,1.2,6.4,2.3c1.7,1.1,2.8,2.7,2.8,4.7s-1.2,3.7-2.9,4.9-4,1.9-6.5,1.9c-3.9,0-7.2-1.9-9.3-3.6-.1-.4-.1-.9.1-1.2Z" fill="#07212d"/><path d="M324.2,245.3c0-.5.4-.8.9-.8h.1h12.9c.5,0,.9.4.9.8c0,.5-.4.9-.9.9h-12.1v9.8h10.6c.5,0,.9.4.9.9s-.4.8-.9.8h-10.6v9.7h12.1c.5,0,.9.4.9.9s-.4.8-.9.8h-12.9-.1-.1c-.4,0-.8-.4-.8-.8v-23Z" fill="#07212d"/></g><g><g id="eXfc0HkrAoR38" opacity="0"><path d="M83.8,374.3v-9.5l25.7-27c3.8-4,6.6-7.5,8.3-10.6s2.6-6.2,2.6-9.1c0-4.3-1.3-7.6-3.9-10.2-2.6-2.5-6.1-3.8-10.5-3.8-4.5,0-8,1.3-10.7,3.9-2.6,2.6-3.9,6.1-3.9,10.5h-9.9c.1-4.7,1.3-8.7,3.3-12.2c2.1-3.4,4.9-6.1,8.5-7.9s7.8-2.8,12.7-2.8c5,0,9.3.9,12.9,2.8c3.6,1.8,6.4,4.4,8.4,7.8s3,7.4,3,12c0,3.7-1.1,7.5-3.4,11.6-2.2,4-5.9,8.7-10.9,13.9L95,365.6h36.6v8.7h-47.8Z" fill="#07212d"/><path d="M173,375.4c-4.9,0-9.2-.9-12.9-2.8-3.6-1.9-6.5-4.5-8.5-8-2-3.4-3-7.5-3-12.1v-34c0-4.7,1-8.7,3-12.1s4.8-6,8.5-7.9c3.6-1.9,7.9-2.8,12.9-2.8s9.3.9,12.9,2.8s6.4,4.5,8.4,7.9s3,7.4,3,12.1v34c0,4.6-1,8.6-3,12.1-2,3.4-4.8,6.1-8.5,8s-7.8,2.8-12.8,2.8Zm0-8.2c4.4,0,8-1.4,10.7-4.1s4-6.3,4-10.6v-34c0-4.3-1.3-7.8-4-10.6-2.7-2.7-6.2-4.1-10.7-4.1s-8,1.4-10.7,4.1-4,6.3-4,10.6v34c0,4.3,1.3,7.9,4,10.6c2.8,2.7,6.3,4.1,10.7,4.1Zm0-25.4c-2,0-3.6-.6-4.8-1.8s-1.8-2.8-1.8-4.8c0-1.9.6-3.5,1.8-4.6c1.2-1.2,2.8-1.8,4.8-1.8s3.6.6,4.8,1.8s1.8,2.7,1.8,4.6c0,2-.6,3.6-1.8,4.8s-2.8,1.8-4.8,1.8Z" fill="#07212d"/><path d="M216.4,374.3v-9.5l25.7-27c3.8-4,6.6-7.5,8.3-10.6s2.6-6.2,2.6-9.1c0-4.3-1.3-7.6-3.9-10.2-2.6-2.5-6.1-3.8-10.5-3.8-4.5,0-8,1.3-10.7,3.9-2.6,2.6-3.9,6.1-3.9,10.5h-9.9c.1-4.7,1.3-8.7,3.3-12.2c2.1-3.4,4.9-6.1,8.5-7.9s7.8-2.8,12.7-2.8c5,0,9.3.9,12.9,2.8c3.6,1.8,6.4,4.4,8.4,7.8s3,7.4,3,12c0,3.7-1.1,7.5-3.4,11.6-2.2,4-5.9,8.7-10.9,13.9l-21,21.9h36.6v8.7h-47.8Z" fill="#07212d"/><path d="M316.7,374.3v-17h-36.5v-15l29.4-45.6h10.9l-30.4,47.5v4.4h26.5v-18.9h9.9v44.6h-9.8Z" fill="#07212d"/></g></g><g><g><g id="eXfc0HkrAoR45_tr" transform="translate(645.700012,304.512466) rotate(-60.403905)"><g id="eXfc0HkrAoR45" transform="translate(-645.700012,-304.512466)" opacity="0"><path d="M610.2,334.7c.2.2.2.5,0,.7s-.5.2-.7,0-.2-.5,0-.7.5-.2.7,0" fill="#fff"/><path d="M610.2,329.4c.2.2.2.5,0,.7s-.5.2-.7,0-.2-.5,0-.7.5-.2.7,0" fill="#fff"/><path d="M613.7,332.4c0,.7-.5,1.2-1.2,1.2s-1.2-.5-1.2-1.2.5-1.2,1.2-1.2s1.2.5,1.2,1.2" fill="#fff"/><path d="M615.5,334.7c.2.2.2.5,0,.7s-.5.2-.7,0-.2-.5,0-.7.5-.2.7,0" fill="#fff"/><path d="M614.8,330c-.2-.2-.2-.5,0-.7s.5-.2.7,0s.2.5,0,.7-.5.2-.7,0" fill="#fff"/><path d="M671.2,334.7c.2.2.2.5,0,.7s-.5.2-.7,0-.2-.5,0-.7.5-.2.7,0" fill="#fff"/><path d="M671.2,329.4c.2.2.2.5,0,.7s-.5.2-.7,0-.2-.5,0-.7.5-.2.7,0" fill="#fff"/><path d="M674.7,332.4c0,.7-.5,1.2-1.2,1.2s-1.2-.5-1.2-1.2.5-1.2,1.2-1.2s1.2.5,1.2,1.2" fill="#fff"/><path d="M676.5,335.4c-.2.2-.5.2-.7,0s-.2-.5,0-.7.5-.2.7,0c.2.1.2.5,0,.7" fill="#fff"/><path d="M675.8,330c-.2-.2-.2-.5,0-.7s.5-.2.7,0s.2.5,0,.7-.5.2-.7,0" fill="#fff"/><path d="M602,324.1v.7h-2.2c.1-.2.3-.5.5-.7h1.7Z" fill="#fff"/><path d="M598.3,290v0v0v0Zm0,0v0v0v0Zm0,0v0v0v0Zm0,0v0v0v0Zm75.4-5.8c-.2-.1-.4-.1-.5.1l-3,4.1c-.1.2-.1.4.1.5.1,0,.2.1.2.1.1,0,.2,0,.3-.1l3-4.1c.1-.3,0-.5-.1-.6m1,2.6c-.2-.1-.4-.1-.5.1l-5.2,7c-.1.2-.1.4.1.5.1,0,.1.1.2.1s.2-.1.3-.2l5.2-7c.1-.1.1-.4-.1-.5m.7,3.5c-.2-.1-.4-.1-.5.1l-3,4.1c-.1.2-.1.4.1.5.1.1.1.1.2.1s.2-.1.3-.1l3-4.1c.1-.2,0-.5-.1-.6m0,0c-.2-.1-.4-.1-.5.1l-3,4.1c-.1.2-.1.4.1.5.1.1.1.1.2.1s.2-.1.3-.1l3-4.1c.1-.2,0-.5-.1-.6m-.7-3.5c-.2-.1-.4-.1-.5.1l-5.2,7c-.1.2-.1.4.1.5.1,0,.1.1.2.1s.2-.1.3-.2l5.2-7c.1-.1.1-.4-.1-.5m-1-2.6c-.2-.1-.4-.1-.5.1l-3,4.1c-.1.2-.1.4.1.5.1,0,.2.1.2.1.1,0,.2,0,.3-.1l3-4.1c.1-.3,0-.5-.1-.6m0,0c-.2-.1-.4-.1-.5.1l-3,4.1c-.1.2-.1.4.1.5.1,0,.2.1.2.1.1,0,.2,0,.3-.1l3-4.1c.1-.3,0-.5-.1-.6m1,2.6c-.2-.1-.4-.1-.5.1l-5.2,7c-.1.2-.1.4.1.5.1,0,.1.1.2.1s.2-.1.3-.2l5.2-7c.1-.1.1-.4-.1-.5m.7,3.5c-.2-.1-.4-.1-.5.1l-3,4.1c-.1.2-.1.4.1.5.1.1.1.1.2.1s.2-.1.3-.1l3-4.1c.1-.2,0-.5-.1-.6m0,0c-.2-.1-.4-.1-.5.1l-3,4.1c-.1.2-.1.4.1.5.1.1.1.1.2.1s.2-.1.3-.1l3-4.1c.1-.2,0-.5-.1-.6m-.7-3.5c-.2-.1-.4-.1-.5.1l-5.2,7c-.1.2-.1.4.1.5.1,0,.1.1.2.1s.2-.1.3-.2l5.2-7c.1-.1.1-.4-.1-.5m-1-2.6c-.2-.1-.4-.1-.5.1l-3,4.1c-.1.2-.1.4.1.5.1,0,.2.1.2.1.1,0,.2,0,.3-.1l3-4.1c.1-.3,0-.5-.1-.6m0,0c-.2-.1-.4-.1-.5.1l-3,4.1c-.1.2-.1.4.1.5.1,0,.2.1.2.1.1,0,.2,0,.3-.1l3-4.1c.1-.3,0-.5-.1-.6m1,2.6c-.2-.1-.4-.1-.5.1l-5.2,7c-.1.2-.1.4.1.5.1,0,.1.1.2.1s.2-.1.3-.2l5.2-7c.1-.1.1-.4-.1-.5m.7,3.5c-.2-.1-.4-.1-.5.1l-3,4.1c-.1.2-.1.4.1.5.1.1.1.1.2.1s.2-.1.3-.1l3-4.1c.1-.2,0-.5-.1-.6m0,0c-.2-.1-.4-.1-.5.1l-3,4.1c-.1.2-.1.4.1.5.1.1.1.1.2.1s.2-.1.3-.1l3-4.1c.1-.2,0-.5-.1-.6m-.7-3.5c-.2-.1-.4-.1-.5.1l-5.2,7c-.1.2-.1.4.1.5.1,0,.1.1.2.1s.2-.1.3-.2l5.2-7c.1-.1.1-.4-.1-.5m-1-2.6c-.2-.1-.4-.1-.5.1l-3,4.1c-.1.2-.1.4.1.5.1,0,.2.1.2.1.1,0,.2,0,.3-.1l3-4.1c.1-.3,0-.5-.1-.6m0,0c-.2-.1-.4-.1-.5.1l-3,4.1c-.1.2-.1.4.1.5.1,0,.2.1.2.1.1,0,.2,0,.3-.1l3-4.1c.1-.3,0-.5-.1-.6m1,2.6c-.2-.1-.4-.1-.5.1l-5.2,7c-.1.2-.1.4.1.5.1,0,.1.1.2.1s.2-.1.3-.2l5.2-7c.1-.1.1-.4-.1-.5m.7,3.5c-.2-.1-.4-.1-.5.1l-3,4.1c-.1.2-.1.4.1.5.1.1.1.1.2.1s.2-.1.3-.1l3-4.1c.1-.2,0-.5-.1-.6m0,0c-.2-.1-.4-.1-.5.1l-3,4.1c-.1.2-.1.4.1.5.1.1.1.1.2.1s.2-.1.3-.1l3-4.1c.1-.2,0-.5-.1-.6m-.7-3.5c-.2-.1-.4-.1-.5.1l-5.2,7c-.1.2-.1.4.1.5.1,0,.1.1.2.1s.2-.1.3-.2l5.2-7c.1-.1.1-.4-.1-.5m-1-2.6c-.2-.1-.4-.1-.5.1l-3,4.1c-.1.2-.1.4.1.5.1,0,.2.1.2.1.1,0,.2,0,.3-.1l3-4.1c.1-.3,0-.5-.1-.6m0,0c-.2-.1-.4-.1-.5.1l-3,4.1c-.1.2-.1.4.1.5.1,0,.2.1.2.1.1,0,.2,0,.3-.1l3-4.1c.1-.3,0-.5-.1-.6m1,2.6c-.2-.1-.4-.1-.5.1l-5.2,7c-.1.2-.1.4.1.5.1,0,.1.1.2.1s.2-.1.3-.2l5.2-7c.1-.1.1-.4-.1-.5m.7,3.5c-.2-.1-.4-.1-.5.1l-3,4.1c-.1.2-.1.4.1.5.1.1.1.1.2.1s.2-.1.3-.1l3-4.1c.1-.2,0-.5-.1-.6m0,0c-.2-.1-.4-.1-.5.1l-3,4.1c-.1.2-.1.4.1.5.1.1.1.1.2.1s.2-.1.3-.1l3-4.1c.1-.2,0-.5-.1-.6m-.7-3.5c-.2-.1-.4-.1-.5.1l-5.2,7c-.1.2-.1.4.1.5.1,0,.1.1.2.1s.2-.1.3-.2l5.2-7c.1-.1.1-.4-.1-.5m-4.3,2.1c.1,0,.2,0,.3-.1l3-4.1c.1-.2.1-.4-.1-.5s-.4-.1-.5.1l-3,4.1c-.1.2-.1.4.1.5.1,0,.1,0,.2,0M686,302.6l-9.1-30.1c-.1-.4-.5-.7-.9-.7h-11.6c-.5,0-.9.4-.9.9v30.1c0,.5.4.9.9.9h20.6c.3,0,.6-.1.7-.4.3-.1.4-.4.3-.7m-20.6-.6v-28.3h10l8.5,28.3h-18.5Zm9.5-11.6l-3,4.1c-.1.2-.1.4.1.5.1.1.1.1.2.1s.2-.1.3-.1l3-4.1c.1-.2.1-.4-.1-.5-.2-.2-.4-.2-.5,0m-.2-3.6c-.2-.1-.4-.1-.5.1l-5.2,7c-.1.2-.1.4.1.5.1,0,.1.1.2.1s.2-.1.3-.2l5.2-7c.1-.1.1-.4-.1-.5m-4.3,2.1c.1,0,.2,0,.3-.1l3-4.1c.1-.2.1-.4-.1-.5s-.4-.1-.5.1l-3,4.1c-.1.2-.1.4.1.5.1,0,.1,0,.2,0m3.3-4.7c-.2-.1-.4-.1-.5.1l-3,4.1c-.1.2-.1.4.1.5.1,0,.2.1.2.1.1,0,.2,0,.3-.1l3-4.1c.1-.3,0-.5-.1-.6m1,2.6c-.2-.1-.4-.1-.5.1l-5.2,7c-.1.2-.1.4.1.5.1,0,.1.1.2.1s.2-.1.3-.2l5.2-7c.1-.1.1-.4-.1-.5m.7,3.5c-.2-.1-.4-.1-.5.1l-3,4.1c-.1.2-.1.4.1.5.1.1.1.1.2.1s.2-.1.3-.1l3-4.1c.1-.2,0-.5-.1-.6m0,0c-.2-.1-.4-.1-.5.1l-3,4.1c-.1.2-.1.4.1.5.1.1.1.1.2.1s.2-.1.3-.1l3-4.1c.1-.2,0-.5-.1-.6m-.7-3.5c-.2-.1-.4-.1-.5.1l-5.2,7c-.1.2-.1.4.1.5.1,0,.1.1.2.1s.2-.1.3-.2l5.2-7c.1-.1.1-.4-.1-.5m-1-2.6c-.2-.1-.4-.1-.5.1l-3,4.1c-.1.2-.1.4.1.5.1,0,.2.1.2.1.1,0,.2,0,.3-.1l3-4.1c.1-.3,0-.5-.1-.6m0,0c-.2-.1-.4-.1-.5.1l-3,4.1c-.1.2-.1.4.1.5.1,0,.2.1.2.1.1,0,.2,0,.3-.1l3-4.1c.1-.3,0-.5-.1-.6m1,2.6c-.2-.1-.4-.1-.5.1l-5.2,7c-.1.2-.1.4.1.5.1,0,.1.1.2.1s.2-.1.3-.2l5.2-7c.1-.1.1-.4-.1-.5m.7,3.5c-.2-.1-.4-.1-.5.1l-3,4.1c-.1.2-.1.4.1.5.1.1.1.1.2.1s.2-.1.3-.1l3-4.1c.1-.2,0-.5-.1-.6m0,0c-.2-.1-.4-.1-.5.1l-3,4.1c-.1.2-.1.4.1.5.1.1.1.1.2.1s.2-.1.3-.1l3-4.1c.1-.2,0-.5-.1-.6m-.7-3.5c-.2-.1-.4-.1-.5.1l-5.2,7c-.1.2-.1.4.1.5.1,0,.1.1.2.1s.2-.1.3-.2l5.2-7c.1-.1.1-.4-.1-.5m-1-2.6c-.2-.1-.4-.1-.5.1l-3,4.1c-.1.2-.1.4.1.5.1,0,.2.1.2.1.1,0,.2,0,.3-.1l3-4.1c.1-.3,0-.5-.1-.6m0,0c-.2-.1-.4-.1-.5.1l-3,4.1c-.1.2-.1.4.1.5.1,0,.2.1.2.1.1,0,.2,0,.3-.1l3-4.1c.1-.3,0-.5-.1-.6m1,2.6c-.2-.1-.4-.1-.5.1l-5.2,7c-.1.2-.1.4.1.5.1,0,.1.1.2.1s.2-.1.3-.2l5.2-7c.1-.1.1-.4-.1-.5m.7,3.5c-.2-.1-.4-.1-.5.1l-3,4.1c-.1.2-.1.4.1.5.1.1.1.1.2.1s.2-.1.3-.1l3-4.1c.1-.2,0-.5-.1-.6m0,0c-.2-.1-.4-.1-.5.1l-3,4.1c-.1.2-.1.4.1.5.1.1.1.1.2.1s.2-.1.3-.1l3-4.1c.1-.2,0-.5-.1-.6m-.7-3.5c-.2-.1-.4-.1-.5.1l-5.2,7c-.1.2-.1.4.1.5.1,0,.1.1.2.1s.2-.1.3-.2l5.2-7c.1-.1.1-.4-.1-.5m-1-2.6c-.2-.1-.4-.1-.5.1l-3,4.1c-.1.2-.1.4.1.5.1,0,.2.1.2.1.1,0,.2,0,.3-.1l3-4.1c.1-.3,0-.5-.1-.6m0,0c-.2-.1-.4-.1-.5.1l-3,4.1c-.1.2-.1.4.1.5.1,0,.2.1.2.1.1,0,.2,0,.3-.1l3-4.1c.1-.3,0-.5-.1-.6m1,2.6c-.2-.1-.4-.1-.5.1l-5.2,7c-.1.2-.1.4.1.5.1,0,.1.1.2.1s.2-.1.3-.2l5.2-7c.1-.1.1-.4-.1-.5m.7,3.5c-.2-.1-.4-.1-.5.1l-3,4.1c-.1.2-.1.4.1.5.1.1.1.1.2.1s.2-.1.3-.1l3-4.1c.1-.2,0-.5-.1-.6m0,0c-.2-.1-.4-.1-.5.1l-3,4.1c-.1.2-.1.4.1.5.1.1.1.1.2.1s.2-.1.3-.1l3-4.1c.1-.2,0-.5-.1-.6m-.7-3.5c-.2-.1-.4-.1-.5.1l-5.2,7c-.1.2-.1.4.1.5.1,0,.1.1.2.1s.2-.1.3-.2l5.2-7c.1-.1.1-.4-.1-.5m-1-2.6c-.2-.1-.4-.1-.5.1l-3,4.1c-.1.2-.1.4.1.5.1,0,.2.1.2.1.1,0,.2,0,.3-.1l3-4.1c.1-.3,0-.5-.1-.6M670,306.7h-4.8c-.6,0-1.1.5-1.1,1.1s.5,1.1,1.1,1.1h4.8c.6,0,1.1-.5,1.1-1.1s-.5-1.1-1.1-1.1m-45.2,17.4c.2.2.3.5.5.7h35.5c.1-.2.3-.5.5-.7h-36.5ZM598.3,290v0v0v0Zm0,0v0v0v0Zm0,0v0v0v0Zm0,0v0v0v0Zm0,0v0v0v0Z" fill="#fff"/><path d="M598.3,290v0v0v0Zm0,0v0v0v0Zm0,0v0v0v0Zm0,0v0v0v0Zm0,0v0v0v0Zm26.5,34.1c.2.2.3.5.5.7h35.5c.1-.2.3-.5.5-.7h-36.5ZM670,306.7h-4.8c-.6,0-1.1.5-1.1,1.1s.5,1.1,1.1,1.1h4.8c.6,0,1.1-.5,1.1-1.1s-.5-1.1-1.1-1.1m3.7-22.5c-.2-.1-.4-.1-.5.1l-3,4.1c-.1.2-.1.4.1.5.1,0,.2.1.2.1.1,0,.2,0,.3-.1l3-4.1c.1-.3,0-.5-.1-.6m1,2.6c-.2-.1-.4-.1-.5.1l-5.2,7c-.1.2-.1.4.1.5.1,0,.1.1.2.1s.2-.1.3-.2l5.2-7c.1-.1.1-.4-.1-.5m.7,3.5c-.2-.1-.4-.1-.5.1l-3,4.1c-.1.2-.1.4.1.5.1.1.1.1.2.1s.2-.1.3-.1l3-4.1c.1-.2,0-.5-.1-.6m0,0c-.2-.1-.4-.1-.5.1l-3,4.1c-.1.2-.1.4.1.5.1.1.1.1.2.1s.2-.1.3-.1l3-4.1c.1-.2,0-.5-.1-.6m-.7-3.5c-.2-.1-.4-.1-.5.1l-5.2,7c-.1.2-.1.4.1.5.1,0,.1.1.2.1s.2-.1.3-.2l5.2-7c.1-.1.1-.4-.1-.5m-1-2.6c-.2-.1-.4-.1-.5.1l-3,4.1c-.1.2-.1.4.1.5.1,0,.2.1.2.1.1,0,.2,0,.3-.1l3-4.1c.1-.3,0-.5-.1-.6m0,0c-.2-.1-.4-.1-.5.1l-3,4.1c-.1.2-.1.4.1.5.1,0,.2.1.2.1.1,0,.2,0,.3-.1l3-4.1c.1-.3,0-.5-.1-.6m1,2.6c-.2-.1-.4-.1-.5.1l-5.2,7c-.1.2-.1.4.1.5.1,0,.1.1.2.1s.2-.1.3-.2l5.2-7c.1-.1.1-.4-.1-.5m.7,3.5c-.2-.1-.4-.1-.5.1l-3,4.1c-.1.2-.1.4.1.5.1.1.1.1.2.1s.2-.1.3-.1l3-4.1c.1-.2,0-.5-.1-.6m0,0c-.2-.1-.4-.1-.5.1l-3,4.1c-.1.2-.1.4.1.5.1.1.1.1.2.1s.2-.1.3-.1l3-4.1c.1-.2,0-.5-.1-.6m-.7-3.5c-.2-.1-.4-.1-.5.1l-5.2,7c-.1.2-.1.4.1.5.1,0,.1.1.2.1s.2-.1.3-.2l5.2-7c.1-.1.1-.4-.1-.5m-1-2.6c-.2-.1-.4-.1-.5.1l-3,4.1c-.1.2-.1.4.1.5.1,0,.2.1.2.1.1,0,.2,0,.3-.1l3-4.1c.1-.3,0-.5-.1-.6m0,0c-.2-.1-.4-.1-.5.1l-3,4.1c-.1.2-.1.4.1.5.1,0,.2.1.2.1.1,0,.2,0,.3-.1l3-4.1c.1-.3,0-.5-.1-.6m1,2.6c-.2-.1-.4-.1-.5.1l-5.2,7c-.1.2-.1.4.1.5.1,0,.1.1.2.1s.2-.1.3-.2l5.2-7c.1-.1.1-.4-.1-.5m.7,3.5c-.2-.1-.4-.1-.5.1l-3,4.1c-.1.2-.1.4.1.5.1.1.1.1.2.1s.2-.1.3-.1l3-4.1c.1-.2,0-.5-.1-.6m0,0c-.2-.1-.4-.1-.5.1l-3,4.1c-.1.2-.1.4.1.5.1.1.1.1.2.1s.2-.1.3-.1l3-4.1c.1-.2,0-.5-.1-.6m-.7-3.5c-.2-.1-.4-.1-.5.1l-5.2,7c-.1.2-.1.4.1.5.1,0,.1.1.2.1s.2-.1.3-.2l5.2-7c.1-.1.1-.4-.1-.5m-1-2.6c-.2-.1-.4-.1-.5.1l-3,4.1c-.1.2-.1.4.1.5.1,0,.2.1.2.1.1,0,.2,0,.3-.1l3-4.1c.1-.3,0-.5-.1-.6m0,0c-.2-.1-.4-.1-.5.1l-3,4.1c-.1.2-.1.4.1.5.1,0,.2.1.2.1.1,0,.2,0,.3-.1l3-4.1c.1-.3,0-.5-.1-.6m1,2.6c-.2-.1-.4-.1-.5.1l-5.2,7c-.1.2-.1.4.1.5.1,0,.1.1.2.1s.2-.1.3-.2l5.2-7c.1-.1.1-.4-.1-.5m.7,3.5c-.2-.1-.4-.1-.5.1l-3,4.1c-.1.2-.1.4.1.5.1.1.1.1.2.1s.2-.1.3-.1l3-4.1c.1-.2,0-.5-.1-.6m0,0c-.2-.1-.4-.1-.5.1l-3,4.1c-.1.2-.1.4.1.5.1.1.1.1.2.1s.2-.1.3-.1l3-4.1c.1-.2,0-.5-.1-.6m-.7-3.5c-.2-.1-.4-.1-.5.1l-5.2,7c-.1.2-.1.4.1.5.1,0,.1.1.2.1s.2-.1.3-.2l5.2-7c.1-.1.1-.4-.1-.5m-1-2.6c-.2-.1-.4-.1-.5.1l-3,4.1c-.1.2-.1.4.1.5.1,0,.2.1.2.1.1,0,.2,0,.3-.1l3-4.1c.1-.3,0-.5-.1-.6m0,0c-.2-.1-.4-.1-.5.1l-3,4.1c-.1.2-.1.4.1.5.1,0,.2.1.2.1.1,0,.2,0,.3-.1l3-4.1c.1-.3,0-.5-.1-.6m1,2.6c-.2-.1-.4-.1-.5.1l-5.2,7c-.1.2-.1.4.1.5.1,0,.1.1.2.1s.2-.1.3-.2l5.2-7c.1-.1.1-.4-.1-.5m.7,3.5c-.2-.1-.4-.1-.5.1l-3,4.1c-.1.2-.1.4.1.5.1.1.1.1.2.1s.2-.1.3-.1l3-4.1c.1-.2,0-.5-.1-.6m0,0c-.2-.1-.4-.1-.5.1l-3,4.1c-.1.2-.1.4.1.5.1.1.1.1.2.1s.2-.1.3-.1l3-4.1c.1-.2,0-.5-.1-.6m-.7-3.5c-.2-.1-.4-.1-.5.1l-5.2,7c-.1.2-.1.4.1.5.1,0,.1.1.2.1s.2-.1.3-.2l5.2-7c.1-.1.1-.4-.1-.5m-4.3,2.1c.1,0,.2,0,.3-.1l3-4.1c.1-.2.1-.4-.1-.5s-.4-.1-.5.1l-3,4.1c-.1.2-.1.4.1.5.1,0,.1,0,.2,0M686,302.6l-9.1-30.1c-.1-.4-.5-.7-.9-.7h-11.6c-.5,0-.9.4-.9.9v30.1c0,.5.4.9.9.9h20.6c.3,0,.6-.1.7-.4.3-.1.4-.4.3-.7m-20.6-.6v-28.3h10l8.5,28.3h-18.5Zm9.5-11.6l-3,4.1c-.1.2-.1.4.1.5.1.1.1.1.2.1s.2-.1.3-.1l3-4.1c.1-.2.1-.4-.1-.5-.2-.2-.4-.2-.5,0m-.2-3.6c-.2-.1-.4-.1-.5.1l-5.2,7c-.1.2-.1.4.1.5.1,0,.1.1.2.1s.2-.1.3-.2l5.2-7c.1-.1.1-.4-.1-.5m-4.3,2.1c.1,0,.2,0,.3-.1l3-4.1c.1-.2.1-.4-.1-.5s-.4-.1-.5.1l-3,4.1c-.1.2-.1.4.1.5.1,0,.1,0,.2,0m3.3-4.7c-.2-.1-.4-.1-.5.1l-3,4.1c-.1.2-.1.4.1.5.1,0,.2.1.2.1.1,0,.2,0,.3-.1l3-4.1c.1-.3,0-.5-.1-.6m1,2.6c-.2-.1-.4-.1-.5.1l-5.2,7c-.1.2-.1.4.1.5.1,0,.1.1.2.1s.2-.1.3-.2l5.2-7c.1-.1.1-.4-.1-.5m.7,3.5c-.2-.1-.4-.1-.5.1l-3,4.1c-.1.2-.1.4.1.5.1.1.1.1.2.1s.2-.1.3-.1l3-4.1c.1-.2,0-.5-.1-.6m0,0c-.2-.1-.4-.1-.5.1l-3,4.1c-.1.2-.1.4.1.5.1.1.1.1.2.1s.2-.1.3-.1l3-4.1c.1-.2,0-.5-.1-.6m-.7-3.5c-.2-.1-.4-.1-.5.1l-5.2,7c-.1.2-.1.4.1.5.1,0,.1.1.2.1s.2-.1.3-.2l5.2-7c.1-.1.1-.4-.1-.5m-1-2.6c-.2-.1-.4-.1-.5.1l-3,4.1c-.1.2-.1.4.1.5.1,0,.2.1.2.1.1,0,.2,0,.3-.1l3-4.1c.1-.3,0-.5-.1-.6m0,0c-.2-.1-.4-.1-.5.1l-3,4.1c-.1.2-.1.4.1.5.1,0,.2.1.2.1.1,0,.2,0,.3-.1l3-4.1c.1-.3,0-.5-.1-.6m1,2.6c-.2-.1-.4-.1-.5.1l-5.2,7c-.1.2-.1.4.1.5.1,0,.1.1.2.1s.2-.1.3-.2l5.2-7c.1-.1.1-.4-.1-.5m.7,3.5c-.2-.1-.4-.1-.5.1l-3,4.1c-.1.2-.1.4.1.5.1.1.1.1.2.1s.2-.1.3-.1l3-4.1c.1-.2,0-.5-.1-.6m0,0c-.2-.1-.4-.1-.5.1l-3,4.1c-.1.2-.1.4.1.5.1.1.1.1.2.1s.2-.1.3-.1l3-4.1c.1-.2,0-.5-.1-.6m-.7-3.5c-.2-.1-.4-.1-.5.1l-5.2,7c-.1.2-.1.4.1.5.1,0,.1.1.2.1s.2-.1.3-.2l5.2-7c.1-.1.1-.4-.1-.5m-1-2.6c-.2-.1-.4-.1-.5.1l-3,4.1c-.1.2-.1.4.1.5.1,0,.2.1.2.1.1,0,.2,0,.3-.1l3-4.1c.1-.3,0-.5-.1-.6m0,0c-.2-.1-.4-.1-.5.1l-3,4.1c-.1.2-.1.4.1.5.1,0,.2.1.2.1.1,0,.2,0,.3-.1l3-4.1c.1-.3,0-.5-.1-.6m1,2.6c-.2-.1-.4-.1-.5.1l-5.2,7c-.1.2-.1.4.1.5.1,0,.1.1.2.1s.2-.1.3-.2l5.2-7c.1-.1.1-.4-.1-.5m.7,3.5c-.2-.1-.4-.1-.5.1l-3,4.1c-.1.2-.1.4.1.5.1.1.1.1.2.1s.2-.1.3-.1l3-4.1c.1-.2,0-.5-.1-.6m0,0c-.2-.1-.4-.1-.5.1l-3,4.1c-.1.2-.1.4.1.5.1.1.1.1.2.1s.2-.1.3-.1l3-4.1c.1-.2,0-.5-.1-.6m-.7-3.5c-.2-.1-.4-.1-.5.1l-5.2,7c-.1.2-.1.4.1.5.1,0,.1.1.2.1s.2-.1.3-.2l5.2-7c.1-.1.1-.4-.1-.5m-1-2.6c-.2-.1-.4-.1-.5.1l-3,4.1c-.1.2-.1.4.1.5.1,0,.2.1.2.1.1,0,.2,0,.3-.1l3-4.1c.1-.3,0-.5-.1-.6m0,0c-.2-.1-.4-.1-.5.1l-3,4.1c-.1.2-.1.4.1.5.1,0,.2.1.2.1.1,0,.2,0,.3-.1l3-4.1c.1-.3,0-.5-.1-.6m1,2.6c-.2-.1-.4-.1-.5.1l-5.2,7c-.1.2-.1.4.1.5.1,0,.1.1.2.1s.2-.1.3-.2l5.2-7c.1-.1.1-.4-.1-.5m.7,3.5c-.2-.1-.4-.1-.5.1l-3,4.1c-.1.2-.1.4.1.5.1.1.1.1.2.1s.2-.1.3-.1l3-4.1c.1-.2,0-.5-.1-.6m0,0c-.2-.1-.4-.1-.5.1l-3,4.1c-.1.2-.1.4.1.5.1.1.1.1.2.1s.2-.1.3-.1l3-4.1c.1-.2,0-.5-.1-.6m-.7-3.5c-.2-.1-.4-.1-.5.1l-5.2,7c-.1.2-.1.4.1.5.1,0,.1.1.2.1s.2-.1.3-.2l5.2-7c.1-.1.1-.4-.1-.5m-1-2.6c-.2-.1-.4-.1-.5.1l-3,4.1c-.1.2-.1.4.1.5.1,0,.2.1.2.1.1,0,.2,0,.3-.1l3-4.1c.1-.3,0-.5-.1-.6m0,0c-.2-.1-.4-.1-.5.1l-3,4.1c-.1.2-.1.4.1.5.1,0,.2.1.2.1.1,0,.2,0,.3-.1l3-4.1c.1-.3,0-.5-.1-.6m1,2.6c-.2-.1-.4-.1-.5.1l-5.2,7c-.1.2-.1.4.1.5.1,0,.1.1.2.1s.2-.1.3-.2l5.2-7c.1-.1.1-.4-.1-.5m.7,3.5c-.2-.1-.4-.1-.5.1l-3,4.1c-.1.2-.1.4.1.5.1.1.1.1.2.1s.2-.1.3-.1l3-4.1c.1-.2,0-.5-.1-.6m0,0c-.2-.1-.4-.1-.5.1l-3,4.1c-.1.2-.1.4.1.5.1.1.1.1.2.1s.2-.1.3-.1l3-4.1c.1-.2,0-.5-.1-.6m-.7-3.5c-.2-.1-.4-.1-.5.1l-5.2,7c-.1.2-.1.4.1.5.1,0,.1.1.2.1s.2-.1.3-.2l5.2-7c.1-.1.1-.4-.1-.5m-1-2.6c-.2-.1-.4-.1-.5.1l-3,4.1c-.1.2-.1.4.1.5.1,0,.2.1.2.1.1,0,.2,0,.3-.1l3-4.1c.1-.3,0-.5-.1-.6M598.3,290v0v0v0Zm0,0v0v0v0Zm0,0v0v0v0Zm0,0v0v0v0Z" fill="#fff"/><path d="M654,285.2l-2.2-7.7c-.1-.4-.5-.7-.9-.7h-52.6c-.4,0-.8.3-.9.7l-2.2,7.7c0,.1,0,.2,0,.2c0,1.9.8,3.7,2.2,4.9v11.8c0,.5.4.9.9.9h52.7c.5,0,.9-.4.9-.9v-11.8c1.3-1.2,2.2-3,2.2-4.9-.1,0-.1-.1-.1-.2M598.2,290v0v0v0Zm8.4-4.5c0,2.6-2.2,4.8-4.8,4.8s-4.7-2.1-4.8-4.7l2-6.9h7.6v6.8Zm11.4,0c0,2.6-2.2,4.8-4.8,4.8s-4.8-2.1-4.8-4.8v-6.8h9.6v6.8Zm11.4,0c0,2.6-2.1,4.8-4.8,4.8-2.6,0-4.8-2.1-4.8-4.8v-6.8h9.6v6.8Zm11.4,0c0,2.6-2.2,4.8-4.8,4.8s-4.8-2.1-4.8-4.8v-6.8h9.6v6.8Zm6.6,4.8c-2.6,0-4.8-2.1-4.8-4.8v-6.8h7.6l2,6.9c-.1,2.6-2.2,4.7-4.8,4.7" fill="#fff"/><polygon points="598.3,290 598.2,290 598.3,290" fill="#fff"/><path d="M600.2,324.1c-.2.2-.3.5-.5.7h2.2v-.7h-1.7Z" fill="#fff"/><path d="M686,302.6l-9.1-30.1c-.1-.4-.5-.7-.9-.7h-11.6c-.5,0-.9.4-.9.9v30.1c0,.5.4.9.9.9h20.6c.3,0,.6-.1.7-.4.3-.1.4-.4.3-.7m-20.6-.6v-28.3h10l8.5,28.3h-18.5Z" fill="#fff"/><path d="M610.2,334.7c.2.2.2.5,0,.7s-.5.2-.7,0-.2-.5,0-.7.5-.2.7,0" fill="#fff"/><path d="M610.2,329.4c.2.2.2.5,0,.7s-.5.2-.7,0-.2-.5,0-.7.5-.2.7,0" fill="#fff"/><path d="M613.7,332.4c0,.7-.5,1.2-1.2,1.2s-1.2-.5-1.2-1.2.5-1.2,1.2-1.2s1.2.5,1.2,1.2" fill="#fff"/><path d="M615.5,334.7c.2.2.2.5,0,.7s-.5.2-.7,0-.2-.5,0-.7.5-.2.7,0" fill="#fff"/><path d="M614.8,330c-.2-.2-.2-.5,0-.7s.5-.2.7,0s.2.5,0,.7-.5.2-.7,0" fill="#fff"/><path d="M610.2,334.7c.2.2.2.5,0,.7s-.5.2-.7,0-.2-.5,0-.7.5-.2.7,0" fill="#fff"/><path d="M610.2,329.4c.2.2.2.5,0,.7s-.5.2-.7,0-.2-.5,0-.7.5-.2.7,0" fill="#fff"/><path d="M613.7,332.4c0,.7-.5,1.2-1.2,1.2s-1.2-.5-1.2-1.2.5-1.2,1.2-1.2s1.2.5,1.2,1.2" fill="#fff"/><path d="M615.5,334.7c.2.2.2.5,0,.7s-.5.2-.7,0-.2-.5,0-.7.5-.2.7,0" fill="#fff"/><path d="M614.8,330c-.2-.2-.2-.5,0-.7s.5-.2.7,0s.2.5,0,.7-.5.2-.7,0" fill="#fff"/><path d="M613.7,332.4c0,.7-.5,1.2-1.2,1.2s-1.2-.5-1.2-1.2.5-1.2,1.2-1.2s1.2.5,1.2,1.2" fill="#fff"/><path d="M610.2,330c-.2.2-.5.2-.7,0s-.2-.5,0-.7.5-.2.7,0s.2.5,0,.7" fill="#fff"/><path d="M610.2,335.4c-.2.2-.5.2-.7,0s-.2-.5,0-.7.5-.2.7,0c.2.1.2.5,0,.7" fill="#fff"/><path d="M615.5,335.4c-.2.2-.5.2-.7,0s-.2-.5,0-.7.5-.2.7,0c.2.1.2.5,0,.7" fill="#fff"/><path d="M615.5,330c-.2.2-.5.2-.7,0s-.2-.5,0-.7.5-.2.7,0s.2.5,0,.7" fill="#fff"/><path d="M671.2,334.7c.2.2.2.5,0,.7s-.5.2-.7,0-.2-.5,0-.7.5-.2.7,0" fill="#fff"/><path d="M671.2,329.4c.2.2.2.5,0,.7s-.5.2-.7,0-.2-.5,0-.7.5-.2.7,0" fill="#fff"/><path d="M674.7,332.4c0,.7-.5,1.2-1.2,1.2s-1.2-.5-1.2-1.2.5-1.2,1.2-1.2s1.2.5,1.2,1.2" fill="#fff"/><path d="M676.5,335.4c-.2.2-.5.2-.7,0s-.2-.5,0-.7.5-.2.7,0c.2.1.2.5,0,.7" fill="#fff"/><path d="M675.8,330c-.2-.2-.2-.5,0-.7s.5-.2.7,0s.2.5,0,.7-.5.2-.7,0" fill="#fff"/><path d="M671.2,334.7c.2.2.2.5,0,.7s-.5.2-.7,0-.2-.5,0-.7.5-.2.7,0" fill="#fff"/><path d="M671.2,329.4c.2.2.2.5,0,.7s-.5.2-.7,0-.2-.5,0-.7.5-.2.7,0" fill="#fff"/><path d="M674.7,332.4c0,.7-.5,1.2-1.2,1.2s-1.2-.5-1.2-1.2.5-1.2,1.2-1.2s1.2.5,1.2,1.2" fill="#fff"/><path d="M676.5,335.4c-.2.2-.5.2-.7,0s-.2-.5,0-.7.5-.2.7,0c.2.1.2.5,0,.7" fill="#fff"/><path d="M675.8,330c-.2-.2-.2-.5,0-.7s.5-.2.7,0s.2.5,0,.7-.5.2-.7,0" fill="#fff"/><path d="M674.7,332.4c0,.7-.5,1.2-1.2,1.2s-1.2-.5-1.2-1.2.5-1.2,1.2-1.2s1.2.5,1.2,1.2" fill="#fff"/><path d="M671.2,330c-.2.2-.5.2-.7,0s-.2-.5,0-.7.5-.2.7,0s.2.5,0,.7" fill="#fff"/><path d="M671.2,335.4c-.2.2-.5.2-.7,0s-.2-.5,0-.7.5-.2.7,0c.2.1.2.5,0,.7" fill="#fff"/><path d="M676.5,335.4c-.2.2-.5.2-.7,0s-.2-.5,0-.7.5-.2.7,0c.2.1.2.5,0,.7" fill="#fff"/><path d="M676.5,330c-.2.2-.5.2-.7,0s-.2-.5,0-.7.5-.2.7,0s.2.5,0,.7" fill="#fff"/><path d="M602,324.1v.7h-2.2c.1-.2.3-.5.5-.7h1.7Z" fill="#fff"/><path d="M661.2,324.1c-.2.2-.3.5-.5.7h-35.5c-.1-.2-.3-.5-.5-.7h36.5Z" fill="#fff"/><polygon points="598.3,290 598.2,290 598.3,290" fill="#fff"/><path d="M671.1,307.8c0,.6-.5,1.1-1.1,1.1h-4.8c-.6,0-1.1-.5-1.1-1.1s.5-1.1,1.1-1.1h4.8c.6,0,1.1.5,1.1,1.1" fill="#fff"/><path d="M674.8,287.3l-5.2,7c-.1.1-.2.2-.3.2s-.2,0-.2-.1c-.2-.1-.2-.4-.1-.5l5.2-7c.1-.2.4-.2.5-.1.2.1.2.4.1.5" fill="#fff"/><path d="M675.4,290.8l-3,4.1c-.1.1-.2.1-.3.1s-.2,0-.2-.1c-.2-.1-.2-.4-.1-.5l3-4.1c.1-.2.4-.2.5-.1.2.2.3.5.1.6" fill="#fff"/><path d="M673.7,284.7l-3,4.1c-.1.1-.2.1-.3.1s-.2,0-.2-.1c-.2-.1-.2-.4-.1-.5l3-4.1c.1-.2.3-.2.5-.1.2.2.3.4.1.6" fill="#fff"/><path d="M730.9,304.3c.8,0,1.4-.6,1.4-1.4s-.6-1.4-1.4-1.4h-13.1v-6.4h13.1c.8,0,1.4-.6,1.4-1.4s-.6-1.4-1.4-1.4h-13.1v-23.3c0-3.5-2.4-7.6-5.4-9.4l-61.3-35.4c-3-1.7-7.8-1.7-10.8,0L579,259.6c-3,1.8-5.4,5.9-5.4,9.4v23.5h-13.1c-.8,0-1.4.6-1.4,1.4s.6,1.4,1.4,1.4h13.1v6.4h-13.1c-.8,0-1.4.6-1.4,1.4s.6,1.4,1.4,1.4h13.1v6.3h-13.1c-.8,0-1.4.6-1.4,1.4s.6,1.4,1.4,1.4h13.1v26.4c0,3.5,2.4,7.6,5.4,9.4l61.3,35.4c1.5.9,3.5,1.3,5.4,1.3c2,0,3.9-.5,5.4-1.3l61.3-35.4c3-1.8,5.4-5.9,5.4-9.4v-26.4h13.1c.8,0,1.4-.6,1.4-1.4s-.6-1.4-1.4-1.4h-13.1v-6.3h13.1v-.2Zm-15.8-11.8h-4c-.8,0-1.4.6-1.4,1.4s.6,1.4,1.4,1.4h4v6.4h-4c-.8,0-1.4.6-1.4,1.4s.6,1.4,1.4,1.4h4v6.3h-4c-.8,0-1.4.6-1.4,1.4s.6,1.4,1.4,1.4h4v26.4c0,2.5-1.9,5.7-4.1,7l-61.3,35.4c-2.2,1.3-5.9,1.3-8.1,0L580.3,347c-2.2-1.3-4-4.5-4-7v-26.4h4c.8,0,1.4-.6,1.4-1.4s-.6-1.4-1.4-1.4h-4v-6.3h4c.8,0,1.4-.6,1.4-1.4s-.6-1.4-1.4-1.4h-4v-6.4h4c.8,0,1.4-.6,1.4-1.4s-.6-1.4-1.4-1.4h-4v-23.5c0-2.5,1.8-5.7,4-7l61.3-35.4c1.1-.6,2.6-1,4-1c1.5,0,2.9.3,4.1,1L711,262c2.2,1.3,4.1,4.5,4.1,7v23.5Z" fill="#fff"/><path d="M704.9,325.4v-15.7c0-2.8-2.1-5.5-4.8-6.2h-.1v-25.1c0-3-2.1-6.7-4.7-8.2l-44.9-25.9c-2.6-1.5-6.9-1.5-9.5,0L603.3,266h-11.5c-2.9,0-5.3,2.4-5.3,5.3v54h-1.7v6.9h1.7c0,.9.7,1.6,1.6,1.6h4.1c.9,1.9,2.3,3.6,3.9,4.5L641,364.2c2.6,1.5,6.8,1.5,9.5,0l44.9-25.9c1.6-.9,3-2.6,3.9-4.5h4.1c.9,0,1.6-.7,1.6-1.6h1.7v-6.9h-1.8v.1Zm-18.6-.6h15.3v1.7h-14.5c-.2-.6-.5-1.1-.8-1.7m15.3-8h-3.9v-6.1h3.9v6.1Zm-111.8-5.1h2.1v4h-2.1v-4Zm8,19h-8v-2.4h8.5c-.3.8-.4,1.6-.5,2.4m14.7,7.6c-3.3,0-6-2.7-6-6s2.7-6,6-6s6,2.7,6,6-2.7,6-6,6m46.3-7.6h-31.6c-.1-.8-.2-1.6-.5-2.4h32.6c-.2.8-.4,1.6-.5,2.4m14.7,7.6c-3.3,0-6-2.7-6-6s2.7-6,6-6s6,2.7,6,6-2.7,6-6,6m0-20.8c-5.1,0-9.6,2.6-12.3,6.6-.2.2-.3.5-.5.7-.3.5-.6,1.1-.8,1.7h-33.8c-.2-.6-.5-1.1-.8-1.7-.1-.2-.3-.5-.5-.7-2.7-4-7.2-6.6-12.3-6.6s-9.6,2.6-12.3,6.6h1.7v.7h-2.2c-.3.5-.6,1.1-.8,1.7h-9.1v-1.7h10c.1-.2.3-.5.5-.7h-10.4v-6.6h3c.5,0,.9-.4.9-.9v-5.8c0-.5-.4-.9-.9-.9h-3v-38.5c0-1.1.9-2,2-2h84.6c1.3,0,2.8,1.1,3.2,2.3l8.6,28.2c.7,2.4,3.3,4.9,5.7,5.5l5.4,1.4c.3.1.5.2.8.3.6.4,1.1,1.1,1.4,1.8h-4.6c-.5,0-.9.4-.9.9v7.9c0,.5.4.9.9.9h4.8v5.5h-15.8c-2.8-3.9-7.4-6.6-12.5-6.6m28.1,13.2h-13.4c-.1-.8-.2-1.6-.5-2.4h13.8v2.4h.1Z" fill="#fff"/></g></g></g></g><g id="eXfc0HkrAoR102_ts" transform="translate(830.049988,282.63752) scale(0.272632,0.272632)"><g id="eXfc0HkrAoR102" transform="translate(-830.049988,-282.63752)" opacity="0"><g><path d="M785,261.1c0-2.5,1.8-5.5,3.9-6.8l37.2-21.5c2.2-1.2,5.7-1.2,7.8,0l37.2,21.5c2.2,1.2,3.9,4.3,3.9,6.8v43c0,2.5-1.8,5.5-3.9,6.8L834,332.4c-2.2,1.2-5.7,1.2-7.8,0L789,310.9c-2.2-1.2-3.9-4.3-3.9-6.8v-43h-.1Z" fill="#fff"/></g><g><path d="M830.1,350.2c-1.6,0-3.2-.4-4.5-1.1l-50.8-29.3c-2.5-1.5-4.5-4.9-4.5-7.8v-58.7c0-2.9,2-6.3,4.5-7.8l50.8-29.3c2.5-1.5,6.5-1.5,9,0l50.8,29.3c2.5,1.5,4.5,4.9,4.5,7.8v58.7c0,2.9-2,6.3-4.5,7.8l-50.8,29.4c-1.3.6-2.9,1-4.5,1Zm0-132.9c-1.2,0-2.4.3-3.4.8l-50.8,29.3c-1.8,1-3.4,3.7-3.4,5.8v58.8c0,2.1,1.5,4.8,3.4,5.8l50.8,29.4c1.8,1.1,4.9,1.1,6.7,0l50.8-29.4c1.8-1,3.4-3.7,3.4-5.8v-58.7c0-2.1-1.5-4.8-3.4-5.8l-50.8-29.3c-.9-.6-2.1-.9-3.3-.9Z" fill="#fff"/></g><g><path d="M900.7,290.1h-16.4c-.6,0-1.1-.5-1.1-1.1s.5-1.1,1.1-1.1h16.4c.6,0,1.1.5,1.1,1.1s-.5,1.1-1.1,1.1Z" fill="#fff"/></g><g><path d="M900.7,282.5h-16.4c-.6,0-1.1-.5-1.1-1.1s.5-1.1,1.1-1.1h16.4c.6,0,1.1.5,1.1,1.1s-.5,1.1-1.1,1.1Z" fill="#fff"/></g><g><path d="M900.7,275h-16.4c-.6,0-1.1-.5-1.1-1.1s.5-1.1,1.1-1.1h16.4c.6,0,1.1.5,1.1,1.1s-.5,1.1-1.1,1.1Z" fill="#fff"/></g><g><path d="M775.8,290.1h-16.4c-.6,0-1.1-.5-1.1-1.1s.5-1.1,1.1-1.1h16.4c.6,0,1.1.5,1.1,1.1s-.4,1.1-1.1,1.1Z" fill="#fff"/></g><g><path d="M775.8,282.5h-16.4c-.6,0-1.1-.5-1.1-1.1s.5-1.1,1.1-1.1h16.4c.6,0,1.1.5,1.1,1.1s-.4,1.1-1.1,1.1Z" fill="#fff"/></g><g><path d="M775.8,275h-16.4c-.6,0-1.1-.5-1.1-1.1s.5-1.1,1.1-1.1h16.4c.6,0,1.1.5,1.1,1.1.1.6-.4,1.1-1.1,1.1Z" fill="#fff"/></g><g><path d="M859.5,237.4c-.3,0-.5-.1-.7-.2-.7-.4-.9-1.3-.5-1.9.3-.4.7-.7,1.2-.7.3,0,.5.1.7.2.7.4.9,1.3.5,1.9-.3.4-.7.7-1.2.7" fill="#07212d"/></g><g><path d="M859.5,235.2c.1,0,.3,0,.4.1.4.2.5.7.3,1.1-.2.3-.4.4-.7.4-.1,0-.3,0-.4-.1-.4-.2-.5-.7-.3-1.1.1-.3.4-.4.7-.4m0-1.2c-.7,0-1.3.4-1.7.9-.3.4-.4,1-.2,1.5.1.5.4.9.9,1.2.3.2.7.3,1,.3.7,0,1.3-.4,1.7-.9.6-.9.3-2.1-.7-2.7-.3-.2-.7-.3-1-.3" fill="#fff"/></g><g><path d="M861.9,235c-.3,0-.5-.1-.7-.2-.3-.2-.5-.5-.6-.9s0-.7.2-1.1c.3-.4.7-.7,1.2-.7.3,0,.5.1.7.2.7.4.9,1.3.5,1.9s-.8.8-1.3.8" fill="#07212d"/></g><g><path d="M861.9,232.8c.1,0,.3,0,.4.1.4.2.5.7.3,1.1-.2.3-.4.4-.7.4-.1,0-.3,0-.4-.1-.4-.2-.5-.7-.3-1.1.1-.2.4-.4.7-.4m0-1.1c-.7,0-1.3.4-1.7.9-.3.4-.4,1-.2,1.5.1.5.4.9.9,1.2.3.2.7.3,1,.3.7,0,1.3-.4,1.7-.9.3-.4.4-1,.2-1.5-.1-.5-.4-.9-.9-1.2-.3-.2-.7-.3-1-.3" fill="#fff"/></g><g><path d="M864.5,232.7c-.3,0-.7-.1-.9-.4-.3-.2-.4-.6-.5-1c0-.4.1-.7.3-1c.3-.3.6-.5,1-.5.3,0,.7.1.9.4.6.5.6,1.4.1,2-.1.3-.5.5-.9.5" fill="#07212d"/></g><g><path d="M864.5,230.4c.2,0,.4.1.5.2.3.3.4.8.1,1.2-.2.2-.4.3-.6.3s-.4-.1-.5-.2c-.3-.3-.4-.8-.1-1.2.1-.2.4-.3.6-.3m0-1.1c-.6,0-1.1.2-1.5.7-.3.4-.5.9-.5,1.4s.3,1,.7,1.3.8.5,1.3.5c.6,0,1.1-.2,1.5-.7.3-.4.5-.9.5-1.4s-.3-1-.7-1.3-.8-.5-1.3-.5" fill="#fff"/></g><g><path d="M867.2,230.8c-.3,0-.7-.1-.9-.4-.3-.2-.4-.6-.5-1c0-.4.1-.7.4-1s.6-.5,1-.5c.3,0,.7.1.9.4.3.2.4.6.5,1c0,.4-.1.7-.3,1-.3.3-.7.5-1.1.5v0Z" fill="#07212d"/></g><g><path d="M867.2,228.6c.2,0,.4.1.5.2.3.3.4.8.1,1.2-.2.2-.4.3-.6.3s-.4-.1-.5-.2c-.3-.3-.4-.8-.1-1.2.2-.2.4-.3.6-.3m0-1.2c-.6,0-1.1.2-1.5.7-.3.4-.5.9-.5,1.4s.3,1,.7,1.3.8.5,1.3.5c.6,0,1.1-.2,1.5-.7.3-.4.5-.9.5-1.4s-.3-1-.7-1.3c-.3-.3-.8-.5-1.3-.5" fill="#fff"/></g><g><path d="M832.3,305.2c-1,0-2-.5-2.6-1.4l-26.3-39.5l13.6-8.1l22.4,41.9c.8,1.5.3,3.3-1.1,4.1l-4.3,2.6c-.6.2-1.1.4-1.7.4" fill="#07212d"/></g><g><path d="M816.7,257l22.1,41.3c.6,1.2.2,2.6-.9,3.3l-4.3,2.6c-.4.2-.8.3-1.3.3-.8,0-1.6-.4-2-1.1l-26-39l12.4-7.4Zm.5-1.8l-1.2.7-12.4,7.4-1.2.7.8,1.2l26,39c.7,1.1,1.9,1.7,3.1,1.7.7,0,1.4-.2,1.9-.5l4.3-2.6c1.7-1,2.3-3.2,1.4-5l-22.1-41.3-.6-1.3Z" fill="#fff"/></g><g><polygon points="839.8,306.2 836.8,308.1 833.9,305 838.4,302.3" fill="#07212d"/></g><g><path d="M802.5,264.1c-4.7-.4-9-3-11.5-7.1l-.1-.2c-4.2-6.9-1.9-15.9,5-20.1l.2-.1c2.3-1.4,4.9-2.1,7.5-2.1c5.1,0,9.9,2.7,12.6,7.1l.1.2c2.4,4.1,2.8,9.1.8,13.4l-.1.2-14.4,8.6-.1.1Z" fill="#07212d"/></g><g><path d="M803.7,235.2c4.8,0,9.4,2.4,12,6.8l.1.2c2.4,4,2.6,8.8.8,12.8l-14.1,8.4c-4.4-.3-8.5-2.7-11-6.8l-.1-.2c-4-6.6-1.8-15.2,4.8-19.2l.2-.1c2.4-1.3,4.8-1.9,7.3-1.9m0-1.4c-2.8,0-5.5.8-7.9,2.2l-.2.1c-3.5,2.1-6,5.4-7,9.4s-.4,8.1,1.7,11.6l.1.2c2.6,4.3,7,7,12,7.4h.4l.4-.2l14.1-8.4.4-.2.2-.4c2-4.5,1.7-9.8-.9-14.1l-.1-.2c-2.8-4.5-7.9-7.4-13.2-7.4" fill="#fff"/></g><g><path d="M848.8,318.4c-2.6,0-5.3-1.4-7.8-4.1-1.8-1.8-2.9-3.7-3-3.9l-1-1.7l3.5-2.1l1,1.7c.2.3,1.1,1.8,2.5,3.2c1.2,1.3,3.1,2.8,4.9,2.8s3.4-1.5,5-4.4l1-1.8l3.6,1.9-1,1.8c-1.4,2.6-3,4.4-4.7,5.4-1.1.7-2.4,1-3.6,1.1l-.4.1Z" fill="#07212d"/></g><g><path d="M840.1,307.5l.7,1.2c0,0,1,1.7,2.6,3.4c1.3,1.4,3.3,3,5.4,3c0,0,.1,0,.1,0c1.9,0,3.8-1.6,5.5-4.7l.6-1.2l2.4,1.3-.6,1.2c-1.3,2.5-2.8,4.2-4.5,5.2-1,.6-2.2,1-3.3,1-.1,0-.1,0-.2,0-2.4,0-4.9-1.3-7.4-3.9-1.8-1.9-2.9-3.7-2.9-3.8l-.7-1.2l2.3-1.5Zm.4-1.9l-1.1.7-2.3,1.4-1.1.7.7,1.1.7,1.2c.1.1,1.2,2.1,3.1,4c2.7,2.9,5.5,4.3,8.3,4.3h.2c1.4,0,2.7-.4,4-1.2c1.9-1.1,3.5-3,5-5.7l.6-1.2.6-1.2-1.2-.6-2.4-1.3-1.2-.6-.6,1.2-.6,1.2c-1,1.8-2.5,4-4.3,4h-.1c-1.2,0-2.8-.9-4.4-2.6-1.5-1.5-2.4-3.1-2.4-3.1l-.7-1.2-.8-1.1Z" fill="#fff"/></g><g><path d="M800.9,259.8c-.3.2-.8.1-1-.2s-.1-.8.2-1s.8-.1,1,.2c.2.4.1.8-.2,1" fill="#fff"/></g><g><path d="M805.4,257.1c-.3.2-.8.1-1-.2s-.1-.8.2-1s.8-.1,1,.2c.2.4.1.8-.2,1" fill="#fff"/></g><g><path d="M809.8,254.5c-.3.2-.8.1-1-.2s-.1-.8.2-1s.8-.1,1,.2c.3.3.2.8-.2,1" fill="#fff"/></g><g><path d="M814.3,251.8c-.3.2-.8.1-1-.2s-.1-.8.2-1s.8-.1,1,.2c.3.3.1.8-.2,1" fill="#fff"/></g><g><path d="M797.3,259c-.3.2-.8.1-1-.2s-.1-.8.2-1s.8-.1,1,.2.1.8-.2,1" fill="#fff"/></g><g><path d="M801.8,256.3c-.3.2-.8.1-1-.2s-.1-.8.2-1s.8-.1,1,.2c.2.4.1.8-.2,1" fill="#fff"/></g><g><path d="M806.2,253.6c-.3.2-.8.1-1-.2s-.1-.8.2-1s.8-.1,1,.2c.3.4.2.8-.2,1" fill="#fff"/></g><g><path d="M810.7,250.9c-.3.2-.8.1-1-.2s-.1-.8.2-1s.8-.1,1,.2c.3.4.2.8-.2,1" fill="#fff"/></g><g><path d="M815.2,248.3c-.3.2-.8.1-1-.2s-.1-.8.2-1s.8-.1,1,.2.1.8-.2,1" fill="#fff"/></g><g><path d="M804.3,260.6c-.3.2-.8.1-1-.2s-.1-.8.2-1s.8-.1,1,.2c.3.3.2.8-.2,1" fill="#fff"/></g><g><path d="M808.8,257.9c-.3.2-.8.1-1-.2s-.1-.8.2-1s.8-.1,1,.2.1.8-.2,1" fill="#fff"/></g><g><path d="M813.3,255.2c-.3.2-.8.1-1-.2s-.1-.8.2-1s.8-.1,1,.2c.2.4.1.8-.2,1" fill="#fff"/></g><g><path d="M798.3,255.6c-.3.2-.8.1-1-.2s-.1-.8.2-1s.8-.1,1,.2c.3.3.2.8-.2,1" fill="#fff"/></g><g><path d="M802.8,252.9c-.3.2-.8.1-1-.2s-.1-.8.2-1s.8-.1,1,.2c.3.3.1.8-.2,1" fill="#fff"/></g><g><path d="M807.3,250.2c-.3.2-.8.1-1-.2s-.1-.8.2-1s.8-.1,1,.2.1.8-.2,1" fill="#fff"/></g><g><path d="M811.8,247.5c-.3.2-.8.1-1-.2s-.1-.8.2-1s.8-.1,1,.2c.2.4.1.8-.2,1" fill="#fff"/></g><g><path d="M794.7,254.7c-.3.2-.8.1-1-.2s-.1-.8.2-1s.8-.1,1,.2c.3.4.2.8-.2,1" fill="#fff"/></g><g><path d="M799.2,252.1c-.3.2-.8.1-1-.2s-.1-.8.2-1s.8-.1,1,.2c.3.3.1.7-.2,1" fill="#fff"/></g><g><path d="M803.7,249.4c-.3.2-.8.1-1-.2s-.1-.8.2-1s.8-.1,1,.2.1.8-.2,1" fill="#fff"/></g><g><path d="M808.2,246.7c-.3.2-.8.1-1-.2s-.1-.8.2-1s.8-.1,1,.2.1.8-.2,1" fill="#fff"/></g><g><path d="M812.6,244c-.3.2-.8.1-1-.2s-.1-.8.2-1s.8-.1,1,.2c.3.4.2.8-.2,1" fill="#fff"/></g><g><path d="M795.8,251.3c-.3.2-.8.1-1-.2s-.1-.8.2-1s.8-.1,1,.2c.2.4.1.8-.2,1" fill="#fff"/></g><g><path d="M800.2,248.6c-.3.2-.8.1-1-.2s-.1-.8.2-1s.8-.1,1,.2c.3.4.2.8-.2,1" fill="#fff"/></g><g><path d="M804.7,245.9c-.3.2-.8.1-1-.2s-.1-.8.2-1s.8-.1,1,.2c.3.4.2.8-.2,1" fill="#fff"/></g><g><path d="M809.2,243.3c-.3.2-.8.1-1-.2s-.1-.8.2-1s.8-.1,1,.2c.3.3.1.8-.2,1" fill="#fff"/></g><g><path d="M792.2,250.5c-.3.2-.8.1-1-.2s-.1-.8.2-1s.8-.1,1,.2.1.8-.2,1" fill="#fff"/></g><g><path d="M796.7,247.8c-.3.2-.8.1-1-.2s-.1-.8.2-1s.8-.1,1,.2.1.8-.2,1" fill="#fff"/></g><g><path d="M801.1,245.1c-.3.2-.8.1-1-.2s-.1-.8.2-1s.8-.1,1,.2.2.8-.2,1" fill="#fff"/></g><g><path d="M805.6,242.4c-.3.2-.8.1-1-.2s-.1-.8.2-1s.8-.1,1,.2c.3.4.1.8-.2,1" fill="#fff"/></g><g><path d="M810.1,239.7c-.3.2-.8.1-1-.2s-.1-.8.2-1s.8-.1,1,.2c.2.4.1.8-.2,1" fill="#fff"/></g><g><path d="M793.2,247c-.3.2-.8.1-1-.2s-.1-.8.2-1s.8-.1,1,.2c.3.4.2.8-.2,1" fill="#fff"/></g><g><path d="M797.7,244.4c-.3.2-.8.1-1-.2s-.1-.8.2-1s.8-.1,1,.2c.3.3.1.8-.2,1" fill="#fff"/></g><g><path d="M802.2,241.7c-.3.2-.8.1-1-.2s-.1-.8.2-1s.8-.1,1,.2.1.8-.2,1" fill="#fff"/></g><g><path d="M806.6,239c-.3.2-.8.1-1-.2s-.1-.8.2-1s.8-.1,1,.2c.3.3.2.8-.2,1" fill="#fff"/></g><g><path d="M794.1,243.5c-.3.2-.8.1-1-.2s-.1-.8.2-1s.8-.1,1,.2c.3.4.1.8-.2,1" fill="#fff"/></g><g><path d="M798.6,240.8c-.3.2-.8.1-1-.2s-.1-.8.2-1s.8-.1,1,.2c.2.4.1.8-.2,1" fill="#fff"/></g><g><path d="M803.1,238.2c-.3.2-.8.1-1-.2s-.1-.8.2-1s.8-.1,1,.2.1.8-.2,1" fill="#fff"/></g><g><path d="M813.3,265.4v0c-.6.4-.8,1.1-.4,1.7l1.9,3.2c.4.6,1.1.8,1.7.4v0c.6-.4.8-1.1.4-1.7l-1.9-3.2c-.3-.5-1.1-.7-1.7-.4" fill="#fff"/></g><g><path d="M813.3,265.4v0c-.6.4-.8,1.1-.4,1.7l1.9,3.2c.4.6,1.1.8,1.7.4v0c.6-.4.8-1.1.4-1.7l-1.9-3.2c-.3-.5-1.1-.7-1.7-.4" fill="#fff"/></g><g><path d="M815.6,267.7l-1-1.6c-.2-.4-.8-.5-1.1-.3v0c-.4.2-.5.8-.3,1.1l1,1.6l1.4-.8Z" fill="#07212d"/></g><g><path d="M828.7,324.5c-3.7,0-8.2-1.6-13.4-4.7-11-6.7-12.3-12.6-11.4-16.4c1.1-5,6.3-8.1,8.3-8.3c2.9-.3,6-2,5.9-5.7c0-4.6,2.1-11.6,8.2-12.3.6-.1,1.1-.1,1.6-.1c1.6,0,2.7.4,3.2,1.3.6,1.1,0,2.2-.1,2.3l-.2.3-.4.1c-.3,0-2.6.6-2.2,3.8.1,1.2.8,2.1,2.1,2.9l28.5-45.8c-.2-.1-.5-.3-.7-.6-.3-.6-.1-1.2.1-1.6.6-1.4,10.6-10.2,13.9-10.2.4,0,.7.1.9.2c1.1.7,1.4,1.5,1.4,2.1.1,1.6-1.5,2.9-2.6,3.8l-.1.1c-1.1,1.2-1.6,3-2.1,4.6-.5,1.7-.9,3.2-2.1,3.7-.4.2-.8.3-1.2.3-.5,0-.9-.1-1.2-.2-.2-.1-.4-.1-.5-.1s-.3.3-.3.4c-.9,1.5-22.2,37.6-27.9,47.3.9.7,1.9,1.1,2.7,1.1.4,0,.8-.1,1.2-.2c3-1.2,2.5-3.5,2.4-3.7l-.1-.3.2-.3c.1-.1.8-1.2,2-1.2c1.3,0,2.4,1.2,3.3,3.7c2.2,5.7-3.1,10.8-7.2,12.9-3.4,1.7-3.4,5.2-2.3,7.9.7,1.7.4,6-1.8,9.2-1.8,2.3-4.6,3.7-8.1,3.7v0Zm3.2-4.7c-.1,0-.2.1-.3.3c0,.1,0,.2.1.3c0,0,.1,0,.1,0c.1,0,.2-.1.3-.3c0-.1,0-.2-.1-.3c0,.1-.1,0-.1,0m2.8-4c-.4,0-.7.4-.8.7-.1.4,0,.7.4.9.1.1.3.1.4.1.4,0,.7-.4.8-.7s.1-.6-.4-.9c-.2-.1-.3-.1-.4-.1m-13.3-8.7c-.3,0-.5.1-.6.4-.1.2-.1.4-.1.6s.2.4.3.5l2.3,1.4c.1.1.2.1.4.1.3,0,.5-.1.6-.4.1-.2.1-.4.1-.6s-.2-.4-.3-.5l-2.3-1.4c-.2,0-.3-.1-.4-.1" fill="#07212d"/></g><g><path d="M872.1,230.1c.2,0,.4,0,.5.1c3,1.8-1.3,4.5-1.4,4.7-2.5,2.6-2.2,7.3-3.9,8.1-.3.1-.6.2-.9.2-.7,0-1.2-.3-1.7-.3-.3,0-.7.2-1,.7-.9,1.5-23.1,39.1-28.3,47.9c1,.9,2.3,1.6,3.8,1.6.5,0,1-.1,1.5-.3c3.9-1.5,2.8-4.7,2.8-4.7s.5-.8,1.3-.8c.7,0,1.6.7,2.6,3.2c2,5.3-3.2,10.1-6.8,12s-4,5.7-2.7,8.9c.9,2.4-.2,12.3-9.2,12.3-3.2,0-7.5-1.3-13-4.6-21-12.7-6.9-22.9-3.5-23.3s6.7-2.5,6.6-6.5c0-4.1,1.9-10.9,7.5-11.6.6-.1,1-.1,1.5-.1c3.8,0,2.4,2.4,2.4,2.4s-3.3.6-2.8,4.7c.2,2,1.7,3.1,3.1,3.8l29.4-47.2c-.5-.3-1.6,0-1-1.5.4-1,10.1-9.7,13.2-9.7M827,307.3c2.1,0,4.1-1.1,5.3-3c1.8-2.9.8-6.7-2.1-8.5-1-.6-2.1-.9-3.2-.9-2.1,0-4.1,1.1-5.3,3-1.8,2.9-.8,6.7,2.1,8.5c1,.6,2.1.9,3.2.9m-3.3,3.5c.5,0,1-.3,1.3-.7.4-.7.2-1.7-.5-2.1l-2.3-1.4c-.2-.1-.5-.2-.8-.2-.5,0-1,.3-1.3.7-.4.7-.2,1.7.5,2.1l2.3,1.4c.2.1.5.2.8.2m10.9,7.5c1.4,0,2.4-2.1.9-3-.3-.2-.6-.2-.8-.2-1.4,0-2.4,2.1-.9,3c.3.1.6.2.8.2m-2.7,2.9c.9,0,1.6-1.4.6-2-.2-.1-.4-.2-.5-.2-.9,0-1.6,1.4-.6,2c.1.2.3.2.5.2m-3.5.3c.5,0,.8-.7.3-1.1-.1-.1-.2-.1-.3-.1-.5,0-.8.7-.3,1.1.1,0,.2.1.3.1M827,296.1c2.8,0,5,2.3,5,5c0,2.8-2.3,5-5,5-2.8,0-5-2.3-5-5s2.2-5,5-5m45.1-67.6v0c-3.9,0-14.1,9.3-14.7,10.7-.1.3-.6,1.3-.1,2.3.1.2.2.3.3.5L830,286.4c-.9-.8-1-1.5-1.1-1.8-.3-2.6,1.4-2.9,1.6-3l.7-.1.4-.6c.4-.8.7-2,.1-3.1s-1.9-1.7-3.9-1.7c-.5,0-1,0-1.6.1-6.5.8-8.9,8.3-8.9,13.1c0,3.3-2.7,4.7-5.2,5-2.4.3-7.8,3.6-9,8.9-.9,4.1.4,10.3,11.8,17.3c5.3,3.2,10,4.9,13.8,4.9c4.8,0,7.4-2.4,8.8-4.5c2.4-3.5,2.6-8.1,1.9-10-.9-2.4-.9-5.4,2-6.9c4.3-2.2,9.9-7.8,7.5-13.9-.4-1-1.6-4.2-4-4.2-1.2,0-2.2.8-2.6,1.5l-.4.6.2.7c.1.4.3,1.9-1.9,2.8-.3.1-.6.2-.9.2-.6,0-1.2-.2-1.7-.5l27.5-46.5c.3.1.8.2,1.4.2.5,0,1-.1,1.5-.3c1.5-.7,2-2.4,2.5-4.2.4-1.5.9-3.1,1.9-4.2h.1c.8-.6,3-2.3,2.9-4.4c0-.8-.4-1.9-1.8-2.7-.5-.5-1-.6-1.5-.6m-37.5,88.2c0,0,0-.1.1-.1l-.1.1c.1-.1,0,0,0,0v0Z" fill="#fff"/></g></g></g><g><g><g id="eXfc0HkrAoR240_ts" transform="translate(731.200012,78.400002) scale(0.263181,0.263181)"><g id="eXfc0HkrAoR240" transform="translate(-731.200012,-78.400002)" opacity="0"><path d="M733.9,135.4c2.9-2.7,5.7-5.4,8.2-7.8c5.7-5.6,8.4-9.6,8.4-14.3c0-4.4-2.5-7.1-6.5-7.1-1.5,0-3.6.3-5.8,1.2l3.8-2.2-1.2,5.1c-.7,3.2-2.1,4.2-3.8,4.2-1.5,0-2.7-.8-3.4-2c.4-5.9,6.1-8.9,12.6-8.9c8,0,11.4,4,11.4,9.5c0,5.1-3.4,9.2-12.7,16.4-2,1.5-4.5,3.6-7,5.6l-.8-1.1h21.7v5.6h-25v-4.2h.1Z" fill="#fff"/><path d="M703.6,135.4c2.9-2.7,5.7-5.4,8.2-7.8c5.7-5.6,8.4-9.6,8.4-14.3c0-4.4-2.5-7.1-6.5-7.1-1.5,0-3.6.3-5.8,1.2l3.8-2.2-1.2,5.1c-.7,3.2-2.1,4.2-3.8,4.2-1.5,0-2.7-.8-3.4-2c.4-5.9,6.1-8.9,12.6-8.9c8,0,11.4,4,11.4,9.5c0,5.1-3.4,9.2-12.7,16.4-2,1.5-4.5,3.6-7,5.6l-.8-1.1h21.7v5.6h-25v-4.2h.1Z" fill="#fff"/><path d="M771.6,89.1c1.9,0,3.2-1,4.6-3l.4.8c-1.7,3.1-3.7,4.7-6.8,4.7-4.4,0-7.6-3.4-7.6-8.9c0-5.6,3.7-9.2,8.2-9.2c2.7,0,4.4,1.3,6.3,4.3l-.4.8c-1.8-1.8-3.1-2.6-4.6-2.6-2.6,0-4.6,2.1-4.6,6.6-.1,4.3,1.8,6.5,4.5,6.5Zm10.4.5v1.5l-6.6.4-.4-3.4v-11.2l.2-.4v-8.2l-2.9-.4v-1.4l6.9-1.6.6.3-.2,5v20.9L778,88.9l4,.7Z" fill="#fff"/><path d="M759.3,80.7c0,.8-.1,1.4-.2,2h-14.4v-1.7h8c1.8,0,2.3-.7,2.3-2c0-2.2-1.5-3.7-3.4-3.7-2,0-4.1,1.8-4.1,6.9c0,4.5,2.3,6.6,5.6,6.6c2.2,0,3.7-.9,4.9-2.2l1.1.9c-1.5,2.7-4,4.2-7.6,4.2-5.3,0-8.9-3.4-8.9-9c0-5.7,4.4-9.2,9.2-9.2c4.5,0,7.5,2.8,7.5,7.2Z" fill="#fff"/><path d="M710.9,91.1c.1-1.6.1-5.3.1-7.5v-1.9c0-2,0-2.9-.1-4.3l-2.7-.3v-1.3l6.3-2.3.6.4.4,4.1v5.7c0,2.2,0,5.9.1,7.5h-4.7v-.1Zm6.9-1.5v1.5h-9.3v-1.5l3.8-.7h1.8l3.7.7Zm9-9.8v3.7c0,2.3,0,5.9.1,7.5h-4.7c.1-1.6.1-5.2.1-7.5v-3.2c0-2.9-.7-3.9-2.7-3.9-1.7,0-3.3,1-5,2.5h-1.1v-2h2.1l-1.4.8c2-2.7,4.6-4.4,7.3-4.4c3.6.2,5.3,2.1,5.3,6.5Zm-1.3,9.1l3.6.7v1.5h-9.2v-1.5l3.7-.7h1.9ZM738,79.7v3.8c0,2.3,0,5.9.1,7.5h-4.7c.1-1.6.1-5.2.1-7.5v-3.3c0-3-.8-3.9-2.7-3.9-1.7,0-3.2.8-5,2.5h-1.1v-1.8h2.4l-1.6.7c2.3-3.2,4.8-4.4,7.4-4.4c3.4.2,5.1,2.1,5.1,6.4Zm-1.3,9.2l3.7.7v1.5h-9.2v-1.5l3.6-.7h1.9Z" fill="#fff"/><path d="M695.8,81.4c1.6-.5,4.1-1.1,5.9-1.5v1.4c-1.7.4-3.9,1-5,1.4-2.5,1-3.3,2.2-3.3,3.6c0,1.8,1.2,2.6,2.7,2.6c1,0,1.7-.4,3.5-1.6l1.1-.8.5.6-1.3,1.3c-2,2-3.3,3-5.8,3-2.8,0-5-1.6-5-4.5-.1-2.1,1.2-3.8,6.7-5.5Zm3.5,6.6v-8.6c0-3.3-.8-4.2-3.3-4.2-.9,0-1.9.1-3.5.6l2.1-1.3-.6,2.8c-.2,1.7-1.1,2.5-2.4,2.5-1.2,0-1.9-.6-2.1-1.6.5-2.9,3.4-4.7,8-4.7c4.4,0,6.3,1.8,6.3,6.5v7.8c0,1.2.4,1.6,1.1,1.6.5,0,.9-.3,1.3-.8l.9.7c-.9,1.7-2.1,2.3-3.9,2.3-2.3-.1-3.7-1.4-3.9-3.6Z" fill="#fff"/><path d="M681.8,85.9c0-2.1-1.2-3-4-4.1l-1.5-.6c-4.2-1.7-6.8-3.8-6.8-7.6c0-4.2,3.7-6.8,8.9-6.8c2.6,0,4.9.7,6.7,1.9l-.3,4.8h-2.8l-1-5.4l2.7,1.1v1.8c-1.9-1.5-3.3-2.2-5.3-2.2-2.5,0-4.5,1.3-4.5,3.7c0,2.1,1.4,3.2,3.9,4.2l1.6.7c4.9,1.9,6.9,4,6.9,7.5c0,4.2-3.6,7-9.4,7-2.8,0-5.8-.7-7.8-1.9l.2-5.2h2.9l1,5.7-2.7-.9v-1.7c2.4,1.4,3.8,2.1,6.3,2.1c3.1-.3,5-1.8,5-4.1Z" fill="#fff"/><path d="M758.2,187.7c.1-2.5.2-8.2.2-11.6v-2.9c0-3-.1-4.5-.2-6.7l-4.1-.5v-2l9.8-3.5.9.6.6,6.3v8.8c0,3.4.1,9.1.2,11.6h-7.4v-.1Zm10.7-2.3v2.3h-14.4v-2.3l5.9-1.1h2.8l5.7,1.1ZM783,170.3v5.8c0,3.5.1,9.1.2,11.6h-7.4c.1-2.5.2-8.1.2-11.6v-5.2c0-4.3-1.2-5.8-4.1-5.8-2.5,0-5.1,1.3-7.9,3.9h-1.6v-3h3.5l-2.4,1.3c3.4-4.6,7.4-6.8,11.6-6.8c5,0,7.9,3,7.9,9.8Zm-2.1,14l5.8,1.1v2.3h-14.4v-2.3l5.8-1.1h2.8Z" fill="#fff"/><path d="M740.2,187.7c.1-2.5.2-8.2.2-11.6v-2.6c0-3-.1-4.8-.2-7L736,166v-2l10.5-3.5.9.6-.2,7.7v7.3c0,3.4.1,9.1.2,11.6h-7.2Zm10.7-2.3v2.3h-14.5v-2.3l5.9-1.1h2.8l5.8,1.1Zm-11.5-34c0-2.3,1.9-3.9,4.4-3.9s4.4,1.6,4.4,3.9-1.9,3.9-4.4,3.9-4.4-1.6-4.4-3.9Z" fill="#fff"/><path d="M711.8,178.3c0,4.2,1.3,5.6,3.9,5.6s5.6-1.8,7.9-4.3h1.7v3.2h-3.3l2-1.2c-3,4.6-7,6.9-11.3,6.9-4.8,0-8-2.7-7.9-10l.2-14.7l1.5,1.4-5.3-1.1v-2.1l10.2-1.2.8.6-.3,7.8v9.1h-.1Zm11.2,9.9l-.6-6.5.2-18l1.5,1.4-5.2-1.1v-2l10-1.3.8.6-.2,7.8v17.5l-2.7-2.4l6.2,1.2v2.3l-10,.5Z" fill="#fff"/><path d="M693.2,151c-.2,5.5-.2,11.2-.2,16.9v7.2c0,6.9-.4,10.8-1.7,14-1.7,5.1-6.5,7.8-11.6,7.8-2.7,0-5.1-.8-6-3.1.2-2.3,1.9-3.4,4.1-3.4c1.7,0,3.1.7,4.8,2.4l1.9,1.8-.6.5h-.5v-.5c1.7-1.6,2.3-4,2.3-8c0-4.4-.3-12.3-.5-35.5h8v-.1Zm-13.3,0h18.2v2.6l-8.1.8h-1.7l-8.3-.8v-2.6h-.1Z" fill="#fff"/><path d="M731.2,251.7c-3.3,0-6.6-.8-9.2-2.3l-88.7-51.2c-5.3-3-9.2-9.9-9.2-16v-102.4c0-6.1,4-13,9.2-16L722,12.6c5.3-3,13.2-3,18.5,0l88.7,51.2c5.3,3,9.2,9.9,9.2,16v102.4c0,6.1-4,13-9.2,16l-88.7,51.2c-2.7,1.6-6,2.3-9.3,2.3Zm0-231.7c-1.6,0-3.3.3-4.4,1L638,72.2c-2.3,1.3-4.4,5-4.4,7.7v102.4c0,2.6,2.2,6.4,4.4,7.7l88.7,51.2c2.3,1.3,6.6,1.3,8.9,0L824.3,190c2.3-1.3,4.4-5,4.4-7.7v-102.5c0-2.6-2.2-6.4-4.4-7.7L735.6,21c-1.2-.7-2.8-1-4.4-1Z" fill="#fff"/><path d="M786.3,91.1c.1-1.6.1-5.3.1-7.5v-1.7c0-2,0-3.1-.1-4.5l-2.7-.3v-1.3l6.8-2.3.6.4-.1,5v4.7c0,2.2,0,5.9.1,7.5h-4.7Zm7-1.5v1.5h-9.4v-1.5l3.8-.7h1.8l3.8.7Zm-7.5-22c0-1.5,1.3-2.6,2.9-2.6s2.9,1,2.9,2.6c0,1.5-1.3,2.6-2.9,2.6s-2.9-1.1-2.9-2.6Z" fill="#fff"/></g></g></g></g><g><g transform="matrix(.999454-.033054 0.033054 0.999454 5.49008 26.193759)"><path d="M1132.3,124.2c20.8-1.9,34.9-10,48.2-26.9l8.7,4.2c-12.8,29.8-37.7,47.6-73.1,50.8-49.2,4.5-90.5-22.2-95.2-74.2-5.1-56.1,35.7-92.8,92.5-97.9c64.6-5.8,105.2,33.6,111.5,103c7.6,84.1-45.4,156.9-157.3,188.5l-6.2-18.4c87.4-36.4,115.3-83,108-164.3-6.2-68-26.8-90.8-54.7-88.3C1090.2,3,1071,25,1075,68.5c3.7,41,27.2,58.4,57.3,55.7Z" fill="#fff"/></g></g><g><g><path d="M883.1,420.2v2.2h-20.2v-2.2l6.5-1.4h7.7l6,1.4Zm-6.4-28.4l.7.5-.2,6.8v13.4c0,3.2.1,6.6.2,10h-8.5c.1-3.3.2-6.7.2-10v-15.7l-4.9.4v-2.8l12.5-2.6Z" fill="#07212d"/><path d="M904.4,413.8c0-4.6-1.4-7-4.3-7-1.7,0-3.5.8-5,2.9l-1.1-.5c1.8-3.8,5.1-5.6,9-5.6c6.1,0,9.3,3.6,9.3,9.2c0,6.9-5.3,10.4-11.7,10.4-7.7,0-12.7-4.7-12.7-13c0-9.7,8.8-17.5,21.9-18.6l.3,2.4c-9.3,2.2-14,7.2-14,15.1c0,8.5,1.9,11.7,4.6,11.7c2.2-.1,3.7-2.2,3.7-7Z" fill="#07212d"/><path d="M926.3,393.6v-2.6h8.1v3.3h-.8l-7.3-.7Zm8.1,25.6v3.3h-8.1v-2.6l7.3-.7h.8Zm-4.2-13.1c0-5,0-10-.2-15h8.6c-.2,4.9-.2,9.9-.2,15v1.2c0,5.2,0,10.2.2,15.2h-8.6c.2-4.9.2-9.9.2-15v-1.4Zm4.2-1.3h5.5c4.3,0,6.3-2,6.3-5.7c0-3.5-1.8-5.2-5.8-5.2h-6v-2.9h8.2c8.6,0,11.8,3.2,11.8,7.4c0,3.6-2.3,6.6-10.5,7.5v-.4c8.9.5,12.4,3.5,12.4,8.2c0,4-3.1,8.8-15.7,8.8h-6.3v-2.8h5.8c4.7,0,7.4-2.1,7.4-6.1c0-4.3-2.4-6.2-7.4-6.2h-5.8v-2.6h.1Z" fill="#07212d"/><path d="M961.7,412.4v-2.8c0-2.6-.1-3.6-.2-5.5l-3.1-.4v-1.9l10-3.2.9.5.5,5.9v7.4c0,3,.1,7.9.2,10h-8.3c-.1-2.1,0-7,0-10Zm-2.9,7.8l4.8-1h5.3l4.8,1v2.2h-15v-2.2h.1Zm7.2-14.1h3.8l-.7,1.3c.9-5.9,4.4-8.8,7.4-8.8c2.2,0,4,1.2,4.4,3.5-.1,2.5-1.6,3.9-3.6,3.9-1.5,0-2.7-.7-3.9-2.2l-1.5-1.8l2,.7c-1.8,1.3-3.6,3.8-4.3,6.6L966,409v-2.9Z" fill="#07212d"/><path d="M992.3,409.1c2.1-.6,5.7-1.5,8-2v2c-2.4.6-5.1,1.3-6.6,1.9-2.3.9-3.8,2.5-3.8,4.8c0,2.4,1.3,3.5,3,3.5c1,0,1.8-.4,3.4-1.5l2-1.4.5.7-2.1,2.2c-2.4,2.5-4,3.9-7.7,3.9-3.9,0-6.6-2.2-6.6-6.1.1-3.4,2.1-5.8,9.9-8Zm3.8,9.4v-12c0-4.2-.9-5.5-4.1-5.5-1.2,0-2.5.1-4.7.7l3.5-1.9-.4,3.3c-.1,3.2-1.8,4.5-3.7,4.5-1.8,0-3-.8-3.4-2.4.3-4,4.3-6.7,11.6-6.7c6.5,0,9,2.6,9,9v10.7c0,.9.4,1.4,1.1,1.4.5,0,.9-.3,1.5-1.1l1.3.8c-1.2,2.6-3,3.6-6.1,3.6-3.3.2-5.2-1.5-5.6-4.4Z" fill="#07212d"/><path d="M1009.3,421l.1-5.9h4.1l1.1,6.4-2.8-.9v-2c2.2,1.3,4,1.9,6.3,1.9c2.9,0,4.5-.9,4.5-2.8c0-1.5-.9-2.5-4.3-3.4l-2.7-.7c-3.9-1.1-6.1-3.5-6.1-7.1c0-4.4,3.7-7.8,10.5-7.8c3,0,5.4.7,8,1.9l-.3,5.2h-4.1l-1.4-5.9l2.8,1.1v1.8c-1.8-1.1-2.9-1.5-5.1-1.5-2.3,0-3.8.9-3.8,2.7c0,1.3.8,2.2,4.2,3.2l2.5.7c4.8,1.4,6.7,3.8,6.7,7.4c0,5.1-4.3,8-11.4,8-3.4-.1-6.2-.9-8.8-2.3Z" fill="#07212d"/><path d="M1032.2,421l.1-5.9h4.1l1.1,6.4-2.8-.9v-2c2.2,1.3,4,1.9,6.3,1.9c2.9,0,4.5-.9,4.5-2.8c0-1.5-.9-2.5-4.3-3.4l-2.7-.7c-3.9-1.1-6.1-3.5-6.1-7.1c0-4.4,3.7-7.8,10.5-7.8c3,0,5.4.7,8,1.9l-.3,5.2h-4.1l-1.4-5.9l2.8,1.1v1.8c-1.8-1.1-2.9-1.5-5.1-1.5-2.3,0-3.8.9-3.8,2.7c0,1.3.8,2.2,4.2,3.2l2.5.7c4.8,1.4,6.7,3.8,6.7,7.4c0,5.1-4.3,8-11.4,8-3.3-.1-6.1-.9-8.8-2.3Z" fill="#07212d"/><path d="M1078.5,408.7c0,1-.1,1.8-.3,2.6h-19.7v-2.5h9.5c2.4,0,3-.9,3-3c0-3.1-1.6-4.7-3.4-4.7-2.1,0-4,2.2-4,9.1c0,5.8,3,8.5,6.8,8.5c2.7,0,4.6-1.1,6.1-2.6l1.7,1.6c-2.1,3.7-5.7,5.6-10.6,5.6-7.3,0-12.6-4.6-12.6-12.3c0-8,6.5-12.3,13-12.3c6.7-.1,10.5,4.2,10.5,10Z" fill="#07212d"/><path d="M1091.7,414.6c0,3,1,3.9,2.7,3.9c2,0,4.4-1.9,5.9-3.9h1.9v3.2h-3.3l1.6-1.4c-2.4,4.3-5.8,6.8-9.9,6.8-4.3,0-7.2-2.3-7.1-8.6l.2-12.9l1.6,1.5-4.5-1v-2l10.3-1.4.8.5-.3,6.8v8.5h.1Zm7.5,8.4l-.4-5.6.2-15.7l1.6,1.6-4.4-1v-1.8l10-1.6.8.5-.2,6.8v15.8l-3.4-3l6,1.2v2.2l-10.2.6Z" fill="#07212d"/><path d="M1114.8,412.4v-2.8c0-2.6-.1-3.6-.2-5.5l-3.1-.4v-1.9l10-3.2.9.5.5,5.9v7.4c0,3,.1,7.9.2,10h-8.3c-.1-2.1,0-7,0-10Zm-2.9,7.8l4.8-1h5.3l4.8,1v2.2h-15v-2.2h.1Zm7.2-14.1h3.8l-.7,1.3c.9-5.9,4.4-8.8,7.4-8.8c2.2,0,4,1.2,4.4,3.5-.1,2.5-1.6,3.9-3.6,3.9-1.5,0-2.7-.7-3.9-2.2L1125,402l2,.7c-1.8,1.3-3.6,3.8-4.3,6.6l-3.7-.3v-2.9h.1Z" fill="#07212d"/><path d="M1135.5,421l.1-5.9h4.1l1.1,6.4-2.8-.9v-2c2.2,1.3,4,1.9,6.3,1.9c2.9,0,4.5-.9,4.5-2.8c0-1.5-.9-2.5-4.3-3.4l-2.7-.7c-3.9-1.1-6.1-3.5-6.1-7.1c0-4.4,3.7-7.8,10.5-7.8c3,0,5.4.7,8,1.9l-.3,5.2h-4.1l-1.4-5.9l2.8,1.1v1.8c-1.8-1.1-2.9-1.5-5.1-1.5-2.3,0-3.8.9-3.8,2.7c0,1.3.8,2.2,4.2,3.2l2.5.7c4.8,1.4,6.7,3.8,6.7,7.4c0,5.1-4.3,8-11.4,8-3.3-.1-6.1-.9-8.8-2.3Z" fill="#07212d"/></g></g></g></svg>
