<?xml version="1.0" encoding="utf-8"?><!DOCTYPE svg PUBLIC "-//W3C//DTD SVG 1.1//EN" "http://www.w3.org/Graphics/SVG/1.1/DTD/svg11.dtd"><svg width="3648" height="3472" viewBox="0 0 3648 3472" xmlns="http://www.w3.org/2000/svg" xmlns:xlink="http://www.w3.org/1999/xlink"><svg version="1.1" id="after" viewBox="-5 -5 132 98.1" xml:space="preserve" width="132" height="98.1" xmlns="http://www.w3.org/2000/svg"><style>.aast0{fill:#fff}</style><path class="aast0" d="M36.6 59.5l.4-.9c.2 0 .2 0 .2-.1s.1-.1-.1-.2-.7-.2-1.2-.5c-.6-.2-1-.5-1.2-.6-.1 0-.2 0-.2.1s-.1.2.1.3l-.4.9c-1 2.2-4.1 4.8-4.9 6.7L25.5 74c-.3.8-.1 1.4 1.2 2l2.2 1c1.3.6 2 .3 2.3-.5l3.8-8.8c.9-2 .6-6 1.6-8.2zM40.7 58.5l-.3-.9c.1-.1.1-.2.1-.2 0-.1-.1-.1-.2-.1-.2.1-.6.3-1.2.5s-1 .4-1.2.4c-.1.1-.1.2-.1.2 0 .1.1.1.2.1l.3.9c.9 2.3.5 6.3 1.2 8.2l3.5 8.9c.3.8 1 1.1 2.3.6l2.3-.9c1.3-.5 1.6-1.2 1.3-2l-3.5-8.9c-.7-1.9-3.8-4.6-4.7-6.8zM61.8 59.6l.4-.9c.2 0 .2 0 .2-.1s.1-.1-.1-.2-.7-.2-1.2-.5c-.6-.2-1-.5-1.2-.6-.1 0-.2 0-.2.1s-.1.2.1.3l-.4.9c-1 2.2-4.1 4.8-4.9 6.7l-3.8 8.8c-.3.8-.1 1.4 1.2 2l2.2 1c1.3.6 2 .3 2.3-.5l3.8-8.8c.9-1.9.6-5.9 1.6-8.2zM65.9 58.6l-.3-.9c.1-.1.1-.2.1-.2 0-.1-.1-.1-.2-.1-.2.1-.6.3-1.2.5s-1 .4-1.2.4c-.1.1-.1.2-.1.2 0 .1.1.1.2.1l.3.9c.9 2.3.5 6.3 1.2 8.2l3.5 8.9c.3.8 1 1.1 2.3.6l2.3-.9c1.3-.5 1.6-1.2 1.3-2l-3.5-8.9c-.8-1.9-3.8-4.5-4.7-6.8zM87.7 59.8l.4-.9c.2 0 .2 0 .2-.1s.1-.1-.1-.2-.7-.2-1.2-.5c-.6-.2-1-.5-1.2-.6-.1 0-.2 0-.2.1s-.1.2.1.3l-.4.9c-1 2.2-4.1 4.8-4.9 6.7l-3.8 8.8c-.3.8-.1 1.4 1.2 2l2.2 1c1.3.6 2 .3 2.3-.5l3.8-8.8c.9-2 .7-6 1.6-8.2zM91.9 58.8l-.3-.9c.1-.1.1-.2.1-.2 0-.1-.1-.1-.2-.1-.2.1-.6.3-1.2.5s-1 .4-1.2.4c-.1.1-.1.2-.1.2 0 .1.1.1.2.1l.3.9c.9 2.3.5 6.3 1.2 8.2l3.5 8.9c.3.8 1 1.1 2.3.6l2.3-.9c1.3-.5 1.6-1.2 1.3-2l-3.5-8.9c-.8-1.9-3.8-4.6-4.7-6.8z"/><g id="aaXMLID_54_"><path class="aast0" d="M25.8 19.3l4 12.9h2.3v3.3l-9.6-.1v-3.3H25l-.9-3.3h-5L18 32.1h2.6v3.3l-8.6-.1V32h2.4l3.9-12.8h-2.6v-3.3l12.7.1v3.3h-2.6zm-4.1.7L20 25.9h3.4L21.7 20zM47.4 22.1v-2.7h-5.8v4.5h4.2v3.3h-4.2v5h3v3.3l-10.9-.1v-3.3h2.8l.1-12.8h-2.8V16l17.4.1v6h-3.8zM67.7 24.1v-4.5h-3l-.1 12.8h2.9v3.3l-10.9-.1v-3.3h3l.1-12.8h-3V24h-3.3v-7.8l17.6.1v7.8h-3.3zM87.3 22.5v-2.9h-6v4.5h4.9v3.3h-4.9v5.1h6v-2.9H91v6.2l-17.1-.1v-3.3h2.3l.1-12.8H74v-3.3l17.1.1v6.2l-3.8-.1zM111.8 21.8c0 1.2-.3 2.2-.9 3-.6.8-1.4 1.5-2.5 2l3.1 5.9h2.5V36h-5.9l-4.3-8.5h-2.2v5.2h2.4V36l-10.2-.1v-3.3h2.7l.1-12.8h-2.7v-3.3l11.1.1c2.2 0 3.8.5 5 1.4 1.2.8 1.8 2.1 1.8 3.8zm-5.3.2c0-.7-.2-1.3-.7-1.7s-1.1-.6-1.9-.6h-2.3v4.5h1.9c1.9.1 3-.7 3-2.2z"/></g><g id="aaXMLID_53_"><path class="aast0" d="M32.4 41.9l2.3 6.8 2.2-6.8h-1.3v-2.4h5.1v2.4h-1.3l2.3 6.8L44 42h-1.4v-2.4h5.7V42h-1.5l-4 11.9h-2.6L38 47.4l-2.2 6.5h-2.7l-4-11.9h-1.5v-2.4H34V42l-1.6-.1zM49 46.6c0-1.4.3-2.7 1-3.8.7-1.1 1.6-1.9 2.8-2.6 1.2-.6 2.6-.9 4.1-.9 1.6 0 2.9.3 4.1.9 1.2.6 2.1 1.5 2.8 2.6.7 1.1 1 2.4 1 3.8s-.3 2.7-1 3.8c-.7 1.1-1.6 2-2.8 2.6-1.2.6-2.6.9-4.1.9-1.5 0-2.9-.3-4.1-.9-1.2-.6-2.1-1.5-2.8-2.6-.7-1-1-2.3-1-3.8zm11.8.1c0-.9-.1-1.6-.5-2.4-.3-.7-.8-1.3-1.4-1.7-.6-.4-1.3-.6-2.1-.6s-1.5.2-2.1.6c-.6.4-1.1 1-1.4 1.7-.2.7-.3 1.5-.3 2.3 0 .9.2 1.7.5 2.4s.8 1.3 1.4 1.7c.6.4 1.3.6 2 .6.8 0 1.5-.2 2.1-.6.6-.4 1.1-1 1.4-1.7.3-.6.4-1.4.4-2.3zM79.8 43.6c0 .9-.2 1.6-.6 2.2-.4.6-1 1.1-1.9 1.4l2.3 4.3h1.8v2.4L77 54l-3.2-6.2h-1.6v3.8H74V54h-7.5v-2.4h2l.1-9.4h-2v-2.4l8.1.1c1.6 0 2.8.3 3.7 1 .9.5 1.4 1.5 1.4 2.7zm-3.9.2c0-.5-.2-.9-.5-1.2-.3-.3-.8-.4-1.4-.4h-1.7v3.3h1.4c1.4 0 2.2-.6 2.2-1.7zM88.3 42.2l-.1 9.4h1.7V54h-7.3v-2.4h1.9l.1-9.4h-1.9v-2.4h7.4v2.4h-1.8zm8.3.1l-4 3.9 4.6 5.5h1.5v2.4h-7.6v-2.4h1.7l-4.3-5.1 4.7-4.3h-1.7v-2.4h7v2.4h-1.9z"/></g></svg><svg version="1.1" id="bouche" x="132" y="99" viewBox="-5 -5 66 66" xml:space="preserve" width="66" height="66" xmlns="http://www.w3.org/2000/svg"><style>.abst0{fill:#009fe3}.abst1{fill:#fff}.abst2{fill:none;stroke:#fff;stroke-miterlimit:10}</style><path class="abst0" d="M21.9 32.3h15.4v5.1H21.9z"/><path class="abst1" d="M37.3 35.8H20.1c-.4 0-.8-.3-.8-.8s.3-.8.8-.8h17.3c.4 0 .8.3.8.8s-.4.8-.9.8z"/><path class="abst2" d="M25.6 20.7l-.8 1v10.9h3.1V21.8l.8-1c2.5-3.4 2.5-8 0-11.4l-2.4-3.2-1.6 2.1.8 1.1c2.6 3.3 2.6 8 .1 11.3zM24.8 37.4v11.7c0 .4.4.8.8.8h1.6c.4 0 .8-.4.8-.8V37.4h-3.2z"/><path class="abst0" d="M22 38.2v10.9c0 .4.4.8.8.8h1.5c.4 0 .8-.4.8-.8V38.2c0-.4-.4-.8-.8-.8h-1.5c-.5 0-.8.3-.8.8zM22 22.2V32c0 .4.4.8.8.8h1.5c.4 0 .8-.4.8-.8V22c0-.2.1-.3.2-.5l.3-.4c2.7-3.7 2.7-8.7 0-12.3l-2-2.7-2 2.7c-2.7 3.7-2.7 8.7 0 12.3l.4.5c-.1.2 0 .4 0 .6z"/><path class="abst0" d="M28.7 20.7l-.8 1v10.9H31V21.8l.8-1c2.5-3.4 2.5-8 0-11.4l-2.4-3.2-1.6 2.1.8 1.1c2.6 3.3 2.6 8 .1 11.3zM28 37.4v11.7c0 .4.4.8.8.8h1.5c.4 0 .8-.4.8-.8V37.4H28z"/><path class="abst2" d="M31.8 20.8l-.8 1v10.9h3.1V21.8l.8-1c2.5-3.4 2.5-8 0-11.4l-2.4-3.2L31 8.3l.8 1.1c2.5 3.3 2.5 8 0 11.4zM31 37.4v11.7c0 .4.4.8.8.8h1.5c.4 0 .8-.4.8-.8V37.4H31z"/><path class="abst0" d="M34.9 20.8l-.8 1v10.9h2.3c.4 0 .8-.4.8-.8V21.8l.8-1c2.5-3.4 2.5-8 0-11.4l-2.4-3.2L34 8.3l.8 1.1c2.6 3.3 2.6 8 .1 11.4zM34.1 37.4v11.7c0 .4.4.8.8.8h1.5c.4 0 .8-.4.8-.8V38.2c0-.4-.4-.8-.8-.8h-2.3z"/><path class="abst1" d="M16.9 39c-.2 0-.4-.1-.6-.2-.3-.3-.3-.8 0-1.1l3.2-3.2c.3-.3.8-.3 1.1 0 .3.3.3.8 0 1.1l-3.2 3.2c-.1.2-.3.2-.5.2z"/><path class="abst1" d="M20.1 35.8c-.2 0-.4-.1-.6-.2l-3.2-3.2c-.3-.3-.3-.8 0-1.1.3-.3.8-.3 1.1 0l3.2 3.2c.3.3.3.8 0 1.1-.1.2-.3.2-.5.2z"/><path class="abst0" d="M25.6 14.7c-.2 0-.4-.1-.6-.2l-1.8-1.8-1.8 1.8c-.3.3-.8.3-1.1 0-.3-.3-.3-.8 0-1.1l2.9-2.9 2.9 2.9c.3.3.3.8 0 1.1-.1.2-.3.2-.5.2z"/><path class="abst0" d="M25.6 18.6c-.2 0-.4-.1-.6-.2l-1.8-1.8-1.8 1.8c-.3.3-.8.3-1.1 0s-.3-.8 0-1.1l2.9-2.9 2.9 2.9c.3.3.3.8 0 1.1-.1.2-.3.2-.5.2z"/><path class="abst1" d="M37.3 33.5H21.7c-.4 0-.8-.3-.8-.8s.3-.8.8-.8h15.6c.4 0 .8.3.8.8s-.3.8-.8.8zM37.3 38.2H21.7c-.4 0-.8-.3-.8-.8s.3-.8.8-.8h15.6c.4 0 .8.3.8.8s-.3.8-.8.8z"/></svg><svg version="1.1" id="certif" x="198" y="165" viewBox="-5 -5 93.9 86.3" xml:space="preserve" width="93.9" height="86.3" xmlns="http://www.w3.org/2000/svg"><style>.acst0{fill:#fff}</style><path class="acst0" d="M48.7 30.6c-.9-.8-2-1.4-3.2-1.3-2.4 0-4.6 1.6-5.3 3.8-.2.7.1 1.5.8 1.7.7.3 1.5 0 1.8-.7.1-.3.3-.6.4-.8.9-1.3 2.2-1.6 3.5-.6.1 0 .1.1.2.1.6.4 1.4.3 1.9-.3.6-.6.5-1.4-.1-1.9zm.1-25.5c-.5-1-1.4-1.7-2.3-2.2-2.2-1.2-4.5-1.7-6.9-1.1-1.2.3-2.2.9-2.5 2.2-.4 1.4.3 2.5 1.3 3.4.6.6 1.5.6 2 0 .5-.5.5-1.4-.1-2-.2-.2-.3-.4-.6-.7.3-.1.5-.2.7-.3 1.9-.3 3.6.2 5.2 1.2.3.2.5.5.7.7-.3.1-.5.3-.8.4-.8.3-1.2 1-1 1.7.2.8.9 1.2 1.7 1 .5-.1 1-.3 1.5-.6 1.4-.6 1.8-2.2 1.1-3.7zM33.1 57.8c-.6-.4-1.4-.3-1.9.2-.5.6-.4 1.4.1 1.9.2.2.4.3.7.5-1.5 1.2-5.8 0-6.8-1.6.4-.1.7-.2 1-.3.7-.2 1.1-.8 1-1.5-.1-.7-.6-1.2-1.2-1.3-1.3-.1-3 .9-3.4 2.1-.4 1.2 0 2.2.8 3.1.9 1 2.1 1.7 3.4 2.1 1.9.6 3.9.9 5.9.2 1-.4 1.8-1.1 2-2.2.2-1-.5-2.4-1.6-3.2zM12.7 22.4c-.2-.7-.5-1.5-1-2.1-.4-.7-1.1-.9-1.9-1-1.2 0-2 .5-2.8 1.3-1.6 1.8-2.2 4-2.3 6.4 0 1 .1 2 .6 2.9.9 1.6 2.6 2.1 4.2 1.1.4-.2.8-.6 1.1-.9.6-.6.6-1.5.1-2.1-.6-.6-1.4-.5-2.1.1-.2.2-.4.3-.6.5-.9-1.3 0-5.5 1.7-6.6.1.4.2.7.3 1 .3.8 1 1.2 1.7 1 .8-.2 1.3-.9 1-1.6zm26.1 30.3H38c-4.4.4-8.5-.5-12.4-2.7-1.6-1-3.1-2.2-4.4-3.5-.7-.7-1.7-.6-2.2.1-.4.5-.4 1.3.1 1.8.8.8 1.5 1.5 2.4 2.2 4.2 3.4 9 5 14.8 5.1.5 0 1.5-.1 2.5-.2.7-.1 1.1-.7 1.1-1.4 0-.8-.4-1.3-1.1-1.4zM31 26.8c-1.4-2.4-4.2-3.1-6.6-1.8-2.1 1.2-3.1 3.1-3.3 5.6.1.4.1 1 .3 1.6.8 3.4 4.3 4.9 7.4 3.2 2.8-1.6 3.9-5.8 2.2-8.6zm-3.7 6.1c-1.2.6-2.5.2-3-1.1-.2-.5-.3-1-.4-1.4.1-1.4 1-2.8 2.2-3.2.9-.3 1.6-.1 2.2.6 1.3 1.5.7 4.3-1 5.1zm11.3 7c-1.5-2.7-4.9-4-7.8-2.8-3.2 1.3-4.3 4.8-2.3 7.6 1.3 1.8 3.1 2.5 5.3 2.6.3 0 .7-.1 1.2-.1.4-.1.7-.2 1.1-.3 2.7-1.1 3.9-4.3 2.5-7zm-4.4 4.6h-.6c-1.2-.1-2.2-.5-3-1.5-.8-1.2-.4-2.6.9-3.3 1.5-.7 3.4-.2 4.3 1.1 1.2 1.6.3 3.4-1.6 3.7zm9.9-22c-1.1-4-6-5.8-9.4-3.4-2 1.4-2.7 3.7-1.8 6 .9 2.2 3.3 3.7 5.9 3.7 1 0 1.9-.2 2.7-.6 2.1-1.3 3.2-3.5 2.6-5.7zm-3.7 2.8c-.5.3-1.2.4-1.5.5-1.6-.1-2.6-.5-3.3-1.6-.7-1.1-.5-2.2.6-3 1.7-1.2 4.2-.4 5 1.5.5 1.1.2 2.1-.8 2.6zm24.3-4.7c-.2-1.9-.9-3.6-2.1-5.1-.8-1.1-1.8-2-3.2-2.5-1.5-.5-3 .1-3.6 1.6-.5 1.2-.3 2.5 0 3.8.2.8.2 1-.5 1.4-1.6.9-3.1 1.8-4.7 2.7-.4.2-.7.6-.8 1-.1.6.1 1 .5 1.4.5.4 1 .4 1.6.1.6-.4 1.3-.7 2-1.1.1.2.2.3.2.5.7 1.5 1.2 3.1 1.5 4.7.2.9.9 1.5 1.7 1.3.8-.2 1.3-.9 1.1-1.8-.4-1.9-1-3.8-1.8-5.6-.2-.4-.1-.6.3-.7 1.5-.7 2.4-2.5 1.7-4.4-.2-.6-.3-1.3-.2-2.1.3.2.6.3.8.4 1.5 1.2 2.4 2.8 2.8 4.7 0 .3 0 .5-.1.8-.3-.1-.5-.2-.8-.3l-.1-.1c-.6-.3-1.4-.2-1.8.4-.4.6-.4 1.4.2 1.9.7.5 1.5.9 2.4.9 1.2 0 2.1-.5 2.6-1.6.3-.8.3-1.5.3-2.3zm7 26.2l-3.9-3.9c-.6-.6-1.4-.5-2 0l-.3.3c-2.5 2.4-4.9 4.9-7.4 7.3-.3.3-.5.2-.7 0-.7-.8-1.5-1.5-2.3-2.3-.6-.6-1.4-.6-2 0-1.3 1.3-2.6 2.6-3.8 3.9-.6.6-.6 1.4 0 2.1 2.4 2.5 4.9 4.9 7.4 7.4.7.7 1.5.7 2.2 0l2.4-2.4 4.9-4.9c.5-.5.6-1.3.2-1.8-.4-.6-1.1-.8-1.7-.5-.2.1-.5.3-.7.5l-5 5c-.4.4-.8.8-1.2 1.1-.1 0-.1-.1-.2-.1l-5.2-5.2c-.2-.2-.2-.3 0-.5l1.4-1.4c.2-.2.4-.3.6 0l2.2 2.2c.7.7 1.5.7 2.2 0 2-1.9 3.9-3.9 5.9-5.8.7-.7 1.4-1.3 2.1-2 .6.6 1.1 1.2 1.7 1.7.1.1 0 .3-.1.4-.4.4-.7.8-1.1 1.1-.6.6-.6 1.5-.1 2s1.4.6 2 0l2.4-2.4c.7-.4.7-1.2.1-1.8zM52.5 17c-6-6.1-13.3-8.3-21.6-6.6-1.6.3-3.2 1-4.8 1.6-.4.1-.5.1-.7-.2-.1-.3-.3-.5-.5-.7-1-1.1-2.5-1.5-4.1-1-.5.2-1.1.2-1.6.3-.3 0-.4-.1-.2-.4.1-.1.2-.3.2-.4.7-1 1.6-1.7 2.7-2.1.8-.3 1.6-.5 2.4-.7.4-.1.5.1.3.5l-.3.6c-.3.6-.1 1.3.5 1.7.5.4 1.3.4 1.7-.1.8-1 1.3-2.1 1-3.4-.3-1.2-1.4-2-2.8-2.1-1.2-.1-2.2.2-3.3.6-1.9.8-3.6 1.9-4.7 3.7-1.2 2-.4 4.2 1.7 4.7 1 .2 2 .1 3-.2 1.1-.3 1.2-.2 1.8.7.8 1.5 1.7 3 2.6 4.4.4.6 1 .9 1.6.7.9-.3 1.3-1.2.8-2.1-.3-.6-.7-1.2-1.1-1.8.2-.1.3-.2.4-.2 6.2-2.7 12.2-2.4 18.1.7 1.9 1 3.5 2.3 5 3.8.6.6 1.4.6 2 0 .5-.5.5-1.4-.1-2zM22 18c.6-.6.7-1.5.2-2.1-.6-.6-1.4-.6-2.1 0-.7.7-1.5 1.5-2.1 2.3-5.1 6.5-6.3 13.8-3.9 21.7.3 1 .7 1.9 1.1 2.9 0 .1-.1.2-.2.2-1.9 1.2-2.4 2.6-1.8 4.8.2.6.2 1.2.3 1.8-1.6 0-4.2-4-3.6-5.9.3.1.6.3.8.4.7.4 1.5.2 1.9-.4.4-.6.3-1.5-.4-1.9-.7-.5-1.4-.8-2.2-.8-.9-.1-1.7.3-2.3 1-.5.5-.7 1.3-.7 2.1 0 1.9.7 3.5 1.7 5 .8 1.2 1.8 2.3 3.2 2.9 2.2 1 4.1-.1 4.3-2.5.1-.9-.1-1.8-.3-2.7-.2-.8-.1-1.1.6-1.5 1.5-.9 3-1.8 4.6-2.6.8-.5 1-1.2.6-2-.4-.7-1.2-.9-2-.5-.6.3-1.2.7-1.8 1.1-.1-.1-.1-.2-.2-.3-1-2.3-1.7-4.7-1.8-7.1-.4-6.2 1.7-11.5 6.1-15.9zm54.3 28.1c0 .9.6 1.5 1.4 1.5.8 0 1.4-.6 1.4-1.5v-7.8c0-.8-.4-1.2-1.1-1.5-.8-.2-1.6-.5-2.5-.7-4.8-1.4-9.7-2.8-14.5-4.2-.4-.1-.8-.1-1.2 0-1.1.3-2.2.7-3.3 1-4.5 1.3-9 2.6-13.4 4-.8.2-1.2.7-1.2 1.6v6.4h.1c0 2.4-.1 4.9 0 7.3.4 5.6 2.2 10.7 5.6 15.1 3.1 4 7 6.9 11.8 8.5.6.2 1.2.3 1.8.1 4-1.2 7.4-3.4 10.3-6.4 4.5-4.8 6.9-10.5 7.5-17 .1-.8.1-1.6.1-2.4 0-.8-.6-1.4-1.4-1.4-.8 0-1.4.5-1.4 1.3v.5c-.2 5.2-1.7 10-4.7 14.3-2.7 3.9-6.3 6.7-10.8 8.2-.3.1-.6.1-.9 0-3.4-1.1-6.2-3-8.6-5.6-4.4-4.8-6.5-10.5-6.6-16.9-.1-3.5 0-7.1 0-10.6 0-.4.1-.6.5-.7 5-1.5 9.9-2.9 14.9-4.4.2-.1.5-.1.7 0 5 1.5 10.1 2.9 15.1 4.4.4.1.5.3.5.6-.1 2.1-.1 4.2-.1 6.3z"/><path class="acst0" d="M41.8 44.8v-6.4c0-.9.3-1.3 1.2-1.6 4.5-1.3 9-2.6 13.4-4 1.1-.3 2.2-.7 3.3-1 .4-.1.8-.1 1.2 0 4.8 1.4 9.7 2.8 14.5 4.2.8.2 1.6.5 2.5.7.8.2 1.1.7 1.1 1.5V46c0 .9-.6 1.5-1.4 1.5-.8 0-1.4-.6-1.4-1.5v-6.3c0-.4-.1-.5-.5-.6-5-1.5-10.1-2.9-15.1-4.4-.2-.1-.5-.1-.7 0-5 1.5-9.9 2.9-14.9 4.4-.4.1-.5.3-.5.7 0 3.5-.1 7.1 0 10.6.2 6.4 2.3 12.1 6.6 16.9 2.4 2.6 5.3 4.5 8.6 5.6.3.1.6.1.9 0 4.5-1.5 8.1-4.3 10.8-8.2 3-4.3 4.5-9.1 4.7-14.3v-.5c.1-.8.6-1.4 1.4-1.3.8 0 1.4.6 1.4 1.4 0 .8 0 1.6-.1 2.4-.6 6.5-3 12.2-7.5 17-2.9 3-6.3 5.2-10.3 6.4-.6.2-1.2.1-1.8-.1-4.8-1.6-8.8-4.5-11.8-8.5-3.4-4.5-5.2-9.6-5.6-15.1 0-2.5.1-4.9 0-7.3.1 0 .1 0 0 0zM17.8 41.4c.6-.4 1.2-.7 1.8-1.1.8-.4 1.6-.2 2 .5.4.7.2 1.5-.6 2-1.5.9-3 1.8-4.6 2.6-.7.4-.8.7-.6 1.5.2.9.4 1.8.3 2.7C16 52 14 53 11.9 52.1c-1.4-.6-2.3-1.7-3.2-2.9-1-1.5-1.7-3.2-1.7-5 0-.8.2-1.6.7-2.3.6-.7 1.4-1 2.3-1 .8 0 1.5.4 2.2.8.6.4.8 1.3.4 1.9-.4.6-1.2.8-1.9.4-.3-.1-.6-.3-.8-.4-.6 1.9 2 5.9 3.6 5.9l-.3-1.8c-.6-2.2-.1-3.6 1.8-4.8.1-.1.2-.1.2-.2-.4-1-.8-1.9-1.1-2.9-2.4-7.7-1.1-15 3.9-21.5.6-.8 1.4-1.5 2.1-2.3.7-.7 1.5-.7 2.1 0 .5.6.5 1.4-.2 2.1-4.5 4.4-6.6 9.7-6.3 15.9.1 2.5.8 4.9 1.8 7.1l.3.3zM27.1 14.6c.4.6.7 1.2 1.1 1.8.5.9.1 1.9-.8 2.1-.6.2-1.2-.1-1.6-.7-.9-1.5-1.7-3-2.6-4.4-.6-1-.7-1-1.8-.7-1 .3-2 .4-3 .2-2.2-.5-3-2.7-1.7-4.7 1.1-1.8 2.7-2.9 4.7-3.7 1.1-.4 2.2-.7 3.3-.6 1.5.1 2.5.8 2.8 2.1.3 1.3-.1 2.4-1 3.4-.4.5-1.2.5-1.7.1s-.7-1.1-.5-1.7l.3-.6c.2-.4.1-.6-.3-.5-.8.2-1.6.3-2.4.7-1.1.4-2 1.2-2.7 2.1-.1.1-.2.2-.2.3-.1.3 0 .4.2.4.5-.1 1.1-.1 1.6-.3 1.5-.5 3.1-.1 4.1 1 .2.2.4.5.5.7.2.4.3.4.7.2 1.6-.6 3.1-1.3 4.8-1.6 8.4-1.7 15.6.5 21.6 6.6.6.6.6 1.5 0 2s-1.4.6-2 0c-1.5-1.5-3.1-2.9-5-3.8-5.9-3.1-11.9-3.4-18.1-.7-.1.2-.2.2-.3.3z"/><path class="acst0" d="M66.8 45.9c-.7.7-1.4 1.4-2.1 2-2 1.9-3.9 3.9-5.9 5.8-.7.7-1.5.7-2.2 0l-2.2-2.2c-.2-.2-.4-.2-.6 0-.4.5-.9.9-1.4 1.4-.2.2-.2.3 0 .5 1.7 1.7 3.5 3.4 5.2 5.2 0 0 .1 0 .2.1.4-.4.8-.8 1.2-1.1l5-5c.2-.2.4-.4.7-.5.6-.3 1.4 0 1.7.5.4.6.3 1.3-.2 1.8l-4.9 4.9-2.4 2.4c-.7.7-1.5.7-2.2 0-2.5-2.4-4.9-4.9-7.4-7.4-.6-.6-.6-1.4 0-2.1 1.3-1.3 2.5-2.6 3.8-3.9.6-.6 1.4-.6 2 0 .8.7 1.5 1.5 2.3 2.3.3.3.4.3.7 0 2.4-2.4 4.9-4.9 7.4-7.3l.3-.3c.6-.5 1.4-.6 2 0l3.9 3.9c.6.6.6 1.4 0 2l-2.4 2.4c-.6.6-1.5.6-2 0s-.5-1.4.1-2c.4-.4.8-.7 1.1-1.1.1-.1.1-.4.1-.4-.6-.7-1.2-1.3-1.8-1.9zM58.3 15.6c-.2.8-.1 1.5.2 2.1.7 1.9-.3 3.7-1.7 4.4-.4.2-.4.3-.3.7.9 1.8 1.4 3.7 1.8 5.6.2.9-.3 1.6-1.1 1.8-.8.2-1.5-.4-1.7-1.3-.3-1.6-.8-3.2-1.5-4.7-.1-.1-.1-.3-.2-.5-.7.4-1.3.8-2 1.1-.5.3-1.1.3-1.6-.1-.5-.3-.6-.8-.5-1.4.1-.5.4-.8.8-1 1.6-.9 3.1-1.8 4.7-2.7.7-.4.8-.6.5-1.4-.3-1.2-.5-2.5 0-3.8.6-1.5 2.1-2.1 3.6-1.6 1.3.5 2.3 1.4 3.2 2.5 1.2 1.5 1.9 3.2 2.1 5.1.1.8 0 1.5-.4 2.2-.5 1.1-1.4 1.6-2.6 1.6-.9 0-1.7-.4-2.4-.9-.6-.5-.7-1.3-.2-1.9.4-.6 1.2-.7 1.8-.4l.1.1c.3.1.5.2.8.3 0-.3.1-.5.1-.8-.3-1.9-1.2-3.5-2.8-4.7-.1 0-.3-.1-.7-.3zM44.1 22.5c-1.1-4-6-5.8-9.4-3.4-2 1.4-2.7 3.7-1.8 6 .9 2.2 3.3 3.7 5.9 3.7 1 0 1.9-.2 2.7-.6 2.1-1.3 3.2-3.5 2.6-5.7zm-3.7 2.8c-.5.3-1.2.4-1.5.5-1.6-.1-2.6-.5-3.3-1.6-.7-1.1-.5-2.2.6-3 1.7-1.2 4.2-.4 5 1.5.5 1.1.2 2.1-.8 2.6zM38.6 39.9c-1.5-2.7-4.9-4-7.8-2.8-3.2 1.3-4.3 4.8-2.3 7.6 1.3 1.8 3.1 2.5 5.3 2.6.3 0 .7-.1 1.2-.1.4-.1.7-.2 1.1-.3 2.7-1.1 3.9-4.3 2.5-7zm-4.4 4.6h-.6c-1.2-.1-2.2-.5-3-1.5-.8-1.2-.4-2.6.9-3.3 1.5-.7 3.4-.2 4.3 1.1 1.2 1.6.3 3.4-1.6 3.7zM31 26.8c-1.4-2.4-4.2-3.1-6.6-1.8-2.1 1.2-3.1 3.1-3.3 5.6.1.4.1 1 .3 1.6.8 3.4 4.3 4.9 7.4 3.2 2.8-1.6 3.9-5.8 2.2-8.6zm-3.7 6.1c-1.2.6-2.5.2-3-1.1-.2-.5-.3-1-.4-1.4.1-1.4 1-2.8 2.2-3.2.9-.3 1.6-.1 2.2.6 1.3 1.5.7 4.3-1 5.1zM36.3 55.6c-5.8-.1-10.6-1.7-14.8-5.1-.8-.7-1.6-1.4-2.4-2.2-.5-.5-.5-1.2-.1-1.8.5-.7 1.5-.8 2.2-.1 1.3 1.4 2.8 2.6 4.4 3.5 3.8 2.2 8 3.1 12.4 2.7.3 0 .6-.1.8 0 .7.1 1.1.7 1.1 1.3 0 .7-.4 1.3-1.1 1.4-1 .2-2 .2-2.5.3zM9.7 22.1C8 23.2 7.1 27.4 8 28.7c.2-.2.4-.3.6-.5.6-.6 1.5-.7 2.1-.1.6.5.6 1.4-.1 2.1-.3.3-.7.6-1.1.9-1.5 1-3.3.5-4.1-1.1-.5-1-.6-2-.6-3 .1-2.4.7-4.6 2.3-6.4.7-.8 1.6-1.4 2.8-1.3.8 0 1.5.3 1.9 1 .4.7.7 1.4 1 2.1.2.7-.3 1.4-1 1.6-.8.2-1.5-.2-1.7-1-.1-.3-.3-.6-.4-.9zM25.2 58.8c1 1.7 5.2 2.8 6.8 1.6-.2-.2-.5-.3-.7-.5-.6-.5-.6-1.3-.1-1.9.4-.6 1.3-.7 1.9-.2 1.2.8 1.8 2.2 1.6 3.4-.2 1.1-1 1.8-2 2.2-2 .7-3.9.5-5.9-.2-1.3-.4-2.5-1.1-3.4-2.1-.8-.9-1.2-1.9-.8-3.1.4-1.2 2.1-2.3 3.4-2.1.6.1 1.1.6 1.2 1.3.1.7-.3 1.3-1 1.5-.3-.1-.6 0-1 .1zM39.7 4.8c.3.3.4.5.6.7.5.6.6 1.4.1 2-.5.5-1.4.5-2 0-1-.9-1.7-2-1.3-3.4.3-1.3 1.3-1.9 2.5-2.2 2.4-.6 4.7-.1 6.9 1.1 1 .5 1.8 1.2 2.3 2.2.8 1.4.3 3-1.1 3.8-.5.3-1 .5-1.5.6-.8.2-1.5-.2-1.7-1-.2-.7.2-1.4 1-1.7.3-.1.6-.3.8-.4-.2-.2-.4-.5-.7-.7-1.6-1-3.3-1.5-5.2-1.2-.2-.1-.4.1-.7.2zM45.6 29.3c1.2 0 2.2.5 3.2 1.3.6.5.6 1.3.2 1.9-.5.6-1.2.7-1.9.3-.1 0-.1-.1-.2-.1-1.3-.9-2.6-.7-3.5.6-.2.3-.3.5-.4.8-.4.7-1.1 1-1.8.7-.7-.3-1-1-.8-1.7.6-2.2 2.8-3.8 5.2-3.8z"/></svg><svg version="1.1" id="dessert" x="292" y="252" viewBox="-5 -5 66 66" xml:space="preserve" width="66" height="66" xmlns="http://www.w3.org/2000/svg"><style>.adst0{fill:#6c6c6a}</style><path class="adst0" d="M47.6 33.7c-.2-.3-.6-.5-.9-.5h-1.8c.2-.7.3-1.4.3-2.1 0-4.7-3.5-8.5-8.1-9.1-.1-.6-.2-1.2-.4-1.8l5.2-10.4c.3-.6.1-1.3-.5-1.6s-1.3-.1-1.6.5l-4.4 8.9C33.7 15.5 31 14 28 14c-4.7 0-8.5 3.5-9.1 8-4.5.5-8.1 4.4-8.1 9.1 0 .7.1 1.4.3 2.1H9.4c-.4 0-.7.2-.9.5s-.3.7-.2 1c4 12.4 16.8 13.1 19.3 13.1h1c2.5 0 15.3-.6 19.3-13.1 0-.3-.1-.7-.3-1zm-34.4-2.5c0-3.8 3.1-6.8 6.8-6.8h.2c.1 0 3.1-.3 4.7 3.6.2.4.6.7 1.1.7.2 0 .3 0 .5-.1.6-.3.9-.9.6-1.5-1.6-3.7-4.2-4.7-5.8-5 .5-3.2 3.3-5.7 6.7-5.7 3.8 0 6.8 3.1 6.8 6.8 0 .6.5 1.2 1.2 1.2 3.8 0 6.8 3.1 6.8 6.8 0 .7-.1 1.4-.3 2.1H13.6c-.3-.7-.4-1.4-.4-2.1zm15.3 14.3H28h-.1-.4c-2.1 0-12.5-.5-16.5-9.9h34c-4 9.4-14.4 9.9-16.5 9.9z"/></svg><svg version="1.1" id="echallens" x="358" y="318" viewBox="-5 -5 110 59.3" xml:space="preserve" width="110" height="59.3" xmlns="http://www.w3.org/2000/svg"><style>.aest0{fill:#fff}</style><path class="aest0" d="M58.6 1.7l-.1 4.5-4.5 7.3-2.3 1.2.5 1.1v6.6h-4.9v-4.3h-1.5V21l-9.4-9.4V6.8l-.5 4.7-7.8 5.3-7.6 6.9-5.2 2.7.6.3-12.3-.1L9 34.8l-5.6 8.1 61.6.6-.1-.2 32.2.3-6.3-8.3 6.4-8.1-17.9-.1-3.7-4.7-10.7-.3v-5.9l.7-.8-2.1-1.5-4.2-7.6z" id="aeArtwork_4"/></svg><svg version="1.1" id="entree" x="468" y="378" viewBox="-5 -5 66 66" xml:space="preserve" width="66" height="66" xmlns="http://www.w3.org/2000/svg"><style>.afst0,.afst1{fill:none}.afst1{stroke:#6c6c6a;stroke-miterlimit:10}.afst2{fill:#6c6c6a}</style><path class="afst0" d="M44.4 29.3c-.8-1.2-1.2-2.1-1.4-2.6-3.3.4-21.2 2.2-31.5.2.1.2.2.5.4.7.3.3.9.7 1.8 1.2 2.9 1.5 8.6 3.7 14.2 4.3 3.6.4 9.1-.3 14.1-1.3 1.4-.3 2.8-.6 4-.9-.6-.5-1.2-1.1-1.6-1.6z"/><path class="afst0" d="M10.2 26.2c0-.1 0-.1 0 0 0-.2 0-.3.1-.5 0-.2.1-.4.2-.5.1-.3.3-.6.6-.8.1-.1.3-.2.4-.3.1-.1.2-.1.3-.2-3.5-1.4-7-2.7-8.4-3 .2.2.6.7.9 1.1 1.3 1.7 3.1 3.9 1.6 5.5-.5.6-1.1 1.1-1.7 1.6-.6.5-1.6 1.3-1.6 1.6 0 0 .1.1.3.2 1 .6 5.6-.6 9.2-1.8-.5-.3-.8-.6-1-.8-.6-.6-.9-1.4-.9-2.1zM24.3 17.2v.7c0 1 .1 2.3-.8 3.5 3.2-.7 6.3-1.5 8.2-2.1-3.4-1.3-6.6-2.3-7.4-2.1zM19.6 32.8c2.3.6 4 2 4.3 3.6.7-.3 2.1-1.2 3.4-2.3-3.4-.4-6.8-1.4-9.7-2.4.5.5 1.2.9 2 1.1z"/><path class="afst1" d="M49.8 27.6c-.3.8-1.1 1.3-1.9 1.3-.2 0-.5 0-.7-.1-1.1-.4-1.6-1.6-1.2-2.7.4-1.1 1.6-1.6 2.7-1.2 1 .4 1.5 1.6 1.1 2.7z"/><path class="afst2" d="M50 23.4l-.1-.1c-1.2-.4-10.4-3.7-15.4-4.3-2.8-1.2-9.5-3.7-10.9-2.9-.3.2-.4.4-.4.7v.9c.1 1.6.1 3.2-2.9 4.2-2.7.6-5.2 1.1-6.4 1.2-10.6-4.3-11.4-3.5-11.7-3.3-.2.2-.3.5-.2.8.2.6.7 1.3 1.4 2.1 1.1 1.4 2.5 3.2 1.7 4-.5.5-1.1 1-1.6 1.5-1.2 1-2.1 1.7-2 2.6 0 .4.3.8.8 1.1.3.2.8.3 1.4.3 2.8 0 8.1-1.7 9.7-2.3.5.2 1 .5 1.5.7.4.5 2.1 2.7 4.3 3.3 2.1.5 3.4 1.9 3.4 2.9 0 .3.2.6.4.8.1 0 .2.1.3.1.6 0 1.9-.5 5.4-3.3h1c.8 0 1.6 0 2.5-.1-.3.8-.5 2 .2 2.8.1.1.3.3.8.3 1 0 3.3-.8 8.9-4.4 3.1-.6 6-1.4 8.1-2.2 3.2-1.2 3.5-2.1 3.6-2.4 1.1-3.2-2.1-4.4-3.8-5zm-25.7-5.6v-.7c.8-.2 4.1.8 7.4 2-1.9.6-5 1.4-8.2 2.1.8-1 .8-2.4.8-3.4zM2.9 30.9c-.2-.1-.3-.2-.3-.2 0-.3 1-1.1 1.6-1.6.6-.5 1.2-1 1.7-1.6 1.5-1.6-.3-3.9-1.6-5.5-.3-.4-.7-.9-.9-1.2 1.4.2 5 1.5 8.4 3-.1.1-.2.1-.3.2-.1.1-.3.2-.4.3-.2.2-.4.5-.6.8-.1.2-.1.3-.2.5 0 .2 0 .3-.1.5 0 .8.3 1.6.8 2.2.2.2.6.5 1 .8-3.5 1.2-8.2 2.4-9.1 1.8zm20.9 5.5c-.2-1.6-2-3-4.3-3.6-.8-.2-1.5-.6-2.1-1.1 2.9 1.1 6.4 2 9.7 2.4-1.2 1.1-2.6 2-3.3 2.3zm9.7-.2c-.3-.5 0-1.6.3-2.1 1.8-.1 3.7-.4 5.6-.7-2.7 1.6-5.2 2.9-5.9 2.8zm8.5-4.4c-5 1-10.6 1.6-14.1 1.3-5.6-.6-11.3-2.7-14.2-4.3-.9-.5-1.5-.9-1.8-1.2-.2-.2-.3-.4-.4-.7 10.4 1.9 28.3.1 31.5-.2.2.5.6 1.4 1.4 2.6.4.6.9 1.1 1.6 1.6-1.2.3-2.6.6-4 .9zm10.9-3.9c0 .1 0 .1 0 0 0 0 0 .1-.1.1-.3.4-1.7 1.3-5.4 2.4-.9-.6-1.7-1.2-2.1-1.8C44.2 26.8 44 26 44 26c0-.2-.1-.3-.2-.4-.1-.1-.3-.1-.4-.1-.2 0-21 2.4-31.9.3.1-.3.3-.6.6-.8.1 0 .1-.1.2-.1h.1c.1 0 .1-.1.2-.1h.1c.1 0 .1 0 .2-.1h.5c2.8-.2 14.8-3 18.9-4.2.1 0 .2-.1.4-.1H36c.1 0 .2 0 .3.1.1 0 .2 0 .3.1.1 0 .2 0 .3.1.1 0 .2 0 .2.1.1 0 .2 0 .3.1h.2c.5.1.9.2 1.4.3h.1c.1 0 .3.1.4.1.1 0 .1 0 .2.1.1 0 .3.1.4.1.1 0 .1 0 .2.1.1 0 .3.1.4.1.1 0 .1 0 .2.1.1 0 .3.1.4.1.1 0 .2 0 .2.1.1 0 .3.1.4.1.1 0 .1 0 .2.1.1 0 .3.1.4.1.1 0 .1 0 .2.1.1 0 .3.1.4.1h.2c.1 0 .3.1.4.1h.1c.3.1.6.2 1 .3h.1c.1 0 .2.1.4.1.1 0 .1 0 .2.1.1 0 .2.1.3.1.1 0 .2 0 .2.1.1 0 .2.1.3.1.1 0 .2.1.3.1.1 0 .2.1.3.1.1 0 .2.1.3.1.1 0 .1 0 .2.1.1 0 .2.1.3.1.1 0 .1 0 .2.1.1 0 .2.1.3.1h.1c.1 0 .3.1.4.1h.1c.3.1.6.2.8.3l.1.1c.6.2 1.2.5 1.8.7 1.1.5 1.8 1.3 1.4 2.6z"/></svg><svg version="1.1" id="facebook" x="534" y="444" viewBox="-5 -5 122.2 122.2" xml:space="preserve" width="122.2" height="122.2" xmlns="http://www.w3.org/2000/svg"><style>.agst0{fill:#fff}</style><path class="agst0" d="M100.1 7.1h-88c-2.8 0-5 2.2-5 5v88c0 2.8 2.2 5 5 5h51.2V68.4h-7.2V55.5h7.2v-8.3c0-6 2.8-15.3 15.3-15.3h11.2v12.5h-8.2c-1.3 0-3.2.7-3.2 3.5v7.6h11.3l-1.3 12.9h-10v36.7H100c2.8 0 5-2.2 5-5v-88c.1-2.8-2.2-5-4.9-5z"/></svg><svg version="1.1" id="glass" x="657" y="567" viewBox="-5 -5 65.1 104.1" xml:space="preserve" width="65.1" height="104.1" xmlns="http://www.w3.org/2000/svg"><style>.ahst0{fill:#fff}</style><path class="ahst0" d="M42.4 79.3c-2.5-1-5.5-1.7-8.8-2-.3-.4-.6-.7-.7-1.2-.2-.9-.2-3.3 0-6.9 1.2-.6 1.8-1.4 1.8-2.3 0-.2 0-.3-.1-.5 10.3-3.1 17.8-13.6 17.8-26 0-2.6-.4-5.1-1-7.6-.1-.4-.3-.9-.4-1.3l-2.2-7.3c-1.4-4.6-2.1-9.3-2.1-14.1l-.1-4.4c.6-.5.9-1 .9-1.5 0-1.4-2-2.5-5.9-3.3C38 .2 33.2-.2 28.1-.2s-9.9.5-13.5 1.3c-3.9.9-5.9 2-5.9 3.4 0 .5.3 1 .9 1.5v4.4c0 4.8-.7 9.5-2 14.1l-2.1 7.3c-.1.4-.3.9-.4 1.3-.6 2.5-1 5-1 7.6.1 12.4 7.7 22.8 18 25.8 0 .2-.1.3-.1.5 0 .9.7 1.7 1.8 2.3.3 3.5.3 5.9.1 6.9-.1.5-.4.9-.7 1.3-3.3.4-6.3 1.1-8.8 2.1-3.9 1.6-6 3.7-6 5.9 0 2.3 2.1 4.4 6 5.9 3.7 1.5 8.7 2.3 14 2.3 5.3 0 10.2-.9 13.9-2.4 3.9-1.6 6-3.7 6-5.9.1-2.5-2-4.6-5.9-6.1zm-30.8-69V6.4c.2.1.4.1.6.2.5.2 1 .3 1.6.4 1 .2 2.1.4 3.1.5 1 .1 2.1.2 3.1.2s2.1.1 3.1 0c-1.1 0-2.1-.1-3.1-.3-1-.1-2-.3-3.1-.5-1-.2-2-.4-3-.7-.5-.2-1-.3-1.4-.5-.4-.2-.7-.3-1-.5-.1-.3-.3-.5-.6-.7.6-.4 2-1 5-1.6 3.4-.7 7.7-1 12.2-1 4.5 0 8.8.3 12.2.9 3 .6 4.4 1.2 5 1.6-.4.3-.7.8-.6 1.3v.4c-.5.2-.9.4-1.4.5-1 .3-2 .6-3 .8-1 .2-2 .4-3.1.5-1 .1-2.1.3-3.1.4 1 0 2.1 0 3.1-.1s2.1-.1 3.1-.2 2.1-.3 3.1-.5l1.2-.3v3.2c.1 5 .8 9.9 2.2 14.6l2.2 7.3c.1.4.3.8.4 1.2.6 2.3.9 4.7 1 7.1 0 6.7-2.3 12.9-6.5 17.6-3 3.4-6.7 5.7-10.8 6.7-.2.1-.4.1-.6.1-.3.1-.5.1-.8.1-.7.1-1.3.2-2 .3-.5 0-.9.1-1.4.1h-1.4c-.7 0-1.4-.1-2-.2-.3 0-.5-.1-.8-.1-.2 0-.4-.1-.6-.1-4.1-1-7.8-3.2-10.8-6.6-4.2-4.7-6.6-10.9-6.6-17.6 0-2.4.3-4.8.9-7.1.1-.4.2-.8.4-1.2l2-7.6c1.4-4.8 2.1-9.7 2.2-14.7zm12 56.5c1.5.3 3.1.5 4.8.5 1.6 0 3.2-.2 4.8-.5v.1c0 .2-.3.6-1 .9 0 0-.1 0-.1.1l-.6.3V69l-.8.4.8.1c0 .4 0 .7-.1 1.1-.2 3-.1 5 .1 5.9.1.3.1.5.3.7.1.1.1.3.2.4v.1c.1.1.2.2.2.3.2.3.4.5.6.7l.2.2c.2.2.3.3.3.4.2 0 .5 0 .7.1h.8-.1l.1.1c.1.1.2.3.3.5 0 .1.1.2.1.3 0 .1 0 .2-.1.3-.1.2-.2.4-.4.6-.2.2-.4.4-.7.5-.5.3-1.1.6-1.7.8-.6.2-1.2.4-1.8.5.6 0 1.3-.1 1.9-.2.6-.1 1.3-.3 1.9-.6.3-.1.6-.3.9-.5.3-.2.5-.5.7-.8.2-.3.3-.8.2-1.2v-.2c.2.2.4.5.4.8v.5c0 .1 0 .2-.1.3 0 .1-.1.2-.1.3-.2.3-.5.7-.8.9-.3.3-.7.5-1.1.7.4-.1.8-.3 1.2-.5.4-.2.8-.5 1.1-.8.1-.1.1-.2.2-.3.1-.1.1-.2.2-.3.1-.2.2-.5.2-.8 0-.2 0-.4-.1-.6.1 0 .3 0 .4.1.8.1 1.6.3 2.4.5.8.2 1.6.5 2.3.8.8.3 1.5.7 2.1 1.2.3.2.6.5.8.9.2.3.4.7.4 1.1 0-.4-.1-.9-.2-1.2-.2-.4-.5-.7-.8-1.1-.3-.3-.6-.6-1-.8-.4-.2-.7-.5-1.1-.7-.8-.4-1.5-.7-2.3-1-.8-.3-1.6-.5-2.4-.7-.2-.1-.4-.1-.7-.2 1.7.4 3.3.8 4.8 1.4 3.5 1.4 5.4 3.2 5.4 5 0 1.8-2 3.7-5.4 5.1-3.6 1.5-8.5 2.3-13.6 2.3-5.2 0-10-.8-13.6-2.2-3.5-1.4-5.4-3.2-5.4-5 0-1.8 2-3.7 5.4-5.1 1.3-.5 2.7-1 4.3-1.3l-1.2.3c-1.6.5-3.2 1.1-4.7 2.1-.4.2-.7.5-1 .8l-.9.9c-.3.3-.5.7-.7 1.1-.2.4-.2.8-.2 1.3 0-.4.2-.8.4-1.2s.5-.7.8-.9c.6-.6 1.3-1 2-1.3.7-.4 1.5-.7 2.3-.9.8-.3 1.6-.5 2.4-.7.5-.1.9-.2 1.4-.3v1l.1.2c0 .1.1.2.2.4l.1.2c0 .1.1.1.1.2.3.4.7.7 1.1.9.4.2.8.4 1.3.5-.4-.2-.8-.5-1.1-.8-.3-.3-.6-.6-.8-1 0 0 0-.1-.1-.1l-.1-.1c0-.1 0-.2-.1-.3V81 80.7v-.1c.1-.3.2-.5.4-.7v.2c-.1.4 0 .9.2 1.2.2.4.5.6.7.8.3.2.6.4.9.5.6.3 1.2.4 1.9.5.6.1 1.3.2 1.9.2-.6-.1-1.2-.3-1.8-.5-.6-.2-1.2-.5-1.7-.8-.3-.2-.5-.3-.7-.5-.2-.2-.4-.4-.4-.6 0-.1-.1-.2-.1-.3v-.3c.1-.2.2-.3.3-.5l.1-.1h-.1 1c.2 0 .4 0 .5-.1 0-.1.1-.2.3-.4l.2-.2c.2-.2.4-.4.6-.7.1-.1.2-.2.2-.3v-.1c.1-.1.1-.2.2-.4s.2-.5.2-.7c.2-.9.2-2.9.1-5.9 0-.3 0-.7-.1-1.1l.8-.1-.5-.7V68.2L25 68l-.2-.1c-.8-.4-1.2-.8-1.2-1v-.1z"/><path class="ahst0" d="M35.9 90.8c-.8.1-1.6.3-2.4.4-.8.1-1.6.2-2.5.2-.8.1-1.6.1-2.5.1-1.7 0-3.3-.1-4.9-.2-1.6-.2-3.3-.5-4.9-.9-.8-.2-1.6-.4-2.4-.7-.8-.3-1.5-.6-2.2-1-.7-.4-1.4-.9-2-1.5-.3-.3-.5-.6-.7-1-.2-.4-.3-.8-.3-1.2 0 .4.1.8.2 1.2.2.4.4.8.7 1.1.5.7 1.2 1.2 1.9 1.6 1.4.9 3 1.5 4.6 2l2.4.6c.8.2 1.7.3 2.5.4 1.7.2 3.3.3 5 .3 3.4 0 6.7-.4 9.9-1.4 1.6-.5 3.2-1.1 4.6-2 .2-.1.4-.2.5-.4l.3-.2.2-.2c.2-.1.3-.3.5-.4l.2-.2.1-.1.1-.1c.5-.6.9-1.5.9-2.3 0 .4-.1.8-.3 1.2-.2.4-.4.7-.7 1l-.1.1-.1.1-.2.2c-.2.1-.3.3-.5.4l-.1.1-.3.2c-.2.1-.3.2-.5.3-.7.4-1.5.7-2.2 1-.8.3-1.6.5-2.4.7l-2.4.6z"/><path class="ahst0" d="M32.7 87.3c.3 0 .7-.1 1-.1.3 0 .7-.1 1-.2.7-.1 1.4-.3 2-.5.7-.2 1.3-.4 2-.8l.9-.6c.1-.1.3-.3.3-.5v-.4c0-.1-.1-.2-.2-.3-.2-.2-.3-.2-.5-.3-.2-.1-.3-.1-.5-.2-.3-.1-.7-.2-1-.2.3.1.6.3.9.4.2.1.3.2.4.2.1.1.3.2.3.3.1.1.1.2 0 .3 0 .1-.1.2-.2.3-.2.2-.5.4-.8.5-.6.3-1.2.5-1.9.7-.3.1-.7.2-1 .2-.3.1-.7.1-1 .2-.3.1-.7.1-1 .2-.3.1-.7.1-1 .1-.7.1-1.3.1-2 .2-1.4.1-2.7.1-4.1 0 1.3.3 2.7.4 4.1.4 1 .2 1.7.2 2.3.1zM28.4 73.4c.2 0 .4.1.6.2.2.1.4.3.7.5 0-.3-.1-.6-.3-.9-.1-.1-.2-.2-.4-.3-.1 0-.2-.1-.2-.1h-.4-.1c-.1 0-.2.1-.3.1-.1 0-.1.1-.2.2l-.2.2c-.2.3-.3.6-.3.9l.6-.6c.1-.1.3-.2.5-.2zM43.8 55.9c.9-1.1 1.7-2.2 2.4-3.5.7-1.2 1.3-2.5 1.7-3.9.9-2.7 1.3-5.5 1.2-8.3 0-1.4-.2-2.8-.4-4.2-.2-1.4-.5-2.7-.9-4.1.1 1.4.3 2.7.3 4.1.1 1.4.1 2.7 0 4.1-.1 2.7-.6 5.4-1.4 7.9l-.3.9c-.1.3-.2.6-.4.9l-.3 1.2-.5.9c-.6 1.2-1.4 2.3-2.2 3.4-1.6 2.2-3.6 4.1-5.6 5.9 2.5-1.4 4.6-3.2 6.4-5.3zM28.4 59.5c1.2 0 2.4.1 3.6.2 1.2.2 2.4.5 3.6.9-1-.7-2.2-1.2-3.5-1.5-1.2-.3-2.5-.5-3.8-.4-1.3 0-2.6.2-3.8.5-1.2.3-2.4.8-3.5 1.5 1.2-.4 2.4-.7 3.6-.9 1.3-.2 2.5-.3 3.8-.3zM43.9-.7l.9.2c-.5-.1-.9-.2-.9-.2zM18.7 22.7c.1 0 .1 0 0 0 .1 0 .1-.1 0 0 0-.1 0-.1 0 0zM36.6 27.8h0c.1 0 .1 0 0 0 .1 0 .1 0 0 0zM16.6 57.1zM16.6 57.1l-.1.1zM16 56.7c0-.1 0-.1 0 0-.1 0 0 0 0 0zM30.3 55.7zM30.4 55.6v.1-.1zM30.4 56.2z"/><g><path class="ahst0" d="M24.7 38.4c0-.3.3-.6.6-.6s.6.3.6.6-.3.6-.6.6c-.3.1-.6-.2-.6-.6M24.5 37c0-.2.2-.4.4-.4s.4.2.4.4-.2.4-.4.4-.4-.2-.4-.4M24.5 35.7c0-.3.2-.5.5-.5s.5.2.5.5-.2.5-.5.5-.5-.2-.5-.5M26.9 36.3c-.1-.3-.5-.5-.8-.4-.3.1-.5.5-.4.8.1.3.5.5.8.4.3-.1.5-.4.4-.8M26.7 34.9c-.1-.2-.3-.3-.5-.3-.2.1-.3.3-.3.5.1.2.3.3.5.3.3 0 .4-.3.3-.5M26.4 33.7c-.1-.3-.3-.4-.6-.3-.3.1-.4.3-.3.6.1.3.3.4.6.3.2-.1.3-.4.3-.6"/><path class="ahst0" d="M25.1 40.8c-.1-.1-.1-.1-.2-.1 0 0-.1 0-.1.1 0 .2.3.6.9.9.3.2.6.4.8.4.4.1 2 .3 3.4-.1.1 0 .2-.1.2-.1.4-.1.7-.3 1.1-.6.2-.1.3-.3.3-.5v-5.1h.7c1.7 0 2.5-.7 2.7-.9.8-.7 1.3-1.9 1.4-3.2.1-1.4-.4-2.7-1.2-3.7-.5-.6-1-.9-1.7-.9-1.7-.1-3.4 1.4-3.5 1.4 0 0-.5.5-1.5.8-.9.3-2.6.7-4.9.2v-3.9c4.2.5 6.5-.8 7.2-1.3.1.2.1.2.1.6 0 .3-.1.6-.1.6v.3c0 .1.1.2.3.2h.1c.2 0 .4-.1.4-.3 0 0 .2-.4.2-1s-.2-1.1-.6-1.4c-.1-.1-.3-.2-.5-.2s-.3.1-.4.2c-.2.1-.7.5-1.6.8-1.1.4-2.9.7-5.5.3l-.7-.1.1 14.1c0 .3.3.6.6.6s.6-.3.6-.6v-7.8c4.8.8 6.5-.9 7.2-1.4.4-.4 1.5-1.2 2.6-1.1.4 0 .7.2 1 .5.6.8 1 1.9.9 3 0 1-.4 2-1 2.5 0 0-.2.2-.7.4-.3.1-.8.2-1.5.2h-.5v-3c0-.3-.3-.6-.6-.6s-.6.3-.6.6v2.9h-2.3c-.1.3-.2.5.2.7.4.2.7 0 1 0 .3 0 .8.1 1.2.2v1.7l.1 1c-.3.9.2 4.4-5.6 2.7z"/></g><path class="ahst0" d="M9.1 31.2s9.3 10.3 17 10.8c7.7.5 22.3-3.3 23.8-2.9v2.7s1.5 21.7-21.9 22C4.6 64.1 8 35.5 8 35.5l1.1-4.3z"/></svg><svg viewBox="-5 -5 122.2 122.2" width="122.2" height="122.2" id="googleplus" x="723" y="672" xmlns="http://www.w3.org/2000/svg"><circle cx="56.098" cy="56.097" r="56.098" fill="#dc4e41"/><path d="M19.531 58.608c-.199 9.652 6.449 18.863 15.594 21.867 8.614 2.894 19.205.729 24.937-6.648 4.185-5.169 5.136-12.06 4.683-18.498-7.377-.066-14.754-.044-22.12-.033-.012 2.628 0 5.246.011 7.874 4.417.122 8.835.066 13.252.155-1.115 3.821-3.655 7.377-7.51 8.757-7.443 3.28-16.94-1.005-19.282-8.813-2.827-7.477 1.801-16.5 9.442-18.675 4.738-1.667 9.619.21 13.673 2.673 2.054-1.922 3.976-3.976 5.864-6.052-4.606-3.854-10.525-6.217-16.61-5.698-11.939.142-22.387 11.164-21.934 23.091zM79.102 48.668c-.022 2.198-.045 4.407-.056 6.604-2.209.022-4.406.033-6.604.044v6.582c2.198.011 4.407.022 6.604.045.022 2.198.022 4.395.044 6.604 2.187 0 4.385-.011 6.582 0 .012-2.209.022-4.406.045-6.615l6.604-.033v-6.582c-2.197-.011-4.406-.022-6.604-.044-.012-2.198-.033-4.407-.045-6.604l-6.57-.001z" fill="#dc4e41"/><g fill="#fff"><path d="M19.531 58.608c-.453-11.927 9.994-22.949 21.933-23.092 6.085-.519 12.005 1.844 16.61 5.698-1.889 2.077-3.811 4.13-5.864 6.052-4.054-2.463-8.935-4.34-13.673-2.673-7.642 2.176-12.27 11.199-9.442 18.675 2.342 7.808 11.839 12.093 19.282 8.813 3.854-1.38 6.395-4.936 7.51-8.757-4.417-.088-8.835-.033-13.252-.155-.011-2.628-.022-5.246-.011-7.874 7.366-.011 14.743-.033 22.12.033.453 6.439-.497 13.33-4.683 18.498-5.732 7.377-16.322 9.542-24.937 6.648-9.143-3.003-15.792-12.214-15.593-21.866zM79.102 48.668h6.57c.012 2.198.033 4.407.045 6.604 2.197.022 4.406.033 6.604.044v6.582l-6.604.033c-.022 2.209-.033 4.406-.045 6.615-2.197-.011-4.396 0-6.582 0-.021-2.209-.021-4.406-.044-6.604-2.197-.023-4.406-.033-6.604-.045v-6.582c2.198-.011 4.396-.022 6.604-.044.011-2.196.033-4.405.056-6.603z"/></g></svg><svg version="1.1" id="hand" x="846" y="795" viewBox="-5 -5 110 135" xml:space="preserve" width="110" height="135" xmlns="http://www.w3.org/2000/svg"><style>.ajst0{fill:#fff}</style><path class="ajst0" d="M88.6 77.5c-2.9-2.8-8.1-10-10-12.7 1.9-1.9 3.6-3.6 4.8-5 2.3-2.5 2.5-6.2.6-9-1-1.4-2.4-2.3-4.1-2.6.9-1.9.9-4.2-.3-6.2-.9-1.4-2.2-2.5-3.8-2.9 1.6-2.2 1.7-5.3.1-7.6-1-1.4-2.5-2.2-4-2.5.2-.5 13.4-10 13.5-10.6.4-2-.1-4.1-1.3-5.8-2.3-3.1-6.6-4-9.9-2L56.4 23l-1.6-1.5c-2.4-2.2-5.8-3-9-2.1L35.1 23c-.6.2-1.1.5-1.5.9l-1.2-.4c-3.5-1.3-7.6.1-9.4 3.4-1 1.8-1.3 3.9-.7 5.9l.6 1.5c-2 .5-3.7 1.9-4.4 3.9-.9 2.3-.3 4.9 1.3 6.6-.1 0-.1.1-.2.1-1.6 1-2.6 2.5-2.9 4.4-.3 2 .4 4 1.7 5.3-.1 0-.1.1-.2.1a6.62 6.62 0 00-2.5 4.5c-.3 2.2.7 4.2 2.8 5.5.6.4 1.3.7 2.1.9-1.4 1.1-2.6 2.5-3.5 4l-6 10.3c-.4.7-.2 1.6.5 2.1.2.1.5.2.8.2.5 0 1-.3 1.3-.7l6-10.3c1.2-2.1 3.1-3.8 5.3-4.7l1.7-.7c.3-.1.6-.2.8-.4 2.4-1.2 4.4-3 5.8-5.4.1-.1.1-.2.1-.3 1 .3 2 .6 2.9.8.5.1 1 .2 1.5.2 2.2 0 4.2-1.4 5-3.5v-.1c.5-1.4.4-2.8-.1-4 1.1-.5 2.1-1.3 2.7-2.5.9-1.8.8-3.8-.3-5.4 1.6-.6 2.9-1.8 3.5-3.4 1.2-2.9 0-6.3-2.7-7.8l-.4-.3 30.2-20.3c2-1.2 4.6-.7 5.9 1.2.7 1 1 2.2.8 3.4s-14 11.3-15 11.9l-4.2 2.7-.1.1-.1.1-.1.1-.1.1s0 .1-.1.1l-.1.1v1.1s0 .1.1.1c0 0 0 .1.1.1.1.1.1.2.2.2 0 0 .1 0 .1.1.1.1.1.1.2.1 0 0 .1 0 .1.1.1 0 .2.1.3.1H64.5c.1 0 .2-.1.3-.1l4.2-2.6c1.5-.9 3.4-.5 4.5.9 1.1 1.5.8 3.5-.6 4.6l-4 3.2-.1.1-.1.1-.1.1-.1.1s0 .1-.1.1 0 .1-.1.1v.7s0 .1.1.1c0 0 0 .1.1.1 0 0 0 .1.1.1l.1.1c0 .1.1.1.1.1l.1.1c.1 0 .1.1.2.1 0 0 .1 0 .1.1.1 0 .1 0 .2.1h.4c.1 0 .3 0 .4-.1h.1c.1 0 .2-.1.3-.2l1.4-1c.8-.6 1.8-.8 2.7-.6 1 .2 1.8.8 2.3 1.6.9 1.4.6 3.3-.6 4.4L72 51.1s0 .1-.1.1l-.1.1-.1.1-.1.1s0 .1-.1.1c0 0 0 .1-.1.1v.7s0 .1.1.1l.1.1s0 .1.1.1l.1.1.1.1.1.1s.1.1.2.1c0 0 .1 0 .1.1.1 0 .1 0 .2.1h.4c.1 0 .3 0 .4-.1h.1c.1 0 .2-.1.4-.2l2.9-2.1c.7-.6 1.6-.9 2.5-.7.9.1 1.7.6 2.2 1.4 1.1 1.6 1 3.8-.4 5.2-2.4 2.7-6.4 6.7-11.1 10.6-5.7 4.6-11.5 7.9-14.5 9.5-1.2.6-2.6.9-4 .6l-3 .5c-1.7-.3-3.4.4-4.5 1.8-.7.8-7.1 8-10.8 15.3-.4.7-.1 1.6.7 2 .2.1.4.2.7.2.5 0 1.1-.3 1.3-.8 3.7-7.2 10.3-14.6 10.4-14.7l.1-.1c.4-.5 1-.8 1.6-.7l3.2.5c.5.1.9.1 1.4.1 1.9 0 6.6 7.5 9.6 14.1.2.6.8.9 1.4.9.2 0 .4 0 .6-.1.8-.3 1.1-1.2.8-2-1.2-2.7-4.7-10.1-8.4-13.7.2-.1.3-.2.5-.2 3.1-1.6 9.1-5 15-9.8 1.6-1.3 3-2.6 4.4-3.8 2.1 3 7.1 9.9 10.1 12.8.3.3.7.4 1 .4.4 0 .8-.2 1.1-.5.6-.6.6-1.6 0-2.2zM36 25.9l10.7-3.6c2.1-.6 4.4-.1 6 1.4l1 .9-7 4.6c-4 2.3-9.2-.1-11.1-1.6-.4-.3-.4-.7-.3-.9 0-.1.2-.6.7-.8zm-10.4 37c-1.3.4-3.8.3-5.5-.8-1.6-1-1.4-2.2-1.4-2.5v-.1c.1-.9.5-1.8 1.2-2.3.7-.5 1.7-.7 2.6-.5l.6.1c2.3.6 4.9 1.3 7.4 2-1.2 1.9-2.9 3.3-4.9 4.1zM40.1 56v.1c-.4 1.2-1.7 1.8-2.9 1.5-4.1-1.1-10.7-3-15.1-4.1-1.6-.4-2.6-2-2.4-3.7.2-.9.7-1.8 1.5-2.3.8-.5 1.8-.6 2.7-.3h.1L38.7 53c.1 0 .2.1.3.1 1 .6 1.5 1.8 1.1 2.9zm2.7-6.9c-.5.9-1.5 1.4-2.5 1.2-.2-.1-.3-.2-.5-.2l-3.6-1.3-12.9-5.1c-1.7-.7-2.6-2.6-1.9-4.3.7-1.7 2.6-2.6 4.3-2l1.2.5 12.7 6.7c.2.1 1.3.8 2.4 1.5 1 .6 1.4 1.9.8 3zm3.1-8.5c-.3.8-1 1.5-1.9 1.8-.8.3-1.8.2-2.6-.2l-.4-.3-13.5-7.1c-1.1-.6-1.9-1.6-2.3-2.8-.4-1.2-.2-2.5.4-3.6 1.1-2 3.6-2.9 5.7-2.1l1 .4c-.1 1.3.4 2.5 1.5 3.3 1.3 1 3.3 2.1 5.6 2.7.1.1.1.2.2.2l4.7 3.5c.1 0 .1.1.2.1 1.4.8 2.1 2.5 1.4 4.1z"/></svg><svg version="1.1" id="instagram" x="956" y="930" viewBox="-5 -5 122.2 122.2" xml:space="preserve" width="122.2" height="122.2" xmlns="http://www.w3.org/2000/svg"><style>.akst0{fill:#fff}</style><path class="akst0" d="M56 15c13.4 0 14.9.1 20.2.3 4.9.2 7.5 1 9.3 1.7 2.3.9 4 2 5.7 3.7 1.7 1.7 2.8 3.4 3.7 5.7.7 1.8 1.5 4.4 1.7 9.3.3 5.4.4 6.9.4 20.3s-.1 14.9-.3 20.2c-.2 4.9-1 7.5-1.7 9.3-.9 2.3-2 4-3.7 5.7-1.7 1.7-3.4 2.8-5.7 3.7-1.8.7-4.4 1.5-9.3 1.7-5.4.3-6.9.4-20.3.4s-14.9-.1-20.2-.3c-4.9-.2-7.5-1-9.3-1.7-2.3-.9-4-2-5.7-3.7-1.7-1.7-2.8-3.4-3.7-5.7-.7-1.8-1.5-4.4-1.7-9.3-.3-5.4-.4-6.9-.4-20.3s.1-14.9.3-20.2c.2-4.9 1-7.5 1.7-9.3.9-2.3 2-4 3.7-5.7 1.7-1.7 3.4-2.8 5.7-3.7 1.8-.7 4.4-1.5 9.3-1.7 5.4-.3 6.9-.4 20.3-.4m0-9c-13.6 0-15.3.1-20.6.3-5.3.2-9 1.1-12.1 2.3-3.3 1.3-6.1 3-8.9 5.8-2.8 2.8-4.5 5.6-5.8 8.9-1.2 3.2-2.1 6.8-2.3 12.1-.2 5.3-.3 7-.3 20.6 0 13.6.1 15.3.3 20.6.2 5.3 1.1 9 2.3 12.1 1.3 3.3 3 6.1 5.8 8.9 2.8 2.8 5.6 4.5 8.9 5.8 3.2 1.2 6.8 2.1 12.1 2.3 5.3.2 7 .3 20.6.3s15.3-.1 20.6-.3c5.3-.2 9-1.1 12.1-2.3 3.3-1.3 6.1-3 8.9-5.8 2.8-2.8 4.5-5.6 5.8-8.9 1.2-3.2 2.1-6.8 2.3-12.1.2-5.3.3-7 .3-20.6s-.1-15.3-.3-20.6c-.2-5.3-1.1-9-2.3-12.1-1.3-3.3-3-6.1-5.8-8.9-2.8-2.8-5.6-4.5-8.9-5.8-3.2-1.2-6.8-2.1-12.1-2.3-5.3-.2-7-.3-20.6-.3z"/><path class="akst0" d="M56 30.3c-14.2 0-25.7 11.5-25.7 25.7S41.8 81.7 56 81.7 81.7 70.2 81.7 56 70.2 30.3 56 30.3zm0 42.4c-9.2 0-16.7-7.5-16.7-16.7S46.8 39.3 56 39.3 72.7 46.8 72.7 56 65.2 72.7 56 72.7z"/><circle class="akst0" cx="82.7" cy="29.3" r="6"/></svg><svg version="1.1" id="john" x="1079" y="1053" viewBox="-5 -5 598.2 598.2" xml:space="preserve" width="598.2" height="598.2" xmlns="http://www.w3.org/2000/svg"><style>.alst0{fill:#1d1d1b}</style><path class="alst0" d="M260 295.3l22.7-43.3m-29.6 56.5l6.8-13.2-6.8 13.2z"/><path class="alst0" d="M253.1 308.4l-19.9 38.4c-8.4 16.3-10.3 35-5.3 52.8 5 17.8 16.3 32.4 31.8 41.3 9.6 5.5 20.5 8.4 31.5 8.4 10.4 0 20.8-2.6 30-7.6l2.2-1.2c16-8.6 27.7-23.2 33-41.2 5.3-18 3.5-37-5.1-53.6l-33.2-64.1c-2-3.9-2-8.5.1-12.3l44.9-91.3.4-.7c5-9.2 18.3-9 23.1.3l57.1 110.3c21.8 42 26.4 90.2 12.9 135.9-13.4 45.7-43.2 82.8-83.7 104.6l-5.7 3.1c-23.5 12.6-49.8 19.2-76.2 19.2-27.8 0-55.4-7.3-79.8-21.2-39.4-22.4-68-59.6-80.7-104.7-12.7-45-7.9-92.6 13.5-133.9L266.3 55.2c5.7-11 16.6-17.8 28.5-17.8s22.8 6.8 28.4 17.8l28 54c2 3.8 2 8.3 0 12.1l-8.4 16-.4.7-59.7 114"/></svg><svg viewBox="-5 -5 122.2 122.2" width="122.2" height="122.2" id="linkedin" x="1678" y="1652" xmlns="http://www.w3.org/2000/svg"><circle cx="56.098" cy="56.097" r="56.098" fill="#007ab9"/><path d="M89.616 60.611v23.128H76.207V62.161c0-5.418-1.936-9.118-6.791-9.118-3.705 0-5.906 2.491-6.878 4.903-.353.862-.444 2.059-.444 3.268v22.524h-13.41s.18-36.546 0-40.329h13.411v5.715c-.027.045-.065.089-.089.132h.089v-.132c1.782-2.742 4.96-6.662 12.085-6.662 8.822 0 15.436 5.764 15.436 18.149zm-54.96-36.642c-4.587 0-7.588 3.011-7.588 6.967 0 3.872 2.914 6.97 7.412 6.97h.087c4.677 0 7.585-3.098 7.585-6.97-.089-3.956-2.908-6.967-7.496-6.967zm-6.791 59.77H41.27v-40.33H27.865v40.33z" fill="#f1f2f2"/></svg><svg version="1.1" id="loco" x="1801" y="1775" viewBox="-5 -5 93.9 86.3" xml:space="preserve" width="93.9" height="86.3" xmlns="http://www.w3.org/2000/svg"><style>.anst0{fill:#2b2251}.anst1{fill:#fff}</style><g id="anXMLID_22_"><g id="anXMLID_73362_"><path class="anst0" d="M31 61.9l-5.5 5.5 3.6 1.1 5.1-6.6z" id="anXMLID_136_"/><path class="anst0" d="M27.3 61.9l-4.8 4.6 2.4.7 5.2-5.3z" id="anXMLID_135_"/><path class="anst0" d="M34.9 61.9l-5.2 6.8 3.6 1.1 3.9-7.9z" id="anXMLID_134_"/><path class="anst0" d="M37.9 61.9L33.8 70l3.6 1.2 2.4-9.3z" id="anXMLID_133_"/><path class="anst0" d="M38 71.3l3.6 1.2V61.9h-1.2z" id="anXMLID_132_"/><path class="anst0" d="M56.7 61.9H42.3v10.6l19.2-6z" id="anXMLID_131_"/><path class="anst0" d="M42 46.8c3.1 0 5.6-2.5 5.6-5.6 0-3.1-2.5-5.6-5.6-5.6-3.1 0-5.6 2.5-5.6 5.6 0 3 2.5 5.6 5.6 5.6zm-2.9-8.5c.8-.8 1.8-1.2 2.9-1.2 2.2 0 4 1.8 4 4s-1.8 4.1-4 4.1c-1.1 0-2.1-.4-2.8-1.2-.8-.8-1.2-1.8-1.2-2.9-.1-1 .3-2 1.1-2.8z" id="anXMLID_73414_"/><path class="anst0" d="M41.4 44.3c.2 0 .4.1.7.1 1.8 0 3.3-1.5 3.3-3.3 0-1.8-1.5-3.3-3.3-3.3-.2 0-.4 0-.7.1 1.5.3 2.6 1.6 2.6 3.2s-1.1 2.9-2.6 3.2z" id="anXMLID_128_"/><path class="anst0" d="M38.3 32.1c1.1-.5 2.3-.8 3.6-.8 1.3 0 2.5.3 3.6.8v-1.4l1.8-4.9v-2.4l-2.2-2.1h-6.6l-2.2 2.1v2.4l1.8 4.9v1.4zm3.7-7.8c1.5 0 2.8 1.2 2.8 2.8 0 1.5-1.2 2.8-2.8 2.8-1.5 0-2.8-1.2-2.8-2.8 0-1.6 1.2-2.8 2.8-2.8z" id="anXMLID_73410_"/><path class="anst0" d="M42 25.5c1 0 1.8.7 2 1.6v-.4c0-1.1-.9-2-2-2s-2 .9-2 2v.4c.2-.9 1-1.6 2-1.6z" id="anXMLID_125_"/><path class="anst0" d="M42 50.1c4.9 0 8.9-4 8.9-8.9s-4-8.9-8.9-8.9-8.9 4-8.9 8.9 4 8.9 8.9 8.9zm-4.4-3.2c-.1.1-.3.2-.5 0-.1-.1-.2-.3 0-.5.1-.1.3-.2.5 0 .1.1.2.3 0 .5zm2.3 1.1c-.1.2-.2.3-.4.2-.2-.1-.3-.2-.2-.4.1-.2.2-.3.4-.2.1.1.2.3.2.4zm2.1.7c-.2 0-.3-.1-.3-.3 0-.2.1-.3.3-.3s.3.1.3.3c0 .1-.1.3-.3.3zm2.6-.5c-.2.1-.4 0-.4-.2-.1-.2 0-.4.2-.4.2-.1.4 0 .4.2 0 .1 0 .3-.2.4zm2.2-1.3c-.1.1-.3.1-.5 0-.1-.1-.1-.3 0-.5.1-.1.3-.1.5 0s.2.3 0 .5zm2.2-4.2c-.2 0-.3-.2-.3-.4s.2-.3.4-.3.3.2.3.4-.2.3-.4.3zm0-3.2c.2 0 .3.1.4.3 0 .2-.1.3-.3.4-.2 0-.3-.1-.4-.3 0-.2.1-.4.3-.4zm-.5 5.4c-.1.2-.3.2-.4.1-.2-.1-.2-.3-.1-.4.1-.2.3-.2.4-.1.1 0 .2.2.1.4zm-.5-7.7c.2-.1.4 0 .4.1.1.2 0 .4-.1.4-.2.1-.4 0-.4-.1-.1-.1 0-.3.1-.4zm-1.7-1.8c.1-.1.3-.2.5 0 .1.1.2.3 0 .5-.1.1-.3.2-.5 0-.1-.2-.1-.4 0-.5zm-2.2-1.2c.1-.2.2-.3.4-.2.2.1.3.2.2.4s-.2.3-.4.2c-.2 0-.3-.2-.2-.4zm-2.2-.6c.2 0 .3.1.3.3s-.1.3-.3.3-.3-.1-.3-.3.1-.3.3-.3zm-2.5.5c.2-.1.4 0 .4.2.1.2 0 .4-.2.4-.2.1-.4 0-.4-.2-.1-.2 0-.4.2-.4zm2.6.9c3.4 0 6.1 2.7 6.1 6.1 0 3.4-2.7 6.1-6.1 6.1-3.4 0-6.1-2.7-6.1-6.1 0-3.3 2.7-6.1 6.1-6.1zm-4.9.4c.1-.1.3-.1.5 0 .1.1.1.3 0 .5-.1.1-.3.1-.5 0-.2-.2-.1-.4 0-.5zm-2.2 4.2c.2 0 .3.2.3.4s-.2.3-.4.3-.3-.2-.3-.4c.1-.2.3-.3.4-.3zm.1 3.1c-.2 0-.3-.1-.4-.3 0-.2.1-.3.3-.4.2 0 .3.1.4.3 0 .2-.2.4-.3.4zm.4-5.3c.1-.2.3-.2.4-.1.2.1.2.3.1.4-.1.2-.3.2-.4.1-.1 0-.1-.2-.1-.4zm.1 7.5c-.1-.2 0-.4.1-.4.2-.1.4 0 .4.1.1.2 0 .4-.1.4-.1.1-.3.1-.4-.1z" id="anXMLID_73373_"/><path class="anst0" d="M45.3 20.9l.5-1.4h-7.7l.6 1.4z" id="anXMLID_44_"/><path class="anst0" d="M56.2 52.3h-2V48l-3-2.5c-1.6 3.3-4.9 5.7-8.7 5.9 3.8.1 7 .9 8.6 2.1-2.4-.8-5.6-1.3-9-1.3-3.5 0-6.6.5-9 1.3 1.6-1.2 4.9-2 8.6-2.1-3.9-.2-7.2-2.5-8.7-5.9L30 48v4.3h-2l-1.7 3.2H58l-1.8-3.2z" id="anXMLID_39_"/><g id="anXMLID_38_"><path class="anst0" d="M24 56.2h35.9v4.7H24z"/><path class="anst1" d="M27.2 57l1.7-.1s.1 0 .1.1c0 0 0 .1-.1.1h-1.6v1.4h1.4s.1 0 .1.1c0 0 0 .1-.1.1h-1.4V60s0 .1-.1.1V57zM29.9 60.1s-.1-.1 0 0l-.1-3s0-.1.1-.1h1.6s.1 0 .1.1c0 0 0 .1-.1.1h-1.6v1.4h1.4s.1 0 .1.1c0 0 0 .1-.1.1h-1.4V60h1.6s.1 0 .1.1 0 .1-.1.1h-1.6v-.1zM32.3 59.7c0-.1 0-.1 0 0 0-.1 0-.2 0 0 .1-.1.5.3 1.1.3.6 0 1.1-.3 1.1-.8s-.5-.6-1-.7c-.5-.1-1-.2-1-.8 0-.4.4-.7 1-.7s.9.4.9.4v.1h-.1s-.3-.3-.9-.3c-.5 0-.8.3-.8.6 0 .5.5.6 1 .7.5.1 1.1.2 1.1.8 0 .5-.5.9-1.2.9-.7-.1-1.2-.5-1.2-.5zM36.2 57.1h-1s-.1 0-.1-.1c0 0 0-.1.1-.1h2.1s.1 0 .1.1c0 0 0 .1-.1.1h-1V60s0 .1-.1.1c0 0-.1 0-.1-.1v-2.9zM38.2 57c.1-.1.1 0 .1 0v3s0 .1-.1.1c0 0-.1 0-.1-.1v-3zM39.5 57.1c0-.1 0-.1.1-.1h.9c.5 0 .9.4.9.9s-.4.9-.9.9h-.8V60c0 .1 0 .1-.1.1s-.1 0-.1-.1v-2.9zm1 1.4c.4 0 .7-.3.7-.7 0-.4-.3-.7-.7-.7h-.8v1.3h.8zM42.1 57.1c0-.1 0-.1.1-.1s.1 0 .1.1V60c0 .1 0 .1-.1.1s-.1 0-.1-.1v-2.9zM44.8 56.9c.8 0 1.5.7 1.5 1.6 0 .9-.7 1.6-1.5 1.6s-1.5-.7-1.5-1.6c0-.9.7-1.6 1.5-1.6zm0 3c.7 0 1.3-.6 1.3-1.3 0-.8-.6-1.3-1.3-1.3-.7 0-1.3.6-1.3 1.3 0 .7.6 1.3 1.3 1.3zM47 57.1c0-.1 0-.1.1-.1s.1 0 .1.1v1.7c0 .6.5 1 1 1 .6 0 1-.5 1-1v-1.7c0-.1 0-.1.1-.1s.1 0 .1.1v1.7c0 .7-.6 1.2-1.3 1.2-.7 0-1.2-.6-1.2-1.2v-1.7zM50.4 59.5h.1c.2.2.6.4 1 .4.3 0 .5-.1.7-.2.2-.1.3-.3.3-.5s-.1-.3-.3-.4c-.2-.1-.4-.2-.7-.3-.3-.1-.5-.1-.7-.3-.2-.1-.3-.3-.3-.5s.1-.4.3-.6c.2-.1.5-.2.7-.2.4 0 .7.2 1 .4 0 0 .1.1 0 .1 0 0-.1.1-.1 0-.2-.2-.5-.3-.8-.3-.3 0-.5.1-.6.2-.2.1-.2.3-.2.4 0 .2.1.3.2.4.2.1.4.2.7.2.3.1.6.1.8.3.2.1.3.3.3.6 0 .2-.1.5-.3.6-.2.2-.5.2-.8.2-.5 0-.9-.2-1.1-.4-.2 0-.2-.1-.2-.1zM53.3 59.5h.1c.2.2.6.4 1 .4.3 0 .5-.1.7-.2.2-.1.3-.3.3-.5s-.1-.3-.3-.4c-.2-.1-.4-.2-.7-.3-.3-.1-.5-.1-.7-.3-.2-.1-.3-.3-.3-.5s.1-.4.3-.6c.2-.1.5-.2.7-.2.4 0 .7.2 1 .4 0 0 .1.1 0 .1 0 0-.1.1-.1 0-.2-.2-.5-.3-.8-.3-.3 0-.5.1-.6.2-.2.1-.2.3-.2.4 0 .2.1.3.2.4.2.1.4.2.7.2.3.1.6.1.8.3.2.1.3.3.3.6 0 .2-.1.5-.3.6-.2.2-.5.2-.8.2-.5 0-.9-.2-1.1-.4-.2 0-.2-.1-.2-.1zM56.4 57.1c0-.1 0-.1.1-.1h1.6c.1 0 .1 0 .1.1s0 .1-.1.1h-1.5v1.2h1.3c.1 0 .1 0 .1.1s0 .1-.1.1h-1.3v1.2h1.5c.1 0 .1 0 .1.1s0 .1-.1.1h-1.6c-.1 0-.1 0-.1-.1v-2.8z"/></g></g><g id="anXMLID_37_"><path class="anst0" d="M30 18.9l-.3.2-1.7-3 1-.6c.4-.2.6-.3.9-.2.2.1.4.2.6.6.2.3.2.6.2.9-.1.2-.2.4-.6.6l-.6.4.5 1.1zm-.2-1.8c.4-.2.5-.5.3-1-.2-.4-.6-.5-1-.3l-.6.4.7 1.3.6-.4zM32.2 14l.4-.1 1.3 3.2-.4.1-1.3-3.2zM35.3 14.3c-.1-.5-.1-.8.1-1 .2-.3.4-.5.8-.6.4-.1.8 0 1 .2.2.2.3.4.4.9l.2.8c.1.5.1.8-.1 1-.2.3-.4.5-.8.6-.4.1-.8 0-1-.2-.2-.2-.3-.4-.4-.9l-.2-.8zm2-.4c-.1-.4-.2-.6-.4-.7-.2-.2-.4-.2-.7-.1-.3.1-.5.2-.6.5-.1.2-.1.4 0 .7l.2.8c.1.4.2.6.4.7.2.2.4.2.7.1.3-.1.5-.2.6-.5.1-.2.1-.4 0-.7l-.2-.8zM40.5 12.2l.1 2.2c0 .3 0 .5.1.7.1.2.3.3.7.3.3 0 .5-.1.7-.4.1-.1.1-.3.1-.6l-.1-2.2h.4l.1 2.2c0 .5 0 .7-.2.9-.2.3-.5.4-1 .4s-.8-.1-1-.4c-.1-.2-.2-.4-.2-.8l-.1-2.2.4-.1zM44.8 15.1c.1.3.4.4.8.5.5.1.8-.1.9-.5 0-.2 0-.4-.1-.5-.1-.1-.1-.1-.6-.3-.7-.3-.9-.6-.8-1.1.1-.6.5-.9 1.2-.8.5.1.8.3.9.6l-.3.1c-.1-.2-.3-.4-.7-.4-.4-.1-.7.1-.7.5-.1.3.1.6.7.8.4.2.5.2.7.4.2.2.3.4.2.8-.1.6-.6.9-1.3.8-.6-.1-.9-.3-1.1-.7l.2-.2zM49 16c.1.3.3.5.7.6.5.2.8 0 1-.3.1-.2 0-.4-.1-.5-.1-.1-.1-.1-.5-.4-.6-.4-.8-.8-.6-1.3.2-.6.7-.8 1.3-.5.4.2.7.4.8.7l-.4.1c-.1-.2-.3-.4-.6-.5-.4-.1-.7 0-.8.3-.1.3 0 .6.5.9.4.3.5.3.6.5.2.2.2.5.1.8-.2.6-.7.8-1.4.5-.5-.2-.8-.5-.9-.9h.3zM54.1 15l1.8 1-.2.3-1.4-.8-.6 1.1 1.2.7-.2.3-1.2-.7-.6 1.1 1.4.8-.1.2-1.8-1 1.7-3z"/></g><g id="anXMLID_67_"><path class="anst0" d="M75.6 38.7C75.6 20.2 60.5 5.2 42 5.2S8.4 20.2 8.4 38.7c0 10.7 5 20.2 12.8 26.3l2-1.9c-.2-.1-.4-.3-.5-.4l-.5-.4c-6.7-5.7-11-14.1-11-23.6C11.1 21.7 25 7.9 42 7.9s30.9 13.8 30.9 30.9c0 9.5-4.3 17.9-11 23.6l-.5.4c-.2.1-.3.3-.5.4l2 1.9c7.6-6.2 12.7-15.7 12.7-26.4z" id="anXMLID_35_"/><path class="anst0" d="M22.2 38.7c0 4.3 1.4 8.4 3.8 11.6h1.9v-2c-1.9-2.7-3-6.1-3-9.6 0-6.7 3.9-12.6 9.6-15.3v-3c-7.2 3-12.3 10.1-12.3 18.3z" id="anXMLID_33_"/><path class="anst0" d="M49.3 20.4v3C55.1 26.1 59 32 59 38.7c0 3.6-1.1 6.9-3 9.6v2h1.9c2.4-3.3 3.8-7.3 3.8-11.6 0-8.3-5.1-15.4-12.4-18.3z" id="anXMLID_31_"/><path class="anst0" d="M42 3.8C22.8 3.8 7.2 19.4 7.2 38.6c0 10.6 4.8 20.5 13.2 27.2l.4-.4c-8.3-6.5-13-16.3-13-26.8C7.8 19.7 23.1 4.4 42 4.4s34.2 15.3 34.2 34.2c0 10.5-4.7 20.2-13 26.8l.4.4c8.3-6.7 13.1-16.5 13.1-27.1C76.7 19.4 61.1 3.8 42 3.8z" id="anXMLID_28_"/></g><g id="anXMLID_23_"><path class="anst0" d="M16.9 38.1l1.3.7-.2-1.5 1-1-1.5-.3-.6-1.3-.7 1.3-1.5.3 1.1 1-.3 1.5z" id="anXMLID_19_"/><path class="anst0" d="M20.5 24.7l-1.2 1-1.4-.5.5 1.5-.8 1.2 1.5-.1.9 1.3.4-1.5 1.4-.5-1.2-.9z" id="anXMLID_17_"/><path class="anst0" d="M18.4 45l-.9 1.2-1.5-.1.9 1.3-.6 1.4 1.5-.4 1.2.9v-1.5l1.3-.8-1.5-.5z" id="anXMLID_14_"/><path class="anst0" d="M69.3 36.3l-1.5-.3-.7-1.3-.7 1.3-1.5.3 1.1 1-.3 1.5 1.4-.7 1.3.7-.2-1.5z" id="anXMLID_12_"/><path class="anst0" d="M64.9 27.8l1.5.1-.9-1.2.6-1.5-1.5.5-1.2-1v1.5l-1.3.9 1.4.5.4 1.5z" id="anXMLID_11_"/><path class="anst0" d="M66.4 46.2l-.9-1.2-.4 1.5-1.4.5 1.2.8.1 1.5 1.2-.9 1.4.4-.5-1.4.9-1.3z" id="anXMLID_10_"/></g></g></svg><svg version="1.1" id="logosnow" x="1895" y="1862" viewBox="-5 -5 106.8 111" xml:space="preserve" width="106.8" height="111" xmlns="http://www.w3.org/2000/svg"><style>.aost0{fill:#353635}</style><path class="aost0" d="M80.9 57.6c-1.6-1.7-3.5-3.2-5.7-4.6-2.2-1.3-4.8-2.6-7.6-3.9-2.2-1-4.3-1.9-6.3-2.9-1.7-.8-3.2-1.6-4.5-2.5l-2.1 8.7c2.5 1.2 5.3 2.4 8.3 3.6 1.6.7 3.3 1.5 5 2.4 1.7.9 3.2 2.1 4.5 3.4 1.3 1.3 2.4 2.8 3.2 4.5.8 1.7 1.2 3.6 1.2 5.6 0 2.1-.4 4-1.3 5.8-.9 1.8-2 3.3-3.4 4.6-1.4 1.3-3 2.3-4.9 3-1.8.7-3.7 1.1-5.6 1.1-3.1 0-6-.5-8.7-1.6-2-.8-3.9-1.8-5.7-2.8l-2.2 8.7c.1.1.3.2.4.2 2.2 1 4.6 1.9 7.3 2.6 2.7.7 5.5 1 8.3 1 3.6-.1 6.9-.7 9.9-1.8 3-1.2 5.6-2.8 7.8-4.8s3.8-4.5 5-7.3c1.2-2.8 1.8-5.8 1.8-9.1 0-3-.4-5.6-1.2-7.8-.8-2.4-2-4.4-3.5-6.1zM63.1 22.2c2.4-.1 4.7.4 6.9 1.5s4.1 2.1 5.6 3.2c1.1.8 2.3 1.2 3.7 1.3 1.3 0 2.3-.5 3-1.6.8-1.4.8-2.9 0-4.3-.8-1.5-2.2-2.8-4.1-3.9-1.9-1.2-4.2-2.1-6.9-2.9-2.4-.7-4.8-1.1-7.4-1.1l-2 7.9c.5 0 .8-.1 1.2-.1zM58.7 13c-.8-.2-2.6.3-2.8 1.1l-.9 3.5-4.6-6.8c-.4-.6-1-1-1.7-1.1-.7-.1-1.4 0-1.9.4-.4.2-.6.6-.8 1-.1-.1-.3-.2-.5-.2-.7-.2-1.5-.2-2.1.2-.5.3-.9.8-1.1 1.4L36 25.6l-12-5.4c-.7-.2-1.5-.2-2.1.2-.5.3-.9.8-1.1 1.4-.5 1.4.3 2.8 1.6 3.3L35.8 31l7.9 16-17-4.8-7-11.8c-.4-.7-1.1-1.2-1.9-1.4-.6-.2-1.3-.1-1.8.3-1.3.8-1.2 2.4-.6 3.6L22 43.5l-11.4 7.8c-2 1.2-1.3 2.7-1.1 3.2.7 1.2 2.1 1.6 3.4.8l12.5-8.1h.2l15.9 4.5-15.1 7.7L15 55.6c-.7-.2-1.5-.2-2.1.2-.5.3-.9.8-1.1 1.4-.2.7-.2 1.4.1 2 .3.6.8 1.1 1.5 1.3l10 3.3-3.3 10.1c-.2.7-.2 1.4.1 2 .3.6.8 1.1 1.5 1.3.3.1.6.1.8.1.4 0 .8-.1 1.1-.3.6-.3 1.1-.9 1.3-1.5L28.8 64l16.5-8.3-4.6 17.9-12.5 5c-.6.3-1.1.8-1.4 1.4-.3.6-.3 1.3 0 2 .3.6.7 1.2 1.4 1.4.3.1.7.2 1 .2.3 0 .6-.1.9-.2l9-3.6-1.8 7.2c-.2.8 1.3 2.6 2.1 2.8h.4c.7 0 1.3-.5 1.4-1.1l18.6-74c.2-.7-.3-1.5-1.1-1.7zM40.3 28.7l6.5-13.9 6.5 9.4-5.2 20.4-7.8-15.9z"/></svg><svg version="1.1" id="media" x="2002" y="1973" viewBox="-5 -5 93.9 86.3" xml:space="preserve" width="93.9" height="86.3" xmlns="http://www.w3.org/2000/svg"><style>.apst0{fill:#606060}</style><path class="apst0" d="M28 43.7c.2.7.5 1.3.6 2l22.5-12.3c-.2-.7-.4-1.3-.7-2L28 43.7zM29 47c.2.7.3 1.4.4 2.1l24.3-13.5c-.1-.7-.3-1.4-.5-2.1L29 47zM54.7 36.1L29.6 50.5c.1.8.1 1.6 0 2.4l25.1-14.4c.1-.8.1-1.6 0-2.4zM26.7 40.4c.3.6.6 1.3.8 1.9 6.7-3.5 20.3-10.5 25.2-13.2-.3-.6-.5-1.3-.8-1.9-4.5 2.5-18.2 9.6-25.2 13.2zM22.6 32.8c.9 1.5 2.3 3.8 3.2 5.5.1.3.3.6.4.8C37 34 47.1 28.8 51.5 26.4c-1-2-2.1-4-3.2-5.8-4.2 2.3-14.7 7.3-25.7 12.2z"/><g><path class="apst0" d="M70.8 20.1c-1.2-3.1-2.9-6.2-4.6-9l-14.7 7.8c1.8 3.3 3.3 6.3 4.4 9l14.9-7.8zM57.1 30.8l14.7-8c-.2-.7-.4-1.3-.7-2l-14.8 8c.3.7.6 1.4.8 2zM57.9 33.6l13-7.4c-.1-.7-.3-1.4-.5-2.1l-13.1 7.4c.3.7.5 1.4.6 2.1zM72.6 26l-14.4 8.3c.1.5.2 1 .3 1.4.1.2.2.5.2.7l14.1-8.1c0-.7-.1-1.5-.2-2.3z"/></g><path class="apst0" d="M74 2.2c-.7-.6-1.6-.7-2.4-.3-.4.2-40.8 21.5-61.4 28-.7.2-1.3.8-1.5 1.6-.2.8.1 1.5.7 2.1 1.9 1.7 3.6 3.9 5 6.4l-9.1 4.7c-1.9 1-3.2 3.1-3.5 5.9-.6 5.2 1.9 13 7 16.9 2.5 1.9 4.6 2.5 6.3 2.5 1 0 1.8-.2 2.4-.5.5-.2 1.1-.5 1.6-.9 1.8-1.2 30.4-20.3 59.7-37.6 0 0 .1 0 .1-.1l.1-.1c1.8-1.2 3-3.5 3.4-6.7.9-7.2-3.1-17-8.4-21.9zM15.4 43c1.5 3.6 2.4 7.4 2.6 11l-1.3.8c-.6-3.5-2.3-7.1-4.7-9.2-.2-.2-.4-.4-.6-.5l4-2.1zm.3 22.4c-1.4.6-3.2-.5-4.5-1.5-4.1-3.1-5.7-9.5-5.3-13 .1-1.3.6-2.3 1.2-2.5.1 0 .3-.1.4-.1.6 0 1.5.4 2.4 1.2 2.3 2.1 3.9 6.4 3.4 9.4-.1.8.2 1.6.9 2.1s1.6.5 2.3.1l2-1.2c-.5 3-1.5 5-2.8 5.5zM78 23.5c-.4 2.8-1.3 3.5-1.5 3.7C54.5 40 33.1 54 22.8 60.8c0-.3.1-.5.1-.8.2-1.2.3-2.4.3-3.7v-.6c-.1-4.9-1.4-10.2-3.6-14.9l-.9-1.8c-1.2-2.2-2.5-4.3-4-6.1C34.2 26.2 65 10 72.1 6.4c3.7 4.2 6.6 11.9 5.9 17.1z"/></svg><svg viewBox="-5 -5 122.2 122.2" width="122.2" height="122.2" id="pinterest" x="2096" y="2060" xmlns="http://www.w3.org/2000/svg"><circle cx="56.099" cy="56.1" r="56.098" fill="#cb2027"/><path d="M60.627 75.122c-4.241-.328-6.023-2.431-9.349-4.45-1.828 9.591-4.062 18.785-10.679 23.588-2.045-14.496 2.998-25.384 5.34-36.941-3.992-6.72.48-20.246 8.9-16.913 10.363 4.098-8.972 24.987 4.008 27.596 13.551 2.724 19.083-23.513 10.679-32.047-12.142-12.321-35.343-.28-32.49 17.358.695 4.312 5.151 5.621 1.78 11.571-7.771-1.721-10.089-7.85-9.791-16.021.481-13.375 12.018-22.74 23.59-24.036 14.635-1.638 28.371 5.374 30.267 19.14 2.133 15.537-6.607 32.363-22.255 31.155z" fill="#f1f2f2"/></svg><svg version="1.1" id="principal" x="2219" y="2183" viewBox="-5 -5 66 66" xml:space="preserve" width="66" height="66" xmlns="http://www.w3.org/2000/svg"><style>.arst0{fill:#fff}</style><path class="arst0" d="M44.5 11.6c-.6-2.8-3.1-4.8-6.1-4.8-3.4 0-6.2 2.8-6.2 6.2 0 .8.1 1.6.4 2.3l-3.9 3.9h-.9c-3.4 0-14.9 6-17.2 8.3-2.4 2.3-3.8 5.5-3.8 9.1 0 7.1 5.7 12.8 12.8 12.8 3.6 0 6.8-1.5 9.1-3.8S37 31.8 37 28.4v-.9l3.9-3.9c.7.3 1.5.4 2.3.4 3.4 0 6.2-2.8 6.2-6.2-.1-3.1-2.2-5.6-4.9-6.2zm-1.4 9.6c-.7 0-1.3-.2-1.9-.5l-.9-.6-4.2 4.2c-.9-1.9-2.5-3.5-4.4-4.4l4.2-4.2-.6-.9c-.4-.6-.5-1.1-.5-1.9 0-2 1.6-3.6 3.6-3.6 1.9 0 3.5 1.5 3.6 3.4V14l1.2.1c1.9.1 3.4 1.7 3.4 3.6 0 1.9-1.6 3.5-3.5 3.5z"/></svg><svg viewBox="78 1833.64 64.31 45.36" width="64.31" height="45.36" id="quote" x="2285" y="2249" xmlns="http://www.w3.org/2000/svg"><defs><style>.ascls-1{fill:#fff}</style></defs><g id="asGroupe_1" data-name="Groupe 1" transform="translate(83 886.238)"><path id="asTracé_101" data-name="Tracé 101" class="ascls-1" d="M46.35 987.762a7.923 7.923 0 007.956-7.957v-6.82a7.923 7.923 0 00-7.956-7.956h-5.936A89.409 89.409 0 0142.94 952.4c-4.61 0-11.366 13.829-11.366 20.207v7.2a7.923 7.923 0 007.956 7.957zm-31.573 0a7.923 7.923 0 007.956-7.957v-6.82a7.923 7.923 0 00-7.956-7.956H8.841a89.41 89.41 0 012.525-12.629C6.757 952.4 0 966.229 0 972.607v7.2a7.923 7.923 0 007.956 7.957z"/></g></svg><svg viewBox="757 1983.64 64.31 45.36" width="64.31" height="45.36" id="quote1" x="2350" y="2295" xmlns="http://www.w3.org/2000/svg"><defs><style>.atcls-1{fill:#fff}</style></defs><g id="atGroupe_3" data-name="Groupe 3" transform="rotate(180 408.153 1488.2)"><path id="atTracé_104" data-name="Tracé 104" class="atcls-1" d="M46.35 987.762a7.923 7.923 0 007.956-7.957v-6.82a7.923 7.923 0 00-7.956-7.956h-5.936A89.409 89.409 0 0142.94 952.4c-4.61 0-11.366 13.829-11.366 20.207v7.2a7.923 7.923 0 007.956 7.957zm-31.573 0a7.923 7.923 0 007.956-7.957v-6.82a7.923 7.923 0 00-7.956-7.956H8.841a89.41 89.41 0 012.525-12.629C6.757 952.4 0 966.229 0 972.607v7.2a7.923 7.923 0 007.956 7.957z"/></g></svg><svg version="1.1" id="repas" x="2415" y="2341" viewBox="-5 -5 93.9 86.3" xml:space="preserve" width="93.9" height="86.3" xmlns="http://www.w3.org/2000/svg"><style>.aust0{fill:#fff}</style><g id="auXMLID_22_"><g id="auXMLID_73362_"><path class="aust0" d="M31 61.9l-5.5 5.5 3.6 1.1 5.1-6.6z" id="auXMLID_136_"/><path class="aust0" d="M27.3 61.9l-4.8 4.6 2.4.7 5.2-5.3z" id="auXMLID_135_"/><path class="aust0" d="M34.9 61.9l-5.2 6.8 3.6 1.1 3.9-7.9z" id="auXMLID_134_"/><path class="aust0" d="M37.9 61.9L33.8 70l3.6 1.2 2.4-9.3z" id="auXMLID_133_"/><path class="aust0" d="M38 71.3l3.6 1.2V61.9h-1.2z" id="auXMLID_132_"/><path class="aust0" d="M56.7 61.9H42.3v10.6l19.2-6z" id="auXMLID_131_"/><path class="aust0" d="M42 46.8c3.1 0 5.6-2.5 5.6-5.6 0-3.1-2.5-5.6-5.6-5.6-3.1 0-5.6 2.5-5.6 5.6 0 3 2.5 5.6 5.6 5.6zm-2.9-8.5c.8-.8 1.8-1.2 2.9-1.2 2.2 0 4 1.8 4 4s-1.8 4.1-4 4.1c-1.1 0-2.1-.4-2.8-1.2-.8-.8-1.2-1.8-1.2-2.9-.1-1 .3-2 1.1-2.8z" id="auXMLID_73414_"/><path class="aust0" d="M41.4 44.3c.2 0 .4.1.7.1 1.8 0 3.3-1.5 3.3-3.3 0-1.8-1.5-3.3-3.3-3.3-.2 0-.4 0-.7.1 1.5.3 2.6 1.6 2.6 3.2s-1.1 2.9-2.6 3.2z" id="auXMLID_128_"/><path class="aust0" d="M38.3 32.1c1.1-.5 2.3-.8 3.6-.8 1.3 0 2.5.3 3.6.8v-1.4l1.8-4.9v-2.4l-2.2-2.1h-6.6l-2.2 2.1v2.4l1.8 4.9v1.4zm3.7-7.8c1.5 0 2.8 1.2 2.8 2.8 0 1.5-1.2 2.8-2.8 2.8-1.5 0-2.8-1.2-2.8-2.8 0-1.6 1.2-2.8 2.8-2.8z" id="auXMLID_73410_"/><path class="aust0" d="M42 25.5c1 0 1.8.7 2 1.6v-.4c0-1.1-.9-2-2-2s-2 .9-2 2v.4c.2-.9 1-1.6 2-1.6z" id="auXMLID_125_"/><path class="aust0" d="M42 50.1c4.9 0 8.9-4 8.9-8.9s-4-8.9-8.9-8.9-8.9 4-8.9 8.9 4 8.9 8.9 8.9zm-4.4-3.2c-.1.1-.3.2-.5 0-.1-.1-.2-.3 0-.5.1-.1.3-.2.5 0 .1.1.2.3 0 .5zm2.3 1.1c-.1.2-.2.3-.4.2-.2-.1-.3-.2-.2-.4.1-.2.2-.3.4-.2.1.1.2.3.2.4zm2.1.7c-.2 0-.3-.1-.3-.3 0-.2.1-.3.3-.3s.3.1.3.3c0 .1-.1.3-.3.3zm2.6-.5c-.2.1-.4 0-.4-.2-.1-.2 0-.4.2-.4.2-.1.4 0 .4.2 0 .1 0 .3-.2.4zm2.2-1.3c-.1.1-.3.1-.5 0-.1-.1-.1-.3 0-.5.1-.1.3-.1.5 0s.2.3 0 .5zm2.2-4.2c-.2 0-.3-.2-.3-.4s.2-.3.4-.3.3.2.3.4-.2.3-.4.3zm0-3.2c.2 0 .3.1.4.3 0 .2-.1.3-.3.4-.2 0-.3-.1-.4-.3 0-.2.1-.4.3-.4zm-.5 5.4c-.1.2-.3.2-.4.1-.2-.1-.2-.3-.1-.4.1-.2.3-.2.4-.1.1 0 .2.2.1.4zm-.5-7.7c.2-.1.4 0 .4.1.1.2 0 .4-.1.4-.2.1-.4 0-.4-.1-.1-.1 0-.3.1-.4zm-1.7-1.8c.1-.1.3-.2.5 0 .1.1.2.3 0 .5-.1.1-.3.2-.5 0-.1-.2-.1-.4 0-.5zm-2.2-1.2c.1-.2.2-.3.4-.2.2.1.3.2.2.4s-.2.3-.4.2c-.2 0-.3-.2-.2-.4zm-2.2-.6c.2 0 .3.1.3.3s-.1.3-.3.3-.3-.1-.3-.3.1-.3.3-.3zm-2.5.5c.2-.1.4 0 .4.2.1.2 0 .4-.2.4-.2.1-.4 0-.4-.2-.1-.2 0-.4.2-.4zm2.6.9c3.4 0 6.1 2.7 6.1 6.1 0 3.4-2.7 6.1-6.1 6.1-3.4 0-6.1-2.7-6.1-6.1 0-3.3 2.7-6.1 6.1-6.1zm-4.9.4c.1-.1.3-.1.5 0 .1.1.1.3 0 .5-.1.1-.3.1-.5 0-.2-.2-.1-.4 0-.5zm-2.2 4.2c.2 0 .3.2.3.4s-.2.3-.4.3-.3-.2-.3-.4c.1-.2.3-.3.4-.3zm.1 3.1c-.2 0-.3-.1-.4-.3 0-.2.1-.3.3-.4.2 0 .3.1.4.3 0 .2-.2.4-.3.4zm.4-5.3c.1-.2.3-.2.4-.1.2.1.2.3.1.4-.1.2-.3.2-.4.1-.1 0-.1-.2-.1-.4zm.1 7.5c-.1-.2 0-.4.1-.4.2-.1.4 0 .4.1.1.2 0 .4-.1.4-.1.1-.3.1-.4-.1z" id="auXMLID_73373_"/><path class="aust0" d="M45.3 20.9l.5-1.4h-7.7l.6 1.4z" id="auXMLID_44_"/><path class="aust0" d="M56.2 52.3h-2V48l-3-2.5c-1.6 3.3-4.9 5.7-8.7 5.9 3.8.1 7 .9 8.6 2.1-2.4-.8-5.6-1.3-9-1.3-3.5 0-6.6.5-9 1.3 1.6-1.2 4.9-2 8.6-2.1-3.9-.2-7.2-2.5-8.7-5.9L30 48v4.3h-2l-1.7 3.2H58l-1.8-3.2z" id="auXMLID_39_"/><path class="aust0" d="M24 56.2h35.9v4.7H24z" id="auXMLID_38_"/></g><g id="auXMLID_37_"><path class="aust0" d="M30 18.9l-.3.2-1.7-3 1-.6c.4-.2.6-.3.9-.2.2.1.4.2.6.6.2.3.2.6.2.9-.1.2-.2.4-.6.6l-.6.4.5 1.1zm-.2-1.8c.4-.2.5-.5.3-1-.2-.4-.6-.5-1-.3l-.6.4.7 1.3.6-.4zM32.2 14l.4-.1 1.3 3.2-.4.1-1.3-3.2zM35.3 14.3c-.1-.5-.1-.8.1-1 .2-.3.4-.5.8-.6.4-.1.8 0 1 .2.2.2.3.4.4.9l.2.8c.1.5.1.8-.1 1-.2.3-.4.5-.8.6-.4.1-.8 0-1-.2-.2-.2-.3-.4-.4-.9l-.2-.8zm2-.4c-.1-.4-.2-.6-.4-.7-.2-.2-.4-.2-.7-.1-.3.1-.5.2-.6.5-.1.2-.1.4 0 .7l.2.8c.1.4.2.6.4.7.2.2.4.2.7.1.3-.1.5-.2.6-.5.1-.2.1-.4 0-.7l-.2-.8zM40.5 12.2l.1 2.2c0 .3 0 .5.1.7.1.2.3.3.7.3.3 0 .5-.1.7-.4.1-.1.1-.3.1-.6l-.1-2.2h.4l.1 2.2c0 .5 0 .7-.2.9-.2.3-.5.4-1 .4s-.8-.1-1-.4c-.1-.2-.2-.4-.2-.8l-.1-2.2.4-.1zM44.8 15.1c.1.3.4.4.8.5.5.1.8-.1.9-.5 0-.2 0-.4-.1-.5-.1-.1-.1-.1-.6-.3-.7-.3-.9-.6-.8-1.1.1-.6.5-.9 1.2-.8.5.1.8.3.9.6l-.3.1c-.1-.2-.3-.4-.7-.4-.4-.1-.7.1-.7.5-.1.3.1.6.7.8.4.2.5.2.7.4.2.2.3.4.2.8-.1.6-.6.9-1.3.8-.6-.1-.9-.3-1.1-.7l.2-.2zM49 16c.1.3.3.5.7.6.5.2.8 0 1-.3.1-.2 0-.4-.1-.5-.1-.1-.1-.1-.5-.4-.6-.4-.8-.8-.6-1.3.2-.6.7-.8 1.3-.5.4.2.7.4.8.7l-.4.1c-.1-.2-.3-.4-.6-.5-.4-.1-.7 0-.8.3-.1.3 0 .6.5.9.4.3.5.3.6.5.2.2.2.5.1.8-.2.6-.7.8-1.4.5-.5-.2-.8-.5-.9-.9h.3zM54.1 15l1.8 1-.2.3-1.4-.8-.6 1.1 1.2.7-.2.3-1.2-.7-.6 1.1 1.4.8-.1.2-1.8-1 1.7-3z"/></g><g id="auXMLID_67_"><path class="aust0" d="M75.6 38.7C75.6 20.2 60.5 5.2 42 5.2S8.4 20.2 8.4 38.7c0 10.7 5 20.2 12.8 26.3l2-1.9c-.2-.1-.4-.3-.5-.4l-.5-.4c-6.7-5.7-11-14.1-11-23.6C11.1 21.7 25 7.9 42 7.9s30.9 13.8 30.9 30.9c0 9.5-4.3 17.9-11 23.6l-.5.4c-.2.1-.3.3-.5.4l2 1.9c7.6-6.2 12.7-15.7 12.7-26.4z" id="auXMLID_35_"/><path class="aust0" d="M22.2 38.7c0 4.3 1.4 8.4 3.8 11.6h1.9v-2c-1.9-2.7-3-6.1-3-9.6 0-6.7 3.9-12.6 9.6-15.3v-3c-7.2 3-12.3 10.1-12.3 18.3z" id="auXMLID_33_"/><path class="aust0" d="M49.3 20.4v3C55.1 26.1 59 32 59 38.7c0 3.6-1.1 6.9-3 9.6v2h1.9c2.4-3.3 3.8-7.3 3.8-11.6 0-8.3-5.1-15.4-12.4-18.3z" id="auXMLID_31_"/><path class="aust0" d="M42 3.8C22.8 3.8 7.2 19.4 7.2 38.6c0 10.6 4.8 20.5 13.2 27.2l.4-.4c-8.3-6.5-13-16.3-13-26.8C7.8 19.7 23.1 4.4 42 4.4s34.2 15.3 34.2 34.2c0 10.5-4.7 20.2-13 26.8l.4.4c8.3-6.7 13.1-16.5 13.1-27.1C76.7 19.4 61.1 3.8 42 3.8z" id="auXMLID_28_"/></g><g id="auXMLID_23_"><path class="aust0" d="M16.9 38.1l1.3.7-.2-1.5 1-1-1.5-.3-.6-1.3-.7 1.3-1.5.3 1.1 1-.3 1.5z" id="auXMLID_19_"/><path class="aust0" d="M20.5 24.7l-1.2 1-1.4-.5.5 1.5-.8 1.2 1.5-.1.9 1.3.4-1.5 1.4-.5-1.2-.9z" id="auXMLID_17_"/><path class="aust0" d="M18.4 45l-.9 1.2-1.5-.1.9 1.3-.6 1.4 1.5-.4 1.2.9v-1.5l1.3-.8-1.5-.5z" id="auXMLID_14_"/><path class="aust0" d="M69.3 36.3l-1.5-.3-.7-1.3-.7 1.3-1.5.3 1.1 1-.3 1.5 1.4-.7 1.3.7-.2-1.5z" id="auXMLID_12_"/><path class="aust0" d="M64.9 27.8l1.5.1-.9-1.2.6-1.5-1.5.5-1.2-1v1.5l-1.3.9 1.4.5.4 1.5z" id="auXMLID_11_"/><path class="aust0" d="M66.4 46.2l-.9-1.2-.4 1.5-1.4.5 1.2.8.1 1.5 1.2-.9 1.4.4-.5-1.4.9-1.3z" id="auXMLID_10_"/></g></g></svg><svg version="1.1" id="rond" x="2509" y="2428" viewBox="-5 -5 264.6 266.3" xml:space="preserve" width="264.6" height="266.3" xmlns="http://www.w3.org/2000/svg"><style>.avst0{fill:#009fe3}</style><path id="avTracé_111" class="avst0" d="M253.6 124.5V123c0-2.7-.1-5.4-.2-8.1-.1-9.5-1.6-19-4.2-28.2-8.7-33.7-29.8-59.2-59.5-72.5C174.1 4.9 156.1 0 137.8 0c-5.3 0-10.7.4-16 1.2l-3.6.6c-11.1 2.1-21.8 5.7-31.9 10.8C70.7 17.8 56 25.5 43 35.6 22.5 51.6 8.8 72.1 3 94.9c-.3 2.1-.5 4.2-.7 6.4C7 76.1 21.2 53.4 43.5 36.1c11.6-9 24.6-16.1 38.4-21.2-14.2 7.7-27 17.6-38 29.4-3.1 3.2-6 6.6-8.7 10-11.6 11.9-20 26.5-24.5 42.5-.5 2.1-1.1 4.2-1.5 6.4-.5 2.3-.8 4.7-1.1 7.1-.1 1.4-.3 2.7-.4 4.2-.2 2.5-.3 5-.3 7.5 0 29.9 13.8 59 35 81.7 17.1 22.1 41.7 37.1 69.1 42.1 9.5 2.5 19.2 3.8 29 3.8 8.7 0 17.4-1 25.8-3.2-6.1 2.6-12.3 4.6-18.8 6-4.2.3-8.6.5-12.9.5-5.5 0-11-.3-16.3-.8-26.2-5.1-52.1-18.7-73.5-39-9.8-9.2-18.3-19.6-25.3-31-3.1-6-5.8-12.2-8.2-18.6-3.1-8.5-5.5-17.3-7.1-26.2.4-7.7 1.6-15.4 3.6-23 .1-1.4.2-2.8.4-4.2-2.2 7.9-3.7 16-4.5 24.3l-.3-1.8c.8-10 2.7-19.9 5.8-29.5.4-2.2 1-4.3 1.5-6.4-4 10.5-6.6 21.5-7.7 32.7-1.2-9.5-1.4-19-.6-28.5.1-1.9.3-4 .6-6.2 1.6-12 5.1-23.6 10.4-34.4 14.5-29 41.4-48.9 75.7-55.8 9.1-1.8 18.4-2.7 27.7-2.7h1.4l3.6-.6c-11-.4-22.1.5-32.9 2.6-34.5 7-61.6 26.9-76.1 56.2-6.2 12.8-10 26.8-11.1 41-2.5 13.6-2.3 27.6.8 41.2.1 11.8 2.1 23.6 6 34.7 6.2 19.2 17.9 35.9 34.8 49.4 24.3 19.3 57.1 29.9 92.3 29.9 71.2 0 119.1-46.2 119.1-115-.2-5.4-.5-11-1.1-16.7zM2.4 138.9C1.2 132.6.6 126.2.6 119.8c0-3.7.2-7.3.6-11-.2 8 .3 16 1.4 24-.1 2-.1 4.1-.2 6.1zm.6 2.3c0-1.7.1-3.5.1-5.2l.3 1.5c-.1 1.9-.1 3.8-.1 5.7-.1-.3-.1-.6-.2-1 0-.3-.1-.7-.1-1zm.2 4.4c.1.2.1.4.1.6.1 1.9.1 3.7.3 5.5-.2-1.9-.4-4-.4-6.1zm249.7-6.9c0 33.9-11.4 62.7-33.1 83.3-4.2 4-8.8 7.6-13.6 10.9 6.4-5.2 12.3-11.1 17.4-17.5 16.5-20.6 26.7-47.4 29.3-76.7zm-4.1-50.8c2.2 8.9 3.5 17.9 3.9 27v2.8c-1.5-10.1-3.9-20-7.3-29.6-5.1-16.2-13.1-31.4-23.4-44.9-.6-.8-1.3-1.6-1.9-2.4 13.1 12.2 22.7 27.7 28 44.8.3.7.5 1.5.7 2.3zM230.5 62c.1-1.7-.6-3.1-1.8-3.4h-.1c.5-.5.9-1.1.9-1.8 0-.3-.1-.6-.3-.9 6.5 10.1 11.8 21 15.7 32.5 4 12.1 6.5 24.7 7.5 37.4-1.3 16-5.9 32.4-13.9 48.8 5.3-15.9 8-32.6 7.9-49.3.1-24.3-5.6-45.8-15.9-63.3zm-4-5c-.1-.1-.1-.2-.1-.3.1.1.2.1.3.1l-.2.2zm-27-20.9l.8-.2h.5c.7 0 1.4.3 1.7 1 0 .1.1.1.1.1-1-.3-2-.6-3.1-.9zm23.4 9.7c-3.1-4-6.4-7.7-9.9-11.3 1 .8 2.1 1.7 3.1 2.6 1.9 2.1 3.6 4.2 5.4 6.5 2.8 3.6 5.4 7.3 7.8 11.2-2-3.1-4.1-6.1-6.4-9zm-.9-8.1c9.7 10.3 17.3 22.4 22.3 35.6-6.5-14.1-15.9-26.6-27.7-36.7-6.6-7.4-14.1-14-22.4-19.5 10.3 5.2 19.7 12.2 27.8 20.6zm-9.5-4.5c-1.4-1-2.7-2.1-4.1-3.1-9.3-8.5-20-15.3-31.6-20.1 4.1 1.2 8.1 2.7 12 4.5 8.7 5.1 16.7 11.4 23.7 18.7zM168.7 7.9c12.5 3.9 24.1 10.2 34.3 18.5-4.6-3-9.4-5.8-14.4-8.2-11.4-5.7-23.4-10-35.8-12.9 5.3.5 10.7 1.4 15.9 2.6zm-21-3.7c-1.4-.3-2.7-.5-4-.8 5.3.3 10.6.9 15.8 2-3.9-.5-7.8-.9-11.8-1.2zM137.8.7c16.1 0 32.1 3.9 46.4 11.3-4.8-1.8-9.7-3.3-14.7-4.5-10-3.2-20.4-4.8-30.8-4.8h-.2c-4.3-.6-8.6-1-12.9-1.3 4.2-.4 8.2-.7 12.2-.7zm4.8 3.3h-3.9c-6.2 0-12.3.4-18.4 1.1 6-1.1 12.1-1.6 18.2-1.6 1.4.1 2.8.3 4.1.5zm-20.7-2.1c4 .1 8 .4 12.1.9-7.7.4-15.4 1.6-22.9 3.6-6.6 1.1-13.2 2.7-19.6 4.7 9.6-4.5 19.9-7.5 30.4-9.2zM52.3 39.5c-4.3 3-8.3 6.3-12.1 9.9 1.3-1.5 2.7-3 4.1-4.5 12.1-13 26.5-23.7 42.3-31.6 5.7-2 11.6-3.6 17.5-4.8C85.8 14.4 68 25 52.3 39.5zm53.2-22c.6-.4 1.2-.7 1.9-.8h.5c.2 0 .4.1.5.1-.9.3-1.9.5-2.9.7zm23.6-2.9h1.5-1.5zm9.1-1.7H135c-1.3-.6-2.8-.9-4.2-1-.8 0-1.7 0-2.5.1-1.9.2-3.8.7-5.5 1.6-3.9.4-7.8 1-11.7 1.6-.8-.7-1.9-1.1-2.9-1.1h-1c-1.9.2-3.6 1.3-4.7 2.9-16.3 3.8-31.7 10.3-45.8 19.4C73.3 22 92.1 11.9 111.3 6.9c9.1-1.6 18.3-2.4 27.5-2.4 3 0 6 .1 8.9.3 14.1 2.9 27.8 7.7 40.7 14 6.9 3.4 13.4 7.4 19.7 11.9 5.2 4.8 10.1 10 14.4 15.6 2.3 2.9 4.5 6 6.6 9.2-.9-1-2.2-1.5-3.5-1.5h-.3c-.1-.1-.1-.1-.1-.2.1-.3.1-.6.1-.9-.1-1.3-1.2-2.4-2.9-2.9l-.3-.3c.1-.3.2-.7.2-1-.1-1.6-1.8-2.9-4-3.2-.5-.5-.9-1-1.4-1.5-.4-1.2-1.3-2.2-2.5-2.5-18.8-18.1-44.8-28.6-76.2-28.6zm32.3 232.4c.1-.1.3-.1.5-.2 31-9.7 53.6-34.3 65.6-65.4.6-1.2 1.3-2.5 1.9-3.7 7.4-14.5 12.2-30.1 14.2-46.2 0 .5.1 1 .1 1.4-1.5 32-11.9 61.4-29.6 83.6-6.8 8.6-14.9 16.1-23.9 22.3-13.8 7.8-29.6 12.8-47 14.8 6.2-1.6 12.3-3.8 18.2-6.6zm-22.9 7.9c15.4-1.1 30.5-5 44.5-11.5-15.1 8.5-32.3 12.9-51 12.9h-.8c2.5-.4 4.9-.8 7.3-1.4zm-13.1.5c2.6 0 5.1-.1 7.7-.2-2.1.3-4.2.7-6.4.9-3.4-.1-6.8-.5-10.2-.9 3 .2 6 .3 8.9.2zm-3.4 1.1c-16 .8-32.1-2.2-46.7-8.8 11 3.5 22.3 5.8 33.8 6.9 4.2.9 8.5 1.5 12.9 1.9zM4 143.9c0-1.2 0-2.3.1-3.4 1.6 8 3.8 15.8 6.6 23.5 1.2 3.4 2.5 6.6 4 9.9-4.7-8.7-8.2-18-10.7-27.6v-2.4zm.1 5.3c3.3 11.8 8.3 23 14.7 33.4 12.9 25.2 32 45.8 54.3 58.5 1.8.8 3.6 1.5 5.5 2.2-22-11.1-41.2-29.9-54.9-53.3 6.1 8.6 13 16.5 20.6 23.8 19.8 18.7 43.3 31.7 67.4 37.7-11.3-1.5-22.4-4.3-33.1-8.2-1.8-.7-3.7-1.4-5.5-2.2-10.9-4.5-21.1-10.6-30.4-17.9-16-12.7-27.3-28.4-33.6-46.4-3-8.9-4.6-18.2-5-27.6zm39.5 76.7c-9.6-7.6-17.9-16.7-24.4-27.1 6.3 9.5 14.1 17.9 23.1 25 10.9 8.6 23 15.4 36 20.1l.6.3c5.3 2.6 10.8 4.9 16.4 6.6-19.5-4.8-37.2-13.3-51.7-24.9zm84.9 29.7c-6.2-.3-12.5-.9-18.6-1.8 6.2.9 12.4 1.5 18.6 1.8zm92.3-30.9c-21.3 20.3-50.8 31-85.4 31-2.3 0-4.7-.1-6.9-.1 2.5-.1 4.9-.2 7.3-.5 1.8.1 3.5.1 5.3.1 22 0 41.9-6 59-17.7 33.5-19.2 53.6-54.3 53.6-98.8 0-2.5-.1-4.9-.2-7.4v-.6c.2 3.6.3 7.1.3 10.7 0 33.9-11.4 62.8-33 83.3z"/></svg><svg viewBox="1366.82 3141.47 155.52 115.33" width="155.52" height="115.33" id="sante" x="2774" y="2695" xmlns="http://www.w3.org/2000/svg"><defs><style>.awcls-1{fill:#fff}</style></defs><g id="awGroupe_21" data-name="Groupe 21" transform="translate(-49 169)"><g id="awGroupe_19" data-name="Groupe 19" transform="rotate(12.04 -13440.75 8346.54)"><path id="awTracé_119" data-name="Tracé 119" class="awcls-1" d="M27.5 94.1c-2.9 0-17.7-.4-19.8-5.3l-.1-.3-5.1-55.6A21.209 21.209 0 010 23.2a20.02 20.02 0 011.1-6.4L.1 6l.1-.2c.2-1 3-5.8 27.3-5.8s27 4.8 27.4 5.7l.1.2-1 10.8a20.02 20.02 0 011.1 6.4 20.59 20.59 0 01-2.5 9.7l-5.1 55.7-.1.1c-2.2 5.1-17 5.5-19.9 5.5zm-17.9-6c1.5 2.8 11.7 3.9 17.9 4 6.2-.1 16.4-1.2 17.9-4l5.1-55.8.1-.2a17.755 17.755 0 002.4-8.9 17.019 17.019 0 00-1-5.9l-.1-.3 1-10.8C52.3 5.6 48.4 2 27.5 2 6.7 2 2.7 5.6 2.1 6.3l1 10.8-.1.1a17.019 17.019 0 00-1 5.9A17.755 17.755 0 004.4 32l.1.2z"/><path id="awTracé_120" data-name="Tracé 120" class="awcls-1" d="M5.1 13.6l.6 4.7a16.106 16.106 0 00-.9 5.4 17.431 17.431 0 002.1 8.1l4.4 50.7c1.7 3.9 16.2 4.1 16.2 4.1s14.5-.1 16.2-4.1l4.4-50.7a16.254 16.254 0 001.3-13.5l.6-4.7s-4.2-1.6-22.3-.9c-8.4.4-22.6.9-22.6.9z"/></g><g id="awGroupe_20" data-name="Groupe 20" transform="rotate(-14.98 12097.205 -4160.062)"><path id="awTracé_121" data-name="Tracé 121" class="awcls-1" d="M27.5 94.1c-2.9 0-17.7-.4-19.8-5.3l-.1-.3-5.1-55.6A21.209 21.209 0 010 23.2a20.02 20.02 0 011.1-6.4L.1 6l.1-.2c.2-1 3-5.8 27.3-5.8s27 4.8 27.4 5.7l.1.2-1 10.8a20.02 20.02 0 011.1 6.4 20.59 20.59 0 01-2.5 9.7l-5.1 55.7-.1.1c-2.2 5.1-17 5.5-19.9 5.5zm-17.9-6c1.5 2.8 11.7 3.9 17.9 4 6.2-.1 16.4-1.2 17.9-4l5.1-55.8.1-.2a17.755 17.755 0 002.4-8.9 17.019 17.019 0 00-1-5.9l-.1-.3 1-10.8C52.3 5.6 48.4 2 27.5 2 6.7 2 2.7 5.6 2.1 6.3l1 10.8-.1.1a17.019 17.019 0 00-1 5.9A17.755 17.755 0 004.4 32l.1.2z"/><path id="awTracé_122" data-name="Tracé 122" class="awcls-1" d="M5.1 13.6l.6 4.7a16.106 16.106 0 00-.9 5.4 17.431 17.431 0 002.1 8.1l4.4 50.7c1.7 3.9 16.2 4.1 16.2 4.1s14.5-.1 16.2-4.1l4.4-50.7a16.254 16.254 0 001.3-13.5l.6-4.7s-4.2-1.6-22.3-.9c-8.4.4-22.6.9-22.6.9z"/></g></g></svg><svg version="1.1" id="share" x="2930" y="2811" viewBox="-5 -5 93.9 86.3" xml:space="preserve" width="93.9" height="86.3" xmlns="http://www.w3.org/2000/svg"><style>.axst0{fill:#fff}</style><path class="axst0" d="M22.7 58.9c-1.4-1.1-3.2-2.2-5.3-3.1-.1-.3-.2-.6-.2-.9 0-.6.5-2.2 1.4-4.4.9-.1 1.5-.5 1.7-1.1 0-.1.1-.2.1-.3 7.3.1 14.3-5.1 16.8-13.1.5-1.7.8-3.4.9-5.1V30l.1-5.1c.1-3.2.6-6.4 1.5-9.5l.9-2.8c.5-.2.8-.4.9-.8.3-.9-.8-2-3.1-3.4-2.2-1.2-5.2-2.5-8.5-3.5s-6.5-1.7-9-1.9c-2.7-.2-4.2.1-4.5 1-.1.3 0 .7.3 1.1l-.9 2.8c-1 3.1-2.4 6-4.2 8.7l-2.9 4.3c-.2.3-.3.5-.5.8-.9 1.5-1.7 3-2.2 4.7-2.5 8 .3 16.3 6.3 20.4-.1.1-.1.2-.1.3-.2.6.1 1.2.7 1.9-.6 2.3-1 3.9-1.4 4.4-.2.3-.4.5-.7.7-2.2-.4-4.3-.6-6.1-.5-2.8.2-4.6 1.1-5.1 2.6s.5 3.3 2.7 5c2.1 1.7 5.2 3.3 8.6 4.3 3.4 1.1 6.8 1.5 9.5 1.3 2.8-.2 4.6-1.1 5.1-2.6.3-1.8-.6-3.6-2.8-5.3zM16.9 8l.8-2.5.3.3.9.6c.6.4 1.3.7 1.9.9.6.3 1.3.5 2 .8.7.2 1.3.5 2 .7-.7-.3-1.3-.5-1.9-.8-.6-.3-1.3-.6-1.9-1-.6-.3-1.2-.7-1.8-1.1-.3-.2-.6-.4-.8-.6-.2-.2-.4-.4-.6-.5 0-.2-.1-.4-.2-.6.5-.1 1.5-.3 3.6 0 2.3.3 5.2.9 8.1 1.8 3 .8 5.7 1.9 7.7 3 1.8 1 2.6 1.7 2.9 2.1-.3.1-.6.4-.7.7l-.1.2h-1c-.7 0-1.4 0-2.1-.1l-2.1-.3c-.7-.1-1.4-.3-2.1-.4.7.2 1.3.4 2 .6.7.2 1.4.3 2.1.5l2.1.3c.3 0 .6 0 .9.1l-.6 2.1c-1 3.2-1.5 6.5-1.6 9.9l-.1 5.1v.9c-.1 1.6-.4 3.2-.8 4.8-1.3 4.3-4.1 7.9-7.8 10.1-2.6 1.6-5.5 2.3-8.3 2.1h-.4c-.2 0-.3 0-.5-.1-.5-.1-.9-.1-1.4-.3l-.9-.3-.9-.3c-.4-.2-.8-.4-1.3-.6-.2-.1-.3-.2-.5-.2-.1-.1-.3-.1-.4-.2C11 44.2 9 42 7.7 39.2c-1.8-3.9-2-8.4-.7-12.7.5-1.6 1.2-3 2-4.4.2-.2.3-.5.5-.7l2.9-4.3c2-2.9 3.5-5.9 4.5-9.1zm-3.8 39c.9.5 1.9 1 3 1.3 1.1.3 2.1.5 3.2.6v.1c0 .1-.3.3-.8.4h-.1l-.4.1v.1l-.1.4v.1l-.8-.1.5.2c-.1.2-.2.5-.3.7-.7 1.9-1.1 3.2-1.1 3.8v.5c0 .1 0 .2.1.3v.1c0 .1.1.2.1.3l.3.6c0 .1.1.1.1.2.1.2.1.3.1.3.2.1.3.1.4.2.1 0 .2.1.3.1.1 0 .1.1.2.1v.1c.1.1.1.2.1.4v.2c0 .1-.1.1-.1.2-.1.1-.2.2-.4.3-.2.1-.4.2-.6.2-.4.1-.8.1-1.2.2h-1.3c.4.1.8.2 1.3.2.4.1.9.1 1.3 0 .2 0 .4-.1.7-.1.2-.1.5-.2.6-.4.2-.2.3-.5.4-.7v-.1c.1.2.1.4.1.6 0 .1 0 .2-.1.3 0 0-.1.1-.1.2l-.1.1c-.2.2-.4.3-.7.4-.3.1-.6.2-.8.3.3 0 .6 0 .9-.1l.9-.3c.1 0 .1-.1.2-.1l.2-.2c.1-.1.2-.3.3-.5 0-.1.1-.2.1-.4.1 0 .2.1.2.1.5.3 1 .5 1.4.8.5.3.9.6 1.3 1 .4.3.8.7 1.1 1.2.2.2.3.5.4.7.1.3.1.5 0 .8.1-.3.1-.6.1-.9 0-.3-.1-.6-.3-.8-.1-.3-.3-.5-.5-.7-.2-.2-.4-.5-.6-.7-.4-.4-.8-.8-1.3-1.1-.5-.3-.9-.7-1.4-1-.1-.1-.3-.2-.4-.2 1 .6 2 1.2 2.8 1.9 2 1.6 2.9 3.2 2.5 4.4-.4 1.2-2 2-4.5 2.2-2.6.2-5.9-.3-9.3-1.3-3.3-1-6.3-2.5-8.4-4.2C.6 58.8-.3 57.2.1 56c.4-1.2 2-2 4.5-2.2.9-.1 2-.1 3 0h-.9c-1.2 0-2.3.1-3.4.4-.3.1-.6.2-.8.3-.3.1-.5.2-.8.4-.2.2-.5.4-.7.6-.2.2-.3.5-.4.8.2-.3.4-.6.6-.7s.4-.3.7-.5c.5-.2 1-.4 1.6-.5.5-.1 1.1-.1 1.7-.1.6 0 1.1 0 1.7.1.3 0 .7.1 1 .1 0 .1-.1.1-.1.2v1c.1.3.3.6.5.8.2.2.5.4.7.6-.2-.2-.4-.5-.6-.7-.2-.3-.3-.5-.3-.8v-.2-.4-.1c.1-.2.2-.3.4-.4l-.1.1c-.1.3-.2.6-.1.8.1.3.2.5.3.7.1.2.3.4.5.5.3.3.7.5 1.1.7.4.2.8.4 1.2.5-.4-.2-.7-.4-1.1-.7-.3-.1-.6-.3-.8-.6-.1-.2-.2-.3-.3-.5-.2-.2-.2-.4-.2-.5v-.2c0-.1.1-.1.1-.2l.3-.3h.4c.1 0 .2 0 .3.1h.1c.1 0 .2.1.4.1 0-.1.1-.1.3-.2.1 0 .1-.1.2-.1.2-.1.3-.2.5-.3l.2-.2.2-.2c.1-.1.2-.3.3-.4.3-.6.8-1.8 1.2-3.8.1-.2.1-.5.2-.7l.5.1-.5-.4v-.1l.1-.4-.1-.5-.1-.1c-.4-.4-.6-.7-.5-.9z"/><path class="axst0" d="M16.1 64.9c-.6-.1-1.1-.2-1.7-.3-.5-.1-1.1-.2-1.6-.4-.5-.1-1.1-.3-1.6-.5-1.1-.3-2.1-.7-3.1-1.2-1-.4-2-1-3-1.6-.5-.3-.9-.6-1.4-1-.4-.3-.9-.7-1.2-1.1-.4-.4-.7-.9-1-1.4-.1-.2-.2-.5-.3-.8v-.8c-.1.3-.1.6-.1.8 0 .3.1.6.2.8.2.5.5 1 .9 1.5.7.9 1.6 1.6 2.6 2.2l1.5.9c.5.3 1 .5 1.5.8 1 .5 2.1.9 3.2 1.2 2.2.7 4.4 1.1 6.7 1.2 1.1 0 2.3-.1 3.4-.4.1 0 .3-.1.4-.1l.2-.1.2-.1c.1-.1.3-.1.4-.2l.2-.1s.1 0 .1-.1l.1-.1c.5-.3.9-.8 1-1.3-.1.3-.3.5-.4.7-.2.2-.4.4-.7.5l-.1.1h-.1l-.2.1c-.1.1-.3.1-.4.2l-.2.1-.2.1c-.1 0-.3.1-.4.1-.5.1-1.1.2-1.7.2h-1.7c-.4.3-.9.2-1.5.1z"/><path class="axst0" d="M14.8 62.1c.2.1.5.1.7.1.2 0 .5.1.7.1.5.1.9.1 1.4.1.5 0 .9 0 1.4-.1.2 0 .5-.1.7-.2.1-.1.2-.1.3-.3 0-.1.1-.1.1-.2s0-.2-.1-.2l-.3-.3c-.1-.1-.2-.2-.3-.2l-.6-.3c.2.2.4.3.5.5l.2.2c.1.1.1.2.2.3v.2c0 .1-.1.1-.2.2-.1-.1-.3 0-.5 0-.4.1-.9.1-1.4.1h-.7c-.2 0-.5 0-.7-.1-.2 0-.5-.1-.7-.1-.2 0-.5-.1-.7-.1-.5-.1-.9-.2-1.3-.3-.9-.2-1.8-.5-2.6-.8.8.4 1.7.8 2.6 1.1.4 0 .9.2 1.3.3zM14.8 52.2c.1 0 .2.1.3.3.1.1.2.3.3.5v-.6c0-.1-.1-.2-.2-.3l-.1-.1h-.2H14.6c-.1 0-.1 0-.2.1-.1 0-.1.1-.1.1-.2.1-.3.3-.4.5.2-.1.4-.2.5-.2.2-.4.3-.4.4-.3zM28.4 44c.8-.5 1.6-1.1 2.3-1.7.7-.6 1.3-1.4 1.9-2.1 1.1-1.5 2-3.3 2.5-5.1.3-.9.5-1.8.6-2.8.1-.9.2-1.9.3-2.8l-.6 2.7c-.2.9-.5 1.8-.8 2.6-.6 1.7-1.5 3.4-2.6 4.8-.1.2-.3.4-.4.5-.1.2-.3.4-.4.5l-.5.5-.5.5-2.1 1.8c-1.5 1.1-3.1 1.9-4.9 2.7 1.8-.3 3.6-1 5.2-2.1zM17.7 43.2c.8.2 1.6.5 2.3.9.7.4 1.5.8 2.1 1.3-.5-.7-1.2-1.2-1.9-1.7s-1.5-.8-2.4-1.1c-.8-.3-1.7-.4-2.6-.4-.9 0-1.7 0-2.6.3.9 0 1.7.1 2.5.2 1 .1 1.8.2 2.6.5zM40.1 7.5l.6.3c-.3-.2-.6-.3-.6-.3zM19 17.4c.1 0 0 0 0 0zM29.5 24.4c.1.1.1.1 0 0 .1.1.1.1 0 0 .1 0 .1 0 0 0 .1 0 .1 0 0 0zM10.6 39.2zM10.5 39.2v.1zM10.3 38.8zM19.7 41.1zM19.8 41.1zM19.7 41.5z"/><g><path class="axst0" d="M19.6 28.8c.1-.2.3-.4.5-.3.2.1.4.3.3.5-.1.2-.3.4-.5.3-.2 0-.3-.3-.3-.5M19.8 27.9c0-.1.2-.2.3-.2.1 0 .2.2.2.3 0 .1-.2.2-.3.2-.2 0-.2-.2-.2-.3M20.1 27c.1-.2.2-.3.4-.2.2.1.3.2.2.4-.1.2-.2.3-.4.2-.2 0-.3-.2-.2-.4M21.5 27.9c0-.2-.2-.4-.4-.4s-.4.2-.4.4.2.4.4.4c.2.1.4-.1.4-.4M21.7 27c0-.2-.1-.3-.3-.3-.2 0-.3.1-.3.3 0 .2.1.3.3.3.1-.1.3-.2.3-.3M21.7 26.1c0-.2-.1-.3-.3-.3-.2 0-.3.1-.3.3 0 .2.1.3.3.3.1 0 .3-.1.3-.3"/><path class="axst0" d="M19.4 30.4c-.1-.1-.2-.1-.2 0s.1.5.4.8c.1.2.3.4.5.5.3.2 1.2.6 2.2.6h.2c.3 0 .5 0 .8-.2.1 0 .2-.1.3-.2v-.1l1-3.2h.1c.1 0 .2.1.3.1 1.1.4 1.8.1 1.9 0 .7-.3 1.2-1 1.6-1.8.3-.9.3-1.8 0-2.6-.2-.5-.5-.8-.9-.9-1-.4-2.5.2-2.5.2s-.4.2-1.1.2c-.7 0-1.8-.1-3.2-.9l.8-2.5c2.6 1.2 4.3.8 4.9.6 0 .1 0 .2-.1.4l-.2.4s-.1.1-.1.2.1.1.1.2h.1c.1 0 .2 0 .3-.1 0 0 .2-.2.3-.6.1-.4.1-.7-.1-1.1 0-.1-.1-.2-.3-.3h-.3c-.1.1-.5.2-1.2.2-.8 0-2-.1-3.6-1l-.4-.1-2.9 9.1c-.1.2.1.4.3.5.2.1.4-.1.5-.3l1.6-5c2.9 1.5 4.4.7 4.9.6.3-.1 1.2-.5 1.9-.2.2.1.4.3.5.5.3.6.3 1.4 0 2.1-.2.7-.7 1.2-1.2 1.4 0 0-.2.1-.5.1-.2 0-.6 0-1-.2-.1 0-.2-.1-.3-.1l.6-1.9c.1-.2-.1-.4-.3-.5-.2-.1-.4.1-.5.3l-.6 1.9c-.6-.2-1.1-.4-1.5-.5-.1.2-.2.2 0 .5.2.2.4.1.6.2.2.1.5.3.7.4 0 0-.2.8-.3 1.1l-.2.7c-.1.5-.5 2.8-3.9.5z"/></g><path class="axst0" d="M8.7 24.6s6.4 6.9 11.6 7.2c5.2.3 15.1-2.4 16.1-2.2v1.8s-4.9 20-19.7 14.4c-14.1-5.2-8-21.2-8-21.2z"/><g><path class="axst0" d="M78.6 58.7c-1.8-.1-3.9.1-6.1.5-.3-.2-.5-.4-.7-.7-.3-.5-.8-2.1-1.4-4.4.6-.6.9-1.3.7-1.9 0-.1-.1-.2-.1-.3 6-4.1 8.7-12.4 6.2-20.4-.5-1.7-1.3-3.2-2.2-4.7-.2-.3-.3-.5-.5-.8l-2.9-4.3c-1.8-2.7-3.3-5.6-4.3-8.7l-.9-2.8c.3-.4.4-.8.3-1.1-.4-.8-2-1.1-4.7-.9-2.5.2-5.7 1-9 2-3.3 1.1-6.3 2.3-8.5 3.6-2.3 1.4-3.4 2.5-3.1 3.4.1.3.4.6.9.8l.9 2.8c1 3.1 1.5 6.3 1.6 9.5l.1 5.1v.9c.1 1.7.4 3.4.9 5.1 2.6 8 9.6 13.1 16.9 13 0 .1 0 .2.1.3.2.6.8 1 1.7 1.1.9 2.2 1.4 3.8 1.5 4.4 0 .4-.1.7-.2.9-2.1.9-3.9 2-5.3 3.1-2.2 1.8-3.1 3.6-2.6 5.1.5 1.5 2.3 2.4 5.1 2.6 2.7.2 6.1-.3 9.5-1.4 3.4-1.1 6.4-2.6 8.5-4.4 2.2-1.8 3.1-3.6 2.6-5.1-.4-1.2-2.2-2.1-5-2.3zM44.5 20.4l-.8-2.5h.4c.4 0 .7 0 1.1-.1l2.1-.3c.7-.1 1.4-.3 2.1-.5.7-.2 1.4-.4 2-.6-.7.2-1.4.3-2.1.4l-2.1.3c-.7.1-1.4.1-2.1.1h-1c-.3 0-.5-.1-.8-.1-.1-.2-.3-.3-.5-.4.3-.4 1.1-1.1 2.9-2.1 2-1.1 4.8-2.2 7.6-3.2 2.9-.9 5.8-1.6 8.1-1.9 2-.3 3.1-.1 3.6 0-.2.3-.3.6-.2 1l.1.2c-.3.2-.5.4-.8.6-.6.4-1.2.8-1.8 1.1-.6.3-1.2.7-1.9 1-.6.3-1.3.6-1.9.9.7-.2 1.3-.4 2-.7.7-.2 1.3-.5 2-.8.6-.3 1.3-.6 1.9-1 .2-.1.5-.3.7-.5l.7 2.1c1.1 3.2 2.6 6.2 4.4 9l2.9 4.3c.2.2.3.5.5.7.9 1.4 1.6 2.8 2.1 4.4 1.4 4.3 1.2 8.8-.6 12.7-1.3 2.8-3.2 5-5.6 6.5-.1.1-.2.2-.4.2-.2.1-.3.2-.5.3-.4.2-.8.4-1.3.6l-.9.3-.9.3c-.4.1-.9.2-1.4.3-.2 0-.3 0-.5.1h-.4c-2.8.2-5.7-.5-8.4-2-3.7-2.2-6.5-5.7-7.9-10-.5-1.6-.8-3.2-.9-4.8v-.9l-.1-5.1c.2-3.3-.4-6.7-1.4-9.9zm19.4 34.1c1.1-.1 2.1-.3 3.2-.7 1.1-.3 2-.8 3-1.3v.1c0 .1-.1.4-.5.8l-.1.1-.3.3v.1l.1.4v.1l-.5.4.5-.1c.1.2.1.5.2.7.5 2 .9 3.2 1.3 3.8.1.2.2.3.3.4l.2.2.2.2c.2.1.4.2.5.3.1 0 .1.1.2.1.2.1.2.2.3.2.2 0 .3-.1.5-.1.1 0 .2 0 .3-.1h.2s.1 0 .1.1c.1.1.2.1.3.2 0 .1.1.1.1.2v.2c0 .2-.1.3-.1.5-.1.2-.2.3-.3.5-.3.3-.6.6-.9.8-.3.3-.7.5-1.1.7.4-.2.8-.3 1.2-.5.4-.2.8-.4 1.1-.7.2-.1.3-.3.5-.5.1-.2.3-.4.3-.7.1-.3 0-.6-.1-.8 0 0 0-.1-.1-.1.2.1.3.2.4.4.1.1.1.2.1.3v.4c-.1.3-.2.5-.3.8-.2.2-.3.5-.5.7.2-.2.5-.4.7-.6.2-.2.4-.5.5-.8 0-.1.1-.2.1-.2V61c0-.2 0-.4-.1-.5 0-.1-.1-.2-.2-.3h.3c.6-.1 1.1-.1 1.7-.1h1.7c.5 0 1.1.1 1.6.3.3.1.5.2.7.4.2.2.4.4.5.6-.1-.3-.2-.5-.4-.8-.2-.2-.4-.4-.7-.5-.3-.1-.5-.2-.8-.3-.3-.1-.6-.2-.8-.2-.6-.1-1.1-.2-1.7-.2h-2.2c1.2-.1 2.3-.2 3.4-.1 2.5.2 4.2 1 4.6 2.1.4 1.2-.5 2.8-2.4 4.4-2 1.7-5 3.2-8.3 4.3-3.3 1.1-6.6 1.6-9.3 1.4-2.5-.2-4.2-1-4.6-2.1-.4-1.2.5-2.8 2.5-4.4.7-.6 1.6-1.2 2.5-1.7-.2.2-.5.3-.7.5-.9.7-1.8 1.4-2.6 2.3-.2.2-.4.5-.5.7-.2.2-.3.5-.4.8-.1.3-.2.6-.2.9 0 .3 0 .6.1.8-.1-.3-.1-.6 0-.8.1-.3.2-.5.3-.8.3-.5.6-.9 1-1.3s.8-.7 1.3-1.1c.5-.3.9-.6 1.4-.9.3-.2.6-.3.9-.5V64.2l.1.1v.2l.1.1.2.2.1.1.1.1c.3.2.6.3.9.3.3.1.6.1.9.1-.3-.1-.6-.1-.9-.3-.3-.1-.5-.3-.7-.5l-.1-.1-.1-.1c0-.1-.1-.1-.1-.2V64v-.1c0-.2 0-.4.1-.5v.2c0 .3.2.6.4.7.2.2.4.3.6.4.2.1.5.1.7.1h1.3c.4-.1.9-.1 1.3-.2-.4 0-.9.1-1.3.1s-.8-.1-1.2-.2c-.2-.1-.4-.1-.6-.2-.2-.1-.3-.2-.4-.3-.1-.1-.1-.1-.1-.2v-.2c0-.1 0-.2.1-.4v-.1c.1 0 .2-.1.2-.1.1 0 .2-.1.3-.1 0 0 .1 0 .1-.1.1 0 .2-.1.3-.1 0-.1 0-.2.1-.3 0-.1.1-.1.1-.2l.3-.6c0-.1.1-.2.1-.3v-.1c0-.1 0-.2.1-.3v-.5c-.1-.7-.4-1.9-1.2-3.8-.1-.2-.2-.4-.3-.7l.5-.2-.6-.1v-.1l-.2-.4-.3-.1h-.2c-.5-.1-.9-.3-.9-.5z"/><path class="axst0" d="M76.7 67.4c-.5.3-1 .5-1.5.7l-1.5.6c-.5.2-1.1.4-1.6.6-1.1.3-2.1.6-3.2.9-1.1.2-2.2.4-3.3.4h-1.7c-.6 0-1.1-.1-1.7-.2-.5-.1-1.1-.3-1.6-.5-.2-.1-.5-.3-.7-.5-.2-.2-.4-.4-.4-.7.1.3.2.5.4.8l.6.6c.5.3 1 .5 1.6.7 1.1.3 2.3.4 3.4.3.6 0 1.1-.1 1.7-.1.6-.1 1.1-.2 1.7-.3 1.1-.2 2.2-.5 3.3-.8 2.2-.7 4.3-1.6 6.1-2.9.9-.6 1.8-1.4 2.6-2.2l.3-.3.1-.2.1-.2c.1-.1.1-.2.2-.4l.1-.2v-.2c.2-.5.3-1.1.1-1.7.1.3.1.6 0 .8 0 .3-.1.5-.2.8v.2l-.1.2c-.1.1-.1.2-.2.3l-.1.1-.2.2-.3.3c-.4.4-.8.8-1.2 1.1-.4.3-.9.7-1.4 1-.4.3-.9.6-1.4.8z"/><path class="axst0" d="M74 65.9l.6-.3.6-.3c.4-.2.8-.5 1.2-.7.4-.3.8-.5 1.1-.9.2-.2.3-.4.5-.6.1-.1.1-.2.1-.4 0-.1 0-.2-.1-.2 0-.1-.1-.1-.2-.2s-.3-.1-.4-.1H77c-.2 0-.5 0-.7.1.2 0 .5.1.7.1.1 0 .2 0 .3.1.1 0 .2.1.3.1.1.1.1.1.1.2s0 .2-.1.3c-.1.2-.3.3-.4.5-.3.3-.7.6-1.1.8-.2.1-.4.2-.6.4l-.6.3-.6.3-.6.3c-.4.2-.8.4-1.3.5-.9.3-1.7.6-2.6.9.9-.1 1.8-.3 2.7-.6.6-.3 1.1-.5 1.5-.6zM68.3 57.8h.4c.2.1.3.1.5.2-.1-.2-.2-.4-.4-.5-.1-.1-.2-.1-.3-.1h-.4-.1c-.1 0-.1.1-.1.1l-.1.1s0 .1-.1.2c-.1.2-.1.4 0 .6.1-.2.2-.4.3-.5.1 0 .2-.1.3-.1zM74.7 43.3c.4-.9.6-1.8.8-2.7.2-.9.3-1.9.3-2.8 0-1.9-.3-3.8-.9-5.6-.3-.9-.7-1.8-1.1-2.6-.4-.8-.9-1.7-1.4-2.4.4.9.7 1.7 1.1 2.6.3.9.6 1.7.9 2.6.5 1.8.7 3.6.7 5.4v.7c0 .2 0 .5-.1.7v.5l-.1.7c-.2.9-.4 1.8-.7 2.7-.6 1.7-1.5 3.4-2.4 5 1.2-1.5 2.2-3.1 2.9-4.8zM65.5 48.8c.8-.3 1.6-.5 2.4-.6.8-.1 1.7-.2 2.5-.2-.8-.3-1.7-.3-2.6-.3-.9 0-1.7.2-2.5.5s-1.6.6-2.3 1.1c-.7.5-1.4 1-1.9 1.7.7-.5 1.4-.9 2.2-1.3.6-.4 1.4-.7 2.2-.9zM63.1 6.7l.7-.1c-.3 0-.7.1-.7.1zM51.7 27c0-.1 0-.1 0 0 0-.1 0-.1 0 0 0-.1 0-.1 0 0 0-.1 0 0 0 0zM64.3 26.6c.1 0 .1 0 0 0 .1 0 .1 0 0 0 .1 0 .1 0 0 0zM57.3 49.6zM57.3 49.7zM56.9 49.5zM65.9 45.9h.1zM66 45.9zM66.1 46.3z"/><g><path class="axst0" d="M58.8 35.9c-.1-.2.1-.5.3-.5.2-.1.5.1.5.3.1.2-.1.5-.3.5-.2.1-.5-.1-.5-.3M58.3 35c0-.1 0-.3.2-.4.1 0 .3 0 .4.2 0 .1 0 .3-.2.4-.2.1-.3 0-.4-.2M58.1 34.2c-.1-.2 0-.4.2-.4.2-.1.4 0 .4.2.1.2 0 .4-.2.4-.2.1-.4 0-.4-.2M59.8 34.1c-.1-.2-.4-.2-.6-.1-.2.1-.2.4-.1.6.1.2.4.2.6.1.2-.1.2-.4.1-.6M59.4 33.2c-.1-.1-.3-.2-.4-.1-.1.1-.2.3-.1.4.1.1.3.2.4.1.1-.1.1-.2.1-.4M58.9 32.5c-.1-.2-.3-.2-.5-.1s-.2.3-.1.5.3.2.5.1c.1-.1.2-.3.1-.5"/><path class="axst0" d="M59.5 37.3h-.1v.1c0 .1.3.4.7.4.2.1.5.1.6.1.3 0 1.4-.2 2.2-.7.1 0 .1-.1.1-.1.2-.1.4-.3.6-.6.1-.1.1-.2.1-.4V36l-1-3.2h.1c.1 0 .2-.1.3-.1 1.1-.4 1.5-1 1.5-1.1.4-.6.5-1.5.2-2.4-.2-.9-.8-1.7-1.5-2.2-.4-.3-.8-.3-1.3-.2-1.1.3-1.9 1.6-1.9 1.6s-.2.4-.8.8c-.5.4-1.5.9-3.1 1.2l-.8-2.5c2.8-.5 4-1.8 4.4-2.3.1.1.1.1.2.4.1.2 0 .4 0 .4 0 .1 0 .1.1.2s.1.1.2.1h.1c.1 0 .2-.1.2-.2 0 0 0-.3-.1-.7-.1-.4-.3-.6-.7-.8-.1-.1-.2-.1-.4-.1-.1 0-.2.1-.2.2-.1.1-.3.5-.9.9-.6.5-1.7 1-3.5 1.3l-.5.1 2.9 9.1c.1.2.3.3.5.3.2-.1.3-.3.3-.5l-1.6-5c3.2-.5 4-1.9 4.3-2.4.2-.3.7-1.1 1.5-1.3.3-.1.5 0 .7.1.6.4 1 1 1.2 1.7.2.7.1 1.4-.2 1.8 0 0-.1.2-.4.4-.2.1-.5.3-.9.4-.1 0-.2 0-.3.1l-.6-1.9c-.1-.2-.3-.3-.5-.3-.1.1-.2.3-.2.5l.6 1.9c-.6.2-1.2.3-1.5.5 0 .2-.1.3.2.4.3 0 .4-.1.7-.2.2 0 .6-.1.8-.1 0 0 .2.8.3 1.1l.3.6c.2.5 1.2 2.7-2.9 2.7z"/></g></g><path class="axst0" d="M47.6 39.2s11.6-.1 16.8-.4c5.2-.3 8.4-9.4 9.5-9.3l2 5.9s2.2 12.5-10.2 16.1c-12.5 3.6-18.1-12.3-18.1-12.3z"/></svg><svg viewBox="-5 -5 110 110" width="110" height="110" id="sopnsor" x="3024" y="2898" xmlns="http://www.w3.org/2000/svg"><path d="M77.1 42c0-4.3-1.7-8.4-4.8-11.3-6.2-5.9-15.9-6.2-22.5-.6-6.5-5.5-16.2-5.2-22.4.7-3 2.9-4.6 7-4.6 11.1 0 4.4 1.8 8.7 4.9 11.8-.6 1.7-.1 3.6 1.2 4.9.9.9 2.2 1.4 3.5 1.4h.6c-.2 1.5.3 2.9 1.4 3.9.9.9 2.2 1.4 3.5 1.4h.6c-.2 1.5.3 2.9 1.4 3.9.9.9 2.2 1.4 3.5 1.4.2 0 .4-.1.6-.2v.5c.1 2.7 2.3 4.9 5.1 4.8 1.2 0 2.3-.5 3.2-1.3l3.3-3.3c.4-.4.7-.8.9-1.3 1.7.4 3.5 0 4.7-1.2 1.1-1 1.6-2.5 1.4-3.9h.4c1.3 0 2.6-.5 3.5-1.4 1.1-1 1.6-2.5 1.4-4 1.5.2 3-.3 4.1-1.4 1.5-1.4 1.9-3.6 1-5.4 2.6-2.7 4.1-6.5 4.1-10.5zM30.5 57.1c-1-1-1.1-2.6-.1-3.7l.1-.1 3.3-3.3c1.1-1 2.8-1 3.9 0 1 1 1.1 2.6.1 3.7l-.1.1-3.3 3.3c-1.1 1.1-2.8 1.1-3.9 0zm5.4 5.3c-1-1-1.1-2.6-.1-3.7l.1-.1 3.3-3.3c1.1-1.1 2.8-1.1 3.9 0 1 1 1.1 2.6.1 3.7l-.1.1-3.3 3.3c-1.1 1-2.8 1-3.9 0zm9.3 5.3c-1.1 1-2.8 1-3.9 0-1-1-1.1-2.6-.1-3.7l.1-.1 3.3-3.3c1.1-1 2.8-1 3.9 0 1 1 1.1 2.6.1 3.7l-.1.1-3.3 3.3zm8.8 2.1l-3.3 3.3c-1.1 1-2.8 1-3.9 0-.5-.5-.8-1.2-.8-2 0-.7.2-1.4.7-1.9L50 66c1.1-1 2.9-1 4 .1 1 1 1.1 2.6.1 3.6l-.1.1zm16.3-13.1c-1.1 1-2.8 1-3.9 0-.1-.1-.2-.2-.4-.2l-7.3-7.1c-.5-.4-1.1-.3-1.5.1-.3.4-.3 1 0 1.4l7.6 7.4c1 1 1.1 2.6.1 3.6l-.1.1c-1 .9-2.5 1-3.5.3-.1-.1-.1-.2-.2-.3l-7.6-7.4c-.4-.4-1.1-.5-1.5-.1-.4.4-.5 1.1-.1 1.5l.1.1 7.3 7.1c.1.1.1.2.2.3l.3.3c.4.4.6 1 .6 1.6 0 .7-.3 1.4-.8 1.9-.7.6-1.6.9-2.6.7 0-1.3-.5-2.5-1.4-3.4-1.1-1-2.6-1.5-4.1-1.4.3-1.5-.3-3-1.4-4-1.1-1-2.5-1.5-4-1.3.2-1.5-.3-2.9-1.4-3.9-1.1-1-2.5-1.5-4-1.3.2-1.5-.3-2.9-1.4-3.9-1.9-1.9-5-1.9-6.9 0L29 51.9c-2.5-2.7-3.9-6.3-3.9-9.9 0-3.6 1.4-7.1 3.9-9.6 5.3-5.1 13.6-5.4 19.2-.8l-6.6 6.5c-1.9 1.6-2.2 4.5-.6 6.5.1.1.2.3.4.4 1.9 1.9 5 1.9 6.9 0l7.1-6.9 7.6 7.6 7.3 7.3c1.1.9 1.1 2.5 0 3.7.1-.1.1-.1 0 0zm1.2-5.7l-7-6.9-8.4-8.3c-.1 0-.1-.1-.2-.1-.1-.1-.1-.1-.2-.1h-.2c-.1-.1-.3-.1-.4 0h-.2c-.1 0-.1.1-.2.1s-.1.1-.2.1l-7.8 7.6c-1.1 1.1-2.8 1.1-3.9 0-.5-.5-.8-1.1-.8-1.8s.4-1.4.9-1.9l7.5-7.3c5.6-5.4 14.5-5.5 20.2-.2 5.4 5.1 5.7 13.4.9 18.8z"/></svg><svg viewBox="-5 -5 122.2 122.2" width="122.2" height="122.2" id="soundcloud" x="3134" y="3008" xmlns="http://www.w3.org/2000/svg"><circle cx="56.098" cy="56.098" r="56.098" fill="#ff6a22"/><path d="M16.707 68.833c-.027.182-.157.312-.326.312s-.299-.13-.325-.316l-.593-4.438.593-4.512c.025-.188.155-.318.325-.318.168 0 .298.13.326.318l.706 4.517-.706 4.437zm3.021 2.696c-.028.193-.168.328-.341.328-.168 0-.315-.135-.338-.328l-.798-7.139.798-7.299c.024-.188.17-.328.338-.328.173 0 .313.137.341.328l.908 7.299-.908 7.139zm3.26 1.209c-.023.232-.197.397-.406.397-.216 0-.387-.165-.408-.397l-.757-8.342.757-8.659c.019-.235.192-.403.408-.403.209 0 .382.168.406.403l.859 8.659-.859 8.342zm3.292.265a.496.496 0 01-.479.467.491.491 0 01-.481-.467l-.715-8.607.715-8.897a.491.491 0 01.481-.469c.247 0 .455.201.479.469l.811 8.897-.811 8.607zm3.31.069a.553.553 0 01-.543.538c-.294 0-.527-.229-.547-.538l-.676-8.677.676-8.254c.021-.307.253-.536.547-.536.29 0 .526.229.543.532l.766 8.258-.766 8.677zm3.342.005v-.005c-.02.342-.291.612-.617.612a.634.634 0 01-.617-.607l-.631-8.677.631-13.429c.019-.342.29-.612.617-.612s.598.271.617.607l.715 13.434-.715 8.677zm3.317-.005v-.005a.702.702 0 01-.689.679c-.363 0-.663-.301-.681-.679l-.596-8.621.596-16.501c.018-.378.318-.677.681-.677a.7.7 0 01.689.677l.671 16.501-.671 8.626zm3.441-.133v-.005a.76.76 0 01-.753.748.76.76 0 01-.753-.743l-.553-8.533.553-17.881a.766.766 0 01.753-.749c.407 0 .739.333.753.749l.625 17.881-.625 8.533zm3.421-.057a.83.83 0 01-.822.817.83.83 0 01-.823-.813l-.516-8.482.516-18.478a.83.83 0 01.823-.818c.447 0 .807.358.822.818l.573 18.478-.573 8.478zm3.443-.075v-.005a.9.9 0 01-.894.888.894.894 0 01-.888-.883l-.474-8.401.469-18.006a.899.899 0 01.893-.89c.491 0 .878.388.894.89l.532 18.006-.532 8.401zm3.471-.05v-.007a.963.963 0 01-1.926.007l-.428-8.352.429-17.347a.97.97 0 01.966-.959c.526 0 .952.421.96.959l.485 17.352-.486 8.347zm3.541-.881l-.043.818a1.069 1.069 0 01-.308.729c-.188.183-.446.3-.719.3-.318 0-.598-.146-.79-.376a1.016 1.016 0 01-.24-.61c-.003-.01-.003-.023-.003-.037l-.395-8.3.39-20.443.005-.196c.003-.358.193-.677.477-.86a.992.992 0 011.121.009c.277.185.458.496.463.852l.434 20.648-.392 7.466zm3.441.711v-.01a1.11 1.11 0 01-1.1 1.096c-.6 0-1.094-.492-1.1-1.091l-.227-4.03-.223-4.138.45-22.406v-.113a1.108 1.108 0 011.1-1.098c.207 0 .399.057.563.153.313.196.532.543.542.94l.487 22.523-.492 8.174zm29.733 1.108H59.028c-.598-.061-1.071-.537-1.081-1.15V40.821c.01-.584.211-.885.963-1.174a17.847 17.847 0 016.398-1.196c9.215 0 16.766 7.069 17.567 16.074a10.032 10.032 0 013.865-.777c5.518 0 9.992 4.476 9.992 9.998 0 5.521-4.474 9.949-9.992 9.949z" fill="#f1f2f2"/></svg><svg version="1.1" id="tasting" x="3257" y="3131" viewBox="-5 -5 93.9 86.3" xml:space="preserve" width="93.9" height="86.3" xmlns="http://www.w3.org/2000/svg"><style>.bast0{fill:#fff}</style><circle class="bast0" cx="18.1" cy="51.3" r="1.3"/><path class="bast0" d="M23.2 50c-.1-.3-.1-.5-.2-.8-.6-1.5-2-2.6-3.6-3-.1 0-.1 0-.2-.1-.3-.1-.7-.1-1-.1-2.9 0-5.2 2.4-5.2 5.2s2.4 5.2 5.2 5.2 5.2-2.4 5.2-5.2c0-.4 0-.7-.1-1-.1 0-.1-.1-.1-.2zm-5.1 5.2c-2.2 0-3.9-1.8-3.9-3.9s1.8-3.9 3.9-3.9 3.9 1.8 3.9 3.9-1.7 3.9-3.9 3.9z"/><path class="bast0" d="M26 29c0 2.2-1.8 3.9-3.9 3.9h-9.3c-.9 0-1.8-.3-2.5-.9l-4 18.1v1.2h3.9c0-4.3 3.5-7.9 7.9-7.9h10.5v-21H26V29zm-2.7 9.2h-2.6c-.7 0-1.3-.6-1.3-1.3s.6-1.3 1.3-1.3h2.6c.7 0 1.3.6 1.3 1.3s-.5 1.3-1.3 1.3zM25.8 49.6s0 .1 0 0c.1.3.1.5.1.7v1h2.6V46H24c.9 1.1 1.5 2.3 1.8 3.6zM14.9 19.8H28.6v-5.2h-4.8c-3.8 0-7.1 2-8.9 5.2zM2.4 34v17.2h1.3V50v-.3l3.5-16.5-4.8.8z"/><path class="bast0" d="M12.7 30.3H22c.7 0 1.3-.6 1.3-1.3v-6.6h-9.6l-2.3 6.1c-.2.4-.1.8.1 1.2.4.4.8.6 1.2.6zM67.9 50.9c0-.1 0-.1-.1-.2 0-.1-.1-.1-.1-.2-.1-.1-.1-.2-.2-.2 0 0-.1-.1-.2-.1-.1-.1-.1-.1-.2-.1-.1-.1-.3-.1-.5-.1h-.2c.1.4.2.8.2 1.3 0 2.2-1.8 3.9-3.9 3.9-2.2 0-3.9-1.8-3.9-3.9 0-.5.1-.9.2-1.3h-.2c-.2 0-.3 0-.5.1-.1 0-.1.1-.2.1s-.1.1-.2.1-.1.1-.1.2l-.2.2c0 .1 0 .1-.1.2 0 .1-.1.2-.1.3v.1c0 2.9 2.4 5.2 5.2 5.2 2.9 0 5.2-2.3 5.2-5.2v-.1c.1-.1.1-.2.1-.3z"/><path class="bast0" d="M52.2 51.3h2.6v-.5-.2-.2c0-.2.1-.4.2-.5 0 0 0-.1.1-.1l.3-.6s0-.1.1-.1c.1-.2.3-.3.4-.5 0 0 0-.1.1-.1.1-.1.3-.3.5-.4l.1-.1c.2-.1.3-.2.5-.3.1 0 .1-.1.2-.1.2-.1.4-.1.5-.2.1 0 .1 0 .2-.1.2 0 .5-.1.8-.1h7.9c.3 0 .5 0 .8.1.1 0 .1 0 .2.1.2 0 .4.1.5.2.1 0 .1.1.2.1.2.1.3.2.5.3.1 0 .1.1.2.1.1.1.3.2.4.3l.1.1c.1.1.2.3.3.4 0 .1.1.1.1.2.1.1.2.3.2.5 0 .1.1.2.1.2.1.2.1.3.1.5 0 .1 0 .2.1.3v.7h1.3V46H52.2v5.3zM75.8 36.9c0 .7-.6 1.3-1.3 1.3h-3.9v1.3c0 .7-.6 1.3-1.3 1.3-.7 0-1.3-.6-1.3-1.3v-1.3H44.3v1.3c0 .7-.6 1.3-1.3 1.3-.7 0-1.3-.6-1.3-1.3v-1.3h-3.9c-.7 0-1.3-.6-1.3-1.3v-17h-5.2v23.6H81V19.8h-5.2v17.1zM74.5 46h6.6v5.2h-6.6zM31.2 46h7.9v5.2h-7.9zM31.2 14.6v2.6H81v-2.6z"/><circle class="bast0" cx="62.7" cy="51.3" r="1.3"/><path class="bast0" d="M41.7 46h7.9v5.2h-7.9z"/><g><path class="bast0" d="M476.9 86.6c-.7-.9-.5-2.3.5-2.9l3.4-2.5c.9-.7 2.3-.5 2.9.5.3.4.4.9.4 1.4 1.1.3 2.1.9 2.8 1.8 1.6 2.1 1.1 5.2-1 6.7-2.1 1.6-5.2 1.1-6.7-1-.7-.9-1-2.1-.9-3.2-.7-.1-1.1-.4-1.4-.8zm5.7.6c.8-.6 1-1.7.4-2.5s-1.7-1-2.5-.4-1 1.7-.4 2.5c.6.9 1.7 1 2.5.4zm.9 2.8l1.5-1.1c.3-.2.3-.6.1-.8-.2-.3-.6-.3-.8-.1l-1.5 1.1c-.3.2-.3.6-.1.8s.5.3.8.1zm-9.2-10.6c-.5-.3-.9-.7-1.3-1.2s-.7-1.1-.8-1.6c0-.2.1-.5.2-.6l2.4-1.8c.2-.1.4-.2.6 0 .5.3.9.7 1.3 1.2s.7 1.1.8 1.6c0 .2-.1.5-.2.6l2.1 2.9-2.4 1.8-2.1-2.9c-.1.1-.4.1-.6 0zm7.6 6.9c-.3.2-.6.1-.8-.1-.2-.3-.1-.6.1-.8s.6-.1.8.1.1.6-.1.8z" transform="translate(-417 -56)"/></g><path class="bast0" d="M44.6 25.8v10.5h1.8c.3 0 .6.3.6.6s-.3.6-.6.6h-4.9c-.3 0-.6-.3-.6-.6s.3-.6.6-.6h1.8v-9.5l-1.8 1.4c-.2.2-.6.2-.8 0l-.6-.6c-.2-.2-.2-.6 0-.8l3.6-4.5v-.4c0-1.5 1.2-2.8 2.8-2.8s2.8 1.2 2.8 2.8-1.2 2.8-2.8 2.8h-.4l-1.5 1.1z"/></svg><svg viewBox="-5 -5 122.2 122.2" width="122.2" height="122.2" id="twitter" x="3351" y="3218" xmlns="http://www.w3.org/2000/svg"><circle cx="56.099" cy="56.098" r="56.098" fill="#55acee"/><path d="M90.461 40.316a26.753 26.753 0 01-7.702 2.109 13.445 13.445 0 005.897-7.417 26.843 26.843 0 01-8.515 3.253 13.396 13.396 0 00-9.79-4.233c-7.404 0-13.409 6.005-13.409 13.409 0 1.051.119 2.074.349 3.056-11.144-.559-21.025-5.897-27.639-14.012a13.351 13.351 0 00-1.816 6.742c0 4.651 2.369 8.757 5.965 11.161a13.314 13.314 0 01-6.073-1.679l-.001.17c0 6.497 4.624 11.916 10.757 13.147a13.362 13.362 0 01-3.532.471c-.866 0-1.705-.083-2.523-.239 1.706 5.326 6.657 9.203 12.526 9.312a26.904 26.904 0 01-16.655 5.74c-1.08 0-2.15-.063-3.197-.188a37.929 37.929 0 0020.553 6.025c24.664 0 38.152-20.432 38.152-38.153 0-.581-.013-1.16-.039-1.734a27.192 27.192 0 006.692-6.94z" fill="#f1f2f2"/></svg><svg width="42" height="32" viewBox="-5 -5 42 32" id="twitterHover" x="3474" y="3341" xmlns="http://www.w3.org/2000/svg"><path d="M20.029 1.021C20.722.502 21.525.101 22.396 0c-.121.517-.614.786-1.046 1.021.65-.19 1.285-.472 1.97-.519.185-.006.444.001.51.212.098.262-.17.467-.374.576-.748.383-1.612.439-2.373.792 1.563-.146 3.124.456 4.311 1.448 1.415 1.155 2.352 2.827 2.691 4.605 1.252.333 2.604.092 3.778-.403-.59 1.326-2.093 1.931-3.468 2.049 1.143.427 2.398.5 3.604.373-.957 1.05-2.437 1.46-3.827 1.428-.578 2.343-1.954 4.445-3.739 6.065-3.473 3.117-8.282 4.611-12.931 4.314C7.036 21.692 2.639 19.509 0 15.887c.23.133.424.317.645.466 2.043 1.466 4.763 1.931 7.193 1.277 1.475-.378 2.812-1.195 3.881-2.262-.683.045-1.443-.075-1.939-.586-.31-.292-.437-.772-.25-1.163.225-.494.725-.775 1.199-.996-1.551.219-3.241-.497-3.956-1.918.524-.619 1.361-.817 2.138-.878-.904-.261-1.834-.581-2.52-1.251a3.325 3.325 0 01-1.006-1.942c.64-.118 1.284-.263 1.941-.236-1.49-.768-2.85-2.231-2.731-4 2.824 1.021 5.601 2.186 8.254 3.591.928.506 1.7 1.237 2.458 1.958.734-1.892 1.524-3.792 2.72-5.451.64-.873 1.396-1.685 2.324-2.261-.038.288-.185.537-.322.786z" fill="#186593"/></svg><svg version="1.1" id="zik" x="3516" y="3373" viewBox="-5 -5 132 98.1" xml:space="preserve" width="132" height="98.1" xmlns="http://www.w3.org/2000/svg"><style>.bdst0{fill:#fff}.bdst1{fill:#07222d}</style><path class="bdst0" d="M36.31 31.77c0-1.47 1.04-3.28 2.32-4.02l22.04-12.72c1.28-.74 3.36-.74 4.64 0l22.04 12.72c1.28.74 2.32 2.54 2.32 4.02v25.45c0 1.47-1.04 3.28-2.32 4.02L65.31 73.96c-1.28.74-3.36.74-4.64 0L38.63 61.23c-1.28-.74-2.32-2.54-2.32-4.02V31.77z"/><path class="bdst0" d="M63 84.49c-.96 0-1.91-.22-2.66-.65l-30.1-17.38c-1.49-.86-2.65-2.88-2.65-4.6V27.11c0-1.72 1.17-3.74 2.65-4.6l30.1-17.38c1.49-.86 3.82-.86 5.31 0l30.1 17.38c1.49.86 2.65 2.88 2.65 4.6v34.76c0 1.72-1.17 3.74-2.65 4.6l-30.1 17.38c-.74.43-1.7.64-2.65.64zm-.01-78.66c-.72 0-1.45.16-1.98.47l-30.1 17.38c-1.08.62-1.98 2.2-1.98 3.44v34.76c0 1.24.91 2.82 1.98 3.44l30.1 17.38c1.08.62 2.89.62 3.97 0l30.1-17.38c1.08-.62 1.98-2.2 1.98-3.44V27.11c0-1.24-.91-2.82-1.98-3.44L64.98 6.3c-.54-.31-1.26-.47-1.99-.47z"/><path class="bdst0" d="M104.81 48.9h-9.7a.67.67 0 010-1.34h9.7a.67.67 0 010 1.34zM104.81 44.44h-9.7a.67.67 0 010-1.34h9.7a.67.67 0 010 1.34zM104.81 39.98h-9.7a.67.67 0 010-1.34h9.7a.67.67 0 010 1.34zM30.88 48.9h-9.7a.67.67 0 010-1.34h9.7a.67.67 0 010 1.34zM30.88 44.44h-9.7a.67.67 0 010-1.34h9.7a.67.67 0 010 1.34zM30.88 39.98h-9.7a.67.67 0 010-1.34h9.7a.67.67 0 010 1.34z"/><path class="bdst1" d="M80.4 17.71a.828.828 0 01-.71-1.25c.15-.24.42-.4.71-.4a.828.828 0 01.71 1.25c-.15.25-.42.4-.71.4"/><path class="bdst0" d="M80.4 16.4a.487.487 0 01.41.74.49.49 0 01-.67.17.487.487 0 01-.16-.67c.09-.16.26-.24.42-.24m0-.67a1.158 1.158 0 00-1.12 1.44c.07.3.26.55.52.72.18.11.39.17.6.17.4 0 .78-.21.99-.56.33-.55.16-1.26-.39-1.59-.18-.12-.39-.18-.6-.18"/><path class="bdst1" d="M81.81 16.33c-.15 0-.3-.04-.43-.12a.777.777 0 01-.37-.51.794.794 0 01.1-.62.826.826 0 011.42.85c-.16.25-.43.4-.72.4"/><path class="bdst0" d="M81.81 15.01a.487.487 0 01.41.74.49.49 0 01-.67.17.487.487 0 01-.16-.67c.1-.15.26-.24.42-.24m0-.67a1.158 1.158 0 00-1.12 1.44c.07.3.26.55.52.72.18.11.39.17.6.17a1.158 1.158 0 001.12-1.44c-.07-.3-.26-.55-.52-.72-.18-.11-.38-.17-.6-.17"/><path class="bdst1" d="M83.36 14.91c-.2 0-.4-.07-.55-.21a.888.888 0 01-.28-.57.835.835 0 01.83-.88c.2 0 .4.07.55.21.34.3.37.82.07 1.16-.16.19-.39.29-.62.29"/><path class="bdst0" d="M83.36 13.6c.12 0 .23.04.33.12a.485.485 0 01-.33.85c-.12 0-.23-.04-.32-.12a.49.49 0 01-.04-.69.45.45 0 01.36-.16m0-.67c-.33 0-.65.14-.87.39-.21.23-.31.53-.29.84.02.31.16.59.39.8.21.19.49.29.77.29.33 0 .65-.14.87-.39.21-.23.31-.53.29-.84-.02-.31-.15-.59-.39-.8-.21-.19-.49-.29-.77-.29"/><path class="bdst1" d="M85 13.8c-.2 0-.4-.07-.55-.21a.888.888 0 01-.28-.57.835.835 0 01.83-.88c.2 0 .4.07.55.21a.832.832 0 01.06 1.17.8.8 0 01-.61.28z"/><path class="bdst0" d="M85 12.49c.12 0 .23.04.33.12a.485.485 0 01-.33.85c-.12 0-.23-.04-.32-.12a.484.484 0 01.32-.85m0-.67c-.33 0-.65.14-.87.39-.21.23-.31.53-.29.84.02.31.16.59.39.8.21.19.49.29.77.29.33 0 .65-.14.87-.39.21-.23.31-.53.29-.84-.02-.31-.15-.59-.39-.8-.21-.18-.49-.29-.77-.29"/><path class="bdst1" d="M64.31 57.83c-.62 0-1.19-.31-1.53-.82L47.18 33.6l8.03-4.81 13.29 24.8c.47.87.17 1.94-.68 2.45l-2.56 1.54c-.29.16-.62.25-.95.25"/><path class="bdst0" d="M55.05 29.34l13.1 24.43c.36.68.13 1.53-.53 1.93l-2.56 1.53c-.23.14-.49.21-.74.21-.47 0-.93-.23-1.21-.64L47.73 33.73l7.32-4.39zm.31-1.1l-.71.42-7.32 4.39-.71.42.46.69 15.37 23.07c.42.62 1.11 1 1.86 1 .4 0 .8-.11 1.15-.32l2.56-1.54c1.02-.61 1.38-1.92.82-2.97L55.75 28.97l-.39-.73z"/><path class="bdst1" d="M68.77 58.48l-1.81 1.08-1.69-1.84 2.67-1.6zM46.67 33.54a8.674 8.674 0 01-6.79-4.19l-.09-.14c-2.46-4.1-1.12-9.43 2.98-11.89l.14-.09a8.684 8.684 0 0111.9 2.98l.09.14a8.657 8.657 0 01.49 7.96l-.05.11-8.54 5.12h-.13z"/><path class="bdst0" d="M47.37 16.39c2.81 0 5.56 1.43 7.11 4.02l.09.14c1.44 2.4 1.52 5.23.47 7.6l-8.33 4.99a8.228 8.228 0 01-6.48-4l-.1-.14c-2.35-3.92-1.08-9 2.84-11.35l.14-.09a8.371 8.371 0 014.26-1.17m0-.79c-1.63 0-3.24.45-4.65 1.29l-.14.09a8.974 8.974 0 00-4.13 5.57 8.97 8.97 0 001.02 6.86l.09.14a9.073 9.073 0 007.1 4.38l.25.02.21-.13 8.33-4.99.21-.13.1-.23c1.19-2.69 1-5.8-.51-8.32l-.09-.14a9.144 9.144 0 00-7.79-4.41"/><path class="bdst1" d="M74.06 65.67c-1.54 0-3.11-.82-4.65-2.43-1.05-1.09-1.72-2.19-1.8-2.32l-.62-1.03 2.06-1.23.62 1.03c.11.17.67 1.05 1.5 1.92.73.76 1.82 1.66 2.9 1.66 1.05-.02 2.02-.9 2.94-2.6l.57-1.06 2.11 1.14-.57 1.06c-.82 1.52-1.76 2.6-2.8 3.22-.68.41-1.4.62-2.16.64h-.1z"/><path class="bdst0" d="M68.92 59.2l.41.69c.01.01.61 1.01 1.55 1.99.79.82 1.97 1.78 3.18 1.78h.05c1.15-.03 2.24-.97 3.23-2.81l.38-.71 1.42.77-.38.71c-.79 1.46-1.67 2.49-2.65 3.07-.62.37-1.27.57-1.96.58h-.09c-1.43 0-2.9-.78-4.37-2.31-1.05-1.1-1.72-2.2-1.75-2.25l-.41-.69 1.39-.82zm.27-1.07l-.67.4-1.38.83-.67.4.4.67.41.69c.03.05.74 1.22 1.85 2.39 1.62 1.69 3.28 2.55 4.93 2.55h.11c.82-.02 1.61-.25 2.35-.69 1.1-.66 2.09-1.79 2.94-3.37l.38-.71.37-.69-.69-.37-1.42-.77-.69-.37-.37.69-.38.71c-.58 1.08-1.5 2.37-2.56 2.39h-.03c-.73 0-1.65-.55-2.61-1.54-.86-.9-1.44-1.84-1.44-1.85l-.41-.69-.42-.67zM45.7 30.99c-.2.12-.47.06-.59-.15-.12-.2-.06-.47.15-.59.2-.12.47-.06.59.15s.06.47-.15.59M48.35 29.41c-.2.12-.47.06-.59-.15-.12-.2-.06-.47.15-.59.2-.12.47-.06.59.15.12.2.06.47-.15.59M51 27.82c-.2.12-.47.06-.59-.15-.12-.2-.06-.47.15-.59.2-.12.47-.06.59.15.12.2.06.47-.15.59M53.65 26.23c-.2.12-.47.06-.59-.15-.12-.2-.06-.47.15-.59.2-.12.47-.06.59.15s.06.47-.15.59M43.57 30.5c-.2.12-.47.06-.59-.15-.12-.2-.06-.47.15-.59.2-.12.47-.06.59.15s.06.47-.15.59M46.22 28.92c-.2.12-.47.06-.59-.15-.12-.2-.06-.47.15-.59.2-.12.47-.06.59.15.12.2.06.47-.15.59M48.87 27.33c-.2.12-.47.06-.59-.15-.12-.2-.06-.47.15-.59.2-.12.47-.06.59.15.12.2.06.47-.15.59M51.52 25.74c-.2.12-.47.06-.59-.15-.12-.2-.06-.47.15-.59.2-.12.47-.06.59.15s.06.47-.15.59M54.17 24.15c-.2.12-.47.06-.59-.15-.12-.2-.06-.47.15-.59.2-.12.47-.06.59.15s.06.47-.15.59M47.74 31.44c-.2.12-.47.06-.59-.15-.12-.2-.06-.47.15-.59.2-.12.47-.06.59.15.11.2.05.47-.15.59M50.38 29.85c-.2.12-.47.06-.59-.15-.12-.2-.06-.47.15-.59.2-.12.47-.06.59.15s.06.47-.15.59M53.03 28.26c-.2.12-.47.06-.59-.15-.12-.2-.06-.47.15-.59.2-.12.47-.06.59.15s.06.47-.15.59M44.19 28.47c-.2.12-.47.06-.59-.15-.12-.2-.06-.47.15-.59.2-.12.47-.06.59.15s.05.47-.15.59M46.84 26.88c-.2.12-.47.06-.59-.15-.12-.2-.06-.47.15-.59.2-.12.47-.06.59.15s.05.47-.15.59M49.49 25.3c-.2.12-.47.06-.59-.15-.12-.2-.06-.47.15-.59.2-.12.47-.06.59.15.12.2.05.47-.15.59M52.14 23.71c-.2.12-.47.06-.59-.15-.12-.2-.06-.47.15-.59.2-.12.47-.06.59.15.12.2.05.47-.15.59M42.06 27.98c-.2.12-.47.06-.59-.15-.12-.2-.06-.47.15-.59.2-.12.47-.06.59.15s.06.47-.15.59M44.71 26.39c-.2.12-.47.06-.59-.15-.12-.2-.06-.47.15-.59.2-.12.47-.06.59.15s.06.47-.15.59M47.36 24.81c-.2.12-.47.06-.59-.15-.12-.2-.06-.47.15-.59.2-.12.47-.06.59.15.12.2.05.47-.15.59M50.01 23.22c-.2.12-.47.06-.59-.15-.12-.2-.06-.47.15-.59.2-.12.47-.06.59.15.12.2.05.47-.15.59M52.66 21.63c-.2.12-.47.06-.59-.15-.12-.2-.06-.47.15-.59.2-.12.47-.06.59.15s.05.47-.15.59M42.68 25.95c-.2.12-.47.06-.59-.15-.12-.2-.06-.47.15-.59.2-.12.47-.06.59.15.12.2.05.47-.15.59M45.33 24.36c-.2.12-.47.06-.59-.15-.12-.2-.06-.47.15-.59.2-.12.47-.06.59.15s.05.47-.15.59M47.98 22.77c-.2.12-.47.06-.59-.15-.12-.2-.06-.47.15-.59.2-.12.47-.06.59.15s.05.47-.15.59M50.63 21.19c-.2.12-.47.06-.59-.15-.12-.2-.06-.47.15-.59.2-.12.47-.06.59.15.12.2.05.47-.15.59M40.55 25.46c-.2.12-.47.06-.59-.15-.12-.2-.06-.47.15-.59.2-.12.47-.06.59.15.12.2.05.47-.15.59M43.2 23.87c-.2.12-.47.06-.59-.15-.12-.2-.06-.47.15-.59.2-.12.47-.06.59.15s.05.47-.15.59M45.85 22.28c-.2.12-.47.06-.59-.15-.12-.2-.06-.47.15-.59.2-.12.47-.06.59.15s.05.47-.15.59M48.5 20.7c-.2.12-.47.06-.59-.15-.12-.2-.06-.47.15-.59.2-.12.47-.06.59.15.12.2.05.46-.15.59M51.15 19.11c-.2.12-.47.06-.59-.15-.12-.2-.06-.47.15-.59.2-.12.47-.06.59.15.12.2.05.47-.15.59M41.17 23.43c-.2.12-.47.06-.59-.15-.12-.2-.06-.47.15-.59.2-.12.47-.06.59.15.12.2.05.47-.15.59M43.82 21.84c-.2.12-.47.06-.59-.15-.12-.2-.06-.47.15-.59.2-.12.47-.06.59.15.12.2.05.47-.15.59M46.47 20.25c-.2.12-.47.06-.59-.15-.12-.2-.06-.47.15-.59.2-.12.47-.06.59.15s.05.47-.15.59M49.12 18.66c-.2.12-.47.06-.59-.15-.12-.2-.06-.47.15-.59.2-.12.47-.06.59.15s.05.47-.15.59M41.69 21.35c-.2.12-.47.06-.59-.15-.12-.2-.06-.47.15-.59.2-.12.47-.06.59.15.12.2.05.47-.15.59M44.34 19.76c-.2.12-.47.06-.59-.15-.12-.2-.06-.47.15-.59.2-.12.47-.06.59.15s.05.47-.15.59M46.99 18.17c-.2.12-.47.06-.59-.15-.12-.2-.06-.47.15-.59.2-.12.47-.06.59.15s.05.47-.15.59M53.07 34.31l-.01.01c-.35.21-.46.66-.25 1l1.14 1.9c.21.35.66.46 1 .25l.01-.01c.35-.21.46-.66.25-1l-1.14-1.9a.733.733 0 00-1-.25"/><path class="bdst0" d="M53.07 34.31l-.01.01c-.35.21-.46.66-.25 1l1.14 1.9c.21.35.66.46 1 .25l.01-.01c.35-.21.46-.66.25-1l-1.14-1.9a.733.733 0 00-1-.25"/><path class="bdst1" d="M54.44 35.63l-.57-.95a.501.501 0 00-.68-.17l-.01.01c-.23.14-.31.45-.17.68l.57.95.86-.52zM62.18 69.28c-2.2 0-4.88-.95-7.95-2.81-6.51-3.95-7.28-7.47-6.77-9.72.67-2.98 3.75-4.8 4.91-4.92 1.71-.18 3.53-1.16 3.52-3.4-.01-2.7 1.27-6.88 4.83-7.3.33-.04.64-.06.92-.06.96 0 1.59.25 1.88.75.36.63-.02 1.31-.06 1.39l-.11.19-.21.04c-.15.03-1.52.35-1.31 2.27.08.7.49 1.26 1.22 1.69l16.89-27.11a.75.75 0 01-.39-.36c-.17-.33-.04-.71.07-.96.34-.8 6.27-6.04 8.26-6.04.21 0 .4.05.56.14.67.41.83.9.85 1.24.05.92-.87 1.72-1.56 2.23l-.08.06c-.66.7-.96 1.76-1.22 2.69-.29 1.01-.53 1.88-1.23 2.19-.24.1-.47.15-.71.15-.29 0-.52-.07-.72-.13-.1-.03-.21-.06-.27-.06-.06 0-.17.17-.19.21-.51.86-13.14 22.26-16.53 28 .56.41 1.1.62 1.62.62.24 0 .48-.05.72-.14 1.8-.7 1.46-2.06 1.41-2.21l-.06-.2.11-.18c.04-.07.46-.7 1.16-.7.76 0 1.4.71 1.95 2.17 1.27 3.36-1.84 6.42-4.24 7.66-1.99 1.03-2.02 3.1-1.39 4.69.4 1.01.25 3.54-1.06 5.47-1.07 1.6-2.74 2.45-4.82 2.45zm1.87-2.76c-.06 0-.14.08-.16.16-.02.08.01.12.07.16.02.01.05.03.08.03.06 0 .14-.08.16-.16.02-.08-.01-.12-.07-.16a.149.149 0 00-.08-.03m1.65-2.39c-.23 0-.42.22-.48.42-.06.22.01.39.21.51.09.05.17.08.25.08.23 0 .42-.22.48-.42.04-.15.04-.36-.21-.51a.49.49 0 00-.25-.08m-7.88-5.12c-.15 0-.3.08-.38.21-.06.1-.08.22-.05.33.03.11.1.21.2.27l1.39.84a.453.453 0 00.61-.15c.06-.1.08-.22.05-.33a.454.454 0 00-.2-.27l-1.39-.84a.465.465 0 00-.23-.06"/><path class="bdst0" d="M87.89 13.39c.13 0 .23.02.32.08 1.77 1.07-.74 2.67-.85 2.79-1.48 1.56-1.3 4.35-2.33 4.8-.2.09-.37.12-.53.12-.4 0-.71-.19-.98-.19-.2 0-.39.1-.59.44-.52.87-13.68 23.16-16.73 28.33.58.5 1.36.98 2.23.98.29 0 .58-.05.88-.17 2.28-.89 1.69-2.78 1.69-2.78s.3-.48.77-.48c.41 0 .96.39 1.52 1.87 1.18 3.12-1.88 5.98-4.02 7.08-2.14 1.1-2.36 3.38-1.61 5.27.55 1.4-.11 7.29-5.46 7.29-1.92 0-4.43-.76-7.71-2.74-12.43-7.54-4.08-13.57-2.05-13.78 2.03-.21 3.94-1.45 3.93-3.86-.01-2.41 1.11-6.45 4.43-6.84.33-.04.62-.06.86-.06 2.26 0 1.42 1.44 1.42 1.44s-1.95.34-1.69 2.78c.13 1.16.99 1.85 1.85 2.25l17.43-27.97c-.32-.19-.97-.02-.6-.89.24-.58 5.98-5.76 7.82-5.76M61.17 59.13c1.23 0 2.43-.62 3.12-1.76 1.04-1.72.49-3.96-1.23-5.01-.59-.36-1.24-.53-1.89-.53-1.23 0-2.43.62-3.12 1.76a3.647 3.647 0 001.23 5.01c.59.36 1.25.53 1.89.53m-1.96 2.05c.31 0 .6-.15.77-.43.26-.42.12-.98-.3-1.24l-1.39-.84a.894.894 0 00-1.23.3c-.26.42-.12.98.3 1.24l1.39.84c.14.09.3.13.46.13m6.48 4.43c.84 0 1.4-1.25.51-1.8a.987.987 0 00-.49-.15c-.84 0-1.4 1.25-.51 1.8.16.11.33.15.49.15m-1.65 1.73c.55 0 .92-.82.33-1.18a.596.596 0 00-.32-.1c-.55 0-.92.82-.33 1.18.11.07.22.1.32.1m-2.05.15c.29 0 .49-.44.18-.63a.299.299 0 00-.17-.05c-.29 0-.49.44-.18.63.06.04.12.05.17.05m-.82-15c1.65 0 2.99 1.34 2.99 2.99 0 1.65-1.34 2.99-2.99 2.99-1.65 0-2.99-1.34-2.99-2.99 0-1.65 1.34-2.99 2.99-2.99m26.72-40.02c-2.32 0-8.35 5.53-8.68 6.32-.08.19-.34.79-.06 1.35.05.11.12.2.18.27L62.92 46.74c-.55-.46-.6-.91-.62-1.09-.17-1.53.81-1.75.93-1.77l.42-.08.22-.37c.26-.45.43-1.21.06-1.85-.37-.65-1.14-.98-2.28-.98-.29 0-.62.02-.97.06-3.87.46-5.25 4.89-5.24 7.76.01 1.93-1.6 2.78-3.1 2.94-1.44.15-4.61 2.15-5.32 5.28-.54 2.4.23 6.12 6.98 10.22 3.15 1.91 5.9 2.88 8.19 2.88 2.82 0 4.4-1.44 5.22-2.66 1.4-2.06 1.54-4.8 1.1-5.9-.56-1.41-.54-3.23 1.17-4.11 2.55-1.32 5.84-4.6 4.46-8.24-.23-.61-.93-2.46-2.38-2.46-.72 0-1.28.49-1.55.91l-.23.36.13.41c.07.24.19 1.12-1.14 1.64-.18.07-.36.11-.55.11-.35 0-.7-.13-1-.3l16.26-27.54c.2.06.48.14.82.14.3 0 .61-.06.9-.19.9-.39 1.19-1.41 1.5-2.48.24-.86.52-1.84 1.1-2.48l.03-.02c.49-.37 1.8-1.35 1.74-2.63-.02-.45-.23-1.1-1.07-1.61-.24-.15-.51-.22-.81-.22m-22.22 52.2c.01-.02.02-.05.04-.06h.01c-.01.03-.03.05-.05.06z"/></svg></svg>