<?xml version="1.0" encoding="utf-8"?>
<!-- Generator: Adobe Illustrator 26.1.0, SVG Export Plug-In . SVG Version: 6.00 Build 0)  -->
<svg version="1.1" id="Layer_1" xmlns="http://www.w3.org/2000/svg" xmlns:xlink="http://www.w3.org/1999/xlink" x="0px" y="0px"
	 viewBox="0 0 122 88.1" style="enable-background:new 0 0 122 88.1;" xml:space="preserve">
<style type="text/css">
	.st0{fill:#FFFFFF;}
</style>
<g>
	<g>
		<path class="st0" d="M36.6,59.5l0.4-0.9c0.2,0,0.2,0,0.2-0.1c0-0.1,0.1-0.1-0.1-0.2c-0.2-0.1-0.7-0.2-1.2-0.5
			c-0.6-0.2-1-0.5-1.2-0.6c-0.1,0-0.2,0-0.2,0.1c0,0.1-0.1,0.2,0.1,0.3l-0.4,0.9c-1,2.2-4.1,4.8-4.9,6.7l-3.8,8.8
			c-0.3,0.8-0.1,1.4,1.2,2l2.2,1c1.3,0.6,2,0.3,2.3-0.5l3.8-8.8C35.9,65.7,35.6,61.7,36.6,59.5z"/>
	</g>
	<g>
		<path class="st0" d="M40.7,58.5l-0.3-0.9c0.1-0.1,0.1-0.2,0.1-0.2c0-0.1-0.1-0.1-0.2-0.1c-0.2,0.1-0.6,0.3-1.2,0.5
			c-0.6,0.2-1,0.4-1.2,0.4c-0.1,0.1-0.1,0.2-0.1,0.2c0,0.1,0.1,0.1,0.2,0.1l0.3,0.9c0.9,2.3,0.5,6.3,1.2,8.2l3.5,8.9
			c0.3,0.8,1,1.1,2.3,0.6l2.3-0.9c1.3-0.5,1.6-1.2,1.3-2l-3.5-8.9C44.7,63.4,41.6,60.7,40.7,58.5z"/>
	</g>
	<g>
		<path class="st0" d="M61.8,59.6l0.4-0.9c0.2,0,0.2,0,0.2-0.1c0-0.1,0.1-0.1-0.1-0.2c-0.2-0.1-0.7-0.2-1.2-0.5
			c-0.6-0.2-1-0.5-1.2-0.6c-0.1,0-0.2,0-0.2,0.1c0,0.1-0.1,0.2,0.1,0.3l-0.4,0.9c-1,2.2-4.1,4.8-4.9,6.7l-3.8,8.8
			c-0.3,0.8-0.1,1.4,1.2,2l2.2,1c1.3,0.6,2,0.3,2.3-0.5l3.8-8.8C61.1,65.9,60.8,61.9,61.8,59.6z"/>
	</g>
	<g>
		<path class="st0" d="M65.9,58.6l-0.3-0.9c0.1-0.1,0.1-0.2,0.1-0.2c0-0.1-0.1-0.1-0.2-0.1c-0.2,0.1-0.6,0.3-1.2,0.5
			c-0.6,0.2-1,0.4-1.2,0.4c-0.1,0.1-0.1,0.2-0.1,0.2c0,0.1,0.1,0.1,0.2,0.1l0.3,0.9c0.9,2.3,0.5,6.3,1.2,8.2l3.5,8.9
			c0.3,0.8,1,1.1,2.3,0.6l2.3-0.9c1.3-0.5,1.6-1.2,1.3-2l-3.5-8.9C69.8,63.5,66.8,60.9,65.9,58.6z"/>
	</g>
	<g>
		<path class="st0" d="M87.7,59.8l0.4-0.9c0.2,0,0.2,0,0.2-0.1c0-0.1,0.1-0.1-0.1-0.2c-0.2-0.1-0.7-0.2-1.2-0.5
			c-0.6-0.2-1-0.5-1.2-0.6c-0.1,0-0.2,0-0.2,0.1c0,0.1-0.1,0.2,0.1,0.3l-0.4,0.9c-1,2.2-4.1,4.8-4.9,6.7l-3.8,8.8
			c-0.3,0.8-0.1,1.4,1.2,2l2.2,1c1.3,0.6,2,0.3,2.3-0.5l3.8-8.8C87,66,86.8,62,87.7,59.8z"/>
	</g>
	<g>
		<path class="st0" d="M91.9,58.8l-0.3-0.9c0.1-0.1,0.1-0.2,0.1-0.2c0-0.1-0.1-0.1-0.2-0.1c-0.2,0.1-0.6,0.3-1.2,0.5
			c-0.6,0.2-1,0.4-1.2,0.4c-0.1,0.1-0.1,0.2-0.1,0.2c0,0.1,0.1,0.1,0.2,0.1l0.3,0.9c0.9,2.3,0.5,6.3,1.2,8.2l3.5,8.9
			c0.3,0.8,1,1.1,2.3,0.6l2.3-0.9c1.3-0.5,1.6-1.2,1.3-2l-3.5-8.9C95.8,63.7,92.8,61,91.9,58.8z"/>
	</g>
</g>
<g id="XMLID_54_">
	<path class="st0" d="M25.8,19.3l4,12.9l2.3,0l0,3.3l-9.6-0.1l0-3.3l2.5,0l-0.9-3.3l-5,0L18,32.1l2.6,0l0,3.3L12,35.3l0-3.3l2.4,0
		l3.9-12.8l-2.6,0l0-3.3L28.4,16l0,3.3L25.8,19.3z M21.7,20L20,25.9l3.4,0L21.7,20z"/>
	<path class="st0" d="M47.4,22.1l0-2.7l-5.8,0l0,4.5l4.2,0l0,3.3l-4.2,0l0,5l3,0l0,3.3l-10.9-0.1l0-3.3l2.8,0l0.1-12.8l-2.8,0l0-3.3
		l17.4,0.1l0,6L47.4,22.1z"/>
	<path class="st0" d="M67.7,24.1l0-4.5l-3,0l-0.1,12.8l2.9,0l0,3.3l-10.9-0.1l0-3.3l3,0l0.1-12.8l-3,0l0,4.5l-3.3,0l0-7.8l17.6,0.1
		l0,7.8L67.7,24.1z"/>
	<path class="st0" d="M87.3,22.5l0-2.9l-6,0l0,4.5l4.9,0l0,3.3l-4.9,0l0,5.1l6,0l0-2.9l3.7,0l0,6.2l-17.1-0.1l0-3.3l2.3,0l0.1-12.8
		l-2.3,0l0-3.3l17.1,0.1l0,6.2L87.3,22.5z"/>
	<path class="st0" d="M111.8,21.8c0,1.2-0.3,2.2-0.9,3c-0.6,0.8-1.4,1.5-2.5,2l3.1,5.9l2.5,0l0,3.3l-5.9,0l-4.3-8.5l-2.2,0l0,5.2
		l2.4,0l0,3.3l-10.2-0.1l0-3.3l2.7,0l0.1-12.8l-2.7,0l0-3.3l11.1,0.1c2.2,0,3.8,0.5,5,1.4C111.2,18.8,111.8,20.1,111.8,21.8z
		 M106.5,22c0-0.7-0.2-1.3-0.7-1.7s-1.1-0.6-1.9-0.6l-2.3,0l0,4.5l1.9,0C105.4,24.3,106.5,23.5,106.5,22z"/>
</g>
<g id="XMLID_53_">
	<path class="st0" d="M32.4,41.9l2.3,6.8l2.2-6.8l-1.3,0l0-2.4l5.1,0l0,2.4l-1.3,0l2.3,6.8L44,42l-1.4,0l0-2.4l5.7,0l0,2.4l-1.5,0
		l-4,11.9l-2.6,0l-2.2-6.5l-2.2,6.5l-2.7,0l-4-11.9l-1.5,0l0-2.4l6.4,0l0,2.4L32.4,41.9z"/>
	<path class="st0" d="M49,46.6c0-1.4,0.3-2.7,1-3.8c0.7-1.1,1.6-1.9,2.8-2.6c1.2-0.6,2.6-0.9,4.1-0.9c1.6,0,2.9,0.3,4.1,0.9
		c1.2,0.6,2.1,1.5,2.8,2.6c0.7,1.1,1,2.4,1,3.8c0,1.4-0.3,2.7-1,3.8c-0.7,1.1-1.6,2-2.8,2.6c-1.2,0.6-2.6,0.9-4.1,0.9
		c-1.5,0-2.9-0.3-4.1-0.9c-1.2-0.6-2.1-1.5-2.8-2.6C49.3,49.4,49,48.1,49,46.6z M60.8,46.7c0-0.9-0.1-1.6-0.5-2.4
		c-0.3-0.7-0.8-1.3-1.4-1.7c-0.6-0.4-1.3-0.6-2.1-0.6c-0.8,0-1.5,0.2-2.1,0.6c-0.6,0.4-1.1,1-1.4,1.7C53.1,45,53,45.8,53,46.6
		c0,0.9,0.2,1.7,0.5,2.4c0.3,0.7,0.8,1.3,1.4,1.7c0.6,0.4,1.3,0.6,2,0.6c0.8,0,1.5-0.2,2.1-0.6c0.6-0.4,1.1-1,1.4-1.7
		C60.7,48.4,60.8,47.6,60.8,46.7z"/>
	<path class="st0" d="M79.8,43.6c0,0.9-0.2,1.6-0.6,2.2c-0.4,0.6-1,1.1-1.9,1.4l2.3,4.3l1.8,0l0,2.4L77,54l-3.2-6.2l-1.6,0l0,3.8
		l1.8,0l0,2.4l-7.5,0l0-2.4l2,0l0.1-9.4l-2,0l0-2.4l8.1,0.1c1.6,0,2.8,0.3,3.7,1C79.3,41.4,79.8,42.4,79.8,43.6z M75.9,43.8
		c0-0.5-0.2-0.9-0.5-1.2c-0.3-0.3-0.8-0.4-1.4-0.4l-1.7,0l0,3.3l1.4,0C75.1,45.5,75.9,44.9,75.9,43.8z"/>
	<path class="st0" d="M88.3,42.2l-0.1,9.4l1.7,0l0,2.4l-7.3,0l0-2.4l1.9,0l0.1-9.4l-1.9,0l0-2.4l7.4,0l0,2.4L88.3,42.2z M96.6,42.3
		l-4,3.9l4.6,5.5l1.5,0l0,2.4l-7.6,0l0-2.4l1.7,0l-4.3-5.1l4.7-4.3l-1.7,0l0-2.4l7,0l0,2.4L96.6,42.3z"/>
</g>
</svg>
