<?xml version="1.0" encoding="utf-8"?>
<!-- Generator: Adobe Illustrator 22.0.1, SVG Export Plug-In . SVG Version: 6.00 Build 0)  -->
<svg version="1.1" id="Capa_1" xmlns="http://www.w3.org/2000/svg" xmlns:xlink="http://www.w3.org/1999/xlink" x="0px" y="0px"
	 viewBox="0 0 56 56" style="enable-background:new 0 0 56 56;" xml:space="preserve">
<style type="text/css">
	.st0{fill:#009FE3;}
	.st1{fill:#FFFFFF;}
	.st2{fill:none;stroke:#FFFFFF;stroke-miterlimit:10;}
</style>
<g>
	<rect x="21.9" y="32.3" class="st0" width="15.4" height="5.1"/>
	<path class="st1" d="M37.3,35.8H20.1c-0.4,0-0.8-0.3-0.8-0.8s0.3-0.8,0.8-0.8h17.3c0.4,0,0.8,0.3,0.8,0.8S37.8,35.8,37.3,35.8z"/>
	<g>
		<path class="st2" d="M25.6,20.7l-0.8,1v0.1v10.8h3.1V21.8l0.8-1c2.5-3.4,2.5-8,0-11.4l-2.4-3.2l-1.6,2.1l0.8,1.1
			C28.1,12.7,28.1,17.4,25.6,20.7z"/>
		<path class="st2" d="M24.8,37.4v11.7c0,0.4,0.4,0.8,0.8,0.8h1.6c0.4,0,0.8-0.4,0.8-0.8V37.4H24.8z"/>
	</g>
	<g>
		<path class="st0" d="M22,38.2v10.9c0,0.4,0.4,0.8,0.8,0.8h1.5c0.4,0,0.8-0.4,0.8-0.8V38.2c0-0.4-0.4-0.8-0.8-0.8h-1.5
			C22.3,37.4,22,37.7,22,38.2z"/>
		<path class="st0" d="M22,22.2V32c0,0.4,0.4,0.8,0.8,0.8h1.5c0.4,0,0.8-0.4,0.8-0.8V22c0-0.2,0.1-0.3,0.2-0.5l0.3-0.4
			c2.7-3.7,2.7-8.7,0-12.3l-2-2.7l-2,2.7c-2.7,3.7-2.7,8.7,0,12.3l0.4,0.5C21.9,21.8,22,22,22,22.2z"/>
	</g>
	<g>
		<path class="st0" d="M28.7,20.7l-0.8,1v0.1v10.8H31V21.8l0.8-1c2.5-3.4,2.5-8,0-11.4l-2.4-3.2l-1.6,2.1l0.8,1.1
			C31.2,12.7,31.2,17.4,28.7,20.7z"/>
		<path class="st0" d="M28,37.4v11.7c0,0.4,0.4,0.8,0.8,0.8h1.5c0.4,0,0.8-0.4,0.8-0.8V37.4H28z"/>
	</g>
	<g>
		<path class="st2" d="M31.8,20.8l-0.8,1v0.1v10.8h3.1V21.8l0.8-1c2.5-3.4,2.5-8,0-11.4l-2.4-3.2L31,8.3l0.8,1.1
			C34.3,12.7,34.3,17.4,31.8,20.8z"/>
		<path class="st2" d="M31,37.4v11.7c0,0.4,0.4,0.8,0.8,0.8h1.5c0.4,0,0.8-0.4,0.8-0.8V37.4H31z"/>
	</g>
	<g>
		<path class="st0" d="M34.9,20.8l-0.8,1v0.1v10.8h2.3c0.4,0,0.8-0.4,0.8-0.8V21.8l0.8-1c2.5-3.4,2.5-8,0-11.4l-2.4-3.2L34,8.3
			l0.8,1.1C37.4,12.7,37.4,17.4,34.9,20.8z"/>
		<path class="st0" d="M34.1,37.4v11.7c0,0.4,0.4,0.8,0.8,0.8h1.5c0.4,0,0.8-0.4,0.8-0.8V38.2c0-0.4-0.4-0.8-0.8-0.8
			C36.4,37.4,34.1,37.4,34.1,37.4z"/>
	</g>
	<path class="st1" d="M16.9,39c-0.2,0-0.4-0.1-0.6-0.2c-0.3-0.3-0.3-0.8,0-1.1l3.2-3.2c0.3-0.3,0.8-0.3,1.1,0c0.3,0.3,0.3,0.8,0,1.1
		l-3.2,3.2C17.3,39,17.1,39,16.9,39z"/>
	<path class="st1" d="M20.1,35.8c-0.2,0-0.4-0.1-0.6-0.2l-3.2-3.2c-0.3-0.3-0.3-0.8,0-1.1c0.3-0.3,0.8-0.3,1.1,0l3.2,3.2
		c0.3,0.3,0.3,0.8,0,1.1C20.5,35.8,20.3,35.8,20.1,35.8z"/>
	<path class="st0" d="M25.6,14.7c-0.2,0-0.4-0.1-0.6-0.2l-1.8-1.8l-1.8,1.8c-0.3,0.3-0.8,0.3-1.1,0c-0.3-0.3-0.3-0.8,0-1.1l2.9-2.9
		l2.9,2.9c0.3,0.3,0.3,0.8,0,1.1C26,14.7,25.8,14.7,25.6,14.7z"/>
	<path class="st0" d="M25.6,18.6c-0.2,0-0.4-0.1-0.6-0.2l-1.8-1.8l-1.8,1.8c-0.3,0.3-0.8,0.3-1.1,0s-0.3-0.8,0-1.1l2.9-2.9l2.9,2.9
		c0.3,0.3,0.3,0.8,0,1.1C26,18.6,25.8,18.6,25.6,18.6z"/>
	<path class="st1" d="M37.3,33.5H21.7c-0.4,0-0.8-0.3-0.8-0.8s0.3-0.8,0.8-0.8h15.6c0.4,0,0.8,0.3,0.8,0.8S37.8,33.5,37.3,33.5z"/>
	<path class="st1" d="M37.3,38.2H21.7c-0.4,0-0.8-0.3-0.8-0.8s0.3-0.8,0.8-0.8h15.6c0.4,0,0.8,0.3,0.8,0.8S37.8,38.2,37.3,38.2z"/>
</g>
</svg>
