<?xml version="1.0" encoding="utf-8"?>
<!-- Generator: Adobe Illustrator 25.3.1, SVG Export Plug-In . SVG Version: 6.00 Build 0)  -->
<svg version="1.1" id="Layer_1" xmlns="http://www.w3.org/2000/svg" xmlns:xlink="http://www.w3.org/1999/xlink" x="0px" y="0px"
	 viewBox="0 0 83.9 76.3" style="enable-background:new 0 0 83.9 76.3;" xml:space="preserve">
<style type="text/css">
	.st0{fill:#FFFFFF;}
</style>
<g>
	<path class="st0" d="M48.7,30.6c-0.9-0.8-2-1.4-3.2-1.3c-2.4,0-4.6,1.6-5.3,3.8c-0.2,0.7,0.1,1.5,0.8,1.7c0.7,0.3,1.5,0,1.8-0.7
		c0.1-0.3,0.3-0.6,0.4-0.8c0.9-1.3,2.2-1.6,3.5-0.6c0.1,0,0.1,0.1,0.2,0.1c0.6,0.4,1.4,0.3,1.9-0.3C49.4,31.9,49.3,31.1,48.7,30.6z
		 M48.8,5.1c-0.5-1-1.4-1.7-2.3-2.2c-2.2-1.2-4.5-1.7-6.9-1.1c-1.2,0.3-2.2,0.9-2.5,2.2c-0.4,1.4,0.3,2.5,1.3,3.4
		C39,8,39.9,8,40.4,7.4c0.5-0.5,0.5-1.4-0.1-2c-0.2-0.2-0.3-0.4-0.6-0.7c0.3-0.1,0.5-0.2,0.7-0.3c1.9-0.3,3.6,0.2,5.2,1.2
		c0.3,0.2,0.5,0.5,0.7,0.7c-0.3,0.1-0.5,0.3-0.8,0.4c-0.8,0.3-1.2,1-1,1.7c0.2,0.8,0.9,1.2,1.7,1c0.5-0.1,1-0.3,1.5-0.6
		C49.1,8.2,49.5,6.6,48.8,5.1z M33.1,57.8c-0.6-0.4-1.4-0.3-1.9,0.2c-0.5,0.6-0.4,1.4,0.1,1.9c0.2,0.2,0.4,0.3,0.7,0.5
		c-1.5,1.2-5.8,0-6.8-1.6c0.4-0.1,0.7-0.2,1-0.3c0.7-0.2,1.1-0.8,1-1.5c-0.1-0.7-0.6-1.2-1.2-1.3c-1.3-0.1-3,0.9-3.4,2.1
		c-0.4,1.2,0,2.2,0.8,3.1c0.9,1,2.1,1.7,3.4,2.1c1.9,0.6,3.9,0.9,5.9,0.2c1-0.4,1.8-1.1,2-2.2C34.9,60,34.2,58.6,33.1,57.8z
		 M12.7,22.4c-0.2-0.7-0.5-1.5-1-2.1c-0.4-0.7-1.1-0.9-1.9-1c-1.2,0-2,0.5-2.8,1.3c-1.6,1.8-2.2,4-2.3,6.4c0,1,0.1,2,0.6,2.9
		C6.2,31.5,7.9,32,9.5,31c0.4-0.2,0.8-0.6,1.1-0.9c0.6-0.6,0.6-1.5,0.1-2.1c-0.6-0.6-1.4-0.5-2.1,0.1c-0.2,0.2-0.4,0.3-0.6,0.5
		c-0.9-1.3,0-5.5,1.7-6.6c0.1,0.4,0.2,0.7,0.3,1c0.3,0.8,1,1.2,1.7,1C12.5,23.8,13,23.1,12.7,22.4z M38.8,52.7c-0.3,0-0.5,0-0.8,0
		c-4.4,0.4-8.5-0.5-12.4-2.7c-1.6-1-3.1-2.2-4.4-3.5c-0.7-0.7-1.7-0.6-2.2,0.1c-0.4,0.5-0.4,1.3,0.1,1.8c0.8,0.8,1.5,1.5,2.4,2.2
		c4.2,3.4,9,5,14.8,5.1c0.5,0,1.5-0.1,2.5-0.2c0.7-0.1,1.1-0.7,1.1-1.4C39.9,53.3,39.5,52.8,38.8,52.7z M31,26.8
		c-1.4-2.4-4.2-3.1-6.6-1.8c-2.1,1.2-3.1,3.1-3.3,5.6c0.1,0.4,0.1,1,0.3,1.6c0.8,3.4,4.3,4.9,7.4,3.2C31.6,33.8,32.7,29.6,31,26.8z
		 M27.3,32.9c-1.2,0.6-2.5,0.2-3-1.1c-0.2-0.5-0.3-1-0.4-1.4c0.1-1.4,1-2.8,2.2-3.2c0.9-0.3,1.6-0.1,2.2,0.6
		C29.6,29.3,29,32.1,27.3,32.9z M38.6,39.9c-1.5-2.7-4.9-4-7.8-2.8c-3.2,1.3-4.3,4.8-2.3,7.6c1.3,1.8,3.1,2.5,5.3,2.6
		c0.3,0,0.7-0.1,1.2-0.1c0.4-0.1,0.7-0.2,1.1-0.3C38.8,45.8,40,42.6,38.6,39.9z M34.2,44.5c-0.2,0-0.4,0-0.6,0
		c-1.2-0.1-2.2-0.5-3-1.5c-0.8-1.2-0.4-2.6,0.9-3.3c1.5-0.7,3.4-0.2,4.3,1.1C37,42.4,36.1,44.2,34.2,44.5z M44.1,22.5
		c-1.1-4-6-5.8-9.4-3.4c-2,1.4-2.7,3.7-1.8,6c0.9,2.2,3.3,3.7,5.9,3.7c1,0,1.9-0.2,2.7-0.6C43.6,26.9,44.7,24.7,44.1,22.5z
		 M40.4,25.3c-0.5,0.3-1.2,0.4-1.5,0.5c-1.6-0.1-2.6-0.5-3.3-1.6c-0.7-1.1-0.5-2.2,0.6-3c1.7-1.2,4.2-0.4,5,1.5
		C41.7,23.8,41.4,24.8,40.4,25.3z M64.7,20.6c-0.2-1.9-0.9-3.6-2.1-5.1c-0.8-1.1-1.8-2-3.2-2.5c-1.5-0.5-3,0.1-3.6,1.6
		c-0.5,1.2-0.3,2.5,0,3.8c0.2,0.8,0.2,1-0.5,1.4c-1.6,0.9-3.1,1.8-4.7,2.7c-0.4,0.2-0.7,0.6-0.8,1c-0.1,0.6,0.1,1,0.5,1.4
		c0.5,0.4,1,0.4,1.6,0.1c0.6-0.4,1.3-0.7,2-1.1c0.1,0.2,0.2,0.3,0.2,0.5c0.7,1.5,1.2,3.1,1.5,4.7c0.2,0.9,0.9,1.5,1.7,1.3
		c0.8-0.2,1.3-0.9,1.1-1.8c-0.4-1.9-1-3.8-1.8-5.6c-0.2-0.4-0.1-0.6,0.3-0.7c1.5-0.7,2.4-2.5,1.7-4.4c-0.2-0.6-0.3-1.3-0.2-2.1
		c0.3,0.2,0.6,0.3,0.8,0.4c1.5,1.2,2.4,2.8,2.8,4.7c0,0.3,0,0.5-0.1,0.8c-0.3-0.1-0.5-0.2-0.8-0.3c0,0-0.1-0.1-0.1-0.1
		c-0.6-0.3-1.4-0.2-1.8,0.4c-0.4,0.6-0.4,1.4,0.2,1.9c0.7,0.5,1.5,0.9,2.4,0.9c1.2,0,2.1-0.5,2.6-1.6C64.7,22.1,64.7,21.4,64.7,20.6
		z M71.7,46.8c-1.3-1.3-2.6-2.6-3.9-3.9c-0.6-0.6-1.4-0.5-2,0c-0.1,0.1-0.2,0.2-0.3,0.3c-2.5,2.4-4.9,4.9-7.4,7.3
		c-0.3,0.3-0.5,0.2-0.7,0c-0.7-0.8-1.5-1.5-2.3-2.3c-0.6-0.6-1.4-0.6-2,0c-1.3,1.3-2.6,2.6-3.8,3.9c-0.6,0.6-0.6,1.4,0,2.1
		c2.4,2.5,4.9,4.9,7.4,7.4c0.7,0.7,1.5,0.7,2.2,0c0.8-0.8,1.6-1.6,2.4-2.4c1.6-1.6,3.2-3.2,4.9-4.9c0.5-0.5,0.6-1.3,0.2-1.8
		c-0.4-0.6-1.1-0.8-1.7-0.5c-0.2,0.1-0.5,0.3-0.7,0.5c-1.7,1.7-3.4,3.4-5,5c-0.4,0.4-0.8,0.8-1.2,1.1c-0.1,0-0.1-0.1-0.2-0.1
		c-1.7-1.7-3.4-3.4-5.2-5.2c-0.2-0.2-0.2-0.3,0-0.5c0.5-0.5,0.9-0.9,1.4-1.4c0.2-0.2,0.4-0.3,0.6,0c0.7,0.7,1.5,1.5,2.2,2.2
		c0.7,0.7,1.5,0.7,2.2,0c2-1.9,3.9-3.9,5.9-5.8c0.7-0.7,1.4-1.3,2.1-2c0.6,0.6,1.1,1.2,1.7,1.7c0.1,0.1,0,0.3-0.1,0.4
		c-0.4,0.4-0.7,0.8-1.1,1.1c-0.6,0.6-0.6,1.5-0.1,2c0.5,0.5,1.4,0.6,2,0c0.8-0.8,1.6-1.6,2.4-2.4C72.3,48.2,72.3,47.4,71.7,46.8z
		 M52.5,17c-6-6.1-13.3-8.3-21.6-6.6c-1.6,0.3-3.2,1-4.8,1.6c-0.4,0.1-0.5,0.1-0.7-0.2c-0.1-0.3-0.3-0.5-0.5-0.7
		c-1-1.1-2.5-1.5-4.1-1c-0.5,0.2-1.1,0.2-1.6,0.3c-0.3,0-0.4-0.1-0.2-0.4c0.1-0.1,0.2-0.3,0.2-0.4c0.7-1,1.6-1.7,2.7-2.1
		c0.8-0.3,1.6-0.5,2.4-0.7c0.4-0.1,0.5,0.1,0.3,0.5c-0.1,0.2-0.2,0.4-0.3,0.6c-0.3,0.6-0.1,1.3,0.5,1.7c0.5,0.4,1.3,0.4,1.7-0.1
		c0.8-1,1.3-2.1,1-3.4c-0.3-1.2-1.4-2-2.8-2.1c-1.2-0.1-2.2,0.2-3.3,0.6c-1.9,0.8-3.6,1.9-4.7,3.7c-1.2,2-0.4,4.2,1.7,4.7
		c1,0.2,2,0.1,3-0.2c1.1-0.3,1.2-0.2,1.8,0.7c0.8,1.5,1.7,3,2.6,4.4c0.4,0.6,1,0.9,1.6,0.7c0.9-0.3,1.3-1.2,0.8-2.1
		c-0.3-0.6-0.7-1.2-1.1-1.8c0.2-0.1,0.3-0.2,0.4-0.2c6.2-2.7,12.2-2.4,18.1,0.7c1.9,1,3.5,2.3,5,3.8c0.6,0.6,1.4,0.6,2,0
		C53.1,18.5,53.1,17.6,52.5,17z M22,18c0.6-0.6,0.7-1.5,0.2-2.1c-0.6-0.6-1.4-0.6-2.1,0c-0.7,0.7-1.5,1.5-2.1,2.3
		c-5.1,6.5-6.3,13.8-3.9,21.7c0.3,1,0.7,1.9,1.1,2.9C15.2,42.9,15.1,43,15,43c-1.9,1.2-2.4,2.6-1.8,4.8c0.2,0.6,0.2,1.2,0.3,1.8
		c-1.6,0-4.2-4-3.6-5.9c0.3,0.1,0.6,0.3,0.8,0.4c0.7,0.4,1.5,0.2,1.9-0.4c0.4-0.6,0.3-1.5-0.4-1.9c-0.7-0.5-1.4-0.8-2.2-0.8
		c-0.9-0.1-1.7,0.3-2.3,1C7.2,42.5,7,43.3,7,44.1c0,1.9,0.7,3.5,1.7,5c0.8,1.2,1.8,2.3,3.2,2.9c2.2,1,4.1-0.1,4.3-2.5
		c0.1-0.9-0.1-1.8-0.3-2.7c-0.2-0.8-0.1-1.1,0.6-1.5c1.5-0.9,3-1.8,4.6-2.6c0.8-0.5,1-1.2,0.6-2c-0.4-0.7-1.2-0.9-2-0.5
		c-0.6,0.3-1.2,0.7-1.8,1.1c-0.1-0.1-0.1-0.2-0.2-0.3c-1-2.3-1.7-4.7-1.8-7.1C15.5,27.7,17.6,22.4,22,18z M76.3,46.1
		c0,0.9,0.6,1.5,1.4,1.5c0.8,0,1.4-0.6,1.4-1.5c0-2.6,0-5.2,0-7.8c0-0.8-0.4-1.2-1.1-1.5c-0.8-0.2-1.6-0.5-2.5-0.7
		c-4.8-1.4-9.7-2.8-14.5-4.2c-0.4-0.1-0.8-0.1-1.2,0c-1.1,0.3-2.2,0.7-3.3,1c-4.5,1.3-9,2.6-13.4,4c-0.8,0.2-1.2,0.7-1.2,1.6
		c0,2.1,0,4.3,0,6.4h0.1c0,2.4-0.1,4.9,0,7.3c0.4,5.6,2.2,10.7,5.6,15.1c3.1,4,7,6.9,11.8,8.5c0.6,0.2,1.2,0.3,1.8,0.1
		c4-1.2,7.4-3.4,10.3-6.4c4.5-4.8,6.9-10.5,7.5-17c0.1-0.8,0.1-1.6,0.1-2.4c0-0.8-0.6-1.4-1.4-1.4c-0.8,0-1.4,0.5-1.4,1.3
		c0,0.2,0,0.3,0,0.5c-0.2,5.2-1.7,10-4.7,14.3c-2.7,3.9-6.3,6.7-10.8,8.2c-0.3,0.1-0.6,0.1-0.9,0c-3.4-1.1-6.2-3-8.6-5.6
		c-4.4-4.8-6.5-10.5-6.6-16.9c-0.1-3.5,0-7.1,0-10.6c0-0.4,0.1-0.6,0.5-0.7c5-1.5,9.9-2.9,14.9-4.4c0.2-0.1,0.5-0.1,0.7,0
		c5,1.5,10.1,2.9,15.1,4.4c0.4,0.1,0.5,0.3,0.5,0.6C76.3,41.9,76.3,44,76.3,46.1z"/>
	<path class="st0" d="M41.8,44.8c0-2.1,0-4.3,0-6.4c0-0.9,0.3-1.3,1.2-1.6c4.5-1.3,9-2.6,13.4-4c1.1-0.3,2.2-0.7,3.3-1
		c0.4-0.1,0.8-0.1,1.2,0c4.8,1.4,9.7,2.8,14.5,4.2c0.8,0.2,1.6,0.5,2.5,0.7c0.8,0.2,1.1,0.7,1.1,1.5c0,2.6,0,5.2,0,7.8
		c0,0.9-0.6,1.5-1.4,1.5c-0.8,0-1.4-0.6-1.4-1.5c0-2.1,0-4.2,0-6.3c0-0.4-0.1-0.5-0.5-0.6c-5-1.5-10.1-2.9-15.1-4.4
		c-0.2-0.1-0.5-0.1-0.7,0c-5,1.5-9.9,2.9-14.9,4.4c-0.4,0.1-0.5,0.3-0.5,0.7c0,3.5-0.1,7.1,0,10.6c0.2,6.4,2.3,12.1,6.6,16.9
		c2.4,2.6,5.3,4.5,8.6,5.6c0.3,0.1,0.6,0.1,0.9,0c4.5-1.5,8.1-4.3,10.8-8.2c3-4.3,4.5-9.1,4.7-14.3c0-0.2,0-0.3,0-0.5
		c0.1-0.8,0.6-1.4,1.4-1.3c0.8,0,1.4,0.6,1.4,1.4c0,0.8,0,1.6-0.1,2.4c-0.6,6.5-3,12.2-7.5,17c-2.9,3-6.3,5.2-10.3,6.4
		c-0.6,0.2-1.2,0.1-1.8-0.1c-4.8-1.6-8.8-4.5-11.8-8.5c-3.4-4.5-5.2-9.6-5.6-15.1C41.8,49.6,41.9,47.2,41.8,44.8
		C41.9,44.8,41.9,44.8,41.8,44.8z"/>
	<path class="st0" d="M17.8,41.4c0.6-0.4,1.2-0.7,1.8-1.1c0.8-0.4,1.6-0.2,2,0.5c0.4,0.7,0.2,1.5-0.6,2c-1.5,0.9-3,1.8-4.6,2.6
		c-0.7,0.4-0.8,0.7-0.6,1.5c0.2,0.9,0.4,1.8,0.3,2.7C16,52,14,53,11.9,52.1c-1.4-0.6-2.3-1.7-3.2-2.9c-1-1.5-1.7-3.2-1.7-5
		c0-0.8,0.2-1.6,0.7-2.3c0.6-0.7,1.4-1,2.3-1c0.8,0,1.5,0.4,2.2,0.8c0.6,0.4,0.8,1.3,0.4,1.9c-0.4,0.6-1.2,0.8-1.9,0.4
		c-0.3-0.1-0.6-0.3-0.8-0.4c-0.6,1.9,2,5.9,3.6,5.9c-0.1-0.6-0.2-1.2-0.3-1.8c-0.6-2.2-0.1-3.6,1.8-4.8c0.1-0.1,0.2-0.1,0.2-0.2
		c-0.4-1-0.8-1.9-1.1-2.9C11.7,32.1,13,24.8,18,18.3c0.6-0.8,1.4-1.5,2.1-2.3c0.7-0.7,1.5-0.7,2.1,0c0.5,0.6,0.5,1.4-0.2,2.1
		c-4.5,4.4-6.6,9.7-6.3,15.9c0.1,2.5,0.8,4.9,1.8,7.1C17.6,41.2,17.7,41.3,17.8,41.4z"/>
	<path class="st0" d="M27.1,14.6c0.4,0.6,0.7,1.2,1.1,1.8c0.5,0.9,0.1,1.9-0.8,2.1c-0.6,0.2-1.2-0.1-1.6-0.7c-0.9-1.5-1.7-3-2.6-4.4
		c-0.6-1-0.7-1-1.8-0.7c-1,0.3-2,0.4-3,0.2c-2.2-0.5-3-2.7-1.7-4.7c1.1-1.8,2.7-2.9,4.7-3.7c1.1-0.4,2.2-0.7,3.3-0.6
		c1.5,0.1,2.5,0.8,2.8,2.1c0.3,1.3-0.1,2.4-1,3.4c-0.4,0.5-1.2,0.5-1.7,0.1c-0.5-0.4-0.7-1.1-0.5-1.7c0.1-0.2,0.2-0.4,0.3-0.6
		c0.2-0.4,0.1-0.6-0.3-0.5c-0.8,0.2-1.6,0.3-2.4,0.7c-1.1,0.4-2,1.2-2.7,2.1C19.1,9.6,19,9.7,19,9.8c-0.1,0.3,0,0.4,0.2,0.4
		c0.5-0.1,1.1-0.1,1.6-0.3c1.5-0.5,3.1-0.1,4.1,1c0.2,0.2,0.4,0.5,0.5,0.7c0.2,0.4,0.3,0.4,0.7,0.2c1.6-0.6,3.1-1.3,4.8-1.6
		c8.4-1.7,15.6,0.5,21.6,6.6c0.6,0.6,0.6,1.5,0,2c-0.6,0.5-1.4,0.6-2,0c-1.5-1.5-3.1-2.9-5-3.8c-5.9-3.1-11.9-3.4-18.1-0.7
		C27.3,14.5,27.2,14.5,27.1,14.6z"/>
	<path class="st0" d="M66.8,45.9c-0.7,0.7-1.4,1.4-2.1,2c-2,1.9-3.9,3.9-5.9,5.8c-0.7,0.7-1.5,0.7-2.2,0c-0.7-0.7-1.5-1.5-2.2-2.2
		c-0.2-0.2-0.4-0.2-0.6,0c-0.4,0.5-0.9,0.9-1.4,1.4c-0.2,0.2-0.2,0.3,0,0.5c1.7,1.7,3.5,3.4,5.2,5.2c0,0,0.1,0,0.2,0.1
		c0.4-0.4,0.8-0.8,1.2-1.1c1.7-1.7,3.4-3.4,5-5c0.2-0.2,0.4-0.4,0.7-0.5c0.6-0.3,1.4,0,1.7,0.5c0.4,0.6,0.3,1.3-0.2,1.8
		c-1.6,1.6-3.2,3.2-4.9,4.9c-0.8,0.8-1.6,1.6-2.4,2.4c-0.7,0.7-1.5,0.7-2.2,0c-2.5-2.4-4.9-4.9-7.4-7.4c-0.6-0.6-0.6-1.4,0-2.1
		c1.3-1.3,2.5-2.6,3.8-3.9c0.6-0.6,1.4-0.6,2,0c0.8,0.7,1.5,1.5,2.3,2.3c0.3,0.3,0.4,0.3,0.7,0c2.4-2.4,4.9-4.9,7.4-7.3
		c0.1-0.1,0.2-0.2,0.3-0.3c0.6-0.5,1.4-0.6,2,0c1.3,1.3,2.6,2.6,3.9,3.9c0.6,0.6,0.6,1.4,0,2c-0.8,0.8-1.6,1.6-2.4,2.4
		c-0.6,0.6-1.5,0.6-2,0c-0.5-0.6-0.5-1.4,0.1-2c0.4-0.4,0.8-0.7,1.1-1.1c0.1-0.1,0.1-0.4,0.1-0.4C68,47.1,67.4,46.5,66.8,45.9z"/>
	<path class="st0" d="M58.3,15.6c-0.2,0.8-0.1,1.5,0.2,2.1c0.7,1.9-0.3,3.7-1.7,4.4c-0.4,0.2-0.4,0.3-0.3,0.7
		c0.9,1.8,1.4,3.7,1.8,5.6c0.2,0.9-0.3,1.6-1.1,1.8c-0.8,0.2-1.5-0.4-1.7-1.3c-0.3-1.6-0.8-3.2-1.5-4.7c-0.1-0.1-0.1-0.3-0.2-0.5
		c-0.7,0.4-1.3,0.8-2,1.1c-0.5,0.3-1.1,0.3-1.6-0.1c-0.5-0.3-0.6-0.8-0.5-1.4c0.1-0.5,0.4-0.8,0.8-1c1.6-0.9,3.1-1.8,4.7-2.7
		c0.7-0.4,0.8-0.6,0.5-1.4c-0.3-1.2-0.5-2.5,0-3.8c0.6-1.5,2.1-2.1,3.6-1.6c1.3,0.5,2.3,1.4,3.2,2.5c1.2,1.5,1.9,3.2,2.1,5.1
		c0.1,0.8,0,1.5-0.4,2.2c-0.5,1.1-1.4,1.6-2.6,1.6c-0.9,0-1.7-0.4-2.4-0.9c-0.6-0.5-0.7-1.3-0.2-1.9c0.4-0.6,1.2-0.7,1.8-0.4
		c0,0,0.1,0.1,0.1,0.1c0.3,0.1,0.5,0.2,0.8,0.3c0-0.3,0.1-0.5,0.1-0.8c-0.3-1.9-1.2-3.5-2.8-4.7C58.9,15.9,58.7,15.8,58.3,15.6z"/>
	<path class="st0" d="M44.1,22.5c-1.1-4-6-5.8-9.4-3.4c-2,1.4-2.7,3.7-1.8,6c0.9,2.2,3.3,3.7,5.9,3.7c1,0,1.9-0.2,2.7-0.6
		C43.6,26.9,44.7,24.7,44.1,22.5z M40.4,25.3c-0.5,0.3-1.2,0.4-1.5,0.5c-1.6-0.1-2.6-0.5-3.3-1.6c-0.7-1.1-0.5-2.2,0.6-3
		c1.7-1.2,4.2-0.4,5,1.5C41.7,23.8,41.4,24.8,40.4,25.3z"/>
	<path class="st0" d="M38.6,39.9c-1.5-2.7-4.9-4-7.8-2.8c-3.2,1.3-4.3,4.8-2.3,7.6c1.3,1.8,3.1,2.5,5.3,2.6c0.3,0,0.7-0.1,1.2-0.1
		c0.4-0.1,0.7-0.2,1.1-0.3C38.8,45.8,40,42.6,38.6,39.9z M34.2,44.5c-0.2,0-0.4,0-0.6,0c-1.2-0.1-2.2-0.5-3-1.5
		c-0.8-1.2-0.4-2.6,0.9-3.3c1.5-0.7,3.4-0.2,4.3,1.1C37,42.4,36.1,44.2,34.2,44.5z"/>
	<path class="st0" d="M31,26.8c-1.4-2.4-4.2-3.1-6.6-1.8c-2.1,1.2-3.1,3.1-3.3,5.6c0.1,0.4,0.1,1,0.3,1.6c0.8,3.4,4.3,4.9,7.4,3.2
		C31.6,33.8,32.7,29.6,31,26.8z M27.3,32.9c-1.2,0.6-2.5,0.2-3-1.1c-0.2-0.5-0.3-1-0.4-1.4c0.1-1.4,1-2.8,2.2-3.2
		c0.9-0.3,1.6-0.1,2.2,0.6C29.6,29.3,29,32.1,27.3,32.9z"/>
	<path class="st0" d="M36.3,55.6c-5.8-0.1-10.6-1.7-14.8-5.1c-0.8-0.7-1.6-1.4-2.4-2.2c-0.5-0.5-0.5-1.2-0.1-1.8
		c0.5-0.7,1.5-0.8,2.2-0.1c1.3,1.4,2.8,2.6,4.4,3.5c3.8,2.2,8,3.1,12.4,2.7c0.3,0,0.6-0.1,0.8,0c0.7,0.1,1.1,0.7,1.1,1.3
		c0,0.7-0.4,1.3-1.1,1.4C37.8,55.5,36.8,55.5,36.3,55.6z"/>
	<path class="st0" d="M9.7,22.1C8,23.2,7.1,27.4,8,28.7c0.2-0.2,0.4-0.3,0.6-0.5c0.6-0.6,1.5-0.7,2.1-0.1c0.6,0.5,0.6,1.4-0.1,2.1
		c-0.3,0.3-0.7,0.6-1.1,0.9c-1.5,1-3.3,0.5-4.1-1.1C4.9,29,4.8,28,4.8,27c0.1-2.4,0.7-4.6,2.3-6.4c0.7-0.8,1.6-1.4,2.8-1.3
		c0.8,0,1.5,0.3,1.9,1c0.4,0.7,0.7,1.4,1,2.1c0.2,0.7-0.3,1.4-1,1.6c-0.8,0.2-1.5-0.2-1.7-1C10,22.7,9.8,22.4,9.7,22.1z"/>
	<path class="st0" d="M25.2,58.8c1,1.7,5.2,2.8,6.8,1.6c-0.2-0.2-0.5-0.3-0.7-0.5c-0.6-0.5-0.6-1.3-0.1-1.9c0.4-0.6,1.3-0.7,1.9-0.2
		c1.2,0.8,1.8,2.2,1.6,3.4c-0.2,1.1-1,1.8-2,2.2c-2,0.7-3.9,0.5-5.9-0.2c-1.3-0.4-2.5-1.1-3.4-2.1c-0.8-0.9-1.2-1.9-0.8-3.1
		c0.4-1.2,2.1-2.3,3.4-2.1c0.6,0.1,1.1,0.6,1.2,1.3c0.1,0.7-0.3,1.3-1,1.5C25.9,58.6,25.6,58.7,25.2,58.8z"/>
	<path class="st0" d="M39.7,4.8c0.3,0.3,0.4,0.5,0.6,0.7c0.5,0.6,0.6,1.4,0.1,2C39.9,8,39,8,38.4,7.5c-1-0.9-1.7-2-1.3-3.4
		c0.3-1.3,1.3-1.9,2.5-2.2c2.4-0.6,4.7-0.1,6.9,1.1c1,0.5,1.8,1.2,2.3,2.2c0.8,1.4,0.3,3-1.1,3.8c-0.5,0.3-1,0.5-1.5,0.6
		c-0.8,0.2-1.5-0.2-1.7-1c-0.2-0.7,0.2-1.4,1-1.7c0.3-0.1,0.6-0.3,0.8-0.4c-0.2-0.2-0.4-0.5-0.7-0.7c-1.6-1-3.3-1.5-5.2-1.2
		C40.2,4.5,40,4.7,39.7,4.8z"/>
	<path class="st0" d="M45.6,29.3c1.2,0,2.2,0.5,3.2,1.3c0.6,0.5,0.6,1.3,0.2,1.9c-0.5,0.6-1.2,0.7-1.9,0.3c-0.1,0-0.1-0.1-0.2-0.1
		c-1.3-0.9-2.6-0.7-3.5,0.6c-0.2,0.3-0.3,0.5-0.4,0.8c-0.4,0.7-1.1,1-1.8,0.7c-0.7-0.3-1-1-0.8-1.7C41,30.9,43.2,29.3,45.6,29.3z"/>
</g>
</svg>
