<?xml version="1.0" encoding="utf-8"?>
<!-- Generator: Adobe Illustrator 21.0.2, SVG Export Plug-In . SVG Version: 6.00 Build 0)  -->
<svg version="1.1" id="Capa_1" xmlns="http://www.w3.org/2000/svg" xmlns:xlink="http://www.w3.org/1999/xlink" x="0px" y="0px"
	 viewBox="0 0 56 56" style="enable-background:new 0 0 56 56;" xml:space="preserve">
<style type="text/css">
	.st0{fill:#6C6C6A;}
</style>
<path class="st0" d="M47.6,33.7c-0.2-0.3-0.6-0.5-0.9-0.5h-1.8c0.2-0.7,0.3-1.4,0.3-2.1c0-4.7-3.5-8.5-8.1-9.1
	c-0.1-0.6-0.2-1.2-0.4-1.8l5.2-10.4c0.3-0.6,0.1-1.3-0.5-1.6s-1.3-0.1-1.6,0.5l-4.4,8.9C33.7,15.5,31,14,28,14c-4.7,0-8.5,3.5-9.1,8
	c-4.5,0.5-8.1,4.4-8.1,9.1c0,0.7,0.1,1.4,0.3,2.1H9.4c-0.4,0-0.7,0.2-0.9,0.5s-0.3,0.7-0.2,1c4,12.4,16.8,13.1,19.3,13.1
	c0.2,0,0.4,0,0.5,0s0.2,0,0.5,0c2.5,0,15.3-0.6,19.3-13.1C47.9,34.4,47.8,34,47.6,33.7z M13.2,31.2c0-3.8,3.1-6.8,6.8-6.8h0.1
	c0,0,0,0,0.1,0s3.1-0.3,4.7,3.6c0.2,0.4,0.6,0.7,1.1,0.7c0.2,0,0.3,0,0.5-0.1c0.6-0.3,0.9-0.9,0.6-1.5c-1.6-3.7-4.2-4.7-5.8-5
	c0.5-3.2,3.3-5.7,6.7-5.7c3.8,0,6.8,3.1,6.8,6.8c0,0.6,0.5,1.2,1.2,1.2c3.8,0,6.8,3.1,6.8,6.8c0,0.7-0.1,1.4-0.3,2.1H13.6
	C13.3,32.6,13.2,31.9,13.2,31.2z M28.5,45.5c-0.5,0-0.4,0-0.5,0c0,0,0,0-0.1,0c0,0-0.2,0-0.4,0C25.4,45.5,15,45,11,35.6h1.7h30.5H45
	C41,45,30.6,45.5,28.5,45.5z"/>
</svg>
