<?xml version="1.0" encoding="utf-8"?>
<!-- Generator: Adobe Illustrator 21.0.0, SVG Export Plug-In . SVG Version: 6.00 Build 0)  -->
<svg version="1.1" id="Calque_1" xmlns="http://www.w3.org/2000/svg" xmlns:xlink="http://www.w3.org/1999/xlink" x="0px" y="0px"
	 viewBox="0 0 100 49.3" style="enable-background:new 0 0 100 49.3;" xml:space="preserve">
<style type="text/css">
	.st0{fill:#FFFFFF;}
</style>
<g id="Artwork_4">
	<g>
		<polygon class="st0" points="58.6,1.7 58.5,6.2 54,13.5 51.7,14.7 52.2,15.8 52.2,22.4 47.3,22.4 47.3,18.1 45.8,18.1 45.8,21 
			36.4,11.6 36.4,6.8 35.9,11.5 28.1,16.8 20.5,23.7 15.3,26.4 15.9,26.7 3.6,26.6 9,34.8 3.4,42.9 65,43.5 64.9,43.3 97.1,43.6 
			90.8,35.3 97.2,27.2 79.3,27.1 75.6,22.4 64.9,22.1 64.9,16.2 65.6,15.4 63.5,13.9 59.3,6.3 		"/>
	</g>
</g>
</svg>
