<?xml version="1.0" encoding="utf-8"?>
<!-- Generator: Adobe Illustrator 21.0.2, SVG Export Plug-In . SVG Version: 6.00 Build 0)  -->
<svg version="1.1" id="Capa_1" xmlns="http://www.w3.org/2000/svg" xmlns:xlink="http://www.w3.org/1999/xlink" x="0px" y="0px"
	 viewBox="0 0 56 56" style="enable-background:new 0 0 56 56;" xml:space="preserve">
<style type="text/css">
	.st0{fill:none;}
	.st1{fill:none;stroke:#6C6C6A;stroke-miterlimit:10;}
	.st2{fill:#6C6C6A;}
</style>
<path class="st0" d="M44.4,29.3c-0.8-1.2-1.2-2.1-1.4-2.6c-3.3,0.4-21.2,2.2-31.5,0.2c0.1,0.2,0.2,0.5,0.4,0.7
	c0.3,0.3,0.9,0.7,1.8,1.2c0,0,0,0,0,0c2.9,1.5,8.6,3.7,14.2,4.3c3.6,0.4,9.1-0.3,14.1-1.3c0,0,0,0,0,0c1.4-0.3,2.8-0.6,4-0.9
	C45.4,30.4,44.8,29.8,44.4,29.3z"/>
<path class="st0" d="M10.2,26.2C10.2,26.2,10.2,26.2,10.2,26.2C10.2,26.1,10.2,26.1,10.2,26.2c0-0.2,0-0.3,0.1-0.5c0,0,0,0,0,0
	c0-0.2,0.1-0.4,0.2-0.5c0.1-0.3,0.3-0.6,0.6-0.8c0,0,0,0,0,0c0.1-0.1,0.3-0.2,0.4-0.3c0,0,0,0,0,0c0.1-0.1,0.2-0.1,0.3-0.2
	c-3.5-1.4-7-2.7-8.4-3C3.6,21.1,4,21.6,4.3,22c1.3,1.7,3.1,3.9,1.6,5.5c-0.5,0.6-1.1,1.1-1.7,1.6c-0.6,0.5-1.6,1.3-1.6,1.6
	c0,0,0.1,0.1,0.3,0.2c1,0.6,5.6-0.6,9.2-1.8c-0.5-0.3-0.8-0.6-1-0.8C10.5,27.7,10.2,26.9,10.2,26.2z"/>
<path class="st0" d="M24.3,17.2c0,0.2,0,0.4,0,0.7c0,1,0.1,2.3-0.8,3.5c3.2-0.7,6.3-1.5,8.2-2.1C28.3,18,25.1,17,24.3,17.2z"/>
<path class="st0" d="M19.6,32.8c2.3,0.6,4,2,4.3,3.6c0.7-0.3,2.1-1.2,3.4-2.3c-3.4-0.4-6.8-1.4-9.7-2.4
	C18.1,32.2,18.8,32.6,19.6,32.8z"/>
<path class="st1" d="M49.8,27.6c-0.3,0.8-1.1,1.3-1.9,1.3c-0.2,0-0.5,0-0.7-0.1c-1.1-0.4-1.6-1.6-1.2-2.7c0.4-1.1,1.6-1.6,2.7-1.2
	C49.7,25.3,50.2,26.5,49.8,27.6z"/>
<path class="st2" d="M50,23.4l-0.1-0.1c0,0,0,0,0,0c-1.2-0.4-10.4-3.7-15.4-4.3c-2.8-1.2-9.5-3.7-10.9-2.9c-0.3,0.2-0.4,0.4-0.4,0.7
	c0,0.3,0,0.6,0,0.9c0.1,1.6,0.1,3.2-2.9,4.2c-2.7,0.6-5.2,1.1-6.4,1.2C3.3,18.8,2.5,19.6,2.2,19.8C2,20,1.9,20.3,2,20.6
	c0.2,0.6,0.7,1.3,1.4,2.1c1.1,1.4,2.5,3.2,1.7,4c-0.5,0.5-1.1,1-1.6,1.5c-1.2,1-2.1,1.7-2,2.6c0,0.4,0.3,0.8,0.8,1.1
	c0.3,0.2,0.8,0.3,1.4,0.3c2.8,0,8.1-1.7,9.7-2.3c0.5,0.2,1,0.5,1.5,0.7c0.4,0.5,2.1,2.7,4.3,3.3c2.1,0.5,3.4,1.9,3.4,2.9
	c0,0.3,0.2,0.6,0.4,0.8c0.1,0,0.2,0.1,0.3,0.1c0.6,0,1.9-0.5,5.4-3.3c0.3,0,0.7,0,1,0c0.8,0,1.6,0,2.5-0.1c-0.3,0.8-0.5,2,0.2,2.8
	c0.1,0.1,0.3,0.3,0.8,0.3c1,0,3.3-0.8,8.9-4.4c3.1-0.6,6-1.4,8.1-2.2c3.2-1.2,3.5-2.1,3.6-2.4C54.9,25.2,51.7,24,50,23.4z
	 M24.3,17.8c0-0.2,0-0.5,0-0.7c0.8-0.2,4.1,0.8,7.4,2c-1.9,0.6-5,1.4-8.2,2.1C24.3,20.2,24.3,18.8,24.3,17.8z M2.9,30.9
	c-0.2-0.1-0.3-0.2-0.3-0.2c0-0.3,1-1.1,1.6-1.6c0.6-0.5,1.2-1,1.7-1.6c1.5-1.6-0.3-3.9-1.6-5.5c-0.3-0.4-0.7-0.9-0.9-1.2
	c1.4,0.2,5,1.5,8.4,3c-0.1,0.1-0.2,0.1-0.3,0.2c0,0,0,0,0,0c-0.1,0.1-0.3,0.2-0.4,0.3c0,0,0,0,0,0c-0.2,0.2-0.4,0.5-0.6,0.8
	c-0.1,0.2-0.1,0.3-0.2,0.5c0,0,0,0,0,0c0,0.2,0,0.3-0.1,0.5c0,0,0,0,0,0c0,0,0,0,0,0c0,0.8,0.3,1.6,0.8,2.2c0.2,0.2,0.6,0.5,1,0.8
	C8.5,30.3,3.8,31.5,2.9,30.9z M23.8,36.4c-0.2-1.6-2-3-4.3-3.6c-0.8-0.2-1.5-0.6-2.1-1.1c2.9,1.1,6.4,2,9.7,2.4
	C25.9,35.2,24.5,36.1,23.8,36.4z M33.5,36.2c-0.3-0.5,0-1.6,0.3-2.1c1.8-0.1,3.7-0.4,5.6-0.7C36.7,35,34.2,36.3,33.5,36.2z M42,31.8
	C42,31.8,42,31.8,42,31.8c-5,1-10.6,1.6-14.1,1.3c-5.6-0.6-11.3-2.7-14.2-4.3c0,0,0,0,0,0c-0.9-0.5-1.5-0.9-1.8-1.2
	c-0.2-0.2-0.3-0.4-0.4-0.7C21.9,28.8,39.8,27,43,26.7c0.2,0.5,0.6,1.4,1.4,2.6c0.4,0.6,0.9,1.1,1.6,1.6C44.8,31.2,43.4,31.5,42,31.8
	z M52.9,27.9C52.9,28,52.9,28,52.9,27.9c0,0,0,0.1-0.1,0.1c-0.3,0.4-1.7,1.3-5.4,2.4c-0.9-0.6-1.7-1.2-2.1-1.8
	C44.2,26.8,44,26,44,26c0-0.2-0.1-0.3-0.2-0.4c-0.1-0.1-0.3-0.1-0.4-0.1c-0.2,0-21,2.4-31.9,0.3c0.1-0.3,0.3-0.6,0.6-0.8
	c0,0,0,0,0,0c0.1,0,0.1-0.1,0.2-0.1c0,0,0,0,0.1,0c0.1,0,0.1-0.1,0.2-0.1c0,0,0.1,0,0.1,0c0.1,0,0.1,0,0.2-0.1c0,0,0.1,0,0.1,0
	c0.1,0,0.2,0,0.4,0c2.8-0.2,14.8-3,18.9-4.2c0.1,0,0.2-0.1,0.4-0.1c0,0,0.1,0,0.1,0c0.1,0,0.3,0,0.4,0c0,0,0,0,0,0c0,0,0,0,0,0
	c0.1,0,0.2,0,0.4,0c0,0,0.1,0,0.1,0c0.1,0,0.2,0,0.3,0c0.1,0,0.1,0,0.2,0c0.1,0,0.1,0,0.2,0c0,0,0,0,0,0c0,0,0,0,0,0
	c0.1,0,0.1,0,0.2,0c0.1,0,0.2,0,0.3,0c0.1,0,0.2,0,0.2,0c0.1,0,0.2,0,0.3,0c0.1,0,0.2,0,0.3,0c0.1,0,0.2,0,0.3,0
	c0.1,0,0.2,0,0.3,0.1c0.1,0,0.2,0,0.3,0.1c0.1,0,0.2,0,0.3,0.1c0.1,0,0.2,0,0.2,0.1c0.1,0,0.2,0,0.3,0.1c0.1,0,0.1,0,0.2,0
	c0.5,0.1,0.9,0.2,1.4,0.3c0,0,0.1,0,0.1,0c0.1,0,0.3,0.1,0.4,0.1c0.1,0,0.1,0,0.2,0.1c0.1,0,0.3,0.1,0.4,0.1c0.1,0,0.1,0,0.2,0.1
	c0.1,0,0.3,0.1,0.4,0.1c0.1,0,0.1,0,0.2,0.1c0.1,0,0.3,0.1,0.4,0.1c0.1,0,0.2,0,0.2,0.1c0.1,0,0.3,0.1,0.4,0.1c0.1,0,0.1,0,0.2,0.1
	c0.1,0,0.3,0.1,0.4,0.1c0.1,0,0.1,0,0.2,0.1c0.1,0,0.3,0.1,0.4,0.1c0.1,0,0.1,0,0.2,0c0.1,0,0.3,0.1,0.4,0.1c0,0,0.1,0,0.1,0
	c0.3,0.1,0.6,0.2,1,0.3c0,0,0.1,0,0.1,0c0.1,0,0.2,0.1,0.4,0.1c0.1,0,0.1,0,0.2,0.1c0.1,0,0.2,0.1,0.3,0.1c0.1,0,0.2,0,0.2,0.1
	c0.1,0,0.2,0.1,0.3,0.1c0.1,0,0.2,0.1,0.3,0.1c0.1,0,0.2,0.1,0.3,0.1c0.1,0,0.2,0.1,0.3,0.1c0.1,0,0.1,0,0.2,0.1
	c0.1,0,0.2,0.1,0.3,0.1c0.1,0,0.1,0,0.2,0.1c0.1,0,0.2,0.1,0.3,0.1c0,0,0.1,0,0.1,0c0.1,0,0.3,0.1,0.4,0.1c0,0,0,0,0.1,0
	c0.3,0.1,0.6,0.2,0.8,0.3l0.1,0.1c0.6,0.2,1.2,0.5,1.8,0.7C52.6,25.8,53.3,26.6,52.9,27.9z"/>
</svg>
