<?xml version="1.0" encoding="utf-8"?>
<!-- Generator: Adobe Illustrator 21.0.2, SVG Export Plug-In . SVG Version: 6.00 Build 0)  -->
<svg version="1.1" id="Capa_1" xmlns="http://www.w3.org/2000/svg" xmlns:xlink="http://www.w3.org/1999/xlink" x="0px" y="0px"
	 viewBox="0 0 112.2 112.2" style="enable-background:new 0 0 112.2 112.2;" xml:space="preserve">
<style type="text/css">
	.st0{fill:#FFFFFF;}
</style>
<g>
	<path class="st0" d="M100.1,7.1h-88c-2.8,0-5,2.2-5,5v88c0,2.8,2.2,5,5,5h51.2V68.4h-7.2V55.5h7.2v-8.3c0-6,2.8-15.3,15.3-15.3
		l11.2,0v12.5h-8.2c-1.3,0-3.2,0.7-3.2,3.5v7.6h11.3l-1.3,12.9h-10v36.7h21.6c2.8,0,5-2.2,5-5v-88C105.1,9.3,102.8,7.1,100.1,7.1z"
		/>
</g>
</svg>
