<?xml version="1.0" encoding="utf-8"?>
<!-- Generator: Adobe Illustrator 25.3.1, SVG Export Plug-In . SVG Version: 6.00 Build 0)  -->
<svg version="1.1" id="Layer_1" xmlns="http://www.w3.org/2000/svg" xmlns:xlink="http://www.w3.org/1999/xlink" x="0px" y="0px"
	 viewBox="0 0 55.1 94.1" style="enable-background:new 0 0 55.1 94.1;" xml:space="preserve">
<style type="text/css">
	.st0{fill:#FFFFFF;}
</style>
<g>
	<g>
		<path class="st0" d="M42.4,79.3c-2.5-1-5.5-1.7-8.8-2c-0.3-0.4-0.6-0.7-0.7-1.2c-0.2-0.9-0.2-3.3,0-6.9c1.2-0.6,1.8-1.4,1.8-2.3
			c0-0.2,0-0.3-0.1-0.5c10.3-3.1,17.8-13.6,17.8-26c0-2.6-0.4-5.1-1-7.6c0,0,0,0,0,0l0,0c-0.1-0.4-0.3-0.9-0.4-1.3l-2.2-7.3
			c-1.4-4.6-2.1-9.3-2.1-14.1l-0.1-4.4c0.6-0.5,0.9-1,0.9-1.5c0-1.4-2-2.5-5.9-3.3C38,0.2,33.2-0.2,28.1-0.2
			c-5.1,0-9.9,0.5-13.5,1.3c-3.9,0.9-5.9,2-5.9,3.4c0,0.5,0.3,1,0.9,1.5l0,4.4c0,4.8-0.7,9.5-2,14.1l-2.1,7.3
			c-0.1,0.4-0.3,0.9-0.4,1.3l0,0c0,0,0,0,0,0c-0.6,2.5-1,5-1,7.6c0.1,12.4,7.7,22.8,18,25.8c0,0.2-0.1,0.3-0.1,0.5
			c0,0.9,0.7,1.7,1.8,2.3c0.3,3.5,0.3,5.9,0.1,6.9c-0.1,0.5-0.4,0.9-0.7,1.3c-3.3,0.4-6.3,1.1-8.8,2.1c-3.9,1.6-6,3.7-6,5.9
			c0,2.3,2.1,4.4,6,5.9c3.7,1.5,8.7,2.3,14,2.3c5.3,0,10.2-0.9,13.9-2.4c3.9-1.6,6-3.7,6-5.9C48.4,82.9,46.3,80.8,42.4,79.3z
			 M11.6,10.3l0-3.9c0.2,0.1,0.4,0.1,0.6,0.2c0.5,0.2,1,0.3,1.6,0.4c1,0.2,2.1,0.4,3.1,0.5c1,0.1,2.1,0.2,3.1,0.2c1,0,2.1,0.1,3.1,0
			C22,7.7,21,7.6,20,7.4c-1-0.1-2-0.3-3.1-0.5c-1-0.2-2-0.4-3-0.7c-0.5-0.2-1-0.3-1.4-0.5c-0.4-0.2-0.7-0.3-1-0.5
			c-0.1-0.3-0.3-0.5-0.6-0.7c0.6-0.4,2-1,5-1.6c3.4-0.7,7.7-1,12.2-1c4.5,0,8.8,0.3,12.2,0.9c3,0.6,4.4,1.2,5,1.6
			c-0.4,0.3-0.7,0.8-0.6,1.3l0,0.4c0,0,0,0,0,0c-0.5,0.2-0.9,0.4-1.4,0.5c-1,0.3-2,0.6-3,0.8c-1,0.2-2,0.4-3.1,0.5
			c-1,0.1-2.1,0.3-3.1,0.4c1,0,2.1,0,3.1-0.1c1-0.1,2.1-0.1,3.1-0.2c1-0.1,2.1-0.3,3.1-0.5c0.4-0.1,0.8-0.2,1.2-0.3l0,3.2
			c0.1,5,0.8,9.9,2.2,14.6l2.2,7.3c0,0,0,0,0,0c0.1,0.4,0.3,0.8,0.4,1.2c0,0,0,0,0,0c0,0,0,0,0,0c0.6,2.3,0.9,4.7,1,7.1
			c0,6.7-2.3,12.9-6.5,17.6c-3,3.4-6.7,5.7-10.8,6.7c-0.2,0.1-0.4,0.1-0.6,0.1c-0.3,0.1-0.5,0.1-0.8,0.1c-0.7,0.1-1.3,0.2-2,0.3
			c-0.5,0-0.9,0.1-1.4,0.1c-0.5,0-0.9,0-1.4,0c-0.7,0-1.4-0.1-2-0.2c-0.3,0-0.5-0.1-0.8-0.1c-0.2,0-0.4-0.1-0.6-0.1
			c-4.1-1-7.8-3.2-10.8-6.6c-4.2-4.7-6.6-10.9-6.6-17.6c0-2.4,0.3-4.8,0.9-7.1c0,0,0,0,0,0c0,0,0,0,0,0c0.1-0.4,0.2-0.8,0.4-1.2
			c0,0,0,0,0,0L9.4,25C10.8,20.2,11.5,15.3,11.6,10.3z M23.6,66.8c1.5,0.3,3.1,0.5,4.8,0.5c1.6,0,3.2-0.2,4.8-0.5c0,0,0,0.1,0,0.1
			c0,0.2-0.3,0.6-1,0.9c0,0,0,0,0,0c0,0-0.1,0-0.1,0.1l-0.6,0.3l0,0.1l0,0l0,0.6c0,0,0,0.1,0,0.1l-0.8,0.4l0.8,0.1
			c0,0.4,0,0.7-0.1,1.1c-0.2,3-0.1,5,0.1,5.9c0.1,0.3,0.1,0.5,0.3,0.7c0,0,0,0,0,0c0,0,0,0,0,0c0.1,0.1,0.1,0.3,0.2,0.4
			c0,0,0,0,0,0.1c0.1,0.1,0.2,0.2,0.2,0.3c0,0,0,0,0,0c0,0,0,0,0,0c0,0,0,0,0,0c0.2,0.3,0.4,0.5,0.6,0.7c0.1,0.1,0.2,0.2,0.2,0.2
			c0,0,0,0,0,0c0.2,0.2,0.3,0.3,0.3,0.4c0.2,0,0.5,0,0.7,0.1c0.1,0,0.3,0,0.4,0c0.1,0,0.2,0,0.4,0l-0.1,0c0,0,0.1,0.1,0.1,0.1
			c0,0,0,0,0,0c0.1,0.1,0.2,0.3,0.3,0.5c0,0.1,0.1,0.2,0.1,0.3c0,0.1,0,0.2-0.1,0.3c-0.1,0.2-0.2,0.4-0.4,0.6
			c-0.2,0.2-0.4,0.4-0.7,0.5c-0.5,0.3-1.1,0.6-1.7,0.8c-0.6,0.2-1.2,0.4-1.8,0.5c0.6,0,1.3-0.1,1.9-0.2c0.6-0.1,1.3-0.3,1.9-0.6
			c0.3-0.1,0.6-0.3,0.9-0.5c0.3-0.2,0.5-0.5,0.7-0.8c0.2-0.3,0.3-0.8,0.2-1.2c0-0.1,0-0.1,0-0.2c0.2,0.2,0.4,0.5,0.4,0.8
			c0,0.2,0,0.3,0,0.5c0,0.1,0,0.2-0.1,0.3c0,0.1-0.1,0.2-0.1,0.3c-0.2,0.3-0.5,0.7-0.8,0.9c-0.3,0.3-0.7,0.5-1.1,0.7
			c0.4-0.1,0.8-0.3,1.2-0.5c0.4-0.2,0.8-0.5,1.1-0.8c0.1-0.1,0.1-0.2,0.2-0.3c0.1-0.1,0.1-0.2,0.2-0.3c0.1-0.2,0.2-0.5,0.2-0.8
			c0-0.2,0-0.4-0.1-0.6c0.1,0,0.3,0,0.4,0.1c0.8,0.1,1.6,0.3,2.4,0.5c0.8,0.2,1.6,0.5,2.3,0.8c0.8,0.3,1.5,0.7,2.1,1.2
			c0.3,0.2,0.6,0.5,0.8,0.9c0.2,0.3,0.4,0.7,0.4,1.1c0-0.4-0.1-0.9-0.2-1.2c-0.2-0.4-0.5-0.7-0.8-1.1c-0.3-0.3-0.6-0.6-1-0.8
			c-0.4-0.2-0.7-0.5-1.1-0.7c-0.8-0.4-1.5-0.7-2.3-1c-0.8-0.3-1.6-0.5-2.4-0.7c-0.2-0.1-0.4-0.1-0.7-0.2c1.7,0.4,3.3,0.8,4.8,1.4
			c3.5,1.4,5.4,3.2,5.4,5c0,1.8-2,3.7-5.4,5.1c-3.6,1.5-8.5,2.3-13.6,2.3c-5.2,0-10-0.8-13.6-2.2c-3.5-1.4-5.4-3.2-5.4-5
			c0-1.8,2-3.7,5.4-5.1c1.3-0.5,2.7-1,4.3-1.3c-0.4,0.1-0.8,0.2-1.2,0.3c-1.6,0.5-3.2,1.1-4.7,2.1c-0.4,0.2-0.7,0.5-1,0.8
			c-0.3,0.3-0.6,0.6-0.9,0.9c-0.3,0.3-0.5,0.7-0.7,1.1c-0.2,0.4-0.2,0.8-0.2,1.3c0-0.4,0.2-0.8,0.4-1.2s0.5-0.7,0.8-0.9
			c0.6-0.6,1.3-1,2-1.3c0.7-0.4,1.5-0.7,2.3-0.9c0.8-0.3,1.6-0.5,2.4-0.7c0.5-0.1,0.9-0.2,1.4-0.3c0,0.1,0,0.2,0,0.4
			c0,0.1,0,0.1,0,0.2l0,0.2l0,0.1c0,0,0,0.1,0,0.1l0.1,0.2c0,0.1,0.1,0.2,0.2,0.4l0.1,0.2c0,0.1,0.1,0.1,0.1,0.2
			c0.3,0.4,0.7,0.7,1.1,0.9c0.4,0.2,0.8,0.4,1.3,0.5c-0.4-0.2-0.8-0.5-1.1-0.8c-0.3-0.3-0.6-0.6-0.8-1c0,0,0-0.1-0.1-0.1l-0.1-0.1
			c0-0.1,0-0.2-0.1-0.3l0-0.1c0,0,0,0,0-0.1l0-0.1l0-0.1c0,0,0-0.1,0-0.1c0.1-0.3,0.2-0.5,0.4-0.7c0,0,0,0,0,0c0,0.1,0,0.2,0,0.2
			c-0.1,0.4,0,0.9,0.2,1.2c0.2,0.4,0.5,0.6,0.7,0.8c0.3,0.2,0.6,0.4,0.9,0.5c0.6,0.3,1.2,0.4,1.9,0.5c0.6,0.1,1.3,0.2,1.9,0.2
			c-0.6-0.1-1.2-0.3-1.8-0.5c-0.6-0.2-1.2-0.5-1.7-0.8c-0.3-0.2-0.5-0.3-0.7-0.5c-0.2-0.2-0.4-0.4-0.4-0.6c0-0.1-0.1-0.2-0.1-0.3
			c0-0.1,0-0.2,0-0.3c0.1-0.2,0.2-0.3,0.3-0.5c0,0,0.1-0.1,0.1-0.1l-0.1,0c0.1,0,0.2,0,0.4,0c0.1,0,0.3,0,0.4,0c0.1,0,0.1,0,0.2,0
			c0.2,0,0.4,0,0.5-0.1c0-0.1,0.1-0.2,0.3-0.4c0.1-0.1,0.1-0.1,0.2-0.2c0.2-0.2,0.4-0.4,0.6-0.7c0,0,0,0,0,0c0,0,0,0,0,0
			c0,0,0,0,0,0c0.1-0.1,0.2-0.2,0.2-0.3c0,0,0,0,0-0.1c0.1-0.1,0.1-0.2,0.2-0.4l0,0c0,0,0,0,0,0c0.1-0.2,0.2-0.5,0.2-0.7
			c0.2-0.9,0.2-2.9,0.1-5.9c0-0.3,0-0.7-0.1-1.1l0.8-0.1L25.4,69c0,0,0-0.1,0-0.1l0-0.6l0-0.1L25,68c0,0,0,0,0,0c0,0,0,0,0,0
			l-0.2-0.1c-0.8-0.4-1.2-0.8-1.2-1C23.6,66.9,23.6,66.9,23.6,66.8z"/>
		<path class="st0" d="M35.9,90.8c-0.8,0.1-1.6,0.3-2.4,0.4c-0.8,0.1-1.6,0.2-2.5,0.2c-0.8,0.1-1.6,0.1-2.5,0.1
			c-1.7,0-3.3-0.1-4.9-0.2c-1.6-0.2-3.3-0.5-4.9-0.9c-0.8-0.2-1.6-0.4-2.4-0.7c-0.8-0.3-1.5-0.6-2.2-1c-0.7-0.4-1.4-0.9-2-1.5
			c-0.3-0.3-0.5-0.6-0.7-1c-0.2-0.4-0.3-0.8-0.3-1.2c0,0.4,0.1,0.8,0.2,1.2c0.2,0.4,0.4,0.8,0.7,1.1c0.5,0.7,1.2,1.2,1.9,1.6
			c1.4,0.9,3,1.5,4.6,2c0.8,0.2,1.6,0.4,2.4,0.6c0.8,0.2,1.7,0.3,2.5,0.4c1.7,0.2,3.3,0.3,5,0.3c3.4,0,6.7-0.4,9.9-1.4
			c1.6-0.5,3.2-1.1,4.6-2c0.2-0.1,0.4-0.2,0.5-0.4l0.3-0.2l0.2-0.2c0.2-0.1,0.3-0.3,0.5-0.4l0.2-0.2c0,0,0.1-0.1,0.1-0.1l0.1-0.1
			c0.5-0.6,0.9-1.5,0.9-2.3c0,0.4-0.1,0.8-0.3,1.2c-0.2,0.4-0.4,0.7-0.7,1l-0.1,0.1c0,0-0.1,0.1-0.1,0.1l-0.2,0.2
			c-0.2,0.1-0.3,0.3-0.5,0.4L43.7,88l-0.3,0.2c-0.2,0.1-0.3,0.2-0.5,0.3c-0.7,0.4-1.5,0.7-2.2,1c-0.8,0.3-1.6,0.5-2.4,0.7
			C37.5,90.4,36.7,90.6,35.9,90.8z"/>
		<path class="st0" d="M32.7,87.3c0.3,0,0.7-0.1,1-0.1c0.3,0,0.7-0.1,1-0.2c0.7-0.1,1.4-0.3,2-0.5c0.7-0.2,1.3-0.4,2-0.8
			c0.3-0.2,0.6-0.4,0.9-0.6c0.1-0.1,0.3-0.3,0.3-0.5c0-0.1,0-0.2,0-0.4c0-0.1-0.1-0.2-0.2-0.3c-0.2-0.2-0.3-0.2-0.5-0.3
			c-0.2-0.1-0.3-0.1-0.5-0.2c-0.3-0.1-0.7-0.2-1-0.2c0.3,0.1,0.6,0.3,0.9,0.4c0.2,0.1,0.3,0.2,0.4,0.2c0.1,0.1,0.3,0.2,0.3,0.3
			c0.1,0.1,0.1,0.2,0,0.3c0,0.1-0.1,0.2-0.2,0.3c-0.2,0.2-0.5,0.4-0.8,0.5c-0.6,0.3-1.2,0.5-1.9,0.7c-0.3,0.1-0.7,0.2-1,0.2
			c-0.3,0.1-0.7,0.1-1,0.2c-0.3,0.1-0.7,0.1-1,0.2c-0.3,0.1-0.7,0.1-1,0.1c-0.7,0.1-1.3,0.1-2,0.2c-1.4,0.1-2.7,0.1-4.1,0
			c1.3,0.3,2.7,0.4,4.1,0.4C31.4,87.4,32.1,87.4,32.7,87.3z"/>
		<path class="st0" d="M28.4,73.4c0.2,0,0.4,0.1,0.6,0.2c0.2,0.1,0.4,0.3,0.7,0.5c0-0.3-0.1-0.6-0.3-0.9c-0.1-0.1-0.2-0.2-0.4-0.3
			c-0.1,0-0.2-0.1-0.2-0.1l-0.1,0l-0.1,0l-0.1,0l-0.1,0c0,0-0.1,0-0.1,0c-0.1,0-0.2,0.1-0.3,0.1c-0.1,0-0.1,0.1-0.2,0.2
			c-0.1,0.1-0.1,0.1-0.2,0.2c-0.2,0.3-0.3,0.6-0.3,0.9c0.2-0.2,0.4-0.4,0.6-0.6C28,73.5,28.2,73.4,28.4,73.4z"/>
		<path class="st0" d="M43.8,55.9c0.9-1.1,1.7-2.2,2.4-3.5c0.7-1.2,1.3-2.5,1.7-3.9c0.9-2.7,1.3-5.5,1.2-8.3c0-1.4-0.2-2.8-0.4-4.2
			c-0.2-1.4-0.5-2.7-0.9-4.1c0.1,1.4,0.3,2.7,0.3,4.1c0.1,1.4,0.1,2.7,0,4.1c-0.1,2.7-0.6,5.4-1.4,7.9c-0.1,0.3-0.2,0.6-0.3,0.9
			c-0.1,0.3-0.2,0.6-0.4,0.9L45.7,51l-0.5,0.9c-0.6,1.2-1.4,2.3-2.2,3.4c-1.6,2.2-3.6,4.1-5.6,5.9C39.9,59.8,42,58,43.8,55.9z"/>
		<path class="st0" d="M28.4,59.5c1.2,0,2.4,0.1,3.6,0.2c1.2,0.2,2.4,0.5,3.6,0.9c-1-0.7-2.2-1.2-3.5-1.5c-1.2-0.3-2.5-0.5-3.8-0.4
			c-1.3,0-2.6,0.2-3.8,0.5c-1.2,0.3-2.4,0.8-3.5,1.5c1.2-0.4,2.4-0.7,3.6-0.9C25.9,59.6,27.1,59.5,28.4,59.5z"/>
		<path class="st0" d="M43.9-0.7l0.9,0.2C44.3-0.6,43.9-0.7,43.9-0.7z"/>
		<path class="st0" d="M18.7,22.7C18.8,22.7,18.8,22.7,18.7,22.7C18.8,22.7,18.8,22.6,18.7,22.7C18.7,22.6,18.7,22.6,18.7,22.7
			C18.7,22.7,18.7,22.7,18.7,22.7z"/>
		<path class="st0" d="M36.6,27.8L36.6,27.8L36.6,27.8c0.1,0,0.1,0,0.1,0l0,0C36.8,27.8,36.8,27.8,36.6,27.8
			C36.7,27.8,36.7,27.8,36.6,27.8C36.7,27.8,36.7,27.8,36.6,27.8C36.6,27.8,36.6,27.8,36.6,27.8C36.6,27.8,36.6,27.8,36.6,27.8
			C36.6,27.8,36.6,27.8,36.6,27.8z"/>
		<polygon class="st0" points="16.6,57.1 16.6,57.1 16.6,57.1 		"/>
		<polygon class="st0" points="16.6,57.1 16.5,57.2 16.5,57.2 		"/>
		<path class="st0" d="M16,56.7L16,56.7C16,56.6,16,56.6,16,56.7C15.9,56.7,16,56.7,16,56.7z"/>
		<polygon class="st0" points="30.3,55.7 30.3,55.7 30.3,55.7 		"/>
		<polygon class="st0" points="30.4,55.6 30.4,55.7 30.4,55.6 		"/>
		<path class="st0" d="M30.4,56.2L30.4,56.2L30.4,56.2L30.4,56.2C30.4,56.2,30.4,56.2,30.4,56.2z"/>
	</g>
	<g>
		<g>
			<path class="st0" d="M24.7,38.4c0-0.3,0.3-0.6,0.6-0.6c0.3,0,0.6,0.3,0.6,0.6c0,0.3-0.3,0.6-0.6,0.6C25,39.1,24.7,38.8,24.7,38.4
				"/>
		</g>
		<g>
			<path class="st0" d="M24.5,37c0-0.2,0.2-0.4,0.4-0.4c0.2,0,0.4,0.2,0.4,0.4c0,0.2-0.2,0.4-0.4,0.4C24.7,37.4,24.5,37.2,24.5,37"
				/>
		</g>
		<g>
			<path class="st0" d="M24.5,35.7c0-0.3,0.2-0.5,0.5-0.5c0.3,0,0.5,0.2,0.5,0.5c0,0.3-0.2,0.5-0.5,0.5C24.7,36.2,24.5,36,24.5,35.7
				"/>
		</g>
		<g>
			<path class="st0" d="M26.9,36.3c-0.1-0.3-0.5-0.5-0.8-0.4c-0.3,0.1-0.5,0.5-0.4,0.8c0.1,0.3,0.5,0.5,0.8,0.4
				C26.8,37,27,36.7,26.9,36.3"/>
		</g>
		<g>
			<path class="st0" d="M26.7,34.9c-0.1-0.2-0.3-0.3-0.5-0.3c-0.2,0.1-0.3,0.3-0.3,0.5c0.1,0.2,0.3,0.3,0.5,0.3
				C26.7,35.4,26.8,35.1,26.7,34.9"/>
		</g>
		<g>
			<path class="st0" d="M26.4,33.7c-0.1-0.3-0.3-0.4-0.6-0.3c-0.3,0.1-0.4,0.3-0.3,0.6c0.1,0.3,0.3,0.4,0.6,0.3
				C26.3,34.2,26.4,33.9,26.4,33.7"/>
		</g>
		<g>
			<path class="st0" d="M25.1,40.8c-0.1-0.1-0.1-0.1-0.2-0.1c0,0-0.1,0-0.1,0.1c0,0.2,0.3,0.6,0.9,0.9c0.3,0.2,0.6,0.4,0.8,0.4
				c0.4,0.1,2,0.3,3.4-0.1c0.1,0,0.2-0.1,0.2-0.1c0.4-0.1,0.7-0.3,1.1-0.6c0.2-0.1,0.3-0.3,0.3-0.5c0,0,0-0.1,0-0.1l0-5
				c0.1,0,0.1,0,0.2,0c0.2,0,0.4,0,0.5,0c1.7,0,2.5-0.7,2.7-0.9c0.8-0.7,1.3-1.9,1.4-3.2c0.1-1.4-0.4-2.7-1.2-3.7
				c-0.5-0.6-1-0.9-1.7-0.9c-1.7-0.1-3.4,1.4-3.5,1.4l0,0l0,0c0,0-0.5,0.5-1.5,0.8c-0.9,0.3-2.6,0.7-4.9,0.2c0,0,0,0,0,0l0-3.9
				c4.2,0.5,6.5-0.8,7.2-1.3c0.1,0.2,0.1,0.2,0.1,0.6c0,0.3-0.1,0.6-0.1,0.6c0,0.1,0,0.2,0,0.3c0,0.1,0.1,0.2,0.3,0.2
				c0,0,0.1,0,0.1,0c0.2,0,0.4-0.1,0.4-0.3c0,0,0.2-0.4,0.2-1c0-0.6-0.2-1.1-0.6-1.4c0,0,0,0,0,0c-0.1-0.1-0.3-0.2-0.5-0.2
				c-0.2,0-0.3,0.1-0.4,0.2c-0.2,0.1-0.7,0.5-1.6,0.8c-1.1,0.4-2.9,0.7-5.5,0.3l-0.7-0.1l0.1,14.1c0,0.3,0.3,0.6,0.6,0.6
				c0.3,0,0.6-0.3,0.6-0.6l0-7.8c4.8,0.8,6.5-0.9,7.2-1.4c0.4-0.4,1.5-1.2,2.6-1.1c0.4,0,0.7,0.2,1,0.5c0.6,0.8,1,1.9,0.9,3
				c0,1-0.4,2-1,2.5l0,0l0,0c0,0-0.2,0.2-0.7,0.4c-0.3,0.1-0.8,0.2-1.5,0.2c-0.1,0-0.3,0-0.5,0l0-3c0-0.3-0.3-0.6-0.6-0.6
				c-0.3,0-0.6,0.3-0.6,0.6l0,2.9c-0.9,0-1.8,0-2.3,0c-0.1,0.3-0.2,0.5,0.2,0.7c0.4,0.2,0.7,0,1,0c0.3,0,0.8,0.1,1.2,0.2
				c0,0,0,1.2,0,1.7l0.1,1C30.4,39,30.9,42.5,25.1,40.8z"/>
		</g>
	</g>
</g>
<path class="st0" d="M9.1,31.2c0,0,9.3,10.3,17,10.8c7.7,0.5,22.3-3.3,23.8-2.9l0,2.7c0,0,1.5,21.7-21.9,22
	c-23.4,0.3-20-28.3-20-28.3L9.1,31.2z"/>
</svg>
