<?xml version="1.0" encoding="utf-8"?>
<!-- Generator: Adobe Illustrator 21.0.0, SVG Export Plug-In . SVG Version: 6.00 Build 0)  -->
<svg version="1.1" id="Calque_1" xmlns="http://www.w3.org/2000/svg" xmlns:xlink="http://www.w3.org/1999/xlink" x="0px" y="0px"
	 viewBox="0 0 100 125" style="enable-background:new 0 0 100 125;" xml:space="preserve">
<style type="text/css">
	.st0{fill:#FFFFFF;}
</style>
<path class="st0" d="M88.6,77.5c-2.9-2.8-8.1-10-10-12.7c1.9-1.9,3.6-3.6,4.8-5c2.3-2.5,2.5-6.2,0.6-9c-1-1.4-2.4-2.3-4.1-2.6
	c0.9-1.9,0.9-4.2-0.3-6.2c-0.9-1.4-2.2-2.5-3.8-2.9c1.6-2.2,1.7-5.3,0.1-7.6c-1-1.4-2.5-2.2-4-2.5c0.2-0.5,13.4-10,13.5-10.6
	c0.4-2-0.1-4.1-1.3-5.8c-2.3-3.1-6.6-4-9.9-2L56.4,23l-1.6-1.5c-2.4-2.2-5.8-3-9-2.1L35.1,23c-0.6,0.2-1.1,0.5-1.5,0.9l-1.2-0.4
	c-3.5-1.3-7.6,0.1-9.4,3.4c-1,1.8-1.3,3.9-0.7,5.9c0.2,0.5,0.4,1,0.6,1.5c-2,0.5-3.7,1.9-4.4,3.9c-0.9,2.3-0.3,4.9,1.3,6.6
	c-0.1,0-0.1,0.1-0.2,0.1c-1.6,1-2.6,2.5-2.9,4.4c-0.3,2,0.4,4,1.7,5.3c-0.1,0-0.1,0.1-0.2,0.1c-1.4,1.1-2.3,2.7-2.5,4.5
	c-0.3,2.2,0.7,4.2,2.8,5.5c0.6,0.4,1.3,0.7,2.1,0.9c-1.4,1.1-2.6,2.5-3.5,4l-6,10.3c-0.4,0.7-0.2,1.6,0.5,2.1
	c0.2,0.1,0.5,0.2,0.8,0.2c0.5,0,1-0.3,1.3-0.7l6-10.3c1.2-2.1,3.1-3.8,5.3-4.7l1.7-0.7c0,0,0,0,0,0c0.3-0.1,0.6-0.2,0.8-0.4
	c2.4-1.2,4.4-3,5.8-5.4c0.1-0.1,0.1-0.2,0.1-0.3c1,0.3,2,0.6,2.9,0.8c0.5,0.1,1,0.2,1.5,0.2c2.2,0,4.2-1.4,5-3.5l0-0.1
	c0.5-1.4,0.4-2.8-0.1-4c1.1-0.5,2.1-1.3,2.7-2.5c0.9-1.8,0.8-3.8-0.3-5.4c1.6-0.6,2.9-1.8,3.5-3.4c1.2-2.9,0-6.3-2.7-7.8l-0.4-0.3
	l30.2-20.3c2-1.2,4.6-0.7,5.9,1.2c0.7,1,1,2.2,0.8,3.4s-14,11.3-15,11.9l-4.2,2.7c0,0-0.1,0.1-0.1,0.1c0,0-0.1,0.1-0.1,0.1
	c0,0-0.1,0.1-0.1,0.1c0,0-0.1,0.1-0.1,0.1c0,0,0,0.1-0.1,0.1c0,0-0.1,0.1-0.1,0.1c0,0,0,0.1,0,0.1c0,0,0,0.1,0,0.1c0,0,0,0.1,0,0.1
	c0,0.1,0,0.1,0,0.2c0,0,0,0.1,0,0.1c0,0.1,0,0.1,0,0.2c0,0,0,0.1,0,0.1c0,0.1,0,0.1,0,0.2c0,0,0,0.1,0.1,0.1c0,0,0,0.1,0.1,0.1
	c0,0,0,0,0,0c0,0,0,0,0,0c0,0,0,0,0,0c0.1,0.1,0.1,0.2,0.2,0.2c0,0,0.1,0,0.1,0.1c0.1,0.1,0.1,0.1,0.2,0.1c0,0,0.1,0,0.1,0.1
	c0.1,0,0.2,0.1,0.3,0.1c0,0,0,0,0,0c0.1,0,0.2,0,0.3,0c0,0,0,0,0,0c0,0,0,0,0.1,0c0.1,0,0.2,0,0.3,0c0,0,0.1,0,0.1,0
	c0.1,0,0.2-0.1,0.3-0.1l0,0c0,0,0,0,0,0l0,0l4.2-2.6c1.5-0.9,3.4-0.5,4.5,0.9c1.1,1.5,0.8,3.5-0.6,4.6l-4,3.2c0,0,0,0-0.1,0.1
	c0,0-0.1,0.1-0.1,0.1c0,0-0.1,0.1-0.1,0.1c0,0-0.1,0.1-0.1,0.1c0,0,0,0.1-0.1,0.1s0,0.1-0.1,0.1c0,0,0,0.1,0,0.1c0,0,0,0.1,0,0.1
	c0,0,0,0.1,0,0.1c0,0,0,0.1,0,0.1c0,0,0,0.1,0,0.1c0,0,0,0.1,0,0.1c0,0,0,0.1,0,0.1c0,0,0,0.1,0.1,0.1c0,0,0,0.1,0.1,0.1
	c0,0,0,0.1,0.1,0.1c0,0,0,0,0,0c0,0,0,0,0,0c0,0,0,0,0.1,0.1c0,0.1,0.1,0.1,0.1,0.1c0,0,0.1,0.1,0.1,0.1c0.1,0,0.1,0.1,0.2,0.1
	c0,0,0.1,0,0.1,0.1c0.1,0,0.1,0,0.2,0.1c0,0,0.1,0,0.1,0c0.1,0,0.1,0,0.2,0c0,0,0.1,0,0.1,0c0,0,0,0,0,0c0.1,0,0.3,0,0.4-0.1
	c0,0,0.1,0,0.1,0c0.1,0,0.2-0.1,0.3-0.2l1.4-1c0.8-0.6,1.8-0.8,2.7-0.6c1,0.2,1.8,0.8,2.3,1.6c0.9,1.4,0.6,3.3-0.6,4.4l-4.4,3.7
	c0,0,0,0.1-0.1,0.1c0,0-0.1,0.1-0.1,0.1c0,0-0.1,0.1-0.1,0.1c0,0-0.1,0.1-0.1,0.1c0,0,0,0.1-0.1,0.1c0,0,0,0.1-0.1,0.1
	c0,0,0,0.1,0,0.1c0,0,0,0.1,0,0.1c0,0,0,0.1,0,0.1c0,0,0,0.1,0,0.1c0,0,0,0.1,0,0.1c0,0,0,0.1,0,0.1c0,0,0,0.1,0,0.1
	c0,0,0,0.1,0.1,0.1c0,0,0.1,0.1,0.1,0.1c0,0,0,0.1,0.1,0.1c0,0,0,0,0,0c0,0,0,0,0,0c0,0,0,0,0.1,0.1c0,0,0.1,0.1,0.1,0.1
	c0,0,0.1,0.1,0.1,0.1c0,0,0.1,0.1,0.2,0.1c0,0,0.1,0,0.1,0.1c0.1,0,0.1,0,0.2,0.1c0,0,0.1,0,0.1,0c0.1,0,0.1,0,0.2,0
	c0,0,0.1,0,0.1,0c0,0,0,0,0,0c0.1,0,0.3,0,0.4-0.1c0,0,0.1,0,0.1,0c0.1,0,0.2-0.1,0.4-0.2l2.9-2.1c0.7-0.6,1.6-0.9,2.5-0.7
	c0.9,0.1,1.7,0.6,2.2,1.4c1.1,1.6,1,3.8-0.4,5.2c-2.4,2.7-6.4,6.7-11.1,10.6c-5.7,4.6-11.5,7.9-14.5,9.5c-1.2,0.6-2.6,0.9-4,0.6
	L48.4,78c-1.7-0.3-3.4,0.4-4.5,1.8c-0.7,0.8-7.1,8-10.8,15.3c-0.4,0.7-0.1,1.6,0.7,2c0.2,0.1,0.4,0.2,0.7,0.2c0.5,0,1.1-0.3,1.3-0.8
	c3.7-7.2,10.3-14.6,10.4-14.7c0,0,0.1-0.1,0.1-0.1c0.4-0.5,1-0.8,1.6-0.7l3.2,0.5c0.5,0.1,0.9,0.1,1.4,0.1c0,0,0,0,0,0
	c1.9,0,6.6,7.5,9.6,14.1c0.2,0.6,0.8,0.9,1.4,0.9c0.2,0,0.4,0,0.6-0.1c0.8-0.3,1.1-1.2,0.8-2c-1.2-2.7-4.7-10.1-8.4-13.7
	c0.2-0.1,0.3-0.2,0.5-0.2c3.1-1.6,9.1-5,15-9.8c1.6-1.3,3-2.6,4.4-3.8c2.1,3,7.1,9.9,10.1,12.8c0.3,0.3,0.7,0.4,1,0.4
	c0.4,0,0.8-0.2,1.1-0.5C89.2,79.1,89.2,78.1,88.6,77.5z M36,25.9l10.7-3.6c2.1-0.6,4.4-0.1,6,1.4l1,0.9l-7,4.6
	c-4,2.3-9.2-0.1-11.1-1.6c-0.4-0.3-0.4-0.7-0.3-0.9C35.3,26.6,35.5,26.1,36,25.9z M25.6,62.9c-1.3,0.4-3.8,0.3-5.5-0.8
	c-1.6-1-1.4-2.2-1.4-2.5c0,0,0-0.1,0-0.1c0.1-0.9,0.5-1.8,1.2-2.3c0.7-0.5,1.7-0.7,2.6-0.5l0.6,0.1c2.3,0.6,4.9,1.3,7.4,2
	C29.3,60.7,27.6,62.1,25.6,62.9z M40.1,56l0,0.1c-0.4,1.2-1.7,1.8-2.9,1.5c-4.1-1.1-10.7-3-15.1-4.1c-1.6-0.4-2.6-2-2.4-3.7
	c0.2-0.9,0.7-1.8,1.5-2.3c0.8-0.5,1.8-0.6,2.7-0.3l0.1,0L38.7,53c0.1,0,0.2,0.1,0.3,0.1C40,53.7,40.5,54.9,40.1,56z M42.8,49.1
	c-0.5,0.9-1.5,1.4-2.5,1.2c-0.2-0.1-0.3-0.2-0.5-0.2l-3.6-1.3l-12.9-5.1c-1.7-0.7-2.6-2.6-1.9-4.3c0.7-1.7,2.6-2.6,4.3-2l1.2,0.5
	l12.7,6.7c0.2,0.1,1.3,0.8,2.4,1.5C43,46.7,43.4,48,42.8,49.1z M45.9,40.6c-0.3,0.8-1,1.5-1.9,1.8c-0.8,0.3-1.8,0.2-2.6-0.2L41,41.9
	c0,0,0,0,0,0c0,0,0,0,0,0l-13.5-7.1c-1.1-0.6-1.9-1.6-2.3-2.8c-0.4-1.2-0.2-2.5,0.4-3.6c1.1-2,3.6-2.9,5.7-2.1l1,0.4
	c-0.1,1.3,0.4,2.5,1.5,3.3c1.3,1,3.3,2.1,5.6,2.7c0.1,0.1,0.1,0.2,0.2,0.2l4.7,3.5c0.1,0,0.1,0.1,0.2,0.1
	C45.9,37.3,46.6,39,45.9,40.6z"/>
</svg>
