<?xml version="1.0" encoding="utf-8"?>
<!-- Generator: Adobe Illustrator 21.0.2, SVG Export Plug-In . SVG Version: 6.00 Build 0)  -->
<svg version="1.1" id="Capa_1" xmlns="http://www.w3.org/2000/svg" xmlns:xlink="http://www.w3.org/1999/xlink" x="0px" y="0px"
	 viewBox="0 0 112.2 112.2" style="enable-background:new 0 0 112.2 112.2;" xml:space="preserve">
<style type="text/css">
	.st0{fill:#FFFFFF;}
</style>
<g>
	<path class="st0" d="M56,15c13.4,0,14.9,0.1,20.2,0.3c4.9,0.2,7.5,1,9.3,1.7c2.3,0.9,4,2,5.7,3.7c1.7,1.7,2.8,3.4,3.7,5.7
		c0.7,1.8,1.5,4.4,1.7,9.3C96.9,41.1,97,42.6,97,56s-0.1,14.9-0.3,20.2c-0.2,4.9-1,7.5-1.7,9.3c-0.9,2.3-2,4-3.7,5.7
		c-1.7,1.7-3.4,2.8-5.7,3.7c-1.8,0.7-4.4,1.5-9.3,1.7C70.9,96.9,69.4,97,56,97s-14.9-0.1-20.2-0.3c-4.9-0.2-7.5-1-9.3-1.7
		c-2.3-0.9-4-2-5.7-3.7c-1.7-1.7-2.8-3.4-3.7-5.7c-0.7-1.8-1.5-4.4-1.7-9.3C15.1,70.9,15,69.4,15,56s0.1-14.9,0.3-20.2
		c0.2-4.9,1-7.5,1.7-9.3c0.9-2.3,2-4,3.7-5.7c1.7-1.7,3.4-2.8,5.7-3.7c1.8-0.7,4.4-1.5,9.3-1.7C41.1,15.1,42.6,15,56,15 M56,6
		C42.4,6,40.7,6.1,35.4,6.3c-5.3,0.2-9,1.1-12.1,2.3c-3.3,1.3-6.1,3-8.9,5.8c-2.8,2.8-4.5,5.6-5.8,8.9c-1.2,3.2-2.1,6.8-2.3,12.1
		C6.1,40.7,6,42.4,6,56c0,13.6,0.1,15.3,0.3,20.6c0.2,5.3,1.1,9,2.3,12.1c1.3,3.3,3,6.1,5.8,8.9c2.8,2.8,5.6,4.5,8.9,5.8
		c3.2,1.2,6.8,2.1,12.1,2.3c5.3,0.2,7,0.3,20.6,0.3s15.3-0.1,20.6-0.3c5.3-0.2,9-1.1,12.1-2.3c3.3-1.3,6.1-3,8.9-5.8
		c2.8-2.8,4.5-5.6,5.8-8.9c1.2-3.2,2.1-6.8,2.3-12.1c0.2-5.3,0.3-7,0.3-20.6s-0.1-15.3-0.3-20.6c-0.2-5.3-1.1-9-2.3-12.1
		c-1.3-3.3-3-6.1-5.8-8.9c-2.8-2.8-5.6-4.5-8.9-5.8c-3.2-1.2-6.8-2.1-12.1-2.3C71.3,6.1,69.6,6,56,6L56,6z"/>
	<path class="st0" d="M56,30.3c-14.2,0-25.7,11.5-25.7,25.7S41.8,81.7,56,81.7S81.7,70.2,81.7,56S70.2,30.3,56,30.3z M56,72.7
		c-9.2,0-16.7-7.5-16.7-16.7S46.8,39.3,56,39.3c9.2,0,16.7,7.5,16.7,16.7S65.2,72.7,56,72.7z"/>
	<circle class="st0" cx="82.7" cy="29.3" r="6"/>
</g>
</svg>
