<?xml version="1.0" encoding="utf-8"?>
<!-- Generator: Adobe Illustrator 25.3.1, SVG Export Plug-In . SVG Version: 6.00 Build 0)  -->
<svg version="1.1" id="Layer_1" xmlns="http://www.w3.org/2000/svg" xmlns:xlink="http://www.w3.org/1999/xlink" x="0px" y="0px"
	 viewBox="0 0 588.2 588.2" style="enable-background:new 0 0 588.2 588.2;" xml:space="preserve">
<style type="text/css">
	.st0{fill:#1D1D1B;}
</style>
<g>
	<g>
		<path class="st0" d="M260,295.3l22.7-43.3 M253.1,308.5l6.8-13.2L253.1,308.5L253.1,308.5z"/>
		<path class="st0" d="M253.1,308.4L253.1,308.4l-19.9,38.4c-8.4,16.3-10.3,35-5.3,52.8c5,17.8,16.3,32.4,31.8,41.3
			c9.6,5.5,20.5,8.4,31.5,8.4c10.4,0,20.8-2.6,30-7.6l2.2-1.2c16-8.6,27.7-23.2,33-41.2c5.3-18,3.5-37-5.1-53.6l-33.2-64.1
			c-2-3.9-2-8.5,0.1-12.3l44.9-91.3l0.4-0.7v0c5-9.2,18.3-9,23.1,0.3l57.1,110.3c21.8,42,26.4,90.2,12.9,135.9
			c-13.4,45.7-43.2,82.8-83.7,104.6l-5.7,3.1c-23.5,12.6-49.8,19.2-76.2,19.2c-27.8,0-55.4-7.3-79.8-21.2
			c-39.4-22.4-68-59.6-80.7-104.7c-12.7-45-7.9-92.6,13.5-133.9L266.3,55.2c5.7-11,16.6-17.8,28.5-17.8s22.8,6.8,28.4,17.8l28,54
			c2,3.8,2,8.3,0,12.1l-8.4,16l-0.4,0.7L282.7,252"/>
	</g>
</g>
</svg>
