<?xml version="1.0" encoding="utf-8"?>
<!-- Generator: Adobe Illustrator 20.0.0, SVG Export Plug-In . SVG Version: 6.00 Build 0)  -->
<svg version="1.1" id="Layer_1" xmlns="http://www.w3.org/2000/svg" xmlns:xlink="http://www.w3.org/1999/xlink" x="0px" y="0px"
	 viewBox="0 0 96.8 101" style="enable-background:new 0 0 96.8 101;" xml:space="preserve">
<style type="text/css">
	.st0{fill:#353635;}
</style>
<path class="st0" d="M80.9,57.6c-1.6-1.7-3.5-3.2-5.7-4.6c-2.2-1.3-4.8-2.6-7.6-3.9c-2.2-1-4.3-1.9-6.3-2.9
	c-1.7-0.8-3.2-1.6-4.5-2.5l-2.1,8.7c2.5,1.2,5.3,2.4,8.3,3.6c1.6,0.7,3.3,1.5,5,2.4c1.7,0.9,3.2,2.1,4.5,3.4
	c1.3,1.3,2.4,2.8,3.2,4.5c0.8,1.7,1.2,3.6,1.2,5.6c0,2.1-0.4,4-1.3,5.8c-0.9,1.8-2,3.3-3.4,4.6c-1.4,1.3-3,2.3-4.9,3
	c-1.8,0.7-3.7,1.1-5.6,1.1c-3.1,0-6-0.5-8.7-1.6c-2-0.8-3.9-1.8-5.7-2.8l-2.2,8.7c0.1,0.1,0.3,0.2,0.4,0.2c2.2,1,4.6,1.9,7.3,2.6
	c2.7,0.7,5.5,1,8.3,1c3.6-0.1,6.9-0.7,9.9-1.8c3-1.2,5.6-2.8,7.8-4.8c2.2-2,3.8-4.5,5-7.3c1.2-2.8,1.8-5.8,1.8-9.1
	c0-3-0.4-5.6-1.2-7.8C83.6,61.3,82.4,59.3,80.9,57.6z"/>
<path class="st0" d="M63.1,22.2c2.4-0.1,4.7,0.4,6.9,1.5c2.2,1.1,4.1,2.1,5.6,3.2c1.1,0.8,2.3,1.2,3.7,1.3c1.3,0,2.3-0.5,3-1.6
	c0.8-1.4,0.8-2.9,0-4.3c-0.8-1.5-2.2-2.8-4.1-3.9c-1.9-1.2-4.2-2.1-6.9-2.9c-2.4-0.7-4.8-1.1-7.4-1.1l-2,7.9
	C62.4,22.3,62.7,22.2,63.1,22.2z"/>
<path class="st0" d="M58.7,13c-0.8-0.2-2.6,0.3-2.8,1.1L55,17.6l-4.6-6.8c-0.4-0.6-1-1-1.7-1.1c-0.7-0.1-1.4,0-1.9,0.4
	c-0.4,0.2-0.6,0.6-0.8,1c-0.1-0.1-0.3-0.2-0.5-0.2c-0.7-0.2-1.5-0.2-2.1,0.2c-0.5,0.3-0.9,0.8-1.1,1.4L36,25.6l-12-5.4
	c-0.7-0.2-1.5-0.2-2.1,0.2c-0.5,0.3-0.9,0.8-1.1,1.4c-0.5,1.4,0.3,2.8,1.6,3.3L35.8,31L43.7,47l-17-4.8l-7-11.8
	c-0.4-0.7-1.1-1.2-1.9-1.4c-0.6-0.2-1.3-0.1-1.8,0.3c-1.3,0.8-1.2,2.4-0.6,3.6L22,43.5l-11.4,7.8c-2,1.2-1.3,2.7-1.1,3.2
	c0.7,1.2,2.1,1.6,3.4,0.8l12.5-8.1c0.1,0,0.1,0,0.2,0l15.9,4.5l-15.1,7.7L15,55.6c-0.7-0.2-1.5-0.2-2.1,0.2
	c-0.5,0.3-0.9,0.8-1.1,1.4c-0.2,0.7-0.2,1.4,0.1,2c0.3,0.6,0.8,1.1,1.5,1.3l10,3.3l-3.3,10.1c-0.2,0.7-0.2,1.4,0.1,2
	c0.3,0.6,0.8,1.1,1.5,1.3c0.3,0.1,0.6,0.1,0.8,0.1c0.4,0,0.8-0.1,1.1-0.3c0.6-0.3,1.1-0.9,1.3-1.5L28.8,64l16.5-8.3l-4.6,17.9
	l-12.5,5c-0.6,0.3-1.1,0.8-1.4,1.4c-0.3,0.6-0.3,1.3,0,2c0.3,0.6,0.7,1.2,1.4,1.4c0.3,0.1,0.7,0.2,1,0.2c0.3,0,0.6-0.1,0.9-0.2
	l9-3.6l-1.8,7.2c-0.2,0.8,1.3,2.6,2.1,2.8c0.1,0,0.3,0,0.4,0c0.7,0,1.3-0.5,1.4-1.1l18.6-74C60,14,59.5,13.2,58.7,13z M40.3,28.7
	l6.5-13.9l6.5,9.4l-5.2,20.4L40.3,28.7z"/>
</svg>
