<?xml version="1.0" encoding="utf-8"?>
<!-- Generator: Adobe Illustrator 21.0.2, SVG Export Plug-In . SVG Version: 6.00 Build 0)  -->
<svg version="1.1" id="Calque_1" xmlns="http://www.w3.org/2000/svg" xmlns:xlink="http://www.w3.org/1999/xlink" x="0px" y="0px"
	 viewBox="0 0 83.9 76.3" style="enable-background:new 0 0 83.9 76.3;" xml:space="preserve">
<style type="text/css">
	.st0{fill:#606060;}
</style>
<g>
	<g>
		<g>
			<path class="st0" d="M28,43.7c0.2,0.7,0.5,1.3,0.6,2l22.5-12.3c-0.2-0.7-0.4-1.3-0.7-2L28,43.7z"/>
			<path class="st0" d="M29,47c0.2,0.7,0.3,1.4,0.4,2.1l24.3-13.5c-0.1-0.7-0.3-1.4-0.5-2.1L29,47z"/>
			<path class="st0" d="M54.7,36.1L29.6,50.5c0.1,0.8,0.1,1.6,0,2.4l25.1-14.4C54.8,37.7,54.8,36.9,54.7,36.1z"/>
			<path class="st0" d="M26.7,40.4c0.3,0.6,0.6,1.3,0.8,1.9c6.7-3.5,20.3-10.5,25.2-13.2c-0.3-0.6-0.5-1.3-0.8-1.9
				C47.4,29.7,33.7,36.8,26.7,40.4z"/>
			<path class="st0" d="M22.6,32.8c0.9,1.5,2.3,3.8,3.2,5.5c0.1,0.3,0.3,0.6,0.4,0.8C37,34,47.1,28.8,51.5,26.4c-1-2-2.1-4-3.2-5.8
				C44.1,22.9,33.6,27.9,22.6,32.8z"/>
		</g>
		<g>
			<path class="st0" d="M70.8,20.1c-1.2-3.1-2.9-6.2-4.6-9l-14.7,7.8c1.8,3.3,3.3,6.3,4.4,9L70.8,20.1z"/>
			<path class="st0" d="M57.1,30.8l14.7-8c-0.2-0.7-0.4-1.3-0.7-2l-14.8,8C56.6,29.5,56.9,30.2,57.1,30.8z"/>
			<path class="st0" d="M57.9,33.6l13-7.4c-0.1-0.7-0.3-1.4-0.5-2.1l-13.1,7.4C57.6,32.2,57.8,32.9,57.9,33.6z"/>
			<path class="st0" d="M72.6,26l-14.4,8.3c0.1,0.5,0.2,1,0.3,1.4c0.1,0.2,0.2,0.5,0.2,0.7l14.1-8.1C72.8,27.6,72.7,26.8,72.6,26z"
				/>
		</g>
		<path class="st0" d="M74,2.2c-0.7-0.6-1.6-0.7-2.4-0.3c-0.4,0.2-40.8,21.5-61.4,28c-0.7,0.2-1.3,0.8-1.5,1.6
			c-0.2,0.8,0.1,1.5,0.7,2.1c1.9,1.7,3.6,3.9,5,6.4l-9.1,4.7c0,0,0,0,0,0c-1.9,1-3.2,3.1-3.5,5.9c-0.6,5.2,1.9,13,7,16.9
			c2.5,1.9,4.6,2.5,6.3,2.5c1,0,1.8-0.2,2.4-0.5c0.5-0.2,1.1-0.5,1.6-0.9c1.8-1.2,30.4-20.3,59.7-37.6c0,0,0.1,0,0.1-0.1l0.1-0.1
			c1.8-1.2,3-3.5,3.4-6.7C83.3,16.9,79.3,7.1,74,2.2z M15.4,43c1.5,3.6,2.4,7.4,2.6,11l-1.3,0.8c-0.6-3.5-2.3-7.1-4.7-9.2
			c-0.2-0.2-0.4-0.4-0.6-0.5L15.4,43z M15.7,65.4c-1.4,0.6-3.2-0.5-4.5-1.5c-4.1-3.1-5.7-9.5-5.3-13c0.1-1.3,0.6-2.3,1.2-2.5
			c0.1,0,0.3-0.1,0.4-0.1c0.6,0,1.5,0.4,2.4,1.2c2.3,2.1,3.9,6.4,3.4,9.4c-0.1,0.8,0.2,1.6,0.9,2.1c0.7,0.5,1.6,0.5,2.3,0.1l2-1.2
			C18,62.9,17,64.9,15.7,65.4z M78,23.5c-0.4,2.8-1.3,3.5-1.5,3.7l0,0C54.5,40,33.1,54,22.8,60.8c0-0.3,0.1-0.5,0.1-0.8
			c0.2-1.2,0.3-2.4,0.3-3.7c0-0.2,0-0.4,0-0.6c-0.1-4.9-1.4-10.2-3.6-14.9L18.7,39c-1.2-2.2-2.5-4.3-4-6.1C34.2,26.2,65,10,72.1,6.4
			C75.8,10.6,78.7,18.3,78,23.5z"/>
	</g>
</g>
</svg>
