<?xml version="1.0" encoding="utf-8"?>
<!-- Generator: Adobe Illustrator 21.0.2, SVG Export Plug-In . SVG Version: 6.00 Build 0)  -->
<svg version="1.1" id="Capa_1" xmlns="http://www.w3.org/2000/svg" xmlns:xlink="http://www.w3.org/1999/xlink" x="0px" y="0px"
	 viewBox="0 0 56 56" style="enable-background:new 0 0 56 56;" xml:space="preserve">
<style type="text/css">
	.st0{fill:#FFFFFF;}
</style>
<path class="st0" d="M44.5,11.6c-0.6-2.8-3.1-4.8-6.1-4.8c-3.4,0-6.2,2.8-6.2,6.2c0,0.8,0.1,1.6,0.4,2.3l-3.9,3.9
	c-0.3,0-0.6,0-0.9,0c-3.4,0-14.9,6-17.2,8.3c-2.4,2.3-3.8,5.5-3.8,9.1c0,7.1,5.7,12.8,12.8,12.8c3.6,0,6.8-1.5,9.1-3.8
	c2.3-2.3,8.3-13.8,8.3-17.2c0-0.3,0-0.6,0-0.9l3.9-3.9c0.7,0.3,1.5,0.4,2.3,0.4c3.4,0,6.2-2.8,6.2-6.2
	C49.3,14.7,47.2,12.2,44.5,11.6z M43.1,21.2c-0.7,0-1.3-0.2-1.9-0.5l-0.9-0.6l-4.2,4.2c-0.9-1.9-2.5-3.5-4.4-4.4l4.2-4.2l-0.6-0.9
	c-0.4-0.6-0.5-1.1-0.5-1.9c0-2,1.6-3.6,3.6-3.6c1.9,0,3.5,1.5,3.6,3.4L42,14l1.2,0.1c1.9,0.1,3.4,1.7,3.4,3.6
	C46.6,19.6,45,21.2,43.1,21.2z"/>
</svg>
