<svg xmlns="http://www.w3.org/2000/svg" viewBox="762 1988.638 54.306 35.362">
  <defs>
    <style>
      .cls-1 {
        fill: #fff;
      }
    </style>
  </defs>
  <g id="Groupe_3" data-name="Groupe 3" transform="translate(816.306 2976.4) rotate(180)">
    <path id="Tracé_104" data-name="Tracé 104" class="cls-1" d="M46.35,987.762a7.923,7.923,0,0,0,7.956-7.957v-6.82a7.923,7.923,0,0,0-7.956-7.956H40.414A89.409,89.409,0,0,1,42.94,952.4c-4.61,0-11.366,13.829-11.366,20.207v7.2a7.923,7.923,0,0,0,7.956,7.957Zm-31.573,0a7.923,7.923,0,0,0,7.956-7.957v-6.82a7.923,7.923,0,0,0-7.956-7.956H8.841A89.41,89.41,0,0,1,11.366,952.4C6.757,952.4,0,966.229,0,972.607v7.2a7.923,7.923,0,0,0,7.956,7.957Z"/>
  </g>
</svg>
