<?xml version="1.0" encoding="utf-8"?>
<!-- Generator: Adobe Illustrator 23.0.2, SVG Export Plug-In . SVG Version: 6.00 Build 0)  -->
<svg version="1.1" id="Layer_1" xmlns="http://www.w3.org/2000/svg" xmlns:xlink="http://www.w3.org/1999/xlink" x="0px" y="0px"
	 viewBox="0 0 83.9 76.3" style="enable-background:new 0 0 83.9 76.3;" xml:space="preserve">
<style type="text/css">
	.st0{fill:#FFFFFF;}
</style>
<g id="XMLID_22_">
	<g id="XMLID_73362_">
		<g id="XMLID_136_">
			<polygon class="st0" points="31,61.9 25.5,67.4 29.1,68.5 34.2,61.9 			"/>
		</g>
		<g id="XMLID_135_">
			<polygon class="st0" points="27.3,61.9 22.5,66.5 24.9,67.2 30.1,61.9 			"/>
		</g>
		<g id="XMLID_134_">
			<polygon class="st0" points="34.9,61.9 29.7,68.7 33.3,69.8 37.2,61.9 			"/>
		</g>
		<g id="XMLID_133_">
			<polygon class="st0" points="37.9,61.9 33.8,70 37.4,71.2 39.8,61.9 			"/>
		</g>
		<g id="XMLID_132_">
			<polygon class="st0" points="38,71.3 41.6,72.5 41.6,61.9 40.4,61.9 			"/>
		</g>
		<g id="XMLID_131_">
			<polygon class="st0" points="56.7,61.9 42.3,61.9 42.3,72.5 61.5,66.5 			"/>
		</g>
		<g id="XMLID_73414_">
			<path class="st0" d="M42,46.8C42,46.8,42,46.8,42,46.8c3.1,0,5.6-2.5,5.6-5.6c0-3.1-2.5-5.6-5.6-5.6c0,0,0,0,0,0
				c-3.1,0-5.6,2.5-5.6,5.6C36.4,44.2,38.9,46.8,42,46.8z M39.1,38.3c0.8-0.8,1.8-1.2,2.9-1.2c0,0,0,0,0,0c2.2,0,4,1.8,4,4
				c0,2.2-1.8,4.1-4,4.1c0,0,0,0,0,0c-1.1,0-2.1-0.4-2.8-1.2c-0.8-0.8-1.2-1.8-1.2-2.9C37.9,40.1,38.3,39.1,39.1,38.3z"/>
		</g>
		<g id="XMLID_128_">
			<path class="st0" d="M41.4,44.3c0.2,0,0.4,0.1,0.7,0.1c1.8,0,3.3-1.5,3.3-3.3c0-1.8-1.5-3.3-3.3-3.3c-0.2,0-0.4,0-0.7,0.1
				c1.5,0.3,2.6,1.6,2.6,3.2C44,42.7,42.9,44,41.4,44.3z"/>
		</g>
		<g id="XMLID_73410_">
			<path class="st0" d="M38.3,32.1c1.1-0.5,2.3-0.8,3.6-0.8c1.3,0,2.5,0.3,3.6,0.8v-1.4l1.8-4.9v-2.4l-2.2-2.1h-2.8h-1h-2.8
				l-2.2,2.1v2.4l1.8,4.9V32.1z M42,24.3c1.5,0,2.8,1.2,2.8,2.8c0,1.5-1.2,2.8-2.8,2.8c-1.5,0-2.8-1.2-2.8-2.8
				C39.2,25.5,40.4,24.3,42,24.3z"/>
		</g>
		<g id="XMLID_125_">
			<path class="st0" d="M42,25.5c1,0,1.8,0.7,2,1.6c0-0.1,0-0.3,0-0.4c0-1.1-0.9-2-2-2c-1.1,0-2,0.9-2,2c0,0.1,0,0.3,0,0.4
				C40.2,26.2,41,25.5,42,25.5z"/>
		</g>
		<g id="XMLID_73373_">
			<path class="st0" d="M42,50.1c4.9,0,8.9-4,8.9-8.9s-4-8.9-8.9-8.9c-4.9,0-8.9,4-8.9,8.9S37.1,50.1,42,50.1z M37.6,46.9
				c-0.1,0.1-0.3,0.2-0.5,0c-0.1-0.1-0.2-0.3,0-0.5c0.1-0.1,0.3-0.2,0.5,0C37.7,46.5,37.8,46.7,37.6,46.9z M39.9,48
				c-0.1,0.2-0.2,0.3-0.4,0.2c-0.2-0.1-0.3-0.2-0.2-0.4c0.1-0.2,0.2-0.3,0.4-0.2C39.8,47.7,39.9,47.9,39.9,48z M42,48.7
				c-0.2,0-0.3-0.1-0.3-0.3c0-0.2,0.1-0.3,0.3-0.3s0.3,0.1,0.3,0.3C42.3,48.5,42.2,48.7,42,48.7z M44.6,48.2c-0.2,0.1-0.4,0-0.4-0.2
				c-0.1-0.2,0-0.4,0.2-0.4c0.2-0.1,0.4,0,0.4,0.2C44.8,47.9,44.8,48.1,44.6,48.2z M46.8,46.9c-0.1,0.1-0.3,0.1-0.5,0
				c-0.1-0.1-0.1-0.3,0-0.5c0.1-0.1,0.3-0.1,0.5,0C47,46.5,47,46.7,46.8,46.9z M49,42.7c-0.2,0-0.3-0.2-0.3-0.4
				c0-0.2,0.2-0.3,0.4-0.3c0.2,0,0.3,0.2,0.3,0.4C49.4,42.6,49.2,42.7,49,42.7z M49,39.5c0.2,0,0.3,0.1,0.4,0.3
				c0,0.2-0.1,0.3-0.3,0.4c-0.2,0-0.3-0.1-0.4-0.3C48.7,39.7,48.8,39.5,49,39.5z M48.5,44.9c-0.1,0.2-0.3,0.2-0.4,0.1
				c-0.2-0.1-0.2-0.3-0.1-0.4c0.1-0.2,0.3-0.2,0.4-0.1C48.5,44.5,48.6,44.7,48.5,44.9z M48,37.2c0.2-0.1,0.4,0,0.4,0.1
				c0.1,0.2,0,0.4-0.1,0.4c-0.2,0.1-0.4,0-0.4-0.1C47.8,37.5,47.9,37.3,48,37.2z M46.3,35.4c0.1-0.1,0.3-0.2,0.5,0
				c0.1,0.1,0.2,0.3,0,0.5c-0.1,0.1-0.3,0.2-0.5,0C46.2,35.7,46.2,35.5,46.3,35.4z M44.1,34.2c0.1-0.2,0.2-0.3,0.4-0.2
				c0.2,0.1,0.3,0.2,0.2,0.4s-0.2,0.3-0.4,0.2C44.1,34.6,44,34.4,44.1,34.2z M41.9,33.6c0.2,0,0.3,0.1,0.3,0.3s-0.1,0.3-0.3,0.3
				s-0.3-0.1-0.3-0.3S41.7,33.6,41.9,33.6z M39.4,34.1c0.2-0.1,0.4,0,0.4,0.2c0.1,0.2,0,0.4-0.2,0.4c-0.2,0.1-0.4,0-0.4-0.2
				C39.1,34.3,39.2,34.1,39.4,34.1z M42,35c3.4,0,6.1,2.7,6.1,6.1c0,3.4-2.7,6.1-6.1,6.1c-3.4,0-6.1-2.7-6.1-6.1
				C35.9,37.8,38.6,35,42,35z M37.1,35.4c0.1-0.1,0.3-0.1,0.5,0c0.1,0.1,0.1,0.3,0,0.5c-0.1,0.1-0.3,0.1-0.5,0
				C36.9,35.7,37,35.5,37.1,35.4z M34.9,39.6c0.2,0,0.3,0.2,0.3,0.4c0,0.2-0.2,0.3-0.4,0.3c-0.2,0-0.3-0.2-0.3-0.4
				C34.6,39.7,34.8,39.6,34.9,39.6z M35,42.7c-0.2,0-0.3-0.1-0.4-0.3c0-0.2,0.1-0.3,0.3-0.4c0.2,0,0.3,0.1,0.4,0.3
				C35.3,42.5,35.1,42.7,35,42.7z M35.4,37.4c0.1-0.2,0.3-0.2,0.4-0.1c0.2,0.1,0.2,0.3,0.1,0.4c-0.1,0.2-0.3,0.2-0.4,0.1
				C35.4,37.8,35.4,37.6,35.4,37.4z M35.5,44.9c-0.1-0.2,0-0.4,0.1-0.4c0.2-0.1,0.4,0,0.4,0.1c0.1,0.2,0,0.4-0.1,0.4
				C35.8,45.1,35.6,45.1,35.5,44.9z"/>
		</g>
		<g id="XMLID_44_">
			<polygon class="st0" points="45.3,20.9 45.8,19.5 38.1,19.5 38.7,20.9 			"/>
		</g>
		<g id="XMLID_39_">
			<path class="st0" d="M56.2,52.3h-2V48l-3-2.5c-1.6,3.3-4.9,5.7-8.7,5.9c3.8,0.1,7,0.9,8.6,2.1c-2.4-0.8-5.6-1.3-9-1.3
				c-3.5,0-6.6,0.5-9,1.3c1.6-1.2,4.9-2,8.6-2.1c-3.9-0.2-7.2-2.5-8.7-5.9l-3,2.5v4.3h-2l-1.7,3.2h31.7L56.2,52.3z"/>
		</g>
		<g id="XMLID_38_">
			<rect x="24" y="56.2" class="st0" width="35.9" height="4.7"/>
		</g>
	</g>
	<g id="XMLID_37_">
		<path class="st0" d="M30,18.9l-0.3,0.2l-1.7-3l1-0.6c0.4-0.2,0.6-0.3,0.9-0.2c0.2,0.1,0.4,0.2,0.6,0.6c0.2,0.3,0.2,0.6,0.2,0.9
			c-0.1,0.2-0.2,0.4-0.6,0.6l-0.6,0.4L30,18.9z M29.8,17.1c0.4-0.2,0.5-0.5,0.3-1c-0.2-0.4-0.6-0.5-1-0.3l-0.6,0.4l0.7,1.3
			L29.8,17.1z"/>
		<path class="st0" d="M32.2,14l0.4-0.1l1.3,3.2l-0.4,0.1L32.2,14z"/>
		<path class="st0" d="M35.3,14.3c-0.1-0.5-0.1-0.8,0.1-1c0.2-0.3,0.4-0.5,0.8-0.6c0.4-0.1,0.8,0,1,0.2c0.2,0.2,0.3,0.4,0.4,0.9
			l0.2,0.8c0.1,0.5,0.1,0.8-0.1,1c-0.2,0.3-0.4,0.5-0.8,0.6c-0.4,0.1-0.8,0-1-0.2c-0.2-0.2-0.3-0.4-0.4-0.9L35.3,14.3z M37.3,13.9
			c-0.1-0.4-0.2-0.6-0.4-0.7c-0.2-0.2-0.4-0.2-0.7-0.1c-0.3,0.1-0.5,0.2-0.6,0.5c-0.1,0.2-0.1,0.4,0,0.7l0.2,0.8
			c0.1,0.4,0.2,0.6,0.4,0.7c0.2,0.2,0.4,0.2,0.7,0.1c0.3-0.1,0.5-0.2,0.6-0.5c0.1-0.2,0.1-0.4,0-0.7L37.3,13.9z"/>
		<path class="st0" d="M40.5,12.2l0.1,2.2c0,0.3,0,0.5,0.1,0.7c0.1,0.2,0.3,0.3,0.7,0.3c0.3,0,0.5-0.1,0.7-0.4
			c0.1-0.1,0.1-0.3,0.1-0.6l-0.1-2.2l0.4,0l0.1,2.2c0,0.5,0,0.7-0.2,0.9c-0.2,0.3-0.5,0.4-1,0.4c-0.5,0-0.8-0.1-1-0.4
			c-0.1-0.2-0.2-0.4-0.2-0.8l-0.1-2.2L40.5,12.2z"/>
		<path class="st0" d="M44.8,15.1c0.1,0.3,0.4,0.4,0.8,0.5c0.5,0.1,0.8-0.1,0.9-0.5c0-0.2,0-0.4-0.1-0.5c-0.1-0.1-0.1-0.1-0.6-0.3
			c-0.7-0.3-0.9-0.6-0.8-1.1c0.1-0.6,0.5-0.9,1.2-0.8c0.5,0.1,0.8,0.3,0.9,0.6l-0.3,0.1c-0.1-0.2-0.3-0.4-0.7-0.4
			c-0.4-0.1-0.7,0.1-0.7,0.5c-0.1,0.3,0.1,0.6,0.7,0.8c0.4,0.2,0.5,0.2,0.7,0.4c0.2,0.2,0.3,0.4,0.2,0.8c-0.1,0.6-0.6,0.9-1.3,0.8
			c-0.6-0.1-0.9-0.3-1.1-0.7L44.8,15.1z"/>
		<path class="st0" d="M49,16c0.1,0.3,0.3,0.5,0.7,0.6c0.5,0.2,0.8,0,1-0.3c0.1-0.2,0-0.4-0.1-0.5c-0.1-0.1-0.1-0.1-0.5-0.4
			c-0.6-0.4-0.8-0.8-0.6-1.3c0.2-0.6,0.7-0.8,1.3-0.5c0.4,0.2,0.7,0.4,0.8,0.7l-0.4,0.1c-0.1-0.2-0.3-0.4-0.6-0.5
			c-0.4-0.1-0.7,0-0.8,0.3c-0.1,0.3,0,0.6,0.5,0.9c0.4,0.3,0.5,0.3,0.6,0.5c0.2,0.2,0.2,0.5,0.1,0.8c-0.2,0.6-0.7,0.8-1.4,0.5
			c-0.5-0.2-0.8-0.5-0.9-0.9L49,16z"/>
		<path class="st0" d="M54.1,15l1.8,1l-0.2,0.3l-1.4-0.8l-0.6,1.1l1.2,0.7l-0.2,0.3l-1.2-0.7L52.9,18l1.4,0.8L54.2,19l-1.8-1
			L54.1,15z"/>
	</g>
	<g id="XMLID_67_">
		<g id="XMLID_35_">
			<path class="st0" d="M75.6,38.7C75.6,20.2,60.5,5.2,42,5.2C23.5,5.2,8.4,20.2,8.4,38.7c0,10.7,5,20.2,12.8,26.3l2-1.9
				c-0.2-0.1-0.4-0.3-0.5-0.4l-0.5-0.4c-6.7-5.7-11-14.1-11-23.6C11.1,21.7,25,7.9,42,7.9c17,0,30.9,13.8,30.9,30.9
				c0,9.5-4.3,17.9-11,23.6l-0.5,0.4c-0.2,0.1-0.3,0.3-0.5,0.4l2,1.9C70.5,58.9,75.6,49.4,75.6,38.7z"/>
		</g>
		<g id="XMLID_33_">
			<path class="st0" d="M22.2,38.7c0,4.3,1.4,8.4,3.8,11.6h0.6h1.3v-2c-1.9-2.7-3-6.1-3-9.6c0-6.7,3.9-12.6,9.6-15.3v-3
				C27.3,23.4,22.2,30.5,22.2,38.7z"/>
		</g>
		<g id="XMLID_31_">
			<path class="st0" d="M49.3,20.4v2.3v0.7C55.1,26.1,59,32,59,38.7c0,3.6-1.1,6.9-3,9.6v2h1.3h0.6c2.4-3.3,3.8-7.3,3.8-11.6
				C61.7,30.4,56.6,23.3,49.3,20.4z"/>
		</g>
		<g id="XMLID_28_">
			<path class="st0" d="M42,3.8C22.8,3.8,7.2,19.4,7.2,38.6c0,10.6,4.8,20.5,13.2,27.2l0.4-0.4c-8.3-6.5-13-16.3-13-26.8
				C7.8,19.7,23.1,4.4,42,4.4s34.2,15.3,34.2,34.2c0,10.5-4.7,20.2-13,26.8l0.4,0.4c8.3-6.7,13.1-16.5,13.1-27.1
				C76.7,19.4,61.1,3.8,42,3.8z"/>
		</g>
	</g>
	<g id="XMLID_23_">
		<g id="XMLID_19_">
			<polygon class="st0" points="16.9,38.1 18.2,38.8 18,37.3 19,36.3 17.5,36 16.9,34.7 16.2,36 14.7,36.3 15.8,37.3 15.5,38.8 			
				"/>
		</g>
		<g id="XMLID_17_">
			<polygon class="st0" points="20.5,24.7 19.3,25.7 17.9,25.2 18.4,26.7 17.6,27.9 19.1,27.8 20,29.1 20.4,27.6 21.8,27.1 
				20.6,26.2 			"/>
		</g>
		<g id="XMLID_14_">
			<polygon class="st0" points="18.4,45 17.5,46.2 16,46.1 16.9,47.4 16.3,48.8 17.8,48.4 19,49.3 19,47.8 20.3,47 18.8,46.5 			"/>
		</g>
		<g id="XMLID_12_">
			<polygon class="st0" points="69.3,36.3 67.8,36 67.1,34.7 66.4,36 64.9,36.3 66,37.3 65.7,38.8 67.1,38.1 68.4,38.8 68.2,37.3 
							"/>
		</g>
		<g id="XMLID_11_">
			<polygon class="st0" points="64.9,27.8 66.4,27.9 65.5,26.7 66.1,25.2 64.6,25.7 63.4,24.7 63.4,26.2 62.1,27.1 63.5,27.6 
				63.9,29.1 			"/>
		</g>
		<g id="XMLID_10_">
			<polygon class="st0" points="66.4,46.2 65.5,45 65.1,46.5 63.7,47 64.9,47.8 65,49.3 66.2,48.4 67.6,48.8 67.1,47.4 68,46.1 			
				"/>
		</g>
	</g>
</g>
</svg>
