<?xml version="1.0" encoding="utf-8"?>
<!-- Generator: Adobe Illustrator 22.0.1, SVG Export Plug-In . SVG Version: 6.00 Build 0)  -->
<svg version="1.1" id="Layer_1" xmlns="http://www.w3.org/2000/svg" xmlns:xlink="http://www.w3.org/1999/xlink" x="0px" y="0px"
	 viewBox="0 0 254.6 256.3" style="enable-background:new 0 0 254.6 256.3;" xml:space="preserve">
<style type="text/css">
	.st0{fill:#009FE3;}
</style>
<path id="Tracé_111" class="st0" d="M253.6,124.5V123c0-2.7-0.1-5.4-0.2-8.1c-0.1-9.5-1.6-19-4.2-28.2
	c-8.7-33.7-29.8-59.2-59.5-72.5C174.1,4.9,156.1,0,137.8,0c-5.3,0-10.7,0.4-16,1.2c-1.2,0.2-2.4,0.4-3.6,0.6
	c-11.1,2.1-21.8,5.7-31.9,10.8c-15.6,5.2-30.3,12.9-43.3,23c-20.5,16-34.2,36.5-40,59.3c-0.3,2.1-0.5,4.2-0.7,6.4
	C7,76.1,21.2,53.4,43.5,36.1c11.6-9,24.6-16.1,38.4-21.2c-14.2,7.7-27,17.6-38,29.4c-3.1,3.2-6,6.6-8.7,10
	c-11.6,11.9-20,26.5-24.5,42.5c-0.5,2.1-1.1,4.2-1.5,6.4c-0.5,2.3-0.8,4.7-1.1,7.1c-0.1,1.4-0.3,2.7-0.4,4.2c-0.2,2.5-0.3,5-0.3,7.5
	c0,29.9,13.8,59,35,81.7c17.1,22.1,41.7,37.1,69.1,42.1c9.5,2.5,19.2,3.8,29,3.8c8.7,0,17.4-1,25.8-3.2c-6.1,2.6-12.3,4.6-18.8,6
	c-4.2,0.3-8.6,0.5-12.9,0.5c-5.5,0-11-0.3-16.3-0.8c-26.2-5.1-52.1-18.7-73.5-39c-9.8-9.2-18.3-19.6-25.3-31l0,0
	c-3.1-6-5.8-12.2-8.2-18.6c-3.1-8.5-5.5-17.3-7.1-26.2c0.4-7.7,1.6-15.4,3.6-23c0.1-1.4,0.2-2.8,0.4-4.2c-2.2,7.9-3.7,16-4.5,24.3
	c-0.1-0.6-0.2-1.2-0.3-1.8c0.8-10,2.7-19.9,5.8-29.5c0.4-2.2,1-4.3,1.5-6.4c-4,10.5-6.6,21.5-7.7,32.7c-1.2-9.5-1.4-19-0.6-28.5
	C2.5,99,2.7,96.9,3,94.7c1.6-12,5.1-23.6,10.4-34.4c14.5-29,41.4-48.9,75.7-55.8c9.1-1.8,18.4-2.7,27.7-2.7h1.4
	c1.2-0.2,2.4-0.4,3.6-0.6c-11-0.4-22.1,0.5-32.9,2.6c-34.5,7-61.6,26.9-76.1,56.2C6.6,72.8,2.8,86.8,1.7,101
	c-2.5,13.6-2.3,27.6,0.8,41.2c0.1,11.8,2.1,23.6,6,34.7c6.2,19.2,17.9,35.9,34.8,49.4c24.3,19.3,57.1,29.9,92.3,29.9
	c71.2,0,119.1-46.2,119.1-115C254.5,135.8,254.2,130.2,253.6,124.5z M2.4,138.9c-1.2-6.3-1.8-12.7-1.8-19.1c0-3.7,0.2-7.3,0.6-11
	c-0.2,8,0.3,16,1.4,24C2.5,134.8,2.5,136.9,2.4,138.9z M3,141.2c0-1.7,0.1-3.5,0.1-5.2c0.1,0.5,0.2,1,0.3,1.5
	c-0.1,1.9-0.1,3.8-0.1,5.7c-0.1-0.3-0.1-0.6-0.2-1C3.1,141.9,3,141.5,3,141.2L3,141.2z M3.2,145.6c0.1,0.2,0.1,0.4,0.1,0.6
	c0.1,1.9,0.1,3.7,0.3,5.5C3.4,149.8,3.2,147.7,3.2,145.6L3.2,145.6z M252.9,138.7c0,33.9-11.4,62.7-33.1,83.3
	c-4.2,4-8.8,7.6-13.6,10.9c6.4-5.2,12.3-11.1,17.4-17.5C240.1,194.8,250.3,168,252.9,138.7L252.9,138.7z M248.8,87.9
	c2.2,8.9,3.5,17.9,3.9,27v2.8c-1.5-10.1-3.9-20-7.3-29.6c-5.1-16.2-13.1-31.4-23.4-44.9c-0.6-0.8-1.3-1.6-1.9-2.4
	c13.1,12.2,22.7,27.7,28,44.8C248.4,86.3,248.6,87.1,248.8,87.9L248.8,87.9z M230.5,62c0.1-1.7-0.6-3.1-1.8-3.4h-0.1
	c0.5-0.5,0.9-1.1,0.9-1.8c0-0.3-0.1-0.6-0.3-0.9c6.5,10.1,11.8,21,15.7,32.5c4,12.1,6.5,24.7,7.5,37.4c-1.3,16-5.9,32.4-13.9,48.8
	c5.3-15.9,8-32.6,7.9-49.3C246.5,101,240.8,79.5,230.5,62z M226.5,57c-0.1-0.1-0.1-0.2-0.1-0.3c0.1,0.1,0.2,0.1,0.3,0.1
	C226.6,56.9,226.6,56.9,226.5,57L226.5,57z M199.5,36.1l0.8-0.2h0.5c0.7,0,1.4,0.3,1.7,1c0,0.1,0.1,0.1,0.1,0.1
	C201.6,36.7,200.6,36.4,199.5,36.1z M222.9,45.8c-3.1-4-6.4-7.7-9.9-11.3c1,0.8,2.1,1.7,3.1,2.6c1.9,2.1,3.6,4.2,5.4,6.5
	c2.8,3.6,5.4,7.3,7.8,11.2C227.3,51.7,225.2,48.7,222.9,45.8L222.9,45.8z M222,37.7c9.7,10.3,17.3,22.4,22.3,35.6
	c-6.5-14.1-15.9-26.6-27.7-36.7c-6.6-7.4-14.1-14-22.4-19.5C204.5,22.3,213.9,29.3,222,37.7L222,37.7z M212.5,33.2
	c-1.4-1-2.7-2.1-4.1-3.1c-9.3-8.5-20-15.3-31.6-20.1c4.1,1.2,8.1,2.7,12,4.5C197.5,19.6,205.5,25.9,212.5,33.2L212.5,33.2z
	 M168.7,7.9c12.5,3.9,24.1,10.2,34.3,18.5c-4.6-3-9.4-5.8-14.4-8.2c-11.4-5.7-23.4-10-35.8-12.9C158.1,5.8,163.5,6.7,168.7,7.9z
	 M147.7,4.2c-1.4-0.3-2.7-0.5-4-0.8c5.3,0.3,10.6,0.9,15.8,2C155.6,4.9,151.7,4.5,147.7,4.2z M137.8,0.7c16.1,0,32.1,3.9,46.4,11.3
	c-4.8-1.8-9.7-3.3-14.7-4.5c-10-3.2-20.4-4.8-30.8-4.8h-0.2c-4.3-0.6-8.6-1-12.9-1.3C129.8,1,133.8,0.7,137.8,0.7z M142.6,4
	C141.3,4,140,4,138.7,4c-6.2,0-12.3,0.4-18.4,1.1c6-1.1,12.1-1.6,18.2-1.6C139.9,3.6,141.3,3.8,142.6,4L142.6,4z M121.9,1.9
	c4,0.1,8,0.4,12.1,0.9c-7.7,0.4-15.4,1.6-22.9,3.6c-6.6,1.1-13.2,2.7-19.6,4.7C101.1,6.6,111.4,3.6,121.9,1.9z M52.3,39.5
	c-4.3,3-8.3,6.3-12.1,9.9c1.3-1.5,2.7-3,4.1-4.5c12.1-13,26.5-23.7,42.3-31.6c5.7-2,11.6-3.6,17.5-4.8C85.8,14.4,68,25,52.3,39.5z
	 M105.5,17.5c0.6-0.4,1.2-0.7,1.9-0.8h0.5c0.2,0,0.4,0.1,0.5,0.1C107.5,17.1,106.5,17.3,105.5,17.5z M129.1,14.6c0.5,0,1,0,1.4,0
	h0.1C130.1,14.6,129.6,14.6,129.1,14.6L129.1,14.6z M138.2,12.9H135c-1.3-0.6-2.8-0.9-4.2-1c-0.8,0-1.7,0-2.5,0.1
	c-1.9,0.2-3.8,0.7-5.5,1.6c-3.9,0.4-7.8,1-11.7,1.6c-0.8-0.7-1.9-1.1-2.9-1.1h-1c-1.9,0.2-3.6,1.3-4.7,2.9
	c-16.3,3.8-31.7,10.3-45.8,19.4C73.3,22,92.1,11.9,111.3,6.9c9.1-1.6,18.3-2.4,27.5-2.4c3,0,6,0.1,8.9,0.3
	c14.1,2.9,27.8,7.7,40.7,14c6.9,3.4,13.4,7.4,19.7,11.9c5.2,4.8,10.1,10,14.4,15.6c2.3,2.9,4.5,6,6.6,9.2c-0.9-1-2.2-1.5-3.5-1.5
	h-0.3c-0.1-0.1-0.1-0.1-0.1-0.2c0.1-0.3,0.1-0.6,0.1-0.9c-0.1-1.3-1.2-2.4-2.9-2.9c-0.1-0.1-0.2-0.2-0.3-0.3c0.1-0.3,0.2-0.7,0.2-1
	c-0.1-1.6-1.8-2.9-4-3.2c-0.5-0.5-0.9-1-1.4-1.5c-0.4-1.2-1.3-2.2-2.5-2.5C195.6,23.4,169.6,12.9,138.2,12.9L138.2,12.9z
	 M170.5,245.3c0.1-0.1,0.3-0.1,0.5-0.2c31-9.7,53.6-34.3,65.6-65.4c0.6-1.2,1.3-2.5,1.9-3.7c7.4-14.5,12.2-30.1,14.2-46.2
	c0,0.5,0.1,1,0.1,1.4c-1.5,32-11.9,61.4-29.6,83.6c-6.8,8.6-14.9,16.1-23.9,22.3c-13.8,7.8-29.6,12.8-47,14.8
	C158.5,250.3,164.6,248.1,170.5,245.3L170.5,245.3z M147.6,253.2c15.4-1.1,30.5-5,44.5-11.5c-15.1,8.5-32.3,12.9-51,12.9h-0.8
	C142.8,254.2,145.2,253.8,147.6,253.2L147.6,253.2z M134.5,253.7c2.6,0,5.1-0.1,7.7-0.2c-2.1,0.3-4.2,0.7-6.4,0.9
	c-3.4-0.1-6.8-0.5-10.2-0.9C128.6,253.7,131.6,253.8,134.5,253.7L134.5,253.7z M131.1,254.8c-16,0.8-32.1-2.2-46.7-8.8
	c11,3.5,22.3,5.8,33.8,6.9C122.4,253.8,126.7,254.4,131.1,254.8L131.1,254.8z M4,143.9c0-1.2,0-2.3,0.1-3.4c1.6,8,3.8,15.8,6.6,23.5
	c1.2,3.4,2.5,6.6,4,9.9c-4.7-8.7-8.2-18-10.7-27.6V143.9z M4.1,149.2c3.3,11.8,8.3,23,14.7,33.4c12.9,25.2,32,45.8,54.3,58.5
	c1.8,0.8,3.6,1.5,5.5,2.2c-22-11.1-41.2-29.9-54.9-53.3c6.1,8.6,13,16.5,20.6,23.8c19.8,18.7,43.3,31.7,67.4,37.7
	c-11.3-1.5-22.4-4.3-33.1-8.2c-1.8-0.7-3.7-1.4-5.5-2.2l0,0c-10.9-4.5-21.1-10.6-30.4-17.9c-16-12.7-27.3-28.4-33.6-46.4
	C6.1,167.9,4.5,158.6,4.1,149.2L4.1,149.2z M43.6,225.9c-9.6-7.6-17.9-16.7-24.4-27.1c6.3,9.5,14.1,17.9,23.1,25
	c10.9,8.6,23,15.4,36,20.1l0,0c0.2,0.1,0.4,0.2,0.6,0.3c5.3,2.6,10.8,4.9,16.4,6.6C75.8,246,58.1,237.5,43.6,225.9L43.6,225.9z
	 M128.5,255.6c-6.2-0.3-12.5-0.9-18.6-1.8C116.1,254.7,122.3,255.3,128.5,255.6z M220.8,224.7c-21.3,20.3-50.8,31-85.4,31
	c-2.3,0-4.7-0.1-6.9-0.1c2.5-0.1,4.9-0.2,7.3-0.5c1.8,0.1,3.5,0.1,5.3,0.1c22,0,41.9-6,59-17.7c33.5-19.2,53.6-54.3,53.6-98.8
	c0-2.5-0.1-4.9-0.2-7.4v-0.6l0,0c0.2,3.6,0.3,7.1,0.3,10.7C253.8,175.3,242.4,204.2,220.8,224.7z"/>
</svg>
