<svg xmlns="http://www.w3.org/2000/svg" viewBox="1371.82 3146.473 145.519 105.327">
  <defs>
    <style>
      .cls-1 {
        fill: #fff;
      }
    </style>
  </defs>
  <g id="Groupe_21" data-name="Groupe 21" transform="translate(-49 169)">
    <g id="Groupe_19" data-name="Groupe 19" transform="matrix(0.978, 0.208, -0.208, 0.978, 1440.384, 2979.3)">
      <path id="Tracé_119" data-name="Tracé 119" class="cls-1" d="M27.5,94.1h0c-2.9,0-17.7-.4-19.8-5.3l-.1-.3L2.5,32.9A21.209,21.209,0,0,1,0,23.2a20.02,20.02,0,0,1,1.1-6.4L.1,6l.1-.2C.4,4.8,3.2,0,27.5,0s27,4.8,27.4,5.7l.1.2L54,16.7a20.02,20.02,0,0,1,1.1,6.4,20.59,20.59,0,0,1-2.5,9.7L47.5,88.5l-.1.1c-2.2,5.1-17,5.5-19.9,5.5Zm-17.9-6c1.5,2.8,11.7,3.9,17.9,4,6.2-.1,16.4-1.2,17.9-4l5.1-55.8.1-.2A17.755,17.755,0,0,0,53,23.2a17.019,17.019,0,0,0-1-5.9l-.1-.3,1-10.8C52.3,5.6,48.4,2,27.5,2,6.7,2,2.7,5.6,2.1,6.3l1,10.8-.1.1a17.019,17.019,0,0,0-1,5.9A17.755,17.755,0,0,0,4.4,32l.1.2Z"/>
      <path id="Tracé_120" data-name="Tracé 120" class="cls-1" d="M5.1,13.6l.6,4.7a16.106,16.106,0,0,0-.9,5.4,17.431,17.431,0,0,0,2.1,8.1l4.4,50.7c1.7,3.9,16.2,4.1,16.2,4.1s14.5-.1,16.2-4.1l4.4-50.7a16.254,16.254,0,0,0,1.3-13.5l.6-4.7s-4.2-1.6-22.3-.9C19.3,13.1,5.1,13.6,5.1,13.6Z"/>
    </g>
    <g id="Groupe_20" data-name="Groupe 20" transform="matrix(0.966, -0.259, 0.259, 0.966, 1488.761, 2991.734)">
      <path id="Tracé_121" data-name="Tracé 121" class="cls-1" d="M27.5,94.1h0c-2.9,0-17.7-.4-19.8-5.3l-.1-.3L2.5,32.9A21.209,21.209,0,0,1,0,23.2a20.02,20.02,0,0,1,1.1-6.4L.1,6l.1-.2C.4,4.8,3.2,0,27.5,0s27,4.8,27.4,5.7l.1.2L54,16.7a20.02,20.02,0,0,1,1.1,6.4,20.59,20.59,0,0,1-2.5,9.7L47.5,88.5l-.1.1c-2.2,5.1-17,5.5-19.9,5.5Zm-17.9-6c1.5,2.8,11.7,3.9,17.9,4,6.2-.1,16.4-1.2,17.9-4l5.1-55.8.1-.2A17.755,17.755,0,0,0,53,23.2a17.019,17.019,0,0,0-1-5.9l-.1-.3,1-10.8C52.3,5.6,48.4,2,27.5,2,6.7,2,2.7,5.6,2.1,6.3l1,10.8-.1.1a17.019,17.019,0,0,0-1,5.9A17.755,17.755,0,0,0,4.4,32l.1.2Z"/>
      <path id="Tracé_122" data-name="Tracé 122" class="cls-1" d="M5.1,13.6l.6,4.7a16.106,16.106,0,0,0-.9,5.4,17.431,17.431,0,0,0,2.1,8.1l4.4,50.7c1.7,3.9,16.2,4.1,16.2,4.1s14.5-.1,16.2-4.1l4.4-50.7a16.254,16.254,0,0,0,1.3-13.5l.6-4.7s-4.2-1.6-22.3-.9C19.3,13.1,5.1,13.6,5.1,13.6Z"/>
    </g>
  </g>
</svg>
