<?xml version="1.0" encoding="utf-8"?>
<!-- Generator: Adobe Illustrator 25.3.1, SVG Export Plug-In . SVG Version: 6.00 Build 0)  -->
<svg version="1.1" id="Calque_1" xmlns="http://www.w3.org/2000/svg" xmlns:xlink="http://www.w3.org/1999/xlink" x="0px" y="0px"
	 viewBox="0 0 83.9 76.3" style="enable-background:new 0 0 83.9 76.3;" xml:space="preserve">
<style type="text/css">
	.st0{fill:#FFFFFF;}
</style>
<g>
	<g>
		<path class="st0" d="M22.7,58.9c-1.4-1.1-3.2-2.2-5.3-3.1c-0.1-0.3-0.2-0.6-0.2-0.9c0-0.6,0.5-2.2,1.4-4.4
			c0.9-0.1,1.5-0.5,1.7-1.1c0-0.1,0.1-0.2,0.1-0.3c7.3,0.1,14.3-5.1,16.8-13.1c0.5-1.7,0.8-3.4,0.9-5.1c0,0,0,0,0,0l0,0
			c0-0.3,0-0.6,0-0.9l0.1-5.1c0.1-3.2,0.6-6.4,1.5-9.5l0.9-2.8c0.5-0.2,0.8-0.4,0.9-0.8c0.3-0.9-0.8-2-3.1-3.4
			c-2.2-1.2-5.2-2.5-8.5-3.5c-3.3-1-6.5-1.7-9-1.9c-2.7-0.2-4.2,0.1-4.5,1c-0.1,0.3,0,0.7,0.3,1.1l-0.9,2.8c-1,3.1-2.4,6-4.2,8.7
			l-2.9,4.3c-0.2,0.3-0.3,0.5-0.5,0.8l0,0c0,0,0,0,0,0c-0.9,1.5-1.7,3-2.2,4.7c-2.5,8,0.3,16.3,6.3,20.4c-0.1,0.1-0.1,0.2-0.1,0.3
			c-0.2,0.6,0.1,1.2,0.7,1.9c-0.6,2.3-1,3.9-1.4,4.4c-0.2,0.3-0.4,0.5-0.7,0.7c-2.2-0.4-4.3-0.6-6.1-0.5c-2.8,0.2-4.6,1.1-5.1,2.6
			c-0.5,1.5,0.5,3.3,2.7,5c2.1,1.7,5.2,3.3,8.6,4.3c3.4,1.1,6.8,1.5,9.5,1.3c2.8-0.2,4.6-1.1,5.1-2.6C25.8,62.4,24.9,60.6,22.7,58.9
			z M16.9,8l0.8-2.5c0.1,0.1,0.2,0.2,0.3,0.3c0.3,0.2,0.6,0.4,0.9,0.6c0.6,0.4,1.3,0.7,1.9,0.9c0.6,0.3,1.3,0.5,2,0.8
			c0.7,0.2,1.3,0.5,2,0.7c-0.7-0.3-1.3-0.5-1.9-0.8c-0.6-0.3-1.3-0.6-1.9-1c-0.6-0.3-1.2-0.7-1.8-1.1c-0.3-0.2-0.6-0.4-0.8-0.6
			c-0.2-0.2-0.4-0.4-0.6-0.5c0-0.2-0.1-0.4-0.2-0.6c0.5-0.1,1.5-0.3,3.6,0c2.3,0.3,5.2,0.9,8.1,1.8C32.3,6.8,35,7.9,37,9
			c1.8,1,2.6,1.7,2.9,2.1c-0.3,0.1-0.6,0.4-0.7,0.7l-0.1,0.2c0,0,0,0,0,0c-0.3,0-0.7,0-1,0c-0.7,0-1.4,0-2.1-0.1
			c-0.7-0.1-1.4-0.2-2.1-0.3c-0.7-0.1-1.4-0.3-2.1-0.4c0.7,0.2,1.3,0.4,2,0.6c0.7,0.2,1.4,0.3,2.1,0.5c0.7,0.1,1.4,0.2,2.1,0.3
			c0.3,0,0.6,0,0.9,0.1l-0.6,2.1c-1,3.2-1.5,6.5-1.6,9.9l-0.1,5.1c0,0,0,0,0,0c0,0.3,0,0.6,0,0.9c0,0,0,0,0,0c0,0,0,0,0,0
			c-0.1,1.6-0.4,3.2-0.8,4.8c-1.3,4.3-4.1,7.9-7.8,10.1c-2.6,1.6-5.5,2.3-8.3,2.1c-0.1,0-0.3,0-0.4,0c-0.2,0-0.3,0-0.5-0.1
			c-0.5-0.1-0.9-0.1-1.4-0.3c-0.3-0.1-0.6-0.2-0.9-0.3c-0.3-0.1-0.6-0.2-0.9-0.3c-0.4-0.2-0.8-0.4-1.3-0.6c-0.2-0.1-0.3-0.2-0.5-0.2
			c-0.1-0.1-0.3-0.1-0.4-0.2c-2.4-1.5-4.4-3.7-5.7-6.5c-1.8-3.9-2-8.4-0.7-12.7c0.5-1.6,1.2-3,2-4.4c0,0,0,0,0,0c0,0,0,0,0,0
			c0.2-0.2,0.3-0.5,0.5-0.7c0,0,0,0,0,0l2.9-4.3C14.4,14.2,15.9,11.2,16.9,8z M13.1,47c0.9,0.5,1.9,1,3,1.3c1.1,0.3,2.1,0.5,3.2,0.6
			c0,0,0,0.1,0,0.1c0,0.1-0.3,0.3-0.8,0.4c0,0,0,0,0,0c0,0-0.1,0-0.1,0l-0.4,0.1l0,0.1l0,0l-0.1,0.4c0,0,0,0,0,0.1L17.1,50l0.5,0.2
			c-0.1,0.2-0.2,0.5-0.3,0.7c-0.7,1.9-1.1,3.2-1.1,3.8c0,0.2,0,0.4,0,0.5c0,0,0,0,0,0c0,0,0,0,0,0c0,0.1,0,0.2,0.1,0.3
			c0,0,0,0,0,0.1c0,0.1,0.1,0.2,0.1,0.3c0,0,0,0,0,0c0,0,0,0,0,0c0,0,0,0,0,0c0.1,0.2,0.2,0.4,0.3,0.6c0,0.1,0.1,0.1,0.1,0.2
			c0,0,0,0,0,0c0.1,0.2,0.1,0.3,0.1,0.3c0.2,0.1,0.3,0.1,0.4,0.2c0.1,0,0.2,0.1,0.3,0.1c0.1,0,0.1,0.1,0.2,0.1l0,0c0,0,0,0.1,0,0.1
			c0,0,0,0,0,0c0.1,0.1,0.1,0.2,0.1,0.4c0,0.1,0,0.1,0,0.2c0,0.1-0.1,0.1-0.1,0.2c-0.1,0.1-0.2,0.2-0.4,0.3
			c-0.2,0.1-0.4,0.2-0.6,0.2c-0.4,0.1-0.8,0.1-1.2,0.2c-0.4,0-0.9,0-1.3,0c0.4,0.1,0.8,0.2,1.3,0.2c0.4,0.1,0.9,0.1,1.3,0
			c0.2,0,0.4-0.1,0.7-0.1c0.2-0.1,0.5-0.2,0.6-0.4c0.2-0.2,0.3-0.5,0.4-0.7c0,0,0-0.1,0-0.1c0.1,0.2,0.1,0.4,0.1,0.6
			c0,0.1,0,0.2-0.1,0.3c0,0-0.1,0.1-0.1,0.2c0,0-0.1,0.1-0.1,0.1c-0.2,0.2-0.4,0.3-0.7,0.4c-0.3,0.1-0.6,0.2-0.8,0.3
			c0.3,0,0.6,0,0.9-0.1c0.3-0.1,0.6-0.2,0.9-0.3c0.1,0,0.1-0.1,0.2-0.1c0.1-0.1,0.1-0.1,0.2-0.2c0.1-0.1,0.2-0.3,0.3-0.5
			c0-0.1,0.1-0.2,0.1-0.4c0.1,0,0.2,0.1,0.2,0.1c0.5,0.3,1,0.5,1.4,0.8c0.5,0.3,0.9,0.6,1.3,1c0.4,0.3,0.8,0.7,1.1,1.2
			c0.2,0.2,0.3,0.5,0.4,0.7c0.1,0.3,0.1,0.5,0,0.8c0.1-0.3,0.1-0.6,0.1-0.9c0-0.3-0.1-0.6-0.3-0.8c-0.1-0.3-0.3-0.5-0.5-0.7
			c-0.2-0.2-0.4-0.5-0.6-0.7c-0.4-0.4-0.8-0.8-1.3-1.1c-0.5-0.3-0.9-0.7-1.4-1c-0.1-0.1-0.3-0.2-0.4-0.2c1,0.6,2,1.2,2.8,1.9
			c2,1.6,2.9,3.2,2.5,4.4c-0.4,1.2-2,2-4.5,2.2c-2.6,0.2-5.9-0.3-9.3-1.3c-3.3-1-6.3-2.5-8.4-4.2c-2-1.6-2.9-3.2-2.5-4.4
			c0.4-1.2,2-2,4.5-2.2c0.9-0.1,2-0.1,3,0c-0.3,0-0.6,0-0.9,0c-1.2,0-2.3,0.1-3.4,0.4c-0.3,0.1-0.6,0.2-0.8,0.3
			c-0.3,0.1-0.5,0.2-0.8,0.4c-0.2,0.2-0.5,0.4-0.7,0.6c-0.2,0.2-0.3,0.5-0.4,0.8C0.8,56,1,55.7,1.2,55.6s0.4-0.3,0.7-0.5
			c0.5-0.2,1-0.4,1.6-0.5c0.5-0.1,1.1-0.1,1.7-0.1c0.6,0,1.1,0,1.7,0.1c0.3,0,0.7,0.1,1,0.1c0,0.1-0.1,0.1-0.1,0.2c0,0,0,0.1,0,0.1
			l0,0.1l0,0.1c0,0,0,0,0,0.1l0,0.1c0,0.1,0,0.2,0,0.3l0,0.1c0,0,0,0.1,0,0.1c0.1,0.3,0.3,0.6,0.5,0.8c0.2,0.2,0.5,0.4,0.7,0.6
			c-0.2-0.2-0.4-0.5-0.6-0.7c-0.2-0.3-0.3-0.5-0.3-0.8c0,0,0-0.1,0-0.1l0-0.1c0-0.1,0-0.1,0-0.2l0-0.1c0,0,0,0,0,0l0,0l0-0.1
			c0,0,0,0,0-0.1c0.1-0.2,0.2-0.3,0.4-0.4c0,0,0,0,0,0c0,0-0.1,0.1-0.1,0.1c-0.1,0.3-0.2,0.6-0.1,0.8c0.1,0.3,0.2,0.5,0.3,0.7
			c0.1,0.2,0.3,0.4,0.5,0.5c0.3,0.3,0.7,0.5,1.1,0.7c0.4,0.2,0.8,0.4,1.2,0.5c-0.4-0.2-0.7-0.4-1.1-0.7C10,57.2,9.7,57,9.5,56.7
			c-0.1-0.2-0.2-0.3-0.3-0.5C9,56,9,55.8,9,55.7c0-0.1,0-0.2,0-0.2c0-0.1,0.1-0.1,0.1-0.2c0.1-0.1,0.2-0.2,0.3-0.3c0,0,0,0,0.1,0
			l0,0c0.1,0,0.2,0,0.3,0c0.1,0,0.2,0,0.3,0.1c0,0,0.1,0,0.1,0c0.1,0,0.2,0.1,0.4,0.1c0-0.1,0.1-0.1,0.3-0.2c0.1,0,0.1-0.1,0.2-0.1
			c0.2-0.1,0.3-0.2,0.5-0.3c0,0,0,0,0,0c0,0,0,0,0,0c0,0,0,0,0,0c0.1-0.1,0.1-0.1,0.2-0.2c0,0,0,0,0,0c0.1-0.1,0.1-0.1,0.2-0.2l0,0
			c0,0,0,0,0,0c0.1-0.1,0.2-0.3,0.3-0.4c0.3-0.6,0.8-1.8,1.2-3.8c0.1-0.2,0.1-0.5,0.2-0.7l0.5,0.1l-0.5-0.4c0,0,0,0,0-0.1l0.1-0.4
			l0,0L13.7,48c0,0,0,0,0,0c0,0,0,0,0,0l-0.1-0.1C13.2,47.5,13,47.2,13.1,47C13.1,47,13.1,47,13.1,47z"/>
		<path class="st0" d="M16.1,64.9c-0.6-0.1-1.1-0.2-1.7-0.3c-0.5-0.1-1.1-0.2-1.6-0.4c-0.5-0.1-1.1-0.3-1.6-0.5
			c-1.1-0.3-2.1-0.7-3.1-1.2c-1-0.4-2-1-3-1.6c-0.5-0.3-0.9-0.6-1.4-1c-0.4-0.3-0.9-0.7-1.2-1.1c-0.4-0.4-0.7-0.9-1-1.4
			c-0.1-0.2-0.2-0.5-0.3-0.8c0-0.3,0-0.6,0-0.8c-0.1,0.3-0.1,0.6-0.1,0.8c0,0.3,0.1,0.6,0.2,0.8c0.2,0.5,0.5,1,0.9,1.5
			c0.7,0.9,1.6,1.6,2.6,2.2c0.5,0.3,1,0.6,1.5,0.9c0.5,0.3,1,0.5,1.5,0.8c1,0.5,2.1,0.9,3.2,1.2c2.2,0.7,4.4,1.1,6.7,1.2
			c1.1,0,2.3-0.1,3.4-0.4c0.1,0,0.3-0.1,0.4-0.1l0.2-0.1l0.2-0.1c0.1-0.1,0.3-0.1,0.4-0.2l0.2-0.1c0,0,0.1,0,0.1-0.1l0.1-0.1
			c0.5-0.3,0.9-0.8,1-1.3c-0.1,0.3-0.3,0.5-0.4,0.7c-0.2,0.2-0.4,0.4-0.7,0.5l-0.1,0.1c0,0-0.1,0-0.1,0l-0.2,0.1
			c-0.1,0.1-0.3,0.1-0.4,0.2l-0.2,0.1l-0.2,0.1c-0.1,0-0.3,0.1-0.4,0.1c-0.5,0.1-1.1,0.2-1.7,0.2c-0.6,0-1.1,0-1.7,0
			C17.2,65.1,16.7,65,16.1,64.9z"/>
		<path class="st0" d="M14.8,62.1c0.2,0.1,0.5,0.1,0.7,0.1c0.2,0,0.5,0.1,0.7,0.1c0.5,0.1,0.9,0.1,1.4,0.1c0.5,0,0.9,0,1.4-0.1
			c0.2,0,0.5-0.1,0.7-0.2c0.1-0.1,0.2-0.1,0.3-0.3c0-0.1,0.1-0.1,0.1-0.2c0-0.1,0-0.2-0.1-0.2c-0.1-0.1-0.2-0.2-0.3-0.3
			c-0.1-0.1-0.2-0.2-0.3-0.2c-0.2-0.1-0.4-0.2-0.6-0.3c0.2,0.2,0.4,0.3,0.5,0.5c0.1,0.1,0.2,0.2,0.2,0.2c0.1,0.1,0.1,0.2,0.2,0.3
			c0,0.1,0,0.1,0,0.2c0,0.1-0.1,0.1-0.2,0.2C19.4,61.9,19.2,62,19,62c-0.4,0.1-0.9,0.1-1.4,0.1c-0.2,0-0.5,0-0.7,0
			c-0.2,0-0.5,0-0.7-0.1c-0.2,0-0.5-0.1-0.7-0.1c-0.2,0-0.5-0.1-0.7-0.1c-0.5-0.1-0.9-0.2-1.3-0.3c-0.9-0.2-1.8-0.5-2.6-0.8
			c0.8,0.4,1.7,0.8,2.6,1.1C13.9,61.8,14.4,62,14.8,62.1z"/>
		<path class="st0" d="M14.8,52.2c0.1,0,0.2,0.1,0.3,0.3c0.1,0.1,0.2,0.3,0.3,0.5c0-0.2,0-0.4,0-0.6c0-0.1-0.1-0.2-0.2-0.3
			c0,0-0.1-0.1-0.1-0.1l-0.1,0l0,0l0,0l-0.1,0c0,0-0.1,0-0.1,0c-0.1,0-0.1,0-0.2,0c-0.1,0-0.1,0-0.2,0.1c-0.1,0-0.1,0.1-0.1,0.1
			c-0.2,0.1-0.3,0.3-0.4,0.5c0.2-0.1,0.4-0.2,0.5-0.2C14.6,52.1,14.7,52.1,14.8,52.2z"/>
		<path class="st0" d="M28.4,44c0.8-0.5,1.6-1.1,2.3-1.7c0.7-0.6,1.3-1.4,1.9-2.1c1.1-1.5,2-3.3,2.5-5.1c0.3-0.9,0.5-1.8,0.6-2.8
			c0.1-0.9,0.2-1.9,0.3-2.8c-0.2,0.9-0.4,1.8-0.6,2.7c-0.2,0.9-0.5,1.8-0.8,2.6c-0.6,1.7-1.5,3.4-2.6,4.8c-0.1,0.2-0.3,0.4-0.4,0.5
			c-0.1,0.2-0.3,0.4-0.4,0.5l-0.5,0.5l-0.5,0.5c-0.7,0.6-1.4,1.2-2.1,1.8c-1.5,1.1-3.1,1.9-4.9,2.7C25,45.8,26.8,45.1,28.4,44z"/>
		<path class="st0" d="M17.7,43.2c0.8,0.2,1.6,0.5,2.3,0.9c0.7,0.4,1.5,0.8,2.1,1.3c-0.5-0.7-1.2-1.2-1.9-1.7
			c-0.7-0.5-1.5-0.8-2.4-1.1c-0.8-0.3-1.7-0.4-2.6-0.4c-0.9,0-1.7,0-2.6,0.3c0.9,0,1.7,0.1,2.5,0.2C16.1,42.8,16.9,42.9,17.7,43.2z"
			/>
		<path class="st0" d="M40.1,7.5l0.6,0.3C40.4,7.6,40.1,7.5,40.1,7.5z"/>
		<path class="st0" d="M19,17.4C19,17.4,19,17.4,19,17.4C19.1,17.4,19,17.4,19,17.4C19,17.4,19,17.4,19,17.4
			C19,17.4,19,17.4,19,17.4z"/>
		<path class="st0" d="M29.5,24.4L29.5,24.4L29.5,24.4C29.6,24.5,29.6,24.5,29.5,24.4L29.5,24.4C29.6,24.5,29.6,24.5,29.5,24.4
			C29.6,24.4,29.6,24.4,29.5,24.4C29.6,24.4,29.6,24.4,29.5,24.4C29.5,24.4,29.5,24.4,29.5,24.4C29.5,24.4,29.5,24.4,29.5,24.4
			C29.5,24.4,29.5,24.4,29.5,24.4z"/>
		<polygon class="st0" points="10.6,39.2 10.6,39.2 10.6,39.2 		"/>
		<polygon class="st0" points="10.5,39.2 10.5,39.3 10.5,39.3 		"/>
		<path class="st0" d="M10.3,38.8L10.3,38.8C10.3,38.8,10.3,38.8,10.3,38.8C10.3,38.8,10.3,38.8,10.3,38.8z"/>
		<polygon class="st0" points="19.7,41.1 19.7,41.1 19.7,41.1 		"/>
		<polygon class="st0" points="19.8,41.1 19.8,41.1 19.8,41.1 		"/>
		<polygon class="st0" points="19.7,41.5 19.7,41.5 19.7,41.5 19.7,41.5 		"/>
	</g>
	<g>
		<g>
			<path class="st0" d="M19.6,28.8c0.1-0.2,0.3-0.4,0.5-0.3c0.2,0.1,0.4,0.3,0.3,0.5c-0.1,0.2-0.3,0.4-0.5,0.3
				C19.7,29.3,19.6,29,19.6,28.8"/>
		</g>
		<g>
			<path class="st0" d="M19.8,27.9c0-0.1,0.2-0.2,0.3-0.2c0.1,0,0.2,0.2,0.2,0.3c0,0.1-0.2,0.2-0.3,0.2C19.8,28.2,19.8,28,19.8,27.9
				"/>
		</g>
		<g>
			<path class="st0" d="M20.1,27c0.1-0.2,0.2-0.3,0.4-0.2c0.2,0.1,0.3,0.2,0.2,0.4c-0.1,0.2-0.2,0.3-0.4,0.2
				C20.1,27.4,20,27.2,20.1,27"/>
		</g>
		<g>
			<path class="st0" d="M21.5,27.9c0-0.2-0.2-0.4-0.4-0.4c-0.2,0-0.4,0.2-0.4,0.4c0,0.2,0.2,0.4,0.4,0.4
				C21.3,28.4,21.5,28.2,21.5,27.9"/>
		</g>
		<g>
			<path class="st0" d="M21.7,27c0-0.2-0.1-0.3-0.3-0.3c-0.2,0-0.3,0.1-0.3,0.3c0,0.2,0.1,0.3,0.3,0.3C21.5,27.2,21.7,27.1,21.7,27"
				/>
		</g>
		<g>
			<path class="st0" d="M21.7,26.1c0-0.2-0.1-0.3-0.3-0.3c-0.2,0-0.3,0.1-0.3,0.3c0,0.2,0.1,0.3,0.3,0.3
				C21.5,26.4,21.7,26.3,21.7,26.1"/>
		</g>
		<g>
			<path class="st0" d="M19.4,30.4C19.4,30.4,19.4,30.4,19.4,30.4c-0.1-0.1-0.2-0.1-0.2,0c0,0.1,0.1,0.5,0.4,0.8
				c0.1,0.2,0.3,0.4,0.5,0.5c0.3,0.2,1.2,0.6,2.2,0.6c0.1,0,0.1,0,0.2,0c0.3,0,0.5,0,0.8-0.2c0.1,0,0.2-0.1,0.3-0.2c0,0,0-0.1,0-0.1
				l1-3.2c0,0,0.1,0,0.1,0c0.1,0,0.2,0.1,0.3,0.1c1.1,0.4,1.8,0.1,1.9,0c0.7-0.3,1.2-1,1.6-1.8c0.3-0.9,0.3-1.8,0-2.6
				c-0.2-0.5-0.5-0.8-0.9-0.9c-1-0.4-2.5,0.2-2.5,0.2l0,0l0,0c0,0-0.4,0.2-1.1,0.2c-0.7,0-1.8-0.1-3.2-0.9c0,0,0,0,0,0l0.8-2.5
				c2.6,1.2,4.3,0.8,4.9,0.6c0,0.1,0,0.2-0.1,0.4c-0.1,0.2-0.2,0.4-0.2,0.4c0,0-0.1,0.1-0.1,0.2c0,0.1,0.1,0.1,0.1,0.2
				c0,0,0.1,0,0.1,0c0.1,0,0.2,0,0.3-0.1c0,0,0.2-0.2,0.3-0.6c0.1-0.4,0.1-0.7-0.1-1.1c0,0,0,0,0,0c0-0.1-0.1-0.2-0.3-0.3
				c-0.1,0-0.2,0-0.3,0c-0.1,0.1-0.5,0.2-1.2,0.2c-0.8,0-2-0.1-3.6-1L21,19.2l-2.9,9.1c-0.1,0.2,0.1,0.4,0.3,0.5
				c0.2,0.1,0.4-0.1,0.5-0.3l1.6-5c2.9,1.5,4.4,0.7,4.9,0.6c0.3-0.1,1.2-0.5,1.9-0.2c0.2,0.1,0.4,0.3,0.5,0.5c0.3,0.6,0.3,1.4,0,2.1
				c-0.2,0.7-0.7,1.2-1.2,1.4l0,0l0,0c0,0-0.2,0.1-0.5,0.1c-0.2,0-0.6,0-1-0.2c-0.1,0-0.2-0.1-0.3-0.1l0.6-1.9
				c0.1-0.2-0.1-0.4-0.3-0.5c-0.2-0.1-0.4,0.1-0.5,0.3l-0.6,1.9c-0.6-0.2-1.1-0.4-1.5-0.5c-0.1,0.2-0.2,0.2,0,0.5
				c0.2,0.2,0.4,0.1,0.6,0.2c0.2,0.1,0.5,0.3,0.7,0.4c0,0-0.2,0.8-0.3,1.1l-0.2,0.7C23.2,30.4,22.8,32.7,19.4,30.4z"/>
		</g>
	</g>
</g>
<path class="st0" d="M8.7,24.6c0,0,6.4,6.9,11.6,7.2c5.2,0.3,15.1-2.4,16.1-2.2l0,1.8c0,0-4.9,20-19.7,14.4
	C2.6,40.6,8.7,24.6,8.7,24.6L8.7,24.6z"/>
<g>
	<g>
		<path class="st0" d="M78.6,58.7c-1.8-0.1-3.9,0.1-6.1,0.5c-0.3-0.2-0.5-0.4-0.7-0.7c-0.3-0.5-0.8-2.1-1.4-4.4
			c0.6-0.6,0.9-1.3,0.7-1.9c0-0.1-0.1-0.2-0.1-0.3c6-4.1,8.7-12.4,6.2-20.4c-0.5-1.7-1.3-3.2-2.2-4.7c0,0,0,0,0,0l0,0
			c-0.2-0.3-0.3-0.5-0.5-0.8l-2.9-4.3c-1.8-2.7-3.3-5.6-4.3-8.7l-0.9-2.8c0.3-0.4,0.4-0.8,0.3-1.1C66.3,8.3,64.7,8,62,8.2
			c-2.5,0.2-5.7,1-9,2c-3.3,1.1-6.3,2.3-8.5,3.6c-2.3,1.4-3.4,2.5-3.1,3.4c0.1,0.3,0.4,0.6,0.9,0.8l0.9,2.8c1,3.1,1.5,6.3,1.6,9.5
			l0.1,5.1c0,0.3,0,0.6,0,0.9l0,0c0,0,0,0,0,0c0.1,1.7,0.4,3.4,0.9,5.1c2.6,8,9.6,13.1,16.9,13c0,0.1,0,0.2,0.1,0.3
			c0.2,0.6,0.8,1,1.7,1.1c0.9,2.2,1.4,3.8,1.5,4.4c0,0.4-0.1,0.7-0.2,0.9c-2.1,0.9-3.9,2-5.3,3.1c-2.2,1.8-3.1,3.6-2.6,5.1
			c0.5,1.5,2.3,2.4,5.1,2.6c2.7,0.2,6.1-0.3,9.5-1.4c3.4-1.1,6.4-2.6,8.5-4.4c2.2-1.8,3.1-3.6,2.6-5.1
			C83.2,59.8,81.4,58.9,78.6,58.7z M44.5,20.4l-0.8-2.5c0.1,0,0.3,0,0.4,0c0.4,0,0.7,0,1.1-0.1c0.7-0.1,1.4-0.2,2.1-0.3
			c0.7-0.1,1.4-0.3,2.1-0.5c0.7-0.2,1.4-0.4,2-0.6c-0.7,0.2-1.4,0.3-2.1,0.4c-0.7,0.1-1.4,0.2-2.1,0.3c-0.7,0.1-1.4,0.1-2.1,0.1
			c-0.3,0-0.7,0-1,0c-0.3,0-0.5-0.1-0.8-0.1c-0.1-0.2-0.3-0.3-0.5-0.4c0.3-0.4,1.1-1.1,2.9-2.1c2-1.1,4.8-2.2,7.6-3.2
			c2.9-0.9,5.8-1.6,8.1-1.9c2-0.3,3.1-0.1,3.6,0c-0.2,0.3-0.3,0.6-0.2,1l0.1,0.2c0,0,0,0,0,0c-0.3,0.2-0.5,0.4-0.8,0.6
			c-0.6,0.4-1.2,0.8-1.8,1.1c-0.6,0.3-1.2,0.7-1.9,1c-0.6,0.3-1.3,0.6-1.9,0.9c0.7-0.2,1.3-0.4,2-0.7c0.7-0.2,1.3-0.5,2-0.8
			c0.6-0.3,1.3-0.6,1.9-1c0.2-0.1,0.5-0.3,0.7-0.5l0.7,2.1c1.1,3.2,2.6,6.2,4.4,9l2.9,4.3c0,0,0,0,0,0c0.2,0.2,0.3,0.5,0.5,0.7
			c0,0,0,0,0,0c0,0,0,0,0,0c0.9,1.4,1.6,2.8,2.1,4.4c1.4,4.3,1.2,8.8-0.6,12.7c-1.3,2.8-3.2,5-5.6,6.5c-0.1,0.1-0.2,0.2-0.4,0.2
			c-0.2,0.1-0.3,0.2-0.5,0.3c-0.4,0.2-0.8,0.4-1.3,0.6c-0.3,0.1-0.6,0.2-0.9,0.3c-0.3,0.1-0.6,0.2-0.9,0.3c-0.4,0.1-0.9,0.2-1.4,0.3
			c-0.2,0-0.3,0-0.5,0.1c-0.1,0-0.3,0-0.4,0c-2.8,0.2-5.7-0.5-8.4-2c-3.7-2.2-6.5-5.7-7.9-10c-0.5-1.6-0.8-3.2-0.9-4.8c0,0,0,0,0,0
			c0,0,0,0,0,0c0-0.3,0-0.6,0-0.9c0,0,0,0,0,0l-0.1-5.1C46.1,27,45.5,23.6,44.5,20.4z M63.9,54.5c1.1-0.1,2.1-0.3,3.2-0.7
			c1.1-0.3,2-0.8,3-1.3c0,0,0,0,0,0.1c0,0.1-0.1,0.4-0.5,0.8c0,0,0,0,0,0c0,0,0,0-0.1,0.1l-0.3,0.3l0,0.1l0,0l0.1,0.4c0,0,0,0,0,0.1
			l-0.5,0.4l0.5-0.1c0.1,0.2,0.1,0.5,0.2,0.7c0.5,2,0.9,3.2,1.3,3.8c0.1,0.2,0.2,0.3,0.3,0.4c0,0,0,0,0,0c0,0,0,0,0,0
			c0.1,0.1,0.1,0.1,0.2,0.2c0,0,0,0,0,0c0.1,0.1,0.1,0.1,0.2,0.2c0,0,0,0,0,0c0,0,0,0,0,0c0,0,0,0,0,0c0.2,0.1,0.4,0.2,0.5,0.3
			c0.1,0,0.1,0.1,0.2,0.1c0,0,0,0,0,0c0.2,0.1,0.2,0.2,0.3,0.2c0.2,0,0.3-0.1,0.5-0.1c0.1,0,0.2,0,0.3-0.1c0.1,0,0.2,0,0.2,0l0,0
			c0,0,0.1,0,0.1,0.1c0,0,0,0,0,0c0.1,0.1,0.2,0.1,0.3,0.2c0,0.1,0.1,0.1,0.1,0.2c0,0.1,0,0.1,0,0.2c0,0.2-0.1,0.3-0.1,0.5
			c-0.1,0.2-0.2,0.3-0.3,0.5c-0.3,0.3-0.6,0.6-0.9,0.8c-0.3,0.3-0.7,0.5-1.1,0.7c0.4-0.2,0.8-0.3,1.2-0.5c0.4-0.2,0.8-0.4,1.1-0.7
			c0.2-0.1,0.3-0.3,0.5-0.5c0.1-0.2,0.3-0.4,0.3-0.7c0.1-0.3,0-0.6-0.1-0.8c0,0,0-0.1-0.1-0.1c0.2,0.1,0.3,0.2,0.4,0.4
			c0.1,0.1,0.1,0.2,0.1,0.3c0,0.1,0,0.1,0,0.2c0,0.1,0,0.1,0,0.2c-0.1,0.3-0.2,0.5-0.3,0.8c-0.2,0.2-0.3,0.5-0.5,0.7
			c0.2-0.2,0.5-0.4,0.7-0.6c0.2-0.2,0.4-0.5,0.5-0.8c0-0.1,0.1-0.2,0.1-0.2c0-0.1,0-0.2,0-0.3c0-0.2,0-0.4-0.1-0.5
			c0-0.1-0.1-0.2-0.2-0.3c0.1,0,0.2,0,0.3,0c0.6-0.1,1.1-0.1,1.7-0.1c0.6,0,1.1,0,1.7,0c0.5,0,1.1,0.1,1.6,0.3
			c0.3,0.1,0.5,0.2,0.7,0.4c0.2,0.2,0.4,0.4,0.5,0.6c-0.1-0.3-0.2-0.5-0.4-0.8c-0.2-0.2-0.4-0.4-0.7-0.5c-0.3-0.1-0.5-0.2-0.8-0.3
			c-0.3-0.1-0.6-0.2-0.8-0.2c-0.6-0.1-1.1-0.2-1.7-0.2c-0.6,0-1.2,0-1.7,0c-0.2,0-0.3,0-0.5,0c1.2-0.1,2.3-0.2,3.4-0.1
			c2.5,0.2,4.2,1,4.6,2.1c0.4,1.2-0.5,2.8-2.4,4.4c-2,1.7-5,3.2-8.3,4.3c-3.3,1.1-6.6,1.6-9.3,1.4c-2.5-0.2-4.2-1-4.6-2.1
			C58.1,68.2,59,66.6,61,65c0.7-0.6,1.6-1.2,2.5-1.7c-0.2,0.2-0.5,0.3-0.7,0.5c-0.9,0.7-1.8,1.4-2.6,2.3c-0.2,0.2-0.4,0.5-0.5,0.7
			c-0.2,0.2-0.3,0.5-0.4,0.8c-0.1,0.3-0.2,0.6-0.2,0.9c0,0.3,0,0.6,0.1,0.8c-0.1-0.3-0.1-0.6,0-0.8c0.1-0.3,0.2-0.5,0.3-0.8
			c0.3-0.5,0.6-0.9,1-1.3c0.4-0.4,0.8-0.7,1.3-1.1c0.5-0.3,0.9-0.6,1.4-0.9c0.3-0.2,0.6-0.3,0.9-0.5c0,0.1,0,0.2,0,0.2
			c0,0,0,0.1,0,0.1l0.1,0.1l0,0.1c0,0,0,0,0,0.1l0.1,0.1c0.1,0.1,0.1,0.1,0.2,0.2l0.1,0.1c0,0,0.1,0.1,0.1,0.1
			c0.3,0.2,0.6,0.3,0.9,0.3c0.3,0.1,0.6,0.1,0.9,0.1c-0.3-0.1-0.6-0.1-0.9-0.3c-0.3-0.1-0.5-0.3-0.7-0.5c0,0,0,0-0.1-0.1l-0.1-0.1
			c0-0.1-0.1-0.1-0.1-0.2l0-0.1c0,0,0,0,0,0l0,0l0-0.1c0,0,0-0.1,0-0.1c0-0.2,0-0.4,0.1-0.5c0,0,0,0,0,0c0,0.1,0,0.1,0,0.2
			c0,0.3,0.2,0.6,0.4,0.7c0.2,0.2,0.4,0.3,0.6,0.4c0.2,0.1,0.5,0.1,0.7,0.1c0.4,0,0.9,0,1.3,0c0.4-0.1,0.9-0.1,1.3-0.2
			c-0.4,0-0.9,0.1-1.3,0.1c-0.4,0-0.8-0.1-1.2-0.2c-0.2-0.1-0.4-0.1-0.6-0.2c-0.2-0.1-0.3-0.2-0.4-0.3c-0.1-0.1-0.1-0.1-0.1-0.2
			c0-0.1,0-0.1,0-0.2c0-0.1,0-0.2,0.1-0.4c0,0,0-0.1,0-0.1l0,0c0.1,0,0.2-0.1,0.2-0.1c0.1,0,0.2-0.1,0.3-0.1c0,0,0.1,0,0.1-0.1
			c0.1,0,0.2-0.1,0.3-0.1c0-0.1,0-0.2,0.1-0.3c0-0.1,0.1-0.1,0.1-0.2c0.1-0.2,0.2-0.4,0.3-0.6c0,0,0,0,0,0c0,0,0,0,0,0c0,0,0,0,0,0
			c0-0.1,0.1-0.2,0.1-0.3c0,0,0,0,0-0.1c0-0.1,0-0.2,0.1-0.3l0,0c0,0,0,0,0,0c0-0.2,0-0.3,0-0.5c-0.1-0.7-0.4-1.9-1.2-3.8
			c-0.1-0.2-0.2-0.4-0.3-0.7l0.5-0.2l-0.6-0.1c0,0,0,0,0-0.1l-0.2-0.4l0,0L65,55c0,0,0,0,0,0c0,0,0,0,0,0l-0.2,0
			C64.3,54.9,63.9,54.7,63.9,54.5C63.9,54.5,63.9,54.5,63.9,54.5z"/>
		<path class="st0" d="M76.7,67.4c-0.5,0.3-1,0.5-1.5,0.7c-0.5,0.2-1,0.4-1.5,0.6c-0.5,0.2-1.1,0.4-1.6,0.6
			c-1.1,0.3-2.1,0.6-3.2,0.9c-1.1,0.2-2.2,0.4-3.3,0.4c-0.6,0-1.1,0-1.7,0c-0.6,0-1.1-0.1-1.7-0.2c-0.5-0.1-1.1-0.3-1.6-0.5
			c-0.2-0.1-0.5-0.3-0.7-0.5c-0.2-0.2-0.4-0.4-0.4-0.7c0.1,0.3,0.2,0.5,0.4,0.8c0.2,0.2,0.4,0.4,0.6,0.6c0.5,0.3,1,0.5,1.6,0.7
			c1.1,0.3,2.3,0.4,3.4,0.3c0.6,0,1.1-0.1,1.7-0.1c0.6-0.1,1.1-0.2,1.7-0.3c1.1-0.2,2.2-0.5,3.3-0.8c2.2-0.7,4.3-1.6,6.1-2.9
			c0.9-0.6,1.8-1.4,2.6-2.2c0.1-0.1,0.2-0.2,0.3-0.3l0.1-0.2l0.1-0.2c0.1-0.1,0.1-0.2,0.2-0.4l0.1-0.2c0,0,0-0.1,0-0.1l0-0.1
			c0.2-0.5,0.3-1.1,0.1-1.7c0.1,0.3,0.1,0.6,0,0.8c0,0.3-0.1,0.5-0.2,0.8l0,0.1c0,0,0,0.1,0,0.1l-0.1,0.2c-0.1,0.1-0.1,0.2-0.2,0.3
			L81.2,64L81,64.2c-0.1,0.1-0.2,0.2-0.3,0.3c-0.4,0.4-0.8,0.8-1.2,1.1c-0.4,0.3-0.9,0.7-1.4,1C77.7,66.9,77.2,67.2,76.7,67.4z"/>
		<path class="st0" d="M74,65.9c0.2-0.1,0.4-0.2,0.6-0.3c0.2-0.1,0.4-0.2,0.6-0.3c0.4-0.2,0.8-0.5,1.2-0.7c0.4-0.3,0.8-0.5,1.1-0.9
			c0.2-0.2,0.3-0.4,0.5-0.6c0.1-0.1,0.1-0.2,0.1-0.4c0-0.1,0-0.2-0.1-0.2c0-0.1-0.1-0.1-0.2-0.2c-0.1-0.1-0.3-0.1-0.4-0.1
			c-0.1,0-0.2,0-0.4,0c-0.2,0-0.5,0-0.7,0.1c0.2,0,0.5,0.1,0.7,0.1c0.1,0,0.2,0,0.3,0.1c0.1,0,0.2,0.1,0.3,0.1
			c0.1,0.1,0.1,0.1,0.1,0.2c0,0.1,0,0.2-0.1,0.3c-0.1,0.2-0.3,0.3-0.4,0.5c-0.3,0.3-0.7,0.6-1.1,0.8c-0.2,0.1-0.4,0.2-0.6,0.4
			c-0.2,0.1-0.4,0.2-0.6,0.3c-0.2,0.1-0.4,0.2-0.6,0.3c-0.2,0.1-0.4,0.2-0.6,0.3c-0.4,0.2-0.8,0.4-1.3,0.5c-0.9,0.3-1.7,0.6-2.6,0.9
			c0.9-0.1,1.8-0.3,2.7-0.6C73.1,66.2,73.6,66,74,65.9z"/>
		<path class="st0" d="M68.3,57.8c0.1,0,0.3,0,0.4,0c0.2,0.1,0.3,0.1,0.5,0.2c-0.1-0.2-0.2-0.4-0.4-0.5c-0.1-0.1-0.2-0.1-0.3-0.1
			c-0.1,0-0.1,0-0.2,0l-0.1,0l0,0l0,0l-0.1,0c0,0-0.1,0-0.1,0c-0.1,0-0.1,0.1-0.1,0.1c0,0-0.1,0.1-0.1,0.1c0,0,0,0.1-0.1,0.2
			c-0.1,0.2-0.1,0.4,0,0.6c0.1-0.2,0.2-0.4,0.3-0.5C68.1,57.9,68.2,57.8,68.3,57.8z"/>
		<path class="st0" d="M74.7,43.3c0.4-0.9,0.6-1.8,0.8-2.7c0.2-0.9,0.3-1.9,0.3-2.8c0-1.9-0.3-3.8-0.9-5.6c-0.3-0.9-0.7-1.8-1.1-2.6
			c-0.4-0.8-0.9-1.7-1.4-2.4c0.4,0.9,0.7,1.7,1.1,2.6c0.3,0.9,0.6,1.7,0.9,2.6c0.5,1.8,0.7,3.6,0.7,5.4c0,0.2,0,0.5,0,0.7
			c0,0.2,0,0.5-0.1,0.7L75,39.7l-0.1,0.7c-0.2,0.9-0.4,1.8-0.7,2.7c-0.6,1.7-1.5,3.4-2.4,5C73,46.6,74,45,74.7,43.3z"/>
		<path class="st0" d="M65.5,48.8c0.8-0.3,1.6-0.5,2.4-0.6c0.8-0.1,1.7-0.2,2.5-0.2c-0.8-0.3-1.7-0.3-2.6-0.3
			c-0.9,0-1.7,0.2-2.5,0.5c-0.8,0.3-1.6,0.6-2.3,1.1c-0.7,0.5-1.4,1-1.9,1.7c0.7-0.5,1.4-0.9,2.2-1.3C63.9,49.3,64.7,49,65.5,48.8z"
			/>
		<path class="st0" d="M63.1,6.7l0.7-0.1C63.5,6.6,63.1,6.7,63.1,6.7z"/>
		<path class="st0" d="M51.7,27C51.7,26.9,51.7,26.9,51.7,27C51.7,26.9,51.7,26.9,51.7,27C51.7,26.9,51.7,26.9,51.7,27
			C51.7,26.9,51.7,27,51.7,27z"/>
		<path class="st0" d="M64.3,26.6L64.3,26.6L64.3,26.6C64.4,26.6,64.4,26.6,64.3,26.6L64.3,26.6C64.4,26.6,64.4,26.6,64.3,26.6
			C64.4,26.6,64.4,26.6,64.3,26.6C64.3,26.6,64.3,26.6,64.3,26.6C64.3,26.6,64.3,26.6,64.3,26.6C64.3,26.6,64.3,26.6,64.3,26.6
			C64.3,26.6,64.3,26.6,64.3,26.6z"/>
		<polygon class="st0" points="57.3,49.6 57.3,49.6 57.3,49.6 		"/>
		<polygon class="st0" points="57.3,49.7 57.3,49.7 57.3,49.7 		"/>
		<path class="st0" d="M56.9,49.5L56.9,49.5C56.9,49.5,56.9,49.5,56.9,49.5C56.9,49.5,56.9,49.5,56.9,49.5z"/>
		<polygon class="st0" points="65.9,45.9 65.9,45.9 66,45.9 		"/>
		<polygon class="st0" points="66,45.9 66,45.9 66,45.9 		"/>
		<polygon class="st0" points="66.1,46.3 66.1,46.3 66.1,46.3 66.1,46.3 		"/>
	</g>
	<g>
		<g>
			<path class="st0" d="M58.8,35.9c-0.1-0.2,0.1-0.5,0.3-0.5c0.2-0.1,0.5,0.1,0.5,0.3c0.1,0.2-0.1,0.5-0.3,0.5
				C59.1,36.3,58.8,36.1,58.8,35.9"/>
		</g>
		<g>
			<path class="st0" d="M58.3,35c0-0.1,0-0.3,0.2-0.4c0.1,0,0.3,0,0.4,0.2c0,0.1,0,0.3-0.2,0.4C58.5,35.3,58.4,35.2,58.3,35"/>
		</g>
		<g>
			<path class="st0" d="M58.1,34.2c-0.1-0.2,0-0.4,0.2-0.4c0.2-0.1,0.4,0,0.4,0.2c0.1,0.2,0,0.4-0.2,0.4
				C58.3,34.5,58.1,34.4,58.1,34.2"/>
		</g>
		<g>
			<path class="st0" d="M59.8,34.1c-0.1-0.2-0.4-0.2-0.6-0.1c-0.2,0.1-0.2,0.4-0.1,0.6c0.1,0.2,0.4,0.2,0.6,0.1
				C59.9,34.6,59.9,34.3,59.8,34.1"/>
		</g>
		<g>
			<path class="st0" d="M59.4,33.2c-0.1-0.1-0.3-0.2-0.4-0.1c-0.1,0.1-0.2,0.3-0.1,0.4c0.1,0.1,0.3,0.2,0.4,0.1
				C59.4,33.5,59.4,33.4,59.4,33.2"/>
		</g>
		<g>
			<path class="st0" d="M58.9,32.5c-0.1-0.2-0.3-0.2-0.5-0.1c-0.2,0.1-0.2,0.3-0.1,0.5c0.1,0.2,0.3,0.2,0.5,0.1
				C58.9,32.9,59,32.7,58.9,32.5"/>
		</g>
		<g>
			<path class="st0" d="M59.5,37.3c-0.1,0-0.1,0-0.1,0c0,0,0,0,0,0.1c0,0.1,0.3,0.4,0.7,0.4c0.2,0.1,0.5,0.1,0.6,0.1
				c0.3,0,1.4-0.2,2.2-0.7c0.1,0,0.1-0.1,0.1-0.1c0.2-0.1,0.4-0.3,0.6-0.6c0.1-0.1,0.1-0.2,0.1-0.4c0,0,0-0.1,0-0.1l-1-3.2
				c0.1,0,0.1,0,0.1,0c0.1,0,0.2-0.1,0.3-0.1c1.1-0.4,1.5-1,1.5-1.1c0.4-0.6,0.5-1.5,0.2-2.4c-0.2-0.9-0.8-1.7-1.5-2.2
				c-0.4-0.3-0.8-0.3-1.3-0.2c-1.1,0.3-1.9,1.6-1.9,1.6l0,0l0,0c0,0-0.2,0.4-0.8,0.8c-0.5,0.4-1.5,0.9-3.1,1.2c0,0,0,0,0,0l-0.8-2.5
				c2.8-0.5,4-1.8,4.4-2.3c0.1,0.1,0.1,0.1,0.2,0.4c0.1,0.2,0,0.4,0,0.4c0,0.1,0,0.1,0.1,0.2c0.1,0.1,0.1,0.1,0.2,0.1
				c0,0,0.1,0,0.1,0c0.1,0,0.2-0.1,0.2-0.2c0,0,0-0.3-0.1-0.7c-0.1-0.4-0.3-0.6-0.7-0.8c0,0,0,0,0,0c-0.1-0.1-0.2-0.1-0.4-0.1
				c-0.1,0-0.2,0.1-0.2,0.2c-0.1,0.1-0.3,0.5-0.9,0.9c-0.6,0.5-1.7,1-3.5,1.3l-0.5,0.1l2.9,9.1c0.1,0.2,0.3,0.3,0.5,0.3
				c0.2-0.1,0.3-0.3,0.3-0.5l-1.6-5c3.2-0.5,4-1.9,4.3-2.4c0.2-0.3,0.7-1.1,1.5-1.3c0.3-0.1,0.5,0,0.7,0.1c0.6,0.4,1,1,1.2,1.7
				c0.2,0.7,0.1,1.4-0.2,1.8l0,0l0,0c0,0-0.1,0.2-0.4,0.4c-0.2,0.1-0.5,0.3-0.9,0.4c-0.1,0-0.2,0-0.3,0.1l-0.6-1.9
				c-0.1-0.2-0.3-0.3-0.5-0.3C61.1,30,61,30.2,61,30.4l0.6,1.9c-0.6,0.2-1.2,0.3-1.5,0.5c0,0.2-0.1,0.3,0.2,0.4
				c0.3,0,0.4-0.1,0.7-0.2c0.2,0,0.6-0.1,0.8-0.1c0,0,0.2,0.8,0.3,1.1l0.3,0.6C62.6,35.1,63.6,37.3,59.5,37.3z"/>
		</g>
	</g>
</g>
<path class="st0" d="M47.6,39.2c0,0,11.6-0.1,16.8-0.4c5.2-0.3,8.4-9.4,9.5-9.3l2,5.9c0,0,2.2,12.5-10.2,16.1
	C53.2,55.1,47.6,39.2,47.6,39.2L47.6,39.2z"/>
</svg>
