<?xml version="1.0" encoding="utf-8"?>
<!-- Generator: Adobe Illustrator 21.0.2, SVG Export Plug-In . SVG Version: 6.00 Build 0)  -->
<svg version="1.1" id="Calque_1" xmlns="http://www.w3.org/2000/svg" xmlns:xlink="http://www.w3.org/1999/xlink" x="0px" y="0px"
	 viewBox="0 0 100 100" style="enable-background:new 0 0 100 100;" xml:space="preserve">
<path d="M77.1,42c0-4.3-1.7-8.4-4.8-11.3c-6.2-5.9-15.9-6.2-22.5-0.6c-6.5-5.5-16.2-5.2-22.4,0.7c-3,2.9-4.6,7-4.6,11.1
	c0,4.4,1.8,8.7,4.9,11.8c-0.6,1.7-0.1,3.6,1.2,4.9c0.9,0.9,2.2,1.4,3.5,1.4c0.2,0,0.4,0,0.6,0c-0.2,1.5,0.3,2.9,1.4,3.9
	c0.9,0.9,2.2,1.4,3.5,1.4c0.2,0,0.4,0,0.6,0c-0.2,1.5,0.3,2.9,1.4,3.9c0.9,0.9,2.2,1.4,3.5,1.4c0.2,0,0.4-0.1,0.6-0.2
	c0,0.2,0,0.3,0,0.5c0.1,2.7,2.3,4.9,5.1,4.8c1.2,0,2.3-0.5,3.2-1.3l3.3-3.3c0.4-0.4,0.7-0.8,0.9-1.3c1.7,0.4,3.5,0,4.7-1.2
	c1.1-1,1.6-2.5,1.4-3.9c0.1,0,0.3,0,0.4,0c1.3,0,2.6-0.5,3.5-1.4c1.1-1,1.6-2.5,1.4-4c1.5,0.2,3-0.3,4.1-1.4c1.5-1.4,1.9-3.6,1-5.4
	C75.6,49.8,77.1,46,77.1,42z M30.5,57.1c-1-1-1.1-2.6-0.1-3.7c0,0,0,0,0.1-0.1l3.3-3.3c1.1-1,2.8-1,3.9,0c1,1,1.1,2.6,0.1,3.7
	c0,0,0,0-0.1,0.1l-3.3,3.3C33.3,58.2,31.6,58.2,30.5,57.1z M35.9,62.4c-1-1-1.1-2.6-0.1-3.7c0,0,0,0,0.1-0.1l3.3-3.3
	c1.1-1.1,2.8-1.1,3.9,0c1,1,1.1,2.6,0.1,3.7c0,0,0,0-0.1,0.1l-3.3,3.3C38.7,63.4,37,63.4,35.9,62.4z M45.2,67.7c-1.1,1-2.8,1-3.9,0
	c-1-1-1.1-2.6-0.1-3.7c0,0,0,0,0.1-0.1l3.3-3.3c1.1-1,2.8-1,3.9,0c1,1,1.1,2.6,0.1,3.7c0,0,0,0-0.1,0.1L45.2,67.7z M54,69.8
	l-3.3,3.3c-1.1,1-2.8,1-3.9,0c-0.5-0.5-0.8-1.2-0.8-2c0-0.7,0.2-1.4,0.7-1.9L50,66c1.1-1,2.9-1,4,0.1c1,1,1.1,2.6,0.1,3.6
	C54.1,69.7,54,69.8,54,69.8L54,69.8z M70.3,56.7c-1.1,1-2.8,1-3.9,0c-0.1-0.1-0.2-0.2-0.4-0.2l-7.3-7.1c-0.5-0.4-1.1-0.3-1.5,0.1
	c-0.3,0.4-0.3,1,0,1.4l7.6,7.4c1,1,1.1,2.6,0.1,3.6c0,0-0.1,0.1-0.1,0.1c-1,0.9-2.5,1-3.5,0.3c-0.1-0.1-0.1-0.2-0.2-0.3l-7.6-7.4
	c-0.4-0.4-1.1-0.5-1.5-0.1c-0.4,0.4-0.5,1.1-0.1,1.5c0,0,0.1,0.1,0.1,0.1l7.3,7.1c0.1,0.1,0.1,0.2,0.2,0.3c0.1,0.1,0.2,0.2,0.3,0.3
	c0.4,0.4,0.6,1,0.6,1.6c0,0.7-0.3,1.4-0.8,1.9c-0.7,0.6-1.6,0.9-2.6,0.7l0,0c0-1.3-0.5-2.5-1.4-3.4c-1.1-1-2.6-1.5-4.1-1.4
	c0.3-1.5-0.3-3-1.4-4c-1.1-1-2.5-1.5-4-1.3c0.2-1.5-0.3-2.9-1.4-3.9c-1.1-1-2.5-1.5-4-1.3c0.2-1.5-0.3-2.9-1.4-3.9
	c-1.9-1.9-5-1.9-6.9,0L29,51.9l0,0c-2.5-2.7-3.9-6.3-3.9-9.9c0-3.6,1.4-7.1,3.9-9.6c5.3-5.1,13.6-5.4,19.2-0.8l-6.6,6.5
	c-1.9,1.6-2.2,4.5-0.6,6.5c0.1,0.1,0.2,0.3,0.4,0.4c1.9,1.9,5,1.9,6.9,0l7.1-6.9l7.6,7.6l0,0l7.3,7.3C71.4,53.9,71.4,55.5,70.3,56.7
	C70.4,56.6,70.4,56.6,70.3,56.7z M71.5,51l-7-6.9l-8.4-8.3c-0.1,0-0.1-0.1-0.2-0.1c-0.1-0.1-0.1-0.1-0.2-0.1c-0.1,0-0.1,0-0.2,0
	c-0.1-0.1-0.3-0.1-0.4,0c-0.1,0-0.1,0-0.2,0c-0.1,0-0.1,0.1-0.2,0.1c-0.1,0-0.1,0.1-0.2,0.1l-7.8,7.6c-1.1,1.1-2.8,1.1-3.9,0
	c-0.5-0.5-0.8-1.1-0.8-1.8c0-0.7,0.4-1.4,0.9-1.9l7.5-7.3l0,0c5.6-5.4,14.5-5.5,20.2-0.2C76,37.3,76.3,45.6,71.5,51z"/>
</svg>
