<?xml version="1.0" encoding="utf-8"?>
<!-- Generator: Adobe Illustrator 25.3.1, SVG Export Plug-In . SVG Version: 6.00 Build 0)  -->
<svg version="1.1" id="Layer_1" xmlns="http://www.w3.org/2000/svg" xmlns:xlink="http://www.w3.org/1999/xlink" x="0px" y="0px"
	 viewBox="0 0 83.9 76.3" style="enable-background:new 0 0 83.9 76.3;" xml:space="preserve">
<style type="text/css">
	.st0{fill:#FFFFFF;}
</style>
<g>
	<circle class="st0" cx="18.1" cy="51.3" r="1.3"/>
	<path class="st0" d="M23.2,50c-0.1-0.3-0.1-0.5-0.2-0.8c0,0,0,0,0,0c-0.6-1.5-2-2.6-3.6-3c-0.1,0-0.1,0-0.2-0.1
		c-0.3-0.1-0.7-0.1-1-0.1c-2.9,0-5.2,2.4-5.2,5.2s2.4,5.2,5.2,5.2s5.2-2.4,5.2-5.2c0-0.4,0-0.7-0.1-1C23.2,50.2,23.2,50.1,23.2,50z
		 M18.1,55.2c-2.2,0-3.9-1.8-3.9-3.9s1.8-3.9,3.9-3.9s3.9,1.8,3.9,3.9S20.3,55.2,18.1,55.2z"/>
	<path class="st0" d="M26,29c0,2.2-1.8,3.9-3.9,3.9h-9.3c-0.9,0-1.8-0.3-2.5-0.9L6.3,50.1v1.2h3.9c0-4.3,3.5-7.9,7.9-7.9h10.5v-21
		H26V29z M23.3,38.2h-2.6c-0.7,0-1.3-0.6-1.3-1.3s0.6-1.3,1.3-1.3h2.6c0.7,0,1.3,0.6,1.3,1.3S24.1,38.2,23.3,38.2z"/>
	<path class="st0" d="M25.8,49.6C25.8,49.6,25.8,49.7,25.8,49.6c0.1,0.3,0.1,0.5,0.1,0.7c0,0.1,0,0.1,0,0.2c0,0.3,0,0.5,0,0.8h2.6
		V46H24C24.9,47.1,25.5,48.3,25.8,49.6z"/>
	<path class="st0" d="M14.9,19.8h9.8h3.9v-1.3v-3.9h-4.8C20,14.6,16.7,16.6,14.9,19.8z"/>
	<path class="st0" d="M2.4,34v17.2h1.3V50c0-0.1,0-0.2,0-0.3l3.5-16.5L2.4,34z"/>
	<path class="st0" d="M12.7,30.3H22c0.7,0,1.3-0.6,1.3-1.3v-6.6h-9.6l-2.3,6.1c-0.2,0.4-0.1,0.8,0.1,1.2
		C11.9,30.1,12.3,30.3,12.7,30.3z"/>
	<path class="st0" d="M67.9,50.9c0-0.1,0-0.1-0.1-0.2c0-0.1-0.1-0.1-0.1-0.2c-0.1-0.1-0.1-0.2-0.2-0.2c0,0-0.1-0.1-0.2-0.1
		c-0.1-0.1-0.1-0.1-0.2-0.1C67,50,66.8,50,66.6,50h-0.2c0.1,0.4,0.2,0.8,0.2,1.3c0,2.2-1.8,3.9-3.9,3.9c-2.2,0-3.9-1.8-3.9-3.9
		c0-0.5,0.1-0.9,0.2-1.3h-0.2c-0.2,0-0.3,0-0.5,0.1c-0.1,0-0.1,0.1-0.2,0.1c-0.1,0-0.1,0.1-0.2,0.1c-0.1,0-0.1,0.1-0.1,0.2
		c-0.1,0.1-0.1,0.1-0.2,0.2c0,0.1,0,0.1-0.1,0.2c0,0.1-0.1,0.2-0.1,0.3l0,0.1c0,2.9,2.4,5.2,5.2,5.2c2.9,0,5.2-2.3,5.2-5.2
		c0,0,0-0.1,0-0.1C67.9,51.1,67.9,51,67.9,50.9z"/>
	<path class="st0" d="M52.2,51.3h2.6c0-0.2,0-0.3,0-0.5c0-0.1,0-0.1,0-0.2c0-0.1,0-0.2,0-0.2c0-0.2,0.1-0.4,0.2-0.5
		c0,0,0-0.1,0.1-0.1c0.1-0.2,0.2-0.4,0.3-0.6c0,0,0-0.1,0.1-0.1c0.1-0.2,0.3-0.3,0.4-0.5c0,0,0-0.1,0.1-0.1c0.1-0.1,0.3-0.3,0.5-0.4
		c0,0,0.1-0.1,0.1-0.1c0.2-0.1,0.3-0.2,0.5-0.3c0.1,0,0.1-0.1,0.2-0.1c0.2-0.1,0.4-0.1,0.5-0.2c0.1,0,0.1,0,0.2-0.1
		c0.2,0,0.5-0.1,0.8-0.1h7.9c0.3,0,0.5,0,0.8,0.1c0.1,0,0.1,0,0.2,0.1c0.2,0,0.4,0.1,0.5,0.2c0.1,0,0.1,0.1,0.2,0.1
		c0.2,0.1,0.3,0.2,0.5,0.3c0.1,0,0.1,0.1,0.2,0.1c0.1,0.1,0.3,0.2,0.4,0.3c0,0,0.1,0.1,0.1,0.1c0.1,0.1,0.2,0.3,0.3,0.4
		c0,0.1,0.1,0.1,0.1,0.2c0.1,0.1,0.2,0.3,0.2,0.5c0,0.1,0.1,0.2,0.1,0.2c0.1,0.2,0.1,0.3,0.1,0.5c0,0.1,0,0.2,0.1,0.3
		c0,0.1,0,0.1,0,0.2c0,0,0,0.1,0,0.3c0,0.1,0,0.1,0,0.2h1.3V46H52.2V51.3z"/>
	<path class="st0" d="M75.8,36.9c0,0.7-0.6,1.3-1.3,1.3h-3.9v1.3c0,0.7-0.6,1.3-1.3,1.3c-0.7,0-1.3-0.6-1.3-1.3v-1.3H44.3v1.3
		c0,0.7-0.6,1.3-1.3,1.3c-0.7,0-1.3-0.6-1.3-1.3v-1.3h-3.9c-0.7,0-1.3-0.6-1.3-1.3v-17h-5.2v23.6h9.2h10.5h22.3H81V19.8h-5.2V36.9z"
		/>
	<rect x="74.5" y="46" class="st0" width="6.6" height="5.2"/>
	<rect x="31.2" y="46" class="st0" width="7.9" height="5.2"/>
	<polygon class="st0" points="31.2,14.6 31.2,17.2 37.8,17.2 74.5,17.2 81,17.2 81,14.6 	"/>
	<circle class="st0" cx="62.7" cy="51.3" r="1.3"/>
	<rect x="41.7" y="46" class="st0" width="7.9" height="5.2"/>
</g>
<g>
	<g transform="translate(-417.000000, -56.000000)">
		<path class="st0" d="M476.9,86.6c-0.7-0.9-0.5-2.3,0.5-2.9l3.4-2.5c0.9-0.7,2.3-0.5,2.9,0.5c0.3,0.4,0.4,0.9,0.4,1.4
			c1.1,0.3,2.1,0.9,2.8,1.8c1.6,2.1,1.1,5.2-1,6.7c-2.1,1.6-5.2,1.1-6.7-1c-0.7-0.9-1-2.1-0.9-3.2C477.6,87.3,477.2,87,476.9,86.6z
			 M482.6,87.2c0.8-0.6,1-1.7,0.4-2.5s-1.7-1-2.5-0.4c-0.8,0.6-1,1.7-0.4,2.5C480.7,87.7,481.8,87.8,482.6,87.2z M483.5,90l1.5-1.1
			c0.3-0.2,0.3-0.6,0.1-0.8c-0.2-0.3-0.6-0.3-0.8-0.1l-1.5,1.1c-0.3,0.2-0.3,0.6-0.1,0.8S483.2,90.2,483.5,90z M474.3,79.4
			c-0.5-0.3-0.9-0.7-1.3-1.2s-0.7-1.1-0.8-1.6c0-0.2,0.1-0.5,0.2-0.6l2.4-1.8c0.2-0.1,0.4-0.2,0.6,0c0.5,0.3,0.9,0.7,1.3,1.2
			s0.7,1.1,0.8,1.6c0,0.2-0.1,0.5-0.2,0.6l2.1,2.9l-2.4,1.8l-2.1-2.9C474.8,79.5,474.5,79.5,474.3,79.4z M481.9,86.3
			c-0.3,0.2-0.6,0.1-0.8-0.1c-0.2-0.3-0.1-0.6,0.1-0.8s0.6-0.1,0.8,0.1S482.1,86.1,481.9,86.3z"/>
	</g>
</g>
<path class="st0" d="M44.6,25.8v10.5h1.8c0.3,0,0.6,0.3,0.6,0.6s-0.3,0.6-0.6,0.6h-4.9c-0.3,0-0.6-0.3-0.6-0.6s0.3-0.6,0.6-0.6h1.8
	v-9.5l-1.8,1.4c-0.2,0.2-0.6,0.2-0.8,0l-0.6-0.6c-0.2-0.2-0.2-0.6,0-0.8l3.6-4.5c0-0.1,0-0.2,0-0.4c0-1.5,1.2-2.8,2.8-2.8
	s2.8,1.2,2.8,2.8s-1.2,2.8-2.8,2.8c-0.1,0-0.2,0-0.4,0L44.6,25.8z"/>
</svg>
