<?xml version="1.0" encoding="utf-8"?>
<!-- Generator: Adobe Illustrator 27.0.0, SVG Export Plug-In . SVG Version: 6.00 Build 0)  -->
<svg version="1.1" id="Layer_1" xmlns="http://www.w3.org/2000/svg" xmlns:xlink="http://www.w3.org/1999/xlink" x="0px" y="0px"
	 viewBox="0 0 122 88.1" style="enable-background:new 0 0 122 88.1;" xml:space="preserve">
<style type="text/css">
	.st0{fill:#FFFFFF;}
	.st1{fill:#07222D;}
</style>
<g>
	<g>
		<path class="st0" d="M36.31,31.77c0-1.47,1.04-3.28,2.32-4.02l22.04-12.72c1.28-0.74,3.36-0.74,4.64,0l22.04,12.72
			c1.28,0.74,2.32,2.54,2.32,4.02v25.45c0,1.47-1.04,3.28-2.32,4.02L65.31,73.96c-1.28,0.74-3.36,0.74-4.64,0L38.63,61.23
			c-1.28-0.74-2.32-2.54-2.32-4.02V31.77z"/>
	</g>
	<g>
		<path class="st0" d="M63,84.49c-0.96,0-1.91-0.22-2.66-0.65l-30.1-17.38c-1.49-0.86-2.65-2.88-2.65-4.6V27.11
			c0-1.72,1.17-3.74,2.65-4.6l30.1-17.38c1.49-0.86,3.82-0.86,5.31,0l30.1,17.38c1.49,0.86,2.65,2.88,2.65,4.6v34.76
			c0,1.72-1.17,3.74-2.65,4.6l-30.1,17.38C64.91,84.28,63.95,84.49,63,84.49z M62.99,5.83c-0.72,0-1.45,0.16-1.98,0.47l-30.1,17.38
			c-1.08,0.62-1.98,2.2-1.98,3.44v34.76c0,1.24,0.91,2.82,1.98,3.44l30.1,17.38c1.08,0.62,2.89,0.62,3.97,0l30.1-17.38
			c1.08-0.62,1.98-2.2,1.98-3.44V27.11c0-1.24-0.91-2.82-1.98-3.44L64.98,6.3C64.44,5.99,63.72,5.83,62.99,5.83z"/>
	</g>
	<g>
		<path class="st0" d="M104.81,48.9h-9.7c-0.37,0-0.67-0.3-0.67-0.67s0.3-0.67,0.67-0.67h9.7c0.37,0,0.67,0.3,0.67,0.67
			S105.18,48.9,104.81,48.9z"/>
	</g>
	<g>
		<path class="st0" d="M104.81,44.44h-9.7c-0.37,0-0.67-0.3-0.67-0.67s0.3-0.67,0.67-0.67h9.7c0.37,0,0.67,0.3,0.67,0.67
			S105.18,44.44,104.81,44.44z"/>
	</g>
	<g>
		<path class="st0" d="M104.81,39.98h-9.7c-0.37,0-0.67-0.3-0.67-0.67s0.3-0.67,0.67-0.67h9.7c0.37,0,0.67,0.3,0.67,0.67
			S105.18,39.98,104.81,39.98z"/>
	</g>
	<g>
		<path class="st0" d="M30.88,48.9h-9.7c-0.37,0-0.67-0.3-0.67-0.67s0.3-0.67,0.67-0.67h9.7c0.37,0,0.67,0.3,0.67,0.67
			S31.25,48.9,30.88,48.9z"/>
	</g>
	<g>
		<path class="st0" d="M30.88,44.44h-9.7c-0.37,0-0.67-0.3-0.67-0.67s0.3-0.67,0.67-0.67h9.7c0.37,0,0.67,0.3,0.67,0.67
			S31.25,44.44,30.88,44.44z"/>
	</g>
	<g>
		<path class="st0" d="M30.88,39.98h-9.7c-0.37,0-0.67-0.3-0.67-0.67s0.3-0.67,0.67-0.67h9.7c0.37,0,0.67,0.3,0.67,0.67
			S31.25,39.98,30.88,39.98z"/>
	</g>
	<g>
		<path class="st1" d="M80.4,17.71c-0.15,0-0.3-0.04-0.43-0.12c-0.39-0.24-0.51-0.74-0.28-1.13c0.15-0.24,0.42-0.4,0.71-0.4
			c0.15,0,0.3,0.04,0.43,0.12c0.39,0.24,0.51,0.74,0.28,1.13C80.96,17.56,80.69,17.71,80.4,17.71"/>
	</g>
	<g>
		<path class="st0" d="M80.4,16.4c0.09,0,0.17,0.02,0.25,0.07c0.23,0.14,0.3,0.44,0.16,0.67c-0.09,0.15-0.25,0.24-0.42,0.24
			c-0.09,0-0.17-0.02-0.25-0.07c-0.23-0.14-0.3-0.44-0.16-0.67C80.07,16.48,80.24,16.4,80.4,16.4 M80.4,15.73
			c-0.4,0-0.78,0.21-0.99,0.56c-0.16,0.26-0.21,0.58-0.13,0.88c0.07,0.3,0.26,0.55,0.52,0.72c0.18,0.11,0.39,0.17,0.6,0.17
			c0.4,0,0.78-0.21,0.99-0.56c0.33-0.55,0.16-1.26-0.39-1.59C80.82,15.79,80.61,15.73,80.4,15.73"/>
	</g>
	<g>
		<path class="st1" d="M81.81,16.33c-0.15,0-0.3-0.04-0.43-0.12c-0.19-0.11-0.32-0.29-0.37-0.51c-0.05-0.21-0.02-0.44,0.1-0.62
			c0.15-0.25,0.42-0.4,0.71-0.4c0.15,0,0.3,0.04,0.43,0.12c0.39,0.24,0.51,0.74,0.28,1.13C82.37,16.18,82.1,16.33,81.81,16.33"/>
	</g>
	<g>
		<path class="st0" d="M81.81,15.01c0.09,0,0.17,0.02,0.25,0.07c0.23,0.14,0.3,0.44,0.16,0.67c-0.09,0.15-0.25,0.24-0.42,0.24
			c-0.09,0-0.17-0.02-0.25-0.07c-0.23-0.14-0.3-0.44-0.16-0.67C81.49,15.1,81.65,15.01,81.81,15.01 M81.81,14.34
			c-0.4,0-0.78,0.21-0.99,0.56c-0.16,0.26-0.21,0.58-0.13,0.88c0.07,0.3,0.26,0.55,0.52,0.72c0.18,0.11,0.39,0.17,0.6,0.17
			c0.4,0,0.78-0.21,0.99-0.56c0.16-0.26,0.21-0.58,0.13-0.88c-0.07-0.3-0.26-0.55-0.52-0.72C82.23,14.4,82.03,14.34,81.81,14.34"/>
	</g>
	<g>
		<path class="st1" d="M83.36,14.91c-0.2,0-0.4-0.07-0.55-0.21c-0.16-0.15-0.26-0.35-0.28-0.57c-0.01-0.22,0.06-0.43,0.21-0.6
			c0.16-0.18,0.38-0.28,0.62-0.28c0.2,0,0.4,0.07,0.55,0.21c0.34,0.3,0.37,0.82,0.07,1.16C83.82,14.81,83.59,14.91,83.36,14.91"/>
	</g>
	<g>
		<path class="st0" d="M83.36,13.6c0.12,0,0.23,0.04,0.33,0.12c0.2,0.18,0.22,0.49,0.04,0.69c-0.1,0.11-0.23,0.16-0.37,0.16
			c-0.12,0-0.23-0.04-0.32-0.12c-0.2-0.18-0.22-0.49-0.04-0.69C83.09,13.65,83.22,13.6,83.36,13.6 M83.36,12.93
			c-0.33,0-0.65,0.14-0.87,0.39c-0.21,0.23-0.31,0.53-0.29,0.84c0.02,0.31,0.16,0.59,0.39,0.8c0.21,0.19,0.49,0.29,0.77,0.29
			c0.33,0,0.65-0.14,0.87-0.39c0.21-0.23,0.31-0.53,0.29-0.84c-0.02-0.31-0.15-0.59-0.39-0.8C83.92,13.03,83.64,12.93,83.36,12.93"
			/>
	</g>
	<g>
		<path class="st1" d="M85,13.8c-0.2,0-0.4-0.07-0.55-0.21c-0.16-0.15-0.26-0.35-0.28-0.57c-0.01-0.22,0.06-0.43,0.21-0.6
			c0.16-0.18,0.38-0.28,0.62-0.28c0.2,0,0.4,0.07,0.55,0.21c0.16,0.15,0.26,0.35,0.27,0.57c0.01,0.22-0.06,0.43-0.21,0.6
			C85.46,13.7,85.23,13.8,85,13.8L85,13.8z"/>
	</g>
	<g>
		<path class="st0" d="M85,12.49c0.12,0,0.23,0.04,0.33,0.12c0.2,0.18,0.22,0.49,0.04,0.69c-0.1,0.11-0.23,0.16-0.37,0.16
			c-0.12,0-0.23-0.04-0.32-0.12c-0.2-0.18-0.22-0.49-0.04-0.69C84.73,12.55,84.86,12.49,85,12.49 M85,11.82
			c-0.33,0-0.65,0.14-0.87,0.39c-0.21,0.23-0.31,0.53-0.29,0.84c0.02,0.31,0.16,0.59,0.39,0.8c0.21,0.19,0.49,0.29,0.77,0.29
			c0.33,0,0.65-0.14,0.87-0.39c0.21-0.23,0.31-0.53,0.29-0.84c-0.02-0.31-0.15-0.59-0.39-0.8C85.56,11.93,85.28,11.82,85,11.82"/>
	</g>
	<g>
		<path class="st1" d="M64.31,57.83c-0.62,0-1.19-0.31-1.53-0.82L47.18,33.6l8.03-4.81l13.29,24.8c0.47,0.87,0.17,1.94-0.68,2.45
			l-2.56,1.54C64.97,57.74,64.64,57.83,64.31,57.83"/>
	</g>
	<g>
		<path class="st0" d="M55.05,29.34l13.1,24.43c0.36,0.68,0.13,1.53-0.53,1.93l-2.56,1.53c-0.23,0.14-0.49,0.21-0.74,0.21
			c-0.47,0-0.93-0.23-1.21-0.64L47.73,33.73L55.05,29.34z M55.36,28.24l-0.71,0.42l-7.32,4.39l-0.71,0.42l0.46,0.69l15.37,23.07
			c0.42,0.62,1.11,1,1.86,1c0.4,0,0.8-0.11,1.15-0.32l2.56-1.54c1.02-0.61,1.38-1.92,0.82-2.97L55.75,28.97L55.36,28.24z"/>
	</g>
	<g>
		<polygon class="st1" points="68.77,58.48 66.96,59.56 65.27,57.72 67.94,56.12 		"/>
	</g>
	<g>
		<path class="st1" d="M46.67,33.54c-2.81-0.21-5.35-1.78-6.79-4.19l-0.09-0.14c-2.46-4.1-1.12-9.43,2.98-11.89l0.14-0.09
			C44.27,16.42,45.8,16,47.37,16c3.03,0,5.89,1.61,7.44,4.21l0.09,0.14c1.45,2.41,1.63,5.39,0.49,7.96l-0.05,0.11l-8.54,5.12
			L46.67,33.54z"/>
	</g>
	<g>
		<path class="st0" d="M47.37,16.39c2.81,0,5.56,1.43,7.11,4.02l0.09,0.14c1.44,2.4,1.52,5.23,0.47,7.6l-8.33,4.99
			c-2.59-0.19-5.05-1.6-6.48-4L40.13,29c-2.35-3.92-1.08-9,2.84-11.35l0.14-0.09C44.45,16.77,45.92,16.39,47.37,16.39 M47.37,15.6
			c-1.63,0-3.24,0.45-4.65,1.29l-0.14,0.09c-2.08,1.24-3.54,3.22-4.13,5.57c-0.59,2.35-0.23,4.78,1.02,6.86l0.09,0.14
			c1.51,2.52,4.16,4.16,7.1,4.38l0.25,0.02l0.21-0.13l8.33-4.99l0.21-0.13l0.1-0.23c1.19-2.69,1-5.8-0.51-8.32l-0.09-0.14
			C53.52,17.29,50.54,15.6,47.37,15.6"/>
	</g>
	<g>
		<path class="st1" d="M74.06,65.67c-1.54,0-3.11-0.82-4.65-2.43c-1.05-1.09-1.72-2.19-1.8-2.32l-0.62-1.03l2.06-1.23l0.62,1.03
			c0.11,0.17,0.67,1.05,1.5,1.92c0.73,0.76,1.82,1.66,2.9,1.66c1.05-0.02,2.02-0.9,2.94-2.6l0.57-1.06l2.11,1.14l-0.57,1.06
			c-0.82,1.52-1.76,2.6-2.8,3.22c-0.68,0.41-1.4,0.62-2.16,0.64L74.06,65.67z"/>
	</g>
	<g>
		<path class="st0" d="M68.92,59.2l0.41,0.69c0.01,0.01,0.61,1.01,1.55,1.99c0.79,0.82,1.97,1.78,3.18,1.78c0.02,0,0.04,0,0.05,0
			c1.15-0.03,2.24-0.97,3.23-2.81l0.38-0.71l1.42,0.77l-0.38,0.71c-0.79,1.46-1.67,2.49-2.65,3.07c-0.62,0.37-1.27,0.57-1.96,0.58
			c-0.03,0-0.06,0-0.09,0c-1.43,0-2.9-0.78-4.37-2.31c-1.05-1.1-1.72-2.2-1.75-2.25l-0.41-0.69L68.92,59.2z M69.19,58.13l-0.67,0.4
			l-1.38,0.83l-0.67,0.4l0.4,0.67l0.41,0.69c0.03,0.05,0.74,1.22,1.85,2.39c1.62,1.69,3.28,2.55,4.93,2.55l0.11,0
			c0.82-0.02,1.61-0.25,2.35-0.69c1.1-0.66,2.09-1.79,2.94-3.37l0.38-0.71l0.37-0.69l-0.69-0.37l-1.42-0.77l-0.69-0.37l-0.37,0.69
			l-0.38,0.71c-0.58,1.08-1.5,2.37-2.56,2.39l-0.03,0c-0.73,0-1.65-0.55-2.61-1.54c-0.86-0.9-1.44-1.84-1.44-1.85l-0.41-0.69
			L69.19,58.13z"/>
	</g>
	<g>
		<path class="st0" d="M45.7,30.99c-0.2,0.12-0.47,0.06-0.59-0.15c-0.12-0.2-0.06-0.47,0.15-0.59c0.2-0.12,0.47-0.06,0.59,0.15
			C45.97,30.61,45.91,30.87,45.7,30.99"/>
	</g>
	<g>
		<path class="st0" d="M48.35,29.41c-0.2,0.12-0.47,0.06-0.59-0.15c-0.12-0.2-0.06-0.47,0.15-0.59c0.2-0.12,0.47-0.06,0.59,0.15
			C48.62,29.02,48.56,29.29,48.35,29.41"/>
	</g>
	<g>
		<path class="st0" d="M51,27.82c-0.2,0.12-0.47,0.06-0.59-0.15c-0.12-0.2-0.06-0.47,0.15-0.59c0.2-0.12,0.47-0.06,0.59,0.15
			C51.27,27.43,51.21,27.7,51,27.82"/>
	</g>
	<g>
		<path class="st0" d="M53.65,26.23c-0.2,0.12-0.47,0.06-0.59-0.15c-0.12-0.2-0.06-0.47,0.15-0.59c0.2-0.12,0.47-0.06,0.59,0.15
			C53.92,25.85,53.86,26.11,53.65,26.23"/>
	</g>
	<g>
		<path class="st0" d="M43.57,30.5c-0.2,0.12-0.47,0.06-0.59-0.15c-0.12-0.2-0.06-0.47,0.15-0.59c0.2-0.12,0.47-0.06,0.59,0.15
			C43.84,30.12,43.78,30.38,43.57,30.5"/>
	</g>
	<g>
		<path class="st0" d="M46.22,28.92c-0.2,0.12-0.47,0.06-0.59-0.15c-0.12-0.2-0.06-0.47,0.15-0.59c0.2-0.12,0.47-0.06,0.59,0.15
			C46.49,28.53,46.43,28.8,46.22,28.92"/>
	</g>
	<g>
		<path class="st0" d="M48.87,27.33c-0.2,0.12-0.47,0.06-0.59-0.15c-0.12-0.2-0.06-0.47,0.15-0.59c0.2-0.12,0.47-0.06,0.59,0.15
			C49.14,26.94,49.08,27.21,48.87,27.33"/>
	</g>
	<g>
		<path class="st0" d="M51.52,25.74c-0.2,0.12-0.47,0.06-0.59-0.15c-0.12-0.2-0.06-0.47,0.15-0.59c0.2-0.12,0.47-0.06,0.59,0.15
			C51.79,25.36,51.73,25.62,51.52,25.74"/>
	</g>
	<g>
		<path class="st0" d="M54.17,24.15c-0.2,0.12-0.47,0.06-0.59-0.15c-0.12-0.2-0.06-0.47,0.15-0.59c0.2-0.12,0.47-0.06,0.59,0.15
			C54.44,23.77,54.38,24.03,54.17,24.15"/>
	</g>
	<g>
		<path class="st0" d="M47.74,31.44c-0.2,0.12-0.47,0.06-0.59-0.15c-0.12-0.2-0.06-0.47,0.15-0.59c0.2-0.12,0.47-0.06,0.59,0.15
			C48,31.05,47.94,31.32,47.74,31.44"/>
	</g>
	<g>
		<path class="st0" d="M50.38,29.85c-0.2,0.12-0.47,0.06-0.59-0.15c-0.12-0.2-0.06-0.47,0.15-0.59c0.2-0.12,0.47-0.06,0.59,0.15
			C50.65,29.47,50.59,29.73,50.38,29.85"/>
	</g>
	<g>
		<path class="st0" d="M53.03,28.26c-0.2,0.12-0.47,0.06-0.59-0.15c-0.12-0.2-0.06-0.47,0.15-0.59c0.2-0.12,0.47-0.06,0.59,0.15
			C53.3,27.88,53.24,28.14,53.03,28.26"/>
	</g>
	<g>
		<path class="st0" d="M44.19,28.47c-0.2,0.12-0.47,0.06-0.59-0.15c-0.12-0.2-0.06-0.47,0.15-0.59c0.2-0.12,0.47-0.06,0.59,0.15
			C44.46,28.09,44.39,28.35,44.19,28.47"/>
	</g>
	<g>
		<path class="st0" d="M46.84,26.88c-0.2,0.12-0.47,0.06-0.59-0.15c-0.12-0.2-0.06-0.47,0.15-0.59c0.2-0.12,0.47-0.06,0.59,0.15
			C47.11,26.5,47.04,26.76,46.84,26.88"/>
	</g>
	<g>
		<path class="st0" d="M49.49,25.3c-0.2,0.12-0.47,0.06-0.59-0.15c-0.12-0.2-0.06-0.47,0.15-0.59c0.2-0.12,0.47-0.06,0.59,0.15
			C49.76,24.91,49.69,25.18,49.49,25.3"/>
	</g>
	<g>
		<path class="st0" d="M52.14,23.71c-0.2,0.12-0.47,0.06-0.59-0.15c-0.12-0.2-0.06-0.47,0.15-0.59c0.2-0.12,0.47-0.06,0.59,0.15
			C52.41,23.32,52.34,23.59,52.14,23.71"/>
	</g>
	<g>
		<path class="st0" d="M42.06,27.98c-0.2,0.12-0.47,0.06-0.59-0.15c-0.12-0.2-0.06-0.47,0.15-0.59c0.2-0.12,0.47-0.06,0.59,0.15
			C42.33,27.6,42.27,27.86,42.06,27.98"/>
	</g>
	<g>
		<path class="st0" d="M44.71,26.39c-0.2,0.12-0.47,0.06-0.59-0.15c-0.12-0.2-0.06-0.47,0.15-0.59c0.2-0.12,0.47-0.06,0.59,0.15
			C44.98,26.01,44.92,26.27,44.71,26.39"/>
	</g>
	<g>
		<path class="st0" d="M47.36,24.81c-0.2,0.12-0.47,0.06-0.59-0.15c-0.12-0.2-0.06-0.47,0.15-0.59c0.2-0.12,0.47-0.06,0.59,0.15
			C47.63,24.42,47.56,24.69,47.36,24.81"/>
	</g>
	<g>
		<path class="st0" d="M50.01,23.22c-0.2,0.12-0.47,0.06-0.59-0.15c-0.12-0.2-0.06-0.47,0.15-0.59c0.2-0.12,0.47-0.06,0.59,0.15
			C50.28,22.83,50.21,23.1,50.01,23.22"/>
	</g>
	<g>
		<path class="st0" d="M52.66,21.63c-0.2,0.12-0.47,0.06-0.59-0.15c-0.12-0.2-0.06-0.47,0.15-0.59c0.2-0.12,0.47-0.06,0.59,0.15
			C52.93,21.25,52.86,21.51,52.66,21.63"/>
	</g>
	<g>
		<path class="st0" d="M42.68,25.95c-0.2,0.12-0.47,0.06-0.59-0.15c-0.12-0.2-0.06-0.47,0.15-0.59c0.2-0.12,0.47-0.06,0.59,0.15
			C42.95,25.56,42.88,25.83,42.68,25.95"/>
	</g>
	<g>
		<path class="st0" d="M45.33,24.36c-0.2,0.12-0.47,0.06-0.59-0.15c-0.12-0.2-0.06-0.47,0.15-0.59c0.2-0.12,0.47-0.06,0.59,0.15
			C45.6,23.98,45.53,24.24,45.33,24.36"/>
	</g>
	<g>
		<path class="st0" d="M47.98,22.77c-0.2,0.12-0.47,0.06-0.59-0.15c-0.12-0.2-0.06-0.47,0.15-0.59c0.2-0.12,0.47-0.06,0.59,0.15
			C48.25,22.39,48.18,22.65,47.98,22.77"/>
	</g>
	<g>
		<path class="st0" d="M50.63,21.19c-0.2,0.12-0.47,0.06-0.59-0.15c-0.12-0.2-0.06-0.47,0.15-0.59c0.2-0.12,0.47-0.06,0.59,0.15
			C50.9,20.8,50.83,21.07,50.63,21.19"/>
	</g>
	<g>
		<path class="st0" d="M40.55,25.46c-0.2,0.12-0.47,0.06-0.59-0.15c-0.12-0.2-0.06-0.47,0.15-0.59c0.2-0.12,0.47-0.06,0.59,0.15
			C40.82,25.07,40.75,25.34,40.55,25.46"/>
	</g>
	<g>
		<path class="st0" d="M43.2,23.87c-0.2,0.12-0.47,0.06-0.59-0.15c-0.12-0.2-0.06-0.47,0.15-0.59c0.2-0.12,0.47-0.06,0.59,0.15
			C43.47,23.49,43.4,23.75,43.2,23.87"/>
	</g>
	<g>
		<path class="st0" d="M45.85,22.28c-0.2,0.12-0.47,0.06-0.59-0.15c-0.12-0.2-0.06-0.47,0.15-0.59c0.2-0.12,0.47-0.06,0.59,0.15
			C46.12,21.9,46.05,22.16,45.85,22.28"/>
	</g>
	<g>
		<path class="st0" d="M48.5,20.7c-0.2,0.12-0.47,0.06-0.59-0.15c-0.12-0.2-0.06-0.47,0.15-0.59c0.2-0.12,0.47-0.06,0.59,0.15
			C48.77,20.31,48.7,20.57,48.5,20.7"/>
	</g>
	<g>
		<path class="st0" d="M51.15,19.11c-0.2,0.12-0.47,0.06-0.59-0.15c-0.12-0.2-0.06-0.47,0.15-0.59c0.2-0.12,0.47-0.06,0.59,0.15
			C51.42,18.72,51.35,18.99,51.15,19.11"/>
	</g>
	<g>
		<path class="st0" d="M41.17,23.43c-0.2,0.12-0.47,0.06-0.59-0.15c-0.12-0.2-0.06-0.47,0.15-0.59c0.2-0.12,0.47-0.06,0.59,0.15
			C41.44,23.04,41.37,23.31,41.17,23.43"/>
	</g>
	<g>
		<path class="st0" d="M43.82,21.84c-0.2,0.12-0.47,0.06-0.59-0.15c-0.12-0.2-0.06-0.47,0.15-0.59c0.2-0.12,0.47-0.06,0.59,0.15
			C44.09,21.45,44.02,21.72,43.82,21.84"/>
	</g>
	<g>
		<path class="st0" d="M46.47,20.25c-0.2,0.12-0.47,0.06-0.59-0.15c-0.12-0.2-0.06-0.47,0.15-0.59c0.2-0.12,0.47-0.06,0.59,0.15
			C46.74,19.87,46.67,20.13,46.47,20.25"/>
	</g>
	<g>
		<path class="st0" d="M49.12,18.66c-0.2,0.12-0.47,0.06-0.59-0.15c-0.12-0.2-0.06-0.47,0.15-0.59c0.2-0.12,0.47-0.06,0.59,0.15
			C49.39,18.28,49.32,18.54,49.12,18.66"/>
	</g>
	<g>
		<path class="st0" d="M41.69,21.35c-0.2,0.12-0.47,0.06-0.59-0.15c-0.12-0.2-0.06-0.47,0.15-0.59c0.2-0.12,0.47-0.06,0.59,0.15
			C41.96,20.96,41.89,21.23,41.69,21.35"/>
	</g>
	<g>
		<path class="st0" d="M44.34,19.76c-0.2,0.12-0.47,0.06-0.59-0.15c-0.12-0.2-0.06-0.47,0.15-0.59c0.2-0.12,0.47-0.06,0.59,0.15
			C44.61,19.38,44.54,19.64,44.34,19.76"/>
	</g>
	<g>
		<path class="st0" d="M46.99,18.17c-0.2,0.12-0.47,0.06-0.59-0.15c-0.12-0.2-0.06-0.47,0.15-0.59c0.2-0.12,0.47-0.06,0.59,0.15
			C47.26,17.79,47.19,18.05,46.99,18.17"/>
	</g>
	<g>
		<path class="st0" d="M53.07,34.31l-0.01,0.01c-0.35,0.21-0.46,0.66-0.25,1l1.14,1.9c0.21,0.35,0.66,0.46,1,0.25l0.01-0.01
			c0.35-0.21,0.46-0.66,0.25-1l-1.14-1.9C53.86,34.22,53.41,34.1,53.07,34.31"/>
	</g>
	<g>
		<path class="st0" d="M53.07,34.31l-0.01,0.01c-0.35,0.21-0.46,0.66-0.25,1l1.14,1.9c0.21,0.35,0.66,0.46,1,0.25l0.01-0.01
			c0.35-0.21,0.46-0.66,0.25-1l-1.14-1.9C53.86,34.22,53.41,34.1,53.07,34.31"/>
	</g>
	<g>
		<path class="st1" d="M54.44,35.63l-0.57-0.95c-0.14-0.23-0.45-0.31-0.68-0.17l-0.01,0.01c-0.23,0.14-0.31,0.45-0.17,0.68
			l0.57,0.95L54.44,35.63z"/>
	</g>
	<g>
		<path class="st1" d="M62.18,69.28c-2.2,0-4.88-0.95-7.95-2.81c-6.51-3.95-7.28-7.47-6.77-9.72c0.67-2.98,3.75-4.8,4.91-4.92
			c1.71-0.18,3.53-1.16,3.52-3.4c-0.01-2.7,1.27-6.88,4.83-7.3c0.33-0.04,0.64-0.06,0.92-0.06c0.96,0,1.59,0.25,1.88,0.75
			c0.36,0.63-0.02,1.31-0.06,1.39l-0.11,0.19l-0.21,0.04c-0.15,0.03-1.52,0.35-1.31,2.27c0.08,0.7,0.49,1.26,1.22,1.69l16.89-27.11
			c-0.15-0.07-0.3-0.17-0.39-0.36c-0.17-0.33-0.04-0.71,0.07-0.96c0.34-0.8,6.27-6.04,8.26-6.04c0.21,0,0.4,0.05,0.56,0.14
			c0.67,0.41,0.83,0.9,0.85,1.24c0.05,0.92-0.87,1.72-1.56,2.23l-0.08,0.06c-0.66,0.7-0.96,1.76-1.22,2.69
			c-0.29,1.01-0.53,1.88-1.23,2.19c-0.24,0.1-0.47,0.15-0.71,0.15c-0.29,0-0.52-0.07-0.72-0.13c-0.1-0.03-0.21-0.06-0.27-0.06
			c-0.06,0-0.17,0.17-0.19,0.21c-0.51,0.86-13.14,22.26-16.53,28c0.56,0.41,1.1,0.62,1.62,0.62c0.24,0,0.48-0.05,0.72-0.14
			c1.8-0.7,1.46-2.06,1.41-2.21l-0.06-0.2l0.11-0.18c0.04-0.07,0.46-0.7,1.16-0.7c0.76,0,1.4,0.71,1.95,2.17
			c1.27,3.36-1.84,6.42-4.24,7.66c-1.99,1.03-2.02,3.1-1.39,4.69c0.4,1.01,0.25,3.54-1.06,5.47C65.93,68.43,64.26,69.28,62.18,69.28
			L62.18,69.28z M64.05,66.52c-0.06,0-0.14,0.08-0.16,0.16c-0.02,0.08,0.01,0.12,0.07,0.16c0.02,0.01,0.05,0.03,0.08,0.03
			c0.06,0,0.14-0.08,0.16-0.16c0.02-0.08-0.01-0.12-0.07-0.16C64.12,66.54,64.08,66.52,64.05,66.52 M65.7,64.13
			c-0.23,0-0.42,0.22-0.48,0.42c-0.06,0.22,0.01,0.39,0.21,0.51c0.09,0.05,0.17,0.08,0.25,0.08c0.23,0,0.42-0.22,0.48-0.42
			c0.04-0.15,0.04-0.36-0.21-0.51C65.87,64.16,65.78,64.13,65.7,64.13 M57.82,59.01c-0.15,0-0.3,0.08-0.38,0.21
			c-0.06,0.1-0.08,0.22-0.05,0.33c0.03,0.11,0.1,0.21,0.2,0.27l1.39,0.84c0.07,0.04,0.15,0.06,0.23,0.06c0.15,0,0.3-0.08,0.38-0.21
			c0.06-0.1,0.08-0.22,0.05-0.33c-0.03-0.11-0.1-0.21-0.2-0.27l-1.39-0.84C57.98,59.03,57.9,59.01,57.82,59.01"/>
	</g>
	<g>
		<path class="st0" d="M87.89,13.39c0.13,0,0.23,0.02,0.32,0.08c1.77,1.07-0.74,2.67-0.85,2.79c-1.48,1.56-1.3,4.35-2.33,4.8
			c-0.2,0.09-0.37,0.12-0.53,0.12c-0.4,0-0.71-0.19-0.98-0.19c-0.2,0-0.39,0.1-0.59,0.44C82.41,22.3,69.25,44.59,66.2,49.76
			c0.58,0.5,1.36,0.98,2.23,0.98c0.29,0,0.58-0.05,0.88-0.17c2.28-0.89,1.69-2.78,1.69-2.78s0.3-0.48,0.77-0.48
			c0.41,0,0.96,0.39,1.52,1.87c1.18,3.12-1.88,5.98-4.02,7.08c-2.14,1.1-2.36,3.38-1.61,5.27c0.55,1.4-0.11,7.29-5.46,7.29
			c-1.92,0-4.43-0.76-7.71-2.74c-12.43-7.54-4.08-13.57-2.05-13.78c2.03-0.21,3.94-1.45,3.93-3.86c-0.01-2.41,1.11-6.45,4.43-6.84
			c0.33-0.04,0.62-0.06,0.86-0.06c2.26,0,1.42,1.44,1.42,1.44s-1.95,0.34-1.69,2.78c0.13,1.16,0.99,1.85,1.85,2.25l17.43-27.97
			c-0.32-0.19-0.97-0.02-0.6-0.89C80.31,18.57,86.05,13.39,87.89,13.39 M61.17,59.13c1.23,0,2.43-0.62,3.12-1.76
			c1.04-1.72,0.49-3.96-1.23-5.01c-0.59-0.36-1.24-0.53-1.89-0.53c-1.23,0-2.43,0.62-3.12,1.76c-1.04,1.72-0.5,3.96,1.23,5.01
			C59.87,58.96,60.53,59.13,61.17,59.13 M59.21,61.18c0.31,0,0.6-0.15,0.77-0.43c0.26-0.42,0.12-0.98-0.3-1.24l-1.39-0.84
			c-0.15-0.09-0.31-0.13-0.46-0.13c-0.3,0-0.6,0.15-0.77,0.43c-0.26,0.42-0.12,0.98,0.3,1.24l1.39,0.84
			C58.89,61.14,59.05,61.18,59.21,61.18 M65.69,65.61c0.84,0,1.4-1.25,0.51-1.8c-0.17-0.1-0.34-0.15-0.49-0.15
			c-0.84,0-1.4,1.25-0.51,1.8C65.36,65.57,65.53,65.61,65.69,65.61 M64.04,67.34c0.55,0,0.92-0.82,0.33-1.18
			c-0.11-0.07-0.22-0.1-0.32-0.1c-0.55,0-0.92,0.82-0.33,1.18C63.83,67.31,63.94,67.34,64.04,67.34 M61.99,67.49
			c0.29,0,0.49-0.44,0.18-0.63c-0.06-0.04-0.12-0.05-0.17-0.05c-0.29,0-0.49,0.44-0.18,0.63C61.88,67.48,61.94,67.49,61.99,67.49
			 M61.17,52.49c1.65,0,2.99,1.34,2.99,2.99c0,1.65-1.34,2.99-2.99,2.99c-1.65,0-2.99-1.34-2.99-2.99
			C58.18,53.83,59.52,52.49,61.17,52.49 M87.89,12.47L87.89,12.47c-2.32,0-8.35,5.53-8.68,6.32c-0.08,0.19-0.34,0.79-0.06,1.35
			c0.05,0.11,0.12,0.2,0.18,0.27L62.92,46.74c-0.55-0.46-0.6-0.91-0.62-1.09c-0.17-1.53,0.81-1.75,0.93-1.77l0.42-0.08l0.22-0.37
			c0.26-0.45,0.43-1.21,0.06-1.85c-0.37-0.65-1.14-0.98-2.28-0.98c-0.29,0-0.62,0.02-0.97,0.06c-3.87,0.46-5.25,4.89-5.24,7.76
			c0.01,1.93-1.6,2.78-3.1,2.94c-1.44,0.15-4.61,2.15-5.32,5.28c-0.54,2.4,0.23,6.12,6.98,10.22c3.15,1.91,5.9,2.88,8.19,2.88
			c2.82,0,4.4-1.44,5.22-2.66c1.4-2.06,1.54-4.8,1.1-5.9c-0.56-1.41-0.54-3.23,1.17-4.11c2.55-1.32,5.84-4.6,4.46-8.24
			c-0.23-0.61-0.93-2.46-2.38-2.46c-0.72,0-1.28,0.49-1.55,0.91l-0.23,0.36l0.13,0.41c0.07,0.24,0.19,1.12-1.14,1.64
			c-0.18,0.07-0.36,0.11-0.55,0.11c-0.35,0-0.7-0.13-1-0.3l16.26-27.54c0.2,0.06,0.48,0.14,0.82,0.14c0.3,0,0.61-0.06,0.9-0.19
			c0.9-0.39,1.19-1.41,1.5-2.48c0.24-0.86,0.52-1.84,1.1-2.48l0.03-0.02c0.49-0.37,1.8-1.35,1.74-2.63
			c-0.02-0.45-0.23-1.1-1.07-1.61C88.46,12.54,88.19,12.47,87.89,12.47 M65.67,64.67c0.01-0.02,0.02-0.05,0.04-0.06l0.01,0
			C65.71,64.64,65.69,64.66,65.67,64.67L65.67,64.67z"/>
	</g>
</g>
</svg>
